<svg width="1920" height="1080" viewBox="0 0 1920 1080" fill="none" xmlns="http://www.w3.org/2000/svg">
<g clip-path="url(#clip0_64_1119)">
<path d="M-442 924.274H2360.85" stroke="#A1A1A1" stroke-opacity="0.2" stroke-width="0.601702"/>
<path d="M52.9213 923.975V100.717" stroke="#A1A1A1" stroke-opacity="0.2" stroke-width="0.601702"/>
<path d="M217.8 923.975V100.717" stroke="#A1A1A1" stroke-opacity="0.2" stroke-width="0.601702"/>
<path d="M382.666 923.975V100.717" stroke="#A1A1A1" stroke-opacity="0.2" stroke-width="0.601702"/>
<path d="M547.546 923.975V100.717" stroke="#A1A1A1" stroke-opacity="0.2" stroke-width="0.601702"/>
<path d="M712.412 923.973V100.717" stroke="#A1A1A1" stroke-opacity="0.2" stroke-width="0.601702"/>
<path d="M877.279 923.973V100.717" stroke="#A1A1A1" stroke-opacity="0.2" stroke-width="0.601702"/>
<path d="M1042.16 923.973V100.717" stroke="#A1A1A1" stroke-opacity="0.2" stroke-width="0.601702"/>
<path d="M1207.03 923.973V100.717" stroke="#A1A1A1" stroke-opacity="0.2" stroke-width="0.601702"/>
<path d="M1371.9 923.973V100.717" stroke="#A1A1A1" stroke-opacity="0.2" stroke-width="0.601702"/>
<path d="M1536.78 923.973V100.717" stroke="#A1A1A1" stroke-opacity="0.2" stroke-width="0.601702"/>
<path d="M1701.65 923.975V100.717" stroke="#A1A1A1" stroke-opacity="0.2" stroke-width="0.601702"/>
<path d="M1866.53 923.975V100.717" stroke="#A1A1A1" stroke-opacity="0.2" stroke-width="0.601702"/>
<path d="M-442 759.622H2360.85" stroke="#A1A1A1" stroke-opacity="0.2" stroke-width="0.601702"/>
<path d="M-442 594.972H2360.85" stroke="#A1A1A1" stroke-opacity="0.2" stroke-width="0.601702"/>
<path d="M-442 430.321H2360.85" stroke="#A1A1A1" stroke-opacity="0.2" stroke-width="0.601702"/>
<path d="M-442 265.669H2360.85" stroke="#A1A1A1" stroke-opacity="0.2" stroke-width="0.601702"/>
<path d="M-442 101.017H2360.85" stroke="#A1A1A1" stroke-opacity="0.2" stroke-width="0.601702"/>
<path opacity="0.1" d="M712.112 759.322H549.594V597.022H712.112V759.322Z" fill="url(#paint0_linear_64_1119)"/>
<path opacity="0.1" d="M217.501 430.019H54.9828L54.9828 267.719H217.501L217.501 430.019Z" fill="url(#paint1_linear_64_1119)"/>
<path opacity="0.1" d="M1206 265H1042V101L1206 101V265Z" fill="url(#paint2_linear_64_1119)"/>
<path opacity="0.1" d="M712.996 428.584H546.577V265.891H712.996V428.584Z" fill="url(#paint3_linear_64_1119)"/>
<path opacity="0.1" d="M1701.36 759.322H1538.84V597.022H1701.36V759.322Z" fill="url(#paint4_linear_64_1119)"/>
<g opacity="0.7">
<g filter="url(#filter0_f_64_1119)">
<path d="M1485.99 225.622C1485.99 159.095 1533.14 105.164 1591.29 105.164H1752.75C1810.9 105.164 1858.05 159.095 1858.05 225.622V410.324C1858.05 476.851 1817.48 468.639 1759.31 468.639L1490.61 597.419C1294.94 674.61 1273.15 738.316 1485.99 410.324V225.622Z" fill="url(#paint5_linear_64_1119)"/>
</g>
<g filter="url(#filter1_f_64_1119)">
<path d="M1719.29 54.9108C1719.29 9.73356 1751.26 -26.8898 1790.69 -26.8898H1900.19C1939.64 -26.8898 1971.61 9.73356 1971.61 54.9108V180.339C1971.61 225.516 1944.1 219.939 1904.65 219.939L1681.39 353.109C584.242 1182.2 1574.94 403.07 1719.29 180.339V54.9108Z" fill="url(#paint6_linear_64_1119)"/>
</g>
<g filter="url(#filter2_f_64_1119)">
<path d="M1836.14 35.4035C1836.14 -19.7463 1875.2 -64.4541 1923.39 -64.4541H2057.2C2105.38 -64.4541 2144.45 -19.7463 2144.45 35.4035V188.519C2144.45 243.668 2110.83 236.861 2062.63 236.861L1789.83 399.427C449.237 1411.53 1659.75 460.418 1836.14 188.519V35.4035Z" fill="url(#paint7_linear_64_1119)"/>
</g>
<g filter="url(#filter3_f_64_1119)">
<path d="M1855.29 12.826C1855.29 -29.8551 1885.52 -64.4543 1922.81 -64.4543H2026.33C2063.63 -64.4543 2093.86 -29.8551 2093.86 12.826V131.322C2093.86 174.003 2067.83 168.734 2030.55 168.734L1819.46 294.545C782.14 1077.82 1718.81 341.746 1855.29 131.322V12.826Z" fill="url(#paint8_linear_64_1119)"/>
</g>
<g filter="url(#filter4_f_64_1119)">
<path d="M1664.9 -162.104C1658.13 -228.178 1699.46 -288.028 1757.22 -295.782L1917.57 -317.31C1975.33 -325.064 2027.65 -277.787 2034.43 -211.714L2053.25 -28.2702C2060.03 37.8038 2018.89 35.0578 1961.12 42.8134L1707.37 206.543C1520.9 309.297 1505.75 375.475 1683.72 21.3391L1664.9 -162.104Z" fill="url(#paint9_linear_64_1119)"/>
</g>
<g filter="url(#filter5_f_64_1119)">
<path d="M1879.22 -362.759C1874.62 -407.629 1902.64 -448.266 1941.8 -453.523L2050.56 -468.123C2089.74 -473.383 2125.22 -441.272 2129.82 -396.403L2142.6 -271.83C2147.21 -226.961 2119.31 -228.83 2080.14 -223.571L1871.96 -61.54C866.761 908.187 1771.32 2.27471 1892 -238.186L1879.22 -362.759Z" fill="url(#paint10_linear_64_1119)"/>
</g>
<g filter="url(#filter6_f_64_1119)">
<path d="M1993.28 -397.714C1987.66 -452.488 2021.91 -502.1 2069.77 -508.525L2202.66 -526.366C2250.52 -532.791 2293.88 -493.597 2299.5 -438.823L2315.1 -286.752C2320.72 -231.978 2286.63 -234.255 2238.76 -227.829L1984.38 -29.9965C756.041 1153.96 1861.4 47.9226 2008.88 -245.642L1993.28 -397.714Z" fill="url(#paint11_linear_64_1119)"/>
</g>
<g filter="url(#filter7_f_64_1119)">
<path d="M2010.01 -422.691C2005.66 -465.081 2032.16 -503.475 2069.2 -508.448L2172.01 -522.251C2209.05 -527.224 2242.6 -496.891 2246.95 -454.501L2259.02 -336.812C2263.37 -294.423 2236.99 -296.185 2199.95 -291.213L2003.12 -138.114C1052.68 778.129 1907.97 -77.8162 2022.08 -305.003L2010.01 -422.691Z" fill="url(#paint12_linear_64_1119)"/>
</g>
</g>
<g opacity="0.7">
<g filter="url(#filter8_f_64_1119)">
<path d="M253.688 62.0173C253.688 20.3724 225.794 -13.3876 191.388 -13.3876H95.8682C61.463 -13.3876 33.5683 20.3724 33.5683 62.0173V177.639C33.5683 219.284 57.5743 214.143 91.9863 214.143L250.957 294.758C366.718 343.078 379.609 382.957 253.688 177.639V62.0173Z" fill="url(#paint13_linear_64_1119)"/>
</g>
<g filter="url(#filter9_f_64_1119)">
<path d="M115.663 -44.8455C115.663 -73.1259 96.7472 -96.0516 73.42 -96.0516H8.63736C-14.6997 -96.0516 -33.6156 -73.1259 -33.6156 -44.8455V33.6707C-33.6156 61.951 -17.3387 58.4603 5.99832 58.4603L138.084 141.823C787.179 660.821 201.065 173.098 115.663 33.6707V-44.8455Z" fill="url(#paint14_linear_64_1119)"/>
</g>
<g filter="url(#filter10_f_64_1119)">
<path d="M46.5356 -57.0569C46.5356 -91.5799 23.4218 -119.566 -5.08585 -119.566H-84.2479C-112.755 -119.566 -135.869 -91.5799 -135.869 -57.0569V38.7912C-135.869 73.3144 -115.977 69.053 -87.4624 69.053L73.9331 170.817C867.051 804.382 150.889 208.997 46.5356 38.7912V-57.0569Z" fill="url(#paint15_linear_64_1119)"/>
</g>
<g filter="url(#filter11_f_64_1119)">
<path d="M35.2031 -71.1901C35.2031 -97.9079 17.3195 -119.567 -4.74567 -119.567H-65.9901C-88.0552 -119.567 -105.939 -97.9079 -105.939 -71.1901V2.98692C-105.939 29.7046 -90.5409 26.4067 -68.4826 26.4067L56.4033 105.162C670.099 595.48 115.945 134.709 35.2031 2.98692V-71.1901Z" fill="url(#paint16_linear_64_1119)"/>
</g>
<g filter="url(#filter12_f_64_1119)">
<path d="M147.839 -180.694C151.849 -222.055 127.395 -259.521 93.2247 -264.374L-1.64452 -277.851C-35.8153 -282.705 -66.7706 -253.11 -70.7805 -211.749L-81.9137 -96.9156C-85.9237 -55.5542 -61.5863 -57.2732 -27.4088 -52.4183L122.717 50.0746C233.035 114.397 241.999 155.823 136.706 -65.8608L147.839 -180.694Z" fill="url(#paint17_linear_64_1119)"/>
</g>
<g filter="url(#filter13_f_64_1119)">
<path d="M21.0445 -306.302C23.7677 -334.389 7.18823 -359.827 -15.98 -363.118L-80.3211 -372.258C-103.499 -375.55 -124.494 -355.45 -127.217 -327.362L-134.777 -249.381C-137.5 -221.293 -120.998 -222.464 -97.82 -219.171L25.3388 -117.742C620.036 489.294 84.8788 -77.795 13.4843 -228.32L21.0445 -306.302Z" fill="url(#paint18_linear_64_1119)"/>
</g>
<g filter="url(#filter14_f_64_1119)">
<path d="M-46.4361 -328.183C-43.1119 -362.47 -63.3734 -393.527 -91.6867 -397.549L-170.309 -408.717C-198.623 -412.739 -224.274 -388.204 -227.598 -353.917L-236.827 -258.722C-240.151 -224.434 -219.984 -225.86 -191.664 -221.837L-41.1671 -97.9964C685.539 643.144 31.5877 -49.22 -55.6652 -232.988L-46.4361 -328.183Z" fill="url(#paint19_linear_64_1119)"/>
</g>
<g filter="url(#filter15_f_64_1119)">
<path d="M-56.3305 -343.818C-53.7578 -370.354 -69.434 -394.388 -91.3488 -397.501L-152.176 -406.141C-174.09 -409.254 -193.938 -390.266 -196.51 -363.731L-203.653 -290.059C-206.226 -263.524 -190.615 -264.627 -168.707 -261.515L-52.2556 -165.677C510.045 407.88 4.03531 -127.931 -63.4729 -270.147L-56.3305 -343.818Z" fill="url(#paint20_linear_64_1119)"/>
</g>
</g>
<g style="mix-blend-mode:color-dodge">
<ellipse cx="1372.5" cy="265.5" rx="139.889" ry="1.07963" transform="rotate(-90 1372.5 265.5)" fill="url(#paint21_radial_64_1119)"/>
</g>
<g style="mix-blend-mode:color-dodge">
<ellipse cx="1372.5" cy="265.5" rx="161.481" ry="1.07963" fill="url(#paint22_radial_64_1119)"/>
</g>
<g style="mix-blend-mode:color-dodge">
<ellipse cx="1372.5" cy="265.5" rx="8.48278" ry="6.32353" fill="url(#paint23_radial_64_1119)"/>
</g>
<g opacity="0.6">
<g style="mix-blend-mode:color-dodge">
<ellipse cx="547.5" cy="759.5" rx="159.408" ry="1.23028" transform="rotate(-90 547.5 759.5)" fill="url(#paint24_radial_64_1119)"/>
</g>
<g style="mix-blend-mode:color-dodge">
<ellipse cx="547.5" cy="759.5" rx="184.014" ry="1.23027" fill="url(#paint25_radial_64_1119)"/>
</g>
<g style="mix-blend-mode:color-dodge">
<ellipse cx="547.5" cy="759.5" rx="9.66643" ry="7.20588" fill="url(#paint26_radial_64_1119)"/>
</g>
</g>
</g>
<defs>
<filter id="filter0_f_64_1119" x="848.53" y="-381.252" width="1495.94" height="1527.19" filterUnits="userSpaceOnUse" color-interpolation-filters="sRGB">
<feFlood flood-opacity="0" result="BackgroundImageFix"/>
<feBlend mode="normal" in="SourceGraphic" in2="BackgroundImageFix" result="shape"/>
<feGaussianBlur stdDeviation="243.208" result="effect1_foregroundBlur_64_1119"/>
</filter>
<filter id="filter1_f_64_1119" x="1073.56" y="-124.174" width="995.333" height="947.759" filterUnits="userSpaceOnUse" color-interpolation-filters="sRGB">
<feFlood flood-opacity="0" result="BackgroundImageFix"/>
<feBlend mode="normal" in="SourceGraphic" in2="BackgroundImageFix" result="shape"/>
<feGaussianBlur stdDeviation="48.6418" result="effect1_foregroundBlur_64_1119"/>
</filter>
<filter id="filter2_f_64_1119" x="1021.36" y="-209.094" width="1267.73" height="1208.73" filterUnits="userSpaceOnUse" color-interpolation-filters="sRGB">
<feFlood flood-opacity="0" result="BackgroundImageFix"/>
<feBlend mode="normal" in="SourceGraphic" in2="BackgroundImageFix" result="shape"/>
<feGaussianBlur stdDeviation="72.32" result="effect1_foregroundBlur_64_1119"/>
</filter>
<filter id="filter3_f_64_1119" x="1288.11" y="-113.096" width="854.386" height="808.852" filterUnits="userSpaceOnUse" color-interpolation-filters="sRGB">
<feFlood flood-opacity="0" result="BackgroundImageFix"/>
<feBlend mode="normal" in="SourceGraphic" in2="BackgroundImageFix" result="shape"/>
<feGaussianBlur stdDeviation="24.3208" result="effect1_foregroundBlur_64_1119"/>
</filter>
<filter id="filter4_f_64_1119" x="1072.08" y="-804.559" width="1468.32" height="1579.27" filterUnits="userSpaceOnUse" color-interpolation-filters="sRGB">
<feFlood flood-opacity="0" result="BackgroundImageFix"/>
<feBlend mode="normal" in="SourceGraphic" in2="BackgroundImageFix" result="shape"/>
<feGaussianBlur stdDeviation="243.208" result="effect1_foregroundBlur_64_1119"/>
</filter>
<filter id="filter5_f_64_1119" x="1305.56" y="-565.971" width="934.821" height="1040.34" filterUnits="userSpaceOnUse" color-interpolation-filters="sRGB">
<feFlood flood-opacity="0" result="BackgroundImageFix"/>
<feBlend mode="normal" in="SourceGraphic" in2="BackgroundImageFix" result="shape"/>
<feGaussianBlur stdDeviation="48.6418" result="effect1_foregroundBlur_64_1119"/>
</filter>
<filter id="filter6_f_64_1119" x="1362.49" y="-575.697" width="1001.86" height="1129.88" filterUnits="userSpaceOnUse" color-interpolation-filters="sRGB">
<feFlood flood-opacity="0" result="BackgroundImageFix"/>
<feBlend mode="normal" in="SourceGraphic" in2="BackgroundImageFix" result="shape"/>
<feGaussianBlur stdDeviation="24.3208" result="effect1_foregroundBlur_64_1119"/>
</filter>
<filter id="filter7_f_64_1119" x="1510.92" y="-571.426" width="797.213" height="896.393" filterUnits="userSpaceOnUse" color-interpolation-filters="sRGB">
<feFlood flood-opacity="0" result="BackgroundImageFix"/>
<feBlend mode="normal" in="SourceGraphic" in2="BackgroundImageFix" result="shape"/>
<feGaussianBlur stdDeviation="24.3208" result="effect1_foregroundBlur_64_1119"/>
</filter>
<filter id="filter8_f_64_1119" x="-452.848" y="-499.804" width="1282.31" height="1319.86" filterUnits="userSpaceOnUse" color-interpolation-filters="sRGB">
<feFlood flood-opacity="0" result="BackgroundImageFix"/>
<feBlend mode="normal" in="SourceGraphic" in2="BackgroundImageFix" result="shape"/>
<feGaussianBlur stdDeviation="243.208" result="effect1_foregroundBlur_64_1119"/>
</filter>
<filter id="filter9_f_64_1119" x="-130.899" y="-193.335" width="668.315" height="666.056" filterUnits="userSpaceOnUse" color-interpolation-filters="sRGB">
<feFlood flood-opacity="0" result="BackgroundImageFix"/>
<feBlend mode="normal" in="SourceGraphic" in2="BackgroundImageFix" result="shape"/>
<feGaussianBlur stdDeviation="48.6418" result="effect1_foregroundBlur_64_1119"/>
</filter>
<filter id="filter10_f_64_1119" x="-280.509" y="-264.206" width="868.15" height="864.846" filterUnits="userSpaceOnUse" color-interpolation-filters="sRGB">
<feFlood flood-opacity="0" result="BackgroundImageFix"/>
<feBlend mode="normal" in="SourceGraphic" in2="BackgroundImageFix" result="shape"/>
<feGaussianBlur stdDeviation="72.32" result="effect1_foregroundBlur_64_1119"/>
</filter>
<filter id="filter11_f_64_1119" x="-154.58" y="-168.208" width="545.2" height="542.716" filterUnits="userSpaceOnUse" color-interpolation-filters="sRGB">
<feFlood flood-opacity="0" result="BackgroundImageFix"/>
<feBlend mode="normal" in="SourceGraphic" in2="BackgroundImageFix" result="shape"/>
<feGaussianBlur stdDeviation="24.3208" result="effect1_foregroundBlur_64_1119"/>
</filter>
<filter id="filter12_f_64_1119" x="-568.763" y="-764.788" width="1265.97" height="1352.46" filterUnits="userSpaceOnUse" color-interpolation-filters="sRGB">
<feFlood flood-opacity="0" result="BackgroundImageFix"/>
<feBlend mode="normal" in="SourceGraphic" in2="BackgroundImageFix" result="shape"/>
<feGaussianBlur stdDeviation="243.208" result="effect1_foregroundBlur_64_1119"/>
</filter>
<filter id="filter13_f_64_1119" x="-232.355" y="-469.895" width="632.515" height="724.013" filterUnits="userSpaceOnUse" color-interpolation-filters="sRGB">
<feFlood flood-opacity="0" result="BackgroundImageFix"/>
<feBlend mode="normal" in="SourceGraphic" in2="BackgroundImageFix" result="shape"/>
<feGaussianBlur stdDeviation="48.6418" result="effect1_foregroundBlur_64_1119"/>
</filter>
<filter id="filter14_f_64_1119" x="-285.827" y="-457.79" width="632.446" height="743.672" filterUnits="userSpaceOnUse" color-interpolation-filters="sRGB">
<feFlood flood-opacity="0" result="BackgroundImageFix"/>
<feBlend mode="normal" in="SourceGraphic" in2="BackgroundImageFix" result="shape"/>
<feGaussianBlur stdDeviation="24.3208" result="effect1_foregroundBlur_64_1119"/>
</filter>
<filter id="filter15_f_64_1119" x="-252.572" y="-455.117" width="511.375" height="597.516" filterUnits="userSpaceOnUse" color-interpolation-filters="sRGB">
<feFlood flood-opacity="0" result="BackgroundImageFix"/>
<feBlend mode="normal" in="SourceGraphic" in2="BackgroundImageFix" result="shape"/>
<feGaussianBlur stdDeviation="24.3208" result="effect1_foregroundBlur_64_1119"/>
</filter>
<linearGradient id="paint0_linear_64_1119" x1="549.594" y1="678.172" x2="712.112" y2="678.172" gradientUnits="userSpaceOnUse">
<stop stop-color="#0085FF"/>
<stop offset="1" stop-color="#B440FC"/>
</linearGradient>
<linearGradient id="paint1_linear_64_1119" x1="54.9828" y1="348.869" x2="217.501" y2="348.869" gradientUnits="userSpaceOnUse">
<stop stop-color="#0085FF"/>
<stop offset="1" stop-color="#B440FC"/>
</linearGradient>
<linearGradient id="paint2_linear_64_1119" x1="1042" y1="183" x2="1206" y2="183" gradientUnits="userSpaceOnUse">
<stop stop-color="#0085FF"/>
<stop offset="1" stop-color="#B440FC"/>
</linearGradient>
<linearGradient id="paint3_linear_64_1119" x1="546.577" y1="347.238" x2="712.996" y2="347.238" gradientUnits="userSpaceOnUse">
<stop stop-color="#0085FF"/>
<stop offset="1" stop-color="#B440FC"/>
</linearGradient>
<linearGradient id="paint4_linear_64_1119" x1="1538.84" y1="678.172" x2="1701.36" y2="678.172" gradientUnits="userSpaceOnUse">
<stop stop-color="#0085FF"/>
<stop offset="1" stop-color="#B440FC"/>
</linearGradient>
<linearGradient id="paint5_linear_64_1119" x1="1334.95" y1="382.345" x2="1858.05" y2="382.345" gradientUnits="userSpaceOnUse">
<stop stop-color="#0085FF"/>
<stop offset="0.48" stop-color="#B440FC"/>
</linearGradient>
<linearGradient id="paint6_linear_64_1119" x1="1170.85" y1="349.706" x2="1971.61" y2="349.706" gradientUnits="userSpaceOnUse">
<stop stop-color="#0085FF"/>
<stop offset="0.48" stop-color="#B440FC"/>
</linearGradient>
<linearGradient id="paint7_linear_64_1119" x1="1166" y1="395.273" x2="2144.45" y2="395.273" gradientUnits="userSpaceOnUse">
<stop stop-color="#0085FF"/>
<stop offset="0.48" stop-color="#B440FC"/>
</linearGradient>
<linearGradient id="paint8_linear_64_1119" x1="1336.76" y1="-64.4543" x2="2046.96" y2="691.194" gradientUnits="userSpaceOnUse">
<stop stop-color="#B440FC"/>
<stop offset="1" stop-color="#0F182A"/>
</linearGradient>
<linearGradient id="paint9_linear_64_1119" x1="1530.86" y1="13.6897" x2="2052.07" y2="-39.7774" gradientUnits="userSpaceOnUse">
<stop stop-color="#0085FF"/>
<stop offset="0.48" stop-color="#B440FC"/>
</linearGradient>
<linearGradient id="paint10_linear_64_1119" x1="1364.55" y1="3.15366" x2="2162.42" y2="-78.6931" gradientUnits="userSpaceOnUse">
<stop stop-color="#0085FF"/>
<stop offset="0.48" stop-color="#B440FC"/>
</linearGradient>
<linearGradient id="paint11_linear_64_1119" x1="1364.38" y1="49.0558" x2="2339.29" y2="-50.9524" gradientUnits="userSpaceOnUse">
<stop stop-color="#0085FF"/>
<stop offset="0.48" stop-color="#B440FC"/>
</linearGradient>
<linearGradient id="paint12_linear_64_1119" x1="1523.38" y1="-76.9465" x2="2277.74" y2="-154.331" gradientUnits="userSpaceOnUse">
<stop stop-color="#0085FF"/>
<stop offset="0.48" stop-color="#B440FC"/>
</linearGradient>
<linearGradient id="paint13_linear_64_1119" x1="343.048" y1="160.124" x2="33.5683" y2="160.124" gradientUnits="userSpaceOnUse">
<stop stop-color="#0085FF"/>
<stop offset="0.48" stop-color="#B440FC"/>
</linearGradient>
<linearGradient id="paint14_linear_64_1119" x1="440.132" y1="139.693" x2="-33.6156" y2="139.693" gradientUnits="userSpaceOnUse">
<stop stop-color="#0085FF"/>
<stop offset="0.48" stop-color="#B440FC"/>
</linearGradient>
<linearGradient id="paint15_linear_64_1119" x1="443" y1="168.217" x2="-135.869" y2="168.217" gradientUnits="userSpaceOnUse">
<stop stop-color="#0085FF"/>
<stop offset="0.48" stop-color="#B440FC"/>
</linearGradient>
<linearGradient id="paint16_linear_64_1119" x1="341.977" y1="-119.567" x2="-103.448" y2="328.343" gradientUnits="userSpaceOnUse">
<stop stop-color="#B440FC"/>
<stop offset="1" stop-color="#0F182A"/>
</linearGradient>
<linearGradient id="paint17_linear_64_1119" x1="227.143" y1="-70.6493" x2="-81.5586" y2="-100.578" gradientUnits="userSpaceOnUse">
<stop stop-color="#0085FF"/>
<stop offset="0.48" stop-color="#B440FC"/>
</linearGradient>
<linearGradient id="paint18_linear_64_1119" x1="325.533" y1="-77.2448" x2="-147.024" y2="-123.059" gradientUnits="userSpaceOnUse">
<stop stop-color="#0085FF"/>
<stop offset="0.48" stop-color="#B440FC"/>
</linearGradient>
<linearGradient id="paint19_linear_64_1119" x1="325.635" y1="-48.5107" x2="-251.78" y2="-104.491" gradientUnits="userSpaceOnUse">
<stop stop-color="#0085FF"/>
<stop offset="0.48" stop-color="#B440FC"/>
</linearGradient>
<linearGradient id="paint20_linear_64_1119" x1="231.566" y1="-127.386" x2="-215.225" y2="-170.703" gradientUnits="userSpaceOnUse">
<stop stop-color="#0085FF"/>
<stop offset="0.48" stop-color="#B440FC"/>
</linearGradient>
<radialGradient id="paint21_radial_64_1119" cx="0" cy="0" r="1" gradientUnits="userSpaceOnUse" gradientTransform="translate(1372.5 265.5) rotate(90) scale(1.07963 104.464)">
<stop offset="0.421947" stop-color="#FFFFF7"/>
<stop offset="1" stop-color="#E240FC" stop-opacity="0"/>
</radialGradient>
<radialGradient id="paint22_radial_64_1119" cx="0" cy="0" r="1" gradientUnits="userSpaceOnUse" gradientTransform="translate(1372.5 265.5) rotate(90) scale(1.07963 120.589)">
<stop offset="0.421947" stop-color="#FFFFF7"/>
<stop offset="1" stop-color="#E240FC" stop-opacity="0"/>
</radialGradient>
<radialGradient id="paint23_radial_64_1119" cx="0" cy="0" r="1" gradientUnits="userSpaceOnUse" gradientTransform="translate(1372.5 265.5) rotate(90) scale(6.32353 6.33466)">
<stop offset="0.421947" stop-color="#FFFFF7"/>
<stop offset="1" stop-color="#E240FC" stop-opacity="0"/>
</radialGradient>
<radialGradient id="paint24_radial_64_1119" cx="0" cy="0" r="1" gradientUnits="userSpaceOnUse" gradientTransform="translate(547.5 759.5) rotate(90) scale(1.23028 119.041)">
<stop offset="0.421947" stop-color="#FFFFF7"/>
<stop offset="1" stop-color="#E240FC" stop-opacity="0"/>
</radialGradient>
<radialGradient id="paint25_radial_64_1119" cx="0" cy="0" r="1" gradientUnits="userSpaceOnUse" gradientTransform="translate(547.5 759.5) rotate(90) scale(1.23027 137.415)">
<stop offset="0.421947" stop-color="#FFFFF7"/>
<stop offset="1" stop-color="#E240FC" stop-opacity="0"/>
</radialGradient>
<radialGradient id="paint26_radial_64_1119" cx="0" cy="0" r="1" gradientUnits="userSpaceOnUse" gradientTransform="translate(547.5 759.5) rotate(90) scale(7.20588 7.21857)">
<stop offset="0.421947" stop-color="#FFFFF7"/>
<stop offset="1" stop-color="#E240FC" stop-opacity="0"/>
</radialGradient>
<clipPath id="clip0_64_1119">
<rect width="1920" height="1080" fill="white"/>
</clipPath>
</defs>
</svg>
