<svg width="305" height="36" viewBox="0 0 305 36" fill="none" xmlns="http://www.w3.org/2000/svg">
<g clip-path="url(#clip0_1092_50)">
<path d="M140.332 34.3024V13.5322C141.905 14.8539 143.982 15.6722 146.185 15.6722C148.451 15.6722 150.591 14.8539 152.164 13.4063V34.3024H140.332ZM117.421 34.3024V10.4481H106.659V2.203H138.254C137.562 3.4618 137.185 4.97236 137.185 6.54586C137.185 7.93054 137.499 9.25228 138.066 10.4481H129.38V34.3024H117.421Z" fill="white"/>
<path d="M193.012 14.1621C191.942 6.10575 185.9 1.44819 174.885 1.44819C162.549 1.38525 154.556 8.11983 154.556 18.2532C154.556 27.7571 161.92 35.0581 174.885 35.0581C186.655 35.0581 193.201 28.1977 193.201 21.7149H181.054C180.298 24.736 178.725 27.0648 174.508 27.0648C168.717 27.0648 166.892 22.596 166.892 18.2532C166.892 13.9103 168.717 9.44156 174.508 9.44156C179.606 9.44156 180.739 12.9662 180.991 14.1621H193.012Z" fill="white"/>
<path d="M195.215 34.3024H207.551V24.7984L211.013 21.8403L220.895 34.3024H236.252L219.384 14.7281L233.923 2.203H218.692L207.677 13.2804H207.551V2.203H195.215V34.3024Z" fill="white"/>
<path d="M237.763 34.3024H271.624V26.0572H250.162V22.092H269.107V14.4134H250.162V10.4481H270.995V2.203H237.763V34.3024Z" fill="white"/>
<path d="M280.939 34.3024H293.339V10.4481H304.542V2.203H269.736V10.4481H280.939V34.3024Z" fill="white"/>
<path d="M139.702 6.7979C139.702 3.14739 142.66 0.189209 146.311 0.189209C149.961 0.189209 152.919 3.14739 152.919 6.7979C152.919 10.4484 149.961 13.4066 146.311 13.4066C142.66 13.4066 139.702 10.4484 139.702 6.7979Z" fill="white"/>
<path d="M38.1801 33.8619H69.3983V26.1203H49.761V21.8404H68.0136V14.0358H49.761V9.7559H69.3983V2.01428H38.1801V33.8619Z" fill="white"/>
<path fill-rule="evenodd" clip-rule="evenodd" d="M0.604828 33.8621H12.6264L13.8222 30.2116H25.592L26.7879 33.8621H38.8094L26.599 1.95154H12.6893L0.604828 33.8621ZM23.1373 22.47H16.3398L19.7386 11.6443L23.1373 22.47Z" fill="white"/>
<path fill-rule="evenodd" clip-rule="evenodd" d="M70.6569 34.1768H81.7972V24.2323H89.7277C91.8047 24.2323 92.497 25.6799 92.6229 28.0716C92.8117 30.9039 92.8117 33.2327 93.1894 34.1768H105.337C104.77 33.1698 104.078 31.848 103.952 30.4004L103.449 23.3511C103.26 20.5818 101.938 18.9453 100.239 18.3789C103.763 17.0571 104.582 13.9731 104.582 10.5743C104.582 7.86789 103.134 4.7209 101.372 3.52504C99.4204 2.26624 97.784 1.95154 94.637 1.95154H70.5939V34.1768H70.6569ZM81.7972 10.0708H89.5389C91.8676 10.0708 92.7488 11.0778 92.7488 13.0919C92.7488 15.106 91.8676 16.113 89.5389 16.113H81.7972V10.0708Z" fill="white"/>
</g>
<defs>
<clipPath id="clip0_1092_50">
<rect width="304" height="35.2464" fill="white" transform="translate(0.604828)"/>
</clipPath>
</defs>
</svg>
