<svg width="305" height="62" viewBox="0 0 305 62" fill="none" xmlns="http://www.w3.org/2000/svg">
<g clip-path="url(#clip0_1092_61)">
<path d="M8.10651 54.2361H14.321L12.6263 50.7522C11.9676 49.4034 11.3078 47.3943 11.3078 47.3943H11.1197C11.1197 47.3943 10.461 49.4034 9.80117 50.7522L8.10651 54.2361ZM15.7643 57.5622H6.59991L5.24949 60.4203C5.06143 60.7964 4.96686 60.8278 4.59129 60.8278H0.856139C0.666463 60.8278 0.604858 60.7018 0.604858 60.6073C0.604858 60.5149 0.666463 60.3571 0.729688 60.2312L8.15623 44.9328C9.02787 43.1366 10.8495 41.9963 12.8457 41.9963L21.6978 60.2312C21.7594 60.3571 21.8226 60.5149 21.8226 60.6073C21.8226 60.7018 21.7594 60.8278 21.5713 60.8278H17.8367C17.4606 60.8278 17.366 60.7964 17.178 60.4203L15.7643 57.5622Z" fill="white"/>
<path d="M32.414 57.2498H41.7049C41.893 57.2498 42.1442 57.5022 42.1442 57.6891V60.3894C42.1442 60.5759 41.893 60.8282 41.7049 60.8282H28.5227C28.3152 60.8282 28.145 60.6586 28.145 60.4511V45.0343C28.145 43.3635 29.5121 41.9968 31.1825 41.9968H32.0379C32.2449 41.9968 32.414 42.166 32.414 42.3729V57.2498Z" fill="white"/>
<path d="M53.0468 45.5728V52.6038H56.8452C59.3245 52.6038 60.7376 51.1604 60.7376 49.0567C60.7376 46.893 59.1678 45.5728 56.8452 45.5728H53.0468ZM49.1555 60.8285C48.948 60.8285 48.7778 60.6588 48.7778 60.4513V45.1032C48.7778 43.3951 50.1758 41.9971 51.8845 41.9971H57.1905C61.7422 41.9971 65.0051 44.726 65.0051 49.0567C65.0051 53.4214 61.6158 55.9958 57.1905 55.9958H53.0468V60.4524C53.0468 60.6593 52.8777 60.8285 52.6707 60.8285H49.1555Z" fill="white"/>
<path d="M76.0965 60.4528C76.0965 60.6598 75.9273 60.8289 75.7203 60.8289H72.2051C71.9976 60.8289 71.8274 60.6592 71.8274 60.4517V45.8899C71.8274 43.7489 73.5793 41.9969 75.7203 41.9969C75.9273 41.9969 76.0965 42.1666 76.0965 42.3731V60.4528Z" fill="white"/>
<path d="M100.681 41.9969H86.1279C85.8485 41.9969 85.5583 42.065 85.2671 42.1585C84.269 42.399 83.42 42.995 82.885 43.8402C82.5997 44.205 82.4133 44.5622 82.4133 44.8421V45.1339C82.4133 45.323 82.6645 45.5727 82.8526 45.5727H89.6323V60.4528C89.6323 60.6392 89.8204 60.8284 90.0095 60.8284H93.5253C93.7133 60.8284 93.9014 60.6392 93.9014 60.4528V45.5727H100.681C100.869 45.5727 101.12 45.323 101.12 45.1339V42.4363C101.12 42.2466 100.869 41.9969 100.681 41.9969Z" fill="white"/>
<path d="M109.795 51.4128C109.795 55.2096 112.588 57.563 115.916 57.563C119.242 57.563 122.035 55.2096 122.035 51.4128C122.035 47.6133 119.242 45.26 115.916 45.26C112.588 45.26 109.795 47.6133 109.795 51.4128ZM126.305 51.4128C126.305 57.3133 121.565 61.1414 115.916 61.1414C110.265 61.1414 105.526 57.3133 105.526 51.4128C105.526 45.6047 110.265 41.6815 115.916 41.6815C121.565 41.6815 126.305 45.6047 126.305 51.4128Z" fill="white"/>
<path d="M147.924 42.3735C147.924 42.1666 148.094 41.9974 148.301 41.9974H151.817C152.025 41.9974 152.195 42.1671 152.195 42.3746V51.8211C152.195 57.9108 148.365 61.1423 142.589 61.1423C136.814 61.1423 132.984 57.9108 132.984 51.8211V45.8888C132.984 43.7488 134.735 41.9974 136.876 41.9974C137.083 41.9974 137.253 42.1671 137.253 42.3746V51.7893C137.253 55.6806 139.167 57.5633 142.589 57.5633C146.01 57.5633 147.924 55.6806 147.924 51.7893V42.3735Z" fill="white"/>
<path d="M162.814 45.5728V51.536H167.363C169.719 51.536 171.225 50.4395 171.225 48.586C171.225 46.7352 169.719 45.5728 167.363 45.5728H162.814ZM158.544 45.0249C158.544 43.3594 159.906 41.9971 161.572 41.9971H167.647C172.23 41.9971 175.493 44.4764 175.493 48.586C175.493 51.4441 173.768 53.3582 171.257 54.2368V54.2995C171.257 54.2995 171.823 54.8967 172.262 55.5538L175.43 60.2C175.588 60.421 175.619 60.5469 175.619 60.6075C175.619 60.7339 175.556 60.8285 175.37 60.8285H171.194C171.036 60.8285 170.818 60.702 170.692 60.5156L166.863 54.928H162.814V60.4524C162.814 60.6593 162.645 60.8285 162.438 60.8285H158.921C158.714 60.8285 158.544 60.6588 158.544 60.4513V45.0249Z" fill="white"/>
<path d="M203.348 60.8292H202.468L196.88 47.9609C196.757 47.6454 196.662 47.2693 196.662 47.2693H196.599C196.599 47.2693 196.504 47.6454 196.381 47.9609L190.793 60.8292H189.912L180.999 42.5603C180.935 42.4366 180.873 42.2788 180.873 42.1842C180.873 42.0896 180.935 41.9978 181.125 41.9978H183.323C183.699 41.9978 183.762 41.9659 183.949 42.3733L189.255 53.2643C189.726 54.2375 190.228 55.9965 190.228 55.9965H190.354C190.354 55.9965 190.762 54.5504 191.201 53.5459L196.191 41.9978H197.07L202.06 53.5459C202.499 54.5504 202.907 55.9965 202.907 55.9965H203.033C203.033 55.9965 203.535 54.2375 204.006 53.2643L209.312 42.3733C209.499 41.9659 209.562 41.9978 209.937 41.9978H212.136C212.325 41.9978 212.388 42.0896 212.388 42.1842C212.388 42.2788 212.325 42.4366 212.262 42.5603L203.348 60.8292Z" fill="white"/>
<path d="M219.056 51.4128C219.056 55.9958 222.416 58.7567 226.465 58.7567C230.575 58.7567 233.872 55.9958 233.872 51.4128C233.872 46.7666 230.606 44.0662 226.465 44.0662C222.416 44.0662 219.056 46.7666 219.056 51.4128ZM236.633 51.4128C236.633 57.5024 232.082 61.1414 226.465 61.1414C220.878 61.1414 216.295 57.5024 216.295 51.4128C216.295 45.3232 220.878 41.6815 226.465 41.6815C232.113 41.6815 236.633 45.3232 236.633 51.4128Z" fill="white"/>
<path d="M246.186 44.3814V51.9463H251.774C254.661 51.9463 256.732 50.6261 256.732 48.1782C256.732 45.6989 254.692 44.3814 251.774 44.3814H246.186ZM243.425 42.3728C243.425 42.1831 243.612 41.9967 243.802 41.9967H251.837C256.262 41.9967 259.496 44.1923 259.496 48.1782C259.496 51.2233 257.551 53.1373 254.661 53.8604V53.9236C254.661 53.9236 255.321 54.5202 255.854 55.2724L259.433 60.2315C259.62 60.4839 259.651 60.5758 259.651 60.639C259.651 60.7649 259.588 60.8281 259.401 60.8281H256.828C256.67 60.8281 256.483 60.7336 256.388 60.6071L251.742 54.1733H246.186V60.452C246.186 60.639 245.997 60.8281 245.81 60.8281H243.802C243.612 60.8281 243.425 60.639 243.425 60.452V42.3728Z" fill="white"/>
<path d="M269.869 58.444H280.226C280.416 58.444 280.668 58.6937 280.668 58.8833V60.3899C280.668 60.5764 280.416 60.8287 280.226 60.8287H267.485C267.295 60.8287 267.109 60.6396 267.109 60.4526V42.3734C267.109 42.1837 267.295 41.9973 267.485 41.9973H269.493C269.683 41.9973 269.869 42.1837 269.869 42.3734V58.444Z" fill="white"/>
<path d="M289.034 44.3814V58.4434H294.464C299.422 58.4434 301.81 55.7112 301.81 51.4124C301.81 46.9558 298.639 44.3814 294.401 44.3814H289.034ZM286.649 60.8281C286.46 60.8281 286.273 60.639 286.273 60.452V42.3728C286.273 42.1831 286.46 41.9967 286.649 41.9967H294.401C300.146 41.9967 304.571 45.6043 304.571 51.4124C304.571 57.1232 300.837 60.8281 294.464 60.8281H286.649Z" fill="white"/>
<path d="M149.016 10.2689L149.018 10.2749C149.023 10.2776 149.028 10.2797 149.033 10.2819C149.023 10.2738 149.016 10.2689 149.016 10.2689Z" fill="white"/>
<path d="M149.211 10.2966C149.222 10.3053 149.241 10.3145 149.265 10.3247C149.233 10.3085 149.211 10.2966 149.211 10.2966Z" fill="white"/>
<g opacity="0.32">
<path d="M108.27 27.9397C83.8507 25.234 86.4294 9.60168 102.52 4.47232L102.519 4.4707C99.2149 4.8787 94.8357 5.90111 89.8128 8.38851C86.7293 10.9154 84.5932 14.3657 85.8885 18.8872C89.1854 30.3958 117.224 40.1746 150.15 18.1301C149.861 17.9609 149.567 17.7902 149.27 17.6189C149.262 17.6248 132.684 30.6449 108.27 27.9397Z" fill="white"/>
</g>
<g opacity="0.32">
<path d="M217.513 12.5122C217.539 12.5463 217.561 12.5744 217.58 12.5997C217.558 12.57 217.536 12.5414 217.513 12.5122Z" fill="white"/>
</g>
<g opacity="0.32">
<path d="M217.641 12.6856C215.078 10.5203 211.708 8.86403 208.54 7.646C211.735 9.02885 216.618 12.081 215.322 17.4978C213.591 24.7314 204.496 26.9973 190.155 26.0408C176.216 25.1113 156.176 14.1939 156.176 14.1939L150.15 18.13C150.15 18.13 170.081 30.2061 188.936 31.1226C209.552 32.125 218.503 26.305 219.238 18.4764C219.459 16.1209 218.783 14.2193 217.641 12.6856Z" fill="white"/>
</g>
<path d="M217.656 12.6984C217.65 12.6924 217.623 12.6573 217.579 12.5995C217.601 12.627 217.62 12.6573 217.64 12.6854C217.645 12.6897 217.651 12.6941 217.656 12.6984Z" fill="white"/>
<path d="M217.641 12.6854C217.62 12.6573 217.601 12.627 217.58 12.5995C217.561 12.5746 217.539 12.546 217.513 12.5119C215.784 10.2866 198.299 -10.8209 148.3 7.2637C150.888 8.37203 154.903 10.2688 158.461 12.72C162.935 10.3807 181.728 1.58801 199.04 4.90113L199.036 4.89086C199.036 4.89086 203.535 5.7209 208.54 7.64575C211.708 8.86379 215.078 10.5201 217.641 12.6854Z" fill="white"/>
<path d="M149.265 10.3245C149.242 10.3142 149.222 10.305 149.211 10.2964C149.206 10.2937 149.201 10.2915 149.196 10.2888C109.525 -9.2694 89.8098 8.38938 89.8098 8.38938C89.8109 8.38938 89.8114 8.38884 89.8125 8.3883C94.8354 5.90089 99.2147 4.87848 102.519 4.47049C105.107 4.15058 107.035 4.20732 108.095 4.2338C108.812 4.25163 109.523 4.26298 110.24 4.28568C123.756 4.71204 139.043 11.7241 149.269 17.6187C149.566 17.79 149.861 17.9607 150.149 18.1299L150.888 17.6478L156.175 14.1937C154.4 13.007 149.791 10.5979 149.265 10.3245Z" fill="white"/>
</g>
<defs>
<clipPath id="clip0_1092_61">
<rect width="304" height="61.215" fill="white" transform="translate(0.604858)"/>
</clipPath>
</defs>
</svg>
