<svg width="236" height="88" viewBox="0 0 236 88" fill="none" xmlns="http://www.w3.org/2000/svg">
<path d="M46.6895 75.9V39.1644C43.9234 38.0174 41.4609 37.2078 39.3019 36.7356C37.143 36.1958 34.9841 35.8248 32.8251 35.6224C32.0155 38.7258 31.3071 41.8968 30.6999 45.1352C30.0927 48.3062 29.5867 51.477 29.1819 54.648C28.7771 57.7514 28.4735 60.7874 28.2711 63.756C28.0687 66.7246 27.9675 69.457 27.9675 71.9532C27.9675 74.7868 28.0687 77.1144 28.2711 78.936C28.541 80.7576 28.8446 82.2082 29.1819 83.2876C29.5867 84.4346 29.9915 85.3116 30.3963 85.9188C30.8686 86.526 31.2734 87.032 31.6107 87.4368C29.9241 87.4368 28.1025 87.3356 26.1459 87.1332C24.2569 86.9308 22.469 86.2562 20.7823 85.1092C19.1631 84.0298 17.8138 82.343 16.7343 80.0492C15.6549 77.7554 15.1151 74.4832 15.1151 70.2328C15.1151 68.0064 15.2838 65.5438 15.6211 62.8452C15.9585 60.1466 16.4307 57.313 17.0379 54.3444C17.6451 51.3084 18.3873 48.205 19.2643 45.034C20.2089 41.7956 21.2546 38.591 22.4015 35.42C19.1631 35.6224 16.5657 36.1284 14.6091 36.938C12.6526 37.7476 11.5057 39.0294 11.1683 40.7836C11.5057 40.7836 11.9442 41.2222 12.4839 42.0992C13.0237 42.9088 13.2935 43.7184 13.2935 44.528C13.2935 45.54 12.8213 46.3496 11.8767 46.9568C10.9322 47.564 9.75156 47.8676 8.33476 47.8676C6.37822 47.8676 4.62409 47.2604 3.07236 46.046C1.45316 44.8316 0.643555 43.0438 0.643555 40.6824C0.643555 37.444 2.29649 34.779 5.60236 32.6876C8.90822 30.5962 13.2598 29.5504 18.6571 29.5504C20.2763 29.5504 22.2666 29.6516 24.6279 29.854C26.3146 25.806 28.2037 21.9942 30.2951 18.4184C32.3866 14.7752 34.6467 11.6042 37.0755 8.9056C39.5043 6.13947 42.0681 3.98054 44.7667 2.4288C47.4654 0.809601 50.299 0 53.2675 0C54.2795 0 55.5277 0.101201 57.0119 0.303602C58.5637 0.506003 60.0142 0.87707 61.3635 1.4168V75.9H46.6895ZM46.6895 7.2864C44.1258 8.97306 41.7645 11.9754 39.6055 16.2932C37.4466 20.611 35.5913 25.6036 34.0395 31.2708C36.131 31.6756 38.2225 32.1816 40.3139 32.7888C42.4729 33.3286 44.5981 33.9694 46.6895 34.7116V7.2864Z" fill="white"/>
<path d="M95.5222 23.2761C98.963 23.2761 101.426 24.9628 102.91 28.3361C104.462 31.7095 105.237 36.3647 105.237 42.3017C105.237 46.1473 104.9 50.0941 104.225 54.1421C103.551 58.1901 102.404 61.8671 100.785 65.1729C99.1654 68.4788 97.0064 71.2112 94.3078 73.3701C91.6766 75.4616 88.3708 76.5073 84.3902 76.5073C79.5326 76.5073 75.7544 74.9893 73.0558 71.9533C70.3572 68.9173 69.0078 64.8356 69.0078 59.7081V25.3001H83.5806V59.7081C83.5806 62.1369 83.918 63.9248 84.5926 65.0717C85.2672 66.1512 86.3804 66.6909 87.9322 66.6909C89.8888 66.6909 91.5754 65.9151 92.9922 64.3633C94.409 62.8116 95.556 60.8213 96.433 58.3925C97.3776 55.9637 98.0522 53.2651 98.457 50.2965C98.9292 47.328 99.1654 44.4269 99.1654 41.5933C99.1654 38.4899 98.8956 35.5888 98.3558 32.8901C98.2208 33.2275 97.7824 33.4973 97.0402 33.6997C96.298 33.8347 95.7246 33.9021 95.3198 33.9021C94.5776 33.9021 93.903 33.6997 93.2958 33.2949C92.756 32.8901 92.25 32.3841 91.7778 31.7769C91.373 31.1023 91.0356 30.3939 90.7658 29.6517C90.5634 28.9096 90.4622 28.2012 90.4622 27.5265C90.4622 26.3121 90.867 25.3001 91.6766 24.4905C92.5536 23.6809 93.8356 23.2761 95.5222 23.2761Z" fill="white"/>
<path d="M150.886 25.2999V59.7079C150.886 62.5415 151.257 64.4306 151.999 65.3751C152.809 66.2522 154.191 66.6907 156.148 66.6907C158.104 66.6907 159.723 65.8474 161.006 64.1607C162.355 62.4741 163.131 60.3489 163.334 57.7851H167.584C167.044 61.9006 166.099 65.2065 164.75 67.7027C163.401 70.1315 161.883 72.0206 160.196 73.3699C158.509 74.6518 156.789 75.4951 155.035 75.8999C153.281 76.3047 151.729 76.5071 150.38 76.5071C146.804 76.5071 144.071 75.6975 142.183 74.0783C140.361 72.3917 139.079 70.0978 138.337 67.1967C137.797 68.3437 137.156 69.4906 136.414 70.6375C135.672 71.717 134.761 72.6953 133.682 73.5723C132.67 74.4494 131.456 75.1578 130.039 75.6975C128.689 76.2373 127.104 76.5071 125.282 76.5071C123.123 76.5071 120.998 76.1023 118.907 75.2927C116.815 74.4831 114.892 73.1675 113.138 71.3459C111.451 69.5243 110.068 67.1293 108.989 64.1607C107.977 61.1247 107.471 57.4141 107.471 53.0287C107.471 49.9253 107.808 46.7206 108.483 43.4147C109.225 40.1089 110.338 37.0729 111.823 34.3067C113.374 31.5406 115.365 29.2805 117.794 27.5263C120.289 25.7047 123.291 24.7939 126.8 24.7939C127.61 24.7939 128.487 24.8614 129.432 24.9963C130.375 25.0638 131.286 25.2999 132.164 25.7047C133.041 26.0421 133.85 26.5818 134.593 27.3239C135.334 27.9986 135.908 28.9431 136.313 30.1575V25.2999H150.886ZM136.313 35.0151C136.245 34.7453 136.111 34.4079 135.908 34.0031C135.706 33.5309 135.402 33.0923 134.998 32.6875C134.593 32.2153 134.087 31.8442 133.48 31.5743C132.872 31.237 132.164 31.0683 131.354 31.0683C129.735 31.0683 128.318 31.7767 127.104 33.1935C125.957 34.5429 125.012 36.2633 124.27 38.3547C123.595 40.3787 123.089 42.6389 122.752 45.1351C122.415 47.5639 122.246 49.8915 122.246 52.1179C122.246 55.6937 122.516 58.4935 123.056 60.5175C123.595 62.4741 124.236 63.9246 124.979 64.8691C125.788 65.7462 126.631 66.2859 127.509 66.4883C128.385 66.6233 129.128 66.6907 129.735 66.6907C130.477 66.6907 131.219 66.5221 131.962 66.1847C132.771 65.7799 133.48 65.2065 134.087 64.4643C134.761 63.7222 135.301 62.8114 135.706 61.7319C136.111 60.585 136.313 59.2694 136.313 57.7851V35.0151Z" fill="white"/>
<path d="M175.311 9.3103V25.2999H181.484V29.3479H175.311V59.7079C175.311 62.5415 175.683 64.4305 176.424 65.3751C177.234 66.2521 178.618 66.6907 180.574 66.6907C182.53 66.6907 184.15 65.8473 185.431 64.1607C186.781 62.4741 187.556 60.3489 187.759 57.7851H192.009C191.47 61.9005 190.525 65.2065 189.176 67.7027C187.827 70.1315 186.309 72.0205 184.622 73.3699C182.935 74.6517 181.215 75.4951 179.46 75.8999C177.707 76.3047 176.155 76.5071 174.805 76.5071C169.611 76.5071 165.968 75.0903 163.876 72.2567C161.784 69.3557 160.738 65.5437 160.738 60.8211V29.3479H157.5V25.2999H160.738V11.3343L175.311 9.3103Z" fill="white"/>
<path d="M227.693 25.2999V59.7079C227.693 62.5415 228.064 64.4306 228.806 65.3751C229.616 66.2522 230.999 66.6907 232.956 66.6907C233.765 66.6907 234.439 66.5558 234.98 66.2859C234.372 70.0641 233.495 72.729 232.348 74.2807C231.268 75.765 229.312 76.5071 226.479 76.5071C223.105 76.5071 220.541 75.6638 218.788 73.9771C217.033 72.2905 215.819 70.0303 215.144 67.1967C214.604 68.3437 213.963 69.4906 213.222 70.6375C212.479 71.717 211.568 72.6953 210.489 73.5723C209.477 74.4494 208.263 75.1578 206.846 75.6975C205.496 76.2373 203.911 76.5071 202.09 76.5071C199.93 76.5071 197.805 76.1023 195.714 75.2927C193.622 74.4831 191.699 73.1675 189.946 71.3459C188.258 69.5243 186.875 67.1293 185.796 64.1607C184.784 61.1247 184.278 57.4141 184.278 53.0287C184.278 49.9253 184.615 46.7206 185.29 43.4147C186.032 40.1089 187.145 37.0729 188.63 34.3067C190.181 31.5406 192.172 29.2805 194.601 27.5263C197.097 25.7047 200.099 24.7939 203.608 24.7939C204.417 24.7939 205.294 24.8614 206.239 24.9963C207.183 25.0638 208.093 25.2999 208.971 25.7047C209.848 26.0421 210.657 26.5818 211.4 27.3239C212.141 27.9986 212.716 28.9431 213.12 30.1575V25.2999H227.693ZM208.162 31.0683C206.542 31.0683 205.126 31.7767 203.911 33.1935C202.764 34.5429 201.819 36.2633 201.078 38.3547C200.402 40.3787 199.896 42.6389 199.56 45.1351C199.222 47.5639 199.054 49.8915 199.054 52.1179C199.054 55.6937 199.323 58.4935 199.863 60.5175C200.402 62.4741 201.043 63.9246 201.786 64.8691C202.596 65.7462 203.438 66.2859 204.316 66.4883C205.193 66.6233 205.935 66.6907 206.542 66.6907C207.284 66.6907 208.026 66.5221 208.769 66.1847C209.578 65.7799 210.287 65.2065 210.894 64.4643C211.568 63.7222 212.108 62.8114 212.513 61.7319C212.918 60.6525 213.12 59.3706 213.12 57.8863V34.9139C212.985 34.6441 212.817 34.3067 212.614 33.9019C212.412 33.4297 212.108 32.9911 211.704 32.5863C211.299 32.1815 210.793 31.8442 210.186 31.5743C209.645 31.237 208.971 31.0683 208.162 31.0683Z" fill="white"/>
</svg>
