<svg width="256" height="88" viewBox="0 0 256 88" fill="none" xmlns="http://www.w3.org/2000/svg">
<path d="M24.8395 30.3537H24.4629V29.4501L24.7894 29.3743C26.4732 28.9977 31.9514 27.1621 31.9514 19.1466C31.9514 11.8843 27.4282 7.88801 19.2366 7.88801H0.742798V54.1998H19.9654C30.7959 54.1998 33.0826 47.039 33.0826 41.0081C33.0826 34.5748 30.2432 30.8807 24.8652 30.328M13.0296 16.5334H15.2404C18.18 16.5334 19.6633 18.2173 19.6633 21.5091C19.6633 25.1274 17.3767 26.4347 15.4165 26.4347H13.0296V16.5334ZM15.7673 45.5313H13.0539V33.9232H15.8432C18.7828 33.9232 20.4165 36.0839 20.4165 40.0287C20.4165 43.5711 18.7828 45.5327 15.7931 45.5327M49.3385 35.305H63.4609V25.8562H49.3385V17.7405H64.4403V7.88936H37.0504V54.2011H65.0431V44.3514H49.3385V35.305ZM82.758 7.88936H69.2642V54.2011H80.3711V25.1274H81.2502C81.2502 25.1274 88.3866 53.5726 88.5369 54.2011H101.856V7.88936H90.3481V36.6867H89.469C89.469 36.6867 82.9097 8.51793 82.758 7.88936ZM115.524 54.2011H127.811V18.1428H136.757V7.88936H106.605V18.1414H115.524V54.2011ZM156.61 6.96143C140.151 6.96143 140.151 16.5334 140.151 31.0581C140.151 45.5828 140.151 55.1318 156.61 55.1318C173.069 55.1318 173.069 46.061 173.069 31.0581C173.069 16.058 173.069 6.96143 156.61 6.96143ZM156.61 47.2666C153.368 47.2666 152.84 44.98 152.84 31.0581C152.84 17.1363 153.37 14.851 156.61 14.851C159.85 14.851 160.38 17.1119 160.38 31.0581C160.38 45.0043 159.85 47.2666 156.61 47.2666ZM193.119 47.2666C190.207 47.2666 189.677 45.2062 189.677 41.1598V7.88936H177.39V38.6456C177.39 50.9594 181.362 55.1304 193.119 55.1304C204.153 55.1304 208.851 50.2049 208.851 38.6456V7.88936H196.564V41.1598C196.564 45.2048 196.035 47.2666 193.119 47.2666ZM245.913 52.7692C245.538 52.0147 245.286 49.7023 245.286 47.0404V43.1444C245.286 40.2549 245.186 37.2652 244.079 35.2792C242.947 33.2445 240.737 31.9373 238.174 31.7368H237.772V30.8061L238.147 30.756C243.097 30.0516 245.587 26.3588 245.587 19.8266C245.587 11.784 241.492 7.88936 233.072 7.88936H213.8V54.2011H226.086V35.6315H228.949C231.439 35.6315 232.994 36.4862 232.994 40.8076L233.194 47.818C233.194 52.0906 233.647 53.6227 233.975 54.2011H247.241C246.692 53.8747 246.242 53.4222 245.913 52.7692ZM228.425 27.7663H226.088V16.5334H228.022C230.637 16.5334 233.299 17.162 233.299 21.7855C233.299 26.7354 230.637 27.7663 228.402 27.7663" fill="white"/>
<path d="M248.83 4.79966H249.859C250.939 4.79966 251.267 4.49757 251.267 3.86901C251.267 3.31631 250.989 3.01422 250.01 3.01422H248.83V4.79966ZM248.83 8.01562H247.949V2.3125H250.137C251.492 2.3125 252.172 2.81373 252.172 3.94487C252.172 4.97576 251.519 5.40248 250.664 5.52846L252.296 8.04H251.341L249.809 5.55285H248.83V8.04" fill="white"/>
<path d="M250.01 9.59912C247.547 9.59912 245.562 7.61319 245.562 5.15177C245.562 2.69036 247.547 0.704424 250.01 0.704424C252.473 0.704424 254.434 2.69036 254.434 5.15177C254.434 7.61319 252.447 9.59912 250.01 9.59912ZM250.01 0C247.145 0 244.835 2.31241 244.835 5.15177C244.835 7.99114 247.145 10.3035 250.01 10.3035C252.875 10.3035 255.162 7.99114 255.162 5.15177C255.162 2.31241 252.849 0 250.01 0Z" fill="white"/>
<path d="M138.165 87.6967H134.623L138.215 70.5331H145.83C147.137 70.5331 148.166 70.6591 148.894 70.9355C149.624 71.2118 150.227 71.69 150.654 72.4188C151.106 73.1476 151.334 74.0024 151.334 75.032C151.334 76.4896 150.906 77.6966 150.026 78.6516C149.146 79.6053 147.841 80.1837 146.055 80.41C146.507 80.8123 146.935 81.3406 147.337 82.0193C148.115 83.3509 148.994 85.261 149.975 87.698H146.18C145.878 86.7173 145.276 85.2095 144.395 83.1748C143.918 82.0694 143.393 81.3149 142.84 80.9383C142.512 80.7121 141.908 80.5861 141.08 80.5861H139.646L138.165 87.6967ZM140.2 78.0231H142.087C143.994 78.0231 145.251 77.8971 145.854 77.6708C146.484 77.4446 146.959 77.0924 147.312 76.6156C147.664 76.1387 147.841 75.6348 147.841 75.0821C147.841 74.4549 147.589 74.0024 147.087 73.676C146.785 73.4755 146.105 73.3996 145.049 73.3996H141.155L140.2 78.0231ZM155.983 87.6967L159.55 70.5331H172.289L171.686 73.3982H162.489L161.662 77.2929H170.556L169.953 80.1566H161.084L160.002 84.8302H169.979L169.376 87.6953L155.983 87.6967ZM175.881 87.6967L179.474 70.5331H183.019L179.427 87.6967H175.881ZM187.317 82.1439L190.682 81.9678C190.733 83.0488 190.91 83.7519 191.235 84.1285C191.765 84.7313 192.693 85.0334 194.1 85.0334C195.257 85.0334 196.085 84.8329 196.613 84.4049C197.14 84.0039 197.391 83.5013 197.391 82.8985C197.391 82.3959 197.19 81.9678 196.763 81.617C196.461 81.365 195.658 80.9383 194.324 80.3598C192.993 79.7814 192.014 79.3059 191.411 78.928C190.808 78.55 190.306 78.0488 189.954 77.4202C189.601 76.7917 189.424 76.0886 189.424 75.2582C189.424 73.8263 189.954 72.6207 190.982 71.6656C192.037 70.7106 193.546 70.2338 195.529 70.2338C197.513 70.2338 199.099 70.7106 200.204 71.6399C201.31 72.5949 201.911 73.8521 202.011 75.4086L198.619 75.5589C198.545 74.7312 198.244 74.1027 197.742 73.6746C197.239 73.2465 196.484 73.0217 195.506 73.0217C194.524 73.0217 193.821 73.1978 193.419 73.55C192.993 73.9022 192.792 74.3289 192.792 74.8572C192.792 75.3584 192.992 75.7608 193.369 76.0629C193.747 76.3893 194.601 76.8418 195.909 77.4202C197.893 78.275 199.15 78.9537 199.676 79.5064C200.481 80.284 200.883 81.2891 200.883 82.5219C200.883 84.0283 200.28 85.3355 199.073 86.3908C197.866 87.4718 196.211 88.0001 194.073 88.0001C192.591 88.0001 191.311 87.7482 190.229 87.2456C189.149 86.743 188.394 86.0643 187.942 85.1851C187.49 84.306 187.29 83.2995 187.317 82.1439ZM206.864 87.6967L210.433 70.5331H223.173L222.57 73.3982H213.373L212.568 77.2929H221.463L220.86 80.1566H211.966L210.886 84.8302H220.887L220.284 87.6953L206.864 87.6967ZM240.661 87.6967H237.369L232.72 76.1618L230.308 87.6967H227.043L230.61 70.5331H233.927L238.576 82.0179L240.963 70.5331H244.255L240.661 87.6967Z" fill="white"/>
</svg>
