<svg width="303" height="83" viewBox="0 0 303 83" fill="none" xmlns="http://www.w3.org/2000/svg">
<g clip-path="url(#clip0_1155_304)">
<path d="M103.444 38.9214L93.4847 63.3721C92.5823 65.6312 91.6732 67.8353 90.4472 69.7086C87.7956 73.7172 82.8778 76.5618 77.4436 76.5618C75.5013 76.5618 72.6567 75.2668 72.7188 71.9677C72.7188 69.4468 74.7919 67.5047 77.2438 67.5047C80.0883 67.5666 82.5473 66.017 83.6492 63.4272L84.6203 61.1681L75.4393 38.9214C74.4062 36.2696 75.6942 33.2942 78.2839 32.1991C80.9356 31.0972 83.9729 32.392 85.0129 34.9818L89.4761 45.8503L93.8773 34.9818C95.0413 32.392 97.9478 31.0351 100.668 32.1991C103.32 33.3012 104.546 36.2696 103.444 38.9214Z" fill="white"/>
<path d="M103.444 38.9214L93.4847 63.3721C92.5823 65.6312 91.6732 67.8353 90.4472 69.7086C87.7956 73.7172 82.8778 76.5618 77.4436 76.5618C75.5013 76.5618 72.6567 75.2668 72.7188 71.9677C72.7188 69.4468 74.7919 67.5047 77.2438 67.5047C80.0883 67.5666 82.5473 66.017 83.6492 63.4272L84.6203 61.1681L75.4393 38.9214C74.4062 36.2696 75.6942 33.2942 78.2839 32.1991C80.9356 31.0972 83.9729 32.392 85.0129 34.9818L89.4761 45.8503L93.8773 34.9818C95.0413 32.392 97.9478 31.0351 100.668 32.1991C103.32 33.3012 104.546 36.2696 103.444 38.9214Z" fill="white"/>
<path d="M103.444 38.9214L93.4847 63.3721C92.5823 65.6312 91.6732 67.8353 90.4472 69.7086C87.7956 73.7172 82.8778 76.5618 77.4436 76.5618C75.5013 76.5618 72.6567 75.2668 72.7188 71.9677C72.7188 69.4468 74.7919 67.5047 77.2438 67.5047C80.0883 67.5666 82.5473 66.017 83.6492 63.4272L84.6203 61.1681L75.4393 38.9214C74.4062 36.2696 75.6942 33.2942 78.2839 32.1991C80.9356 31.0972 83.9729 32.392 85.0129 34.9818L89.4761 45.8503L93.8773 34.9818C95.0413 32.392 97.9478 31.0351 100.668 32.1991C103.32 33.3012 104.546 36.2696 103.444 38.9214Z" fill="white"/>
<path d="M103.444 38.9214L93.4847 63.3721C92.5823 65.6312 91.6732 67.8353 90.4472 69.7086C87.7956 73.7172 82.8778 76.5618 77.4436 76.5618C75.5013 76.5618 72.6567 75.2668 72.7188 71.9677C72.7188 69.4468 74.7919 67.5047 77.2438 67.5047C80.0883 67.5666 82.5473 66.017 83.6492 63.4272L84.6203 61.1681L75.4393 38.9214C74.4062 36.2696 75.6942 33.2942 78.2839 32.1991C80.9356 31.0972 83.9729 32.392 85.0129 34.9818L89.4761 45.8503L93.8773 34.9818C95.0413 32.392 97.9478 31.0351 100.668 32.1991C103.32 33.3012 104.546 36.2696 103.444 38.9214Z" fill="white"/>
<path d="M127.557 59.102C127.557 61.9466 125.229 64.2746 122.384 64.2746H121.413C113.782 64.2746 108.348 58.2617 108.348 50.7612V26.8339C108.348 23.9894 110.676 21.6614 113.52 21.6614C116.365 21.6614 118.693 23.9894 118.693 26.8339V31.9444H123.417C125.938 31.9444 127.943 33.9487 127.943 36.4696C127.943 38.9904 125.938 40.9326 123.417 40.9326H118.693V50.7612C118.693 52.3797 119.533 53.9295 121.413 53.9295H122.384C125.229 53.9295 127.557 56.2574 127.557 59.102Z" fill="white"/>
<path d="M127.557 59.102C127.557 61.9466 125.229 64.2746 122.384 64.2746H121.413C113.782 64.2746 108.348 58.2617 108.348 50.7612V26.8339C108.348 23.9894 110.676 21.6614 113.52 21.6614C116.365 21.6614 118.693 23.9894 118.693 26.8339V31.9444H123.417C125.938 31.9444 127.943 33.9487 127.943 36.4696C127.943 38.9904 125.938 40.9326 123.417 40.9326H118.693V50.7612C118.693 52.3797 119.533 53.9295 121.413 53.9295H122.384C125.229 53.9295 127.557 56.2574 127.557 59.102Z" fill="white"/>
<path d="M127.557 59.102C127.557 61.9466 125.229 64.2746 122.384 64.2746H121.413C113.782 64.2746 108.348 58.2617 108.348 50.7612V26.8339C108.348 23.9894 110.676 21.6614 113.52 21.6614C116.365 21.6614 118.693 23.9894 118.693 26.8339V31.9444H123.417C125.938 31.9444 127.943 33.9487 127.943 36.4696C127.943 38.9904 125.938 40.9326 123.417 40.9326H118.693V50.7612C118.693 52.3797 119.533 53.9295 121.413 53.9295H122.384C125.229 53.9295 127.557 56.2574 127.557 59.102Z" fill="white"/>
<path d="M127.557 59.102C127.557 61.9466 125.229 64.2746 122.384 64.2746H121.413C113.782 64.2746 108.348 58.2617 108.348 50.7612V26.8339C108.348 23.9894 110.676 21.6614 113.52 21.6614C116.365 21.6614 118.693 23.9894 118.693 26.8339V31.9444H123.417C125.938 31.9444 127.943 33.9487 127.943 36.4696C127.943 38.9904 125.938 40.9326 123.417 40.9326H118.693V50.7612C118.693 52.3797 119.533 53.9295 121.413 53.9295H122.384C125.229 53.9295 127.557 56.2574 127.557 59.102Z" fill="white"/>
<path d="M156.52 51.987H139.315C142.159 56.3193 147.524 56.9667 151.664 54.7008C153.737 53.406 156.451 54.1842 157.677 56.2504C158.91 58.3857 158.193 61.0993 156.127 62.3322C153.344 63.9508 150.176 64.791 146.877 64.791C139.439 64.791 133.619 60.5897 131.036 55.2174C129.032 51.078 129.093 45.9674 130.843 41.7659C133.102 36.2698 138.729 31.6758 146.044 31.6758C154.384 31.6758 161.368 37.8814 162.408 46.1603C162.794 50.0379 160.211 51.9802 156.526 51.9802L156.52 51.987ZM152.573 44.6175C151.988 42.1585 149.274 39.8305 145.975 39.8305C142.676 39.8305 139.962 42.1585 139.376 44.6175H152.573Z" fill="white"/>
<path d="M156.52 51.987H139.315C142.159 56.3193 147.524 56.9667 151.664 54.7008C153.737 53.406 156.451 54.1842 157.677 56.2504C158.91 58.3857 158.193 61.0993 156.127 62.3322C153.344 63.9508 150.176 64.791 146.877 64.791C139.439 64.791 133.619 60.5897 131.036 55.2174C129.032 51.078 129.093 45.9674 130.843 41.7659C133.102 36.2698 138.729 31.6758 146.044 31.6758C154.384 31.6758 161.368 37.8814 162.408 46.1603C162.794 50.0379 160.211 51.9802 156.526 51.9802L156.52 51.987ZM152.573 44.6175C151.988 42.1585 149.274 39.8305 145.975 39.8305C142.676 39.8305 139.962 42.1585 139.376 44.6175H152.573Z" fill="white"/>
<path d="M156.52 51.987H139.315C142.159 56.3193 147.524 56.9667 151.664 54.7008C153.737 53.406 156.451 54.1842 157.677 56.2504C158.91 58.3857 158.193 61.0993 156.127 62.3322C153.344 63.9508 150.176 64.791 146.877 64.791C139.439 64.791 133.619 60.5897 131.036 55.2174C129.032 51.078 129.093 45.9674 130.843 41.7659C133.102 36.2698 138.729 31.6758 146.044 31.6758C154.384 31.6758 161.368 37.8814 162.408 46.1603C162.794 50.0379 160.211 51.9802 156.526 51.9802L156.52 51.987ZM152.573 44.6175C151.988 42.1585 149.274 39.8305 145.975 39.8305C142.676 39.8305 139.962 42.1585 139.376 44.6175H152.573Z" fill="white"/>
<path d="M156.52 51.987H139.315C142.159 56.3193 147.524 56.9667 151.664 54.7008C153.737 53.406 156.451 54.1842 157.677 56.2504C158.91 58.3857 158.193 61.0993 156.127 62.3322C153.344 63.9508 150.176 64.791 146.877 64.791C139.439 64.791 133.619 60.5897 131.036 55.2174C129.032 51.078 129.093 45.9674 130.843 41.7659C133.102 36.2698 138.729 31.6758 146.044 31.6758C154.384 31.6758 161.368 37.8814 162.408 46.1603C162.794 50.0379 160.211 51.9802 156.526 51.9802L156.52 51.987ZM152.573 44.6175C151.988 42.1585 149.274 39.8305 145.975 39.8305C142.676 39.8305 139.962 42.1585 139.376 44.6175H152.573Z" fill="white"/>
<path d="M196.991 31.2281C196.991 39.438 190.331 46.1052 182.114 46.1052H177.265V59.102C177.265 61.9466 174.936 64.2746 172.092 64.2746C169.247 64.2746 166.92 61.9466 166.92 59.102V21.5925C166.92 18.7479 169.186 16.4199 172.092 16.4199H182.114C190.331 16.4199 196.991 23.0802 196.991 31.2281ZM186.646 31.2281C186.646 28.7693 184.642 26.7651 182.121 26.7651H177.272V35.7533H182.121C184.642 35.7533 186.646 33.8109 186.646 31.2281Z" fill="white"/>
<path d="M196.991 31.2281C196.991 39.438 190.331 46.1052 182.114 46.1052H177.265V59.102C177.265 61.9466 174.936 64.2746 172.092 64.2746C169.247 64.2746 166.92 61.9466 166.92 59.102V21.5925C166.92 18.7479 169.186 16.4199 172.092 16.4199H182.114C190.331 16.4199 196.991 23.0802 196.991 31.2281ZM186.646 31.2281C186.646 28.7693 184.642 26.7651 182.121 26.7651H177.272V35.7533H182.121C184.642 35.7533 186.646 33.8109 186.646 31.2281Z" fill="white"/>
<path d="M196.991 31.2281C196.991 39.438 190.331 46.1052 182.114 46.1052H177.265V59.102C177.265 61.9466 174.936 64.2746 172.092 64.2746C169.247 64.2746 166.92 61.9466 166.92 59.102V21.5925C166.92 18.7479 169.186 16.4199 172.092 16.4199H182.114C190.331 16.4199 196.991 23.0802 196.991 31.2281ZM186.646 31.2281C186.646 28.7693 184.642 26.7651 182.121 26.7651H177.272V35.7533H182.121C184.642 35.7533 186.646 33.8109 186.646 31.2281Z" fill="white"/>
<path d="M196.991 31.2281C196.991 39.438 190.331 46.1052 182.114 46.1052H177.265V59.102C177.265 61.9466 174.936 64.2746 172.092 64.2746C169.247 64.2746 166.92 61.9466 166.92 59.102V21.5925C166.92 18.7479 169.186 16.4199 172.092 16.4199H182.114C190.331 16.4199 196.991 23.0802 196.991 31.2281ZM186.646 31.2281C186.646 28.7693 184.642 26.7651 182.121 26.7651H177.272V35.7533H182.121C184.642 35.7533 186.646 33.8109 186.646 31.2281Z" fill="white"/>
<path d="M205.711 64.2745C202.865 64.2745 200.538 61.9465 200.538 59.1019V36.7243C200.538 33.8797 202.865 31.5517 205.711 31.5517C208.554 31.5517 210.883 33.8797 210.883 36.7243V59.1019C210.883 61.9465 208.554 64.2745 205.711 64.2745ZM210.105 25.6629C210.105 28.1217 208.099 30.126 205.711 30.126C203.32 30.126 201.247 28.1217 201.247 25.6629C201.247 23.2041 203.251 21.2617 205.711 21.2617C208.169 21.2617 210.105 23.266 210.105 25.6629Z" fill="white"/>
<path d="M205.711 64.2745C202.865 64.2745 200.538 61.9465 200.538 59.1019V36.7243C200.538 33.8797 202.865 31.5517 205.711 31.5517C208.554 31.5517 210.883 33.8797 210.883 36.7243V59.1019C210.883 61.9465 208.554 64.2745 205.711 64.2745ZM210.105 25.6629C210.105 28.1217 208.099 30.126 205.711 30.126C203.32 30.126 201.247 28.1217 201.247 25.6629C201.247 23.2041 203.251 21.2617 205.711 21.2617C208.169 21.2617 210.105 23.266 210.105 25.6629Z" fill="white"/>
<path d="M205.711 64.2745C202.865 64.2745 200.538 61.9465 200.538 59.1019V36.7243C200.538 33.8797 202.865 31.5517 205.711 31.5517C208.554 31.5517 210.883 33.8797 210.883 36.7243V59.1019C210.883 61.9465 208.554 64.2745 205.711 64.2745ZM210.105 25.6629C210.105 28.1217 208.099 30.126 205.711 30.126C203.32 30.126 201.247 28.1217 201.247 25.6629C201.247 23.2041 203.251 21.2617 205.711 21.2617C208.169 21.2617 210.105 23.266 210.105 25.6629Z" fill="white"/>
<path d="M205.711 64.2745C202.865 64.2745 200.538 61.9465 200.538 59.1019V36.7243C200.538 33.8797 202.865 31.5517 205.711 31.5517C208.554 31.5517 210.883 33.8797 210.883 36.7243V59.1019C210.883 61.9465 208.554 64.2745 205.711 64.2745ZM210.105 25.6629C210.105 28.1217 208.099 30.126 205.711 30.126C203.32 30.126 201.247 28.1217 201.247 25.6629C201.247 23.2041 203.251 21.2617 205.711 21.2617C208.169 21.2617 210.105 23.266 210.105 25.6629Z" fill="white"/>
<path d="M234.933 59.102C234.933 61.9466 232.606 64.2746 229.761 64.2746H228.789C221.158 64.2746 215.724 58.2617 215.724 50.7612V26.8339C215.724 23.9894 218.053 21.6614 220.896 21.6614C223.741 21.6614 226.069 23.9894 226.069 26.8339V31.9444H230.795C233.315 31.9444 235.32 33.9487 235.32 36.4696C235.32 38.9904 233.315 40.9326 230.795 40.9326H226.069V50.7612C226.069 52.3797 226.91 53.9295 228.789 53.9295H229.761C232.606 53.9295 234.933 56.2574 234.933 59.102Z" fill="white"/>
<path d="M234.933 59.102C234.933 61.9466 232.606 64.2746 229.761 64.2746H228.789C221.158 64.2746 215.724 58.2617 215.724 50.7612V26.8339C215.724 23.9894 218.053 21.6614 220.896 21.6614C223.741 21.6614 226.069 23.9894 226.069 26.8339V31.9444H230.795C233.315 31.9444 235.32 33.9487 235.32 36.4696C235.32 38.9904 233.315 40.9326 230.795 40.9326H226.069V50.7612C226.069 52.3797 226.91 53.9295 228.789 53.9295H229.761C232.606 53.9295 234.933 56.2574 234.933 59.102Z" fill="white"/>
<path d="M234.933 59.102C234.933 61.9466 232.606 64.2746 229.761 64.2746H228.789C221.158 64.2746 215.724 58.2617 215.724 50.7612V26.8339C215.724 23.9894 218.053 21.6614 220.896 21.6614C223.741 21.6614 226.069 23.9894 226.069 26.8339V31.9444H230.795C233.315 31.9444 235.32 33.9487 235.32 36.4696C235.32 38.9904 233.315 40.9326 230.795 40.9326H226.069V50.7612C226.069 52.3797 226.91 53.9295 228.789 53.9295H229.761C232.606 53.9295 234.933 56.2574 234.933 59.102Z" fill="white"/>
<path d="M234.933 59.102C234.933 61.9466 232.606 64.2746 229.761 64.2746H228.789C221.158 64.2746 215.724 58.2617 215.724 50.7612V26.8339C215.724 23.9894 218.053 21.6614 220.896 21.6614C223.741 21.6614 226.069 23.9894 226.069 26.8339V31.9444H230.795C233.315 31.9444 235.32 33.9487 235.32 36.4696C235.32 38.9904 233.315 40.9326 230.795 40.9326H226.069V50.7612C226.069 52.3797 226.91 53.9295 228.789 53.9295H229.761C232.606 53.9295 234.933 56.2574 234.933 59.102Z" fill="white"/>
<path d="M253.488 64.798C244.37 64.798 236.932 57.3593 236.932 48.2403C236.932 39.1212 244.37 31.6826 253.488 31.6826C257.174 31.6826 260.665 32.8466 263.58 35.1127C265.846 36.8622 266.299 40.0923 264.551 42.2895C262.801 44.5554 259.571 45.0031 257.305 43.2606C256.203 42.4203 254.914 41.9658 253.488 41.9658C250.059 41.9658 247.214 44.8104 247.214 48.2403C247.214 51.6703 250.059 54.5149 253.488 54.5149C254.908 54.5149 256.203 54.0602 257.305 53.22C259.571 51.4705 262.808 51.9252 264.551 54.1912C266.231 56.4571 265.846 59.6873 263.58 61.3679C260.673 63.634 257.18 64.798 253.488 64.798Z" fill="white"/>
<path d="M253.488 64.798C244.37 64.798 236.932 57.3593 236.932 48.2403C236.932 39.1212 244.37 31.6826 253.488 31.6826C257.174 31.6826 260.665 32.8466 263.58 35.1127C265.846 36.8622 266.299 40.0923 264.551 42.2895C262.801 44.5554 259.571 45.0031 257.305 43.2606C256.203 42.4203 254.914 41.9658 253.488 41.9658C250.059 41.9658 247.214 44.8104 247.214 48.2403C247.214 51.6703 250.059 54.5149 253.488 54.5149C254.908 54.5149 256.203 54.0602 257.305 53.22C259.571 51.4705 262.808 51.9252 264.551 54.1912C266.231 56.4571 265.846 59.6873 263.58 61.3679C260.673 63.634 257.18 64.798 253.488 64.798Z" fill="white"/>
<path d="M253.488 64.798C244.37 64.798 236.932 57.3593 236.932 48.2403C236.932 39.1212 244.37 31.6826 253.488 31.6826C257.174 31.6826 260.665 32.8466 263.58 35.1127C265.846 36.8622 266.299 40.0923 264.551 42.2895C262.801 44.5554 259.571 45.0031 257.305 43.2606C256.203 42.4203 254.914 41.9658 253.488 41.9658C250.059 41.9658 247.214 44.8104 247.214 48.2403C247.214 51.6703 250.059 54.5149 253.488 54.5149C254.908 54.5149 256.203 54.0602 257.305 53.22C259.571 51.4705 262.808 51.9252 264.551 54.1912C266.231 56.4571 265.846 59.6873 263.58 61.3679C260.673 63.634 257.18 64.798 253.488 64.798Z" fill="white"/>
<path d="M253.488 64.798C244.37 64.798 236.932 57.3593 236.932 48.2403C236.932 39.1212 244.37 31.6826 253.488 31.6826C257.174 31.6826 260.665 32.8466 263.58 35.1127C265.846 36.8622 266.299 40.0923 264.551 42.2895C262.801 44.5554 259.571 45.0031 257.305 43.2606C256.203 42.4203 254.914 41.9658 253.488 41.9658C250.059 41.9658 247.214 44.8104 247.214 48.2403C247.214 51.6703 250.059 54.5149 253.488 54.5149C254.908 54.5149 256.203 54.0602 257.305 53.22C259.571 51.4705 262.808 51.9252 264.551 54.1912C266.231 56.4571 265.846 59.6873 263.58 61.3679C260.673 63.634 257.18 64.798 253.488 64.798Z" fill="white"/>
<path d="M298.491 45.9124V59.1089C298.491 61.9534 296.164 64.2814 293.319 64.2814C290.475 64.2814 288.146 61.9534 288.146 59.1089V45.9124C288.146 43.7152 286.335 41.9038 284.139 41.9038C281.941 41.9038 280.191 43.7152 280.191 45.9124V59.1089C280.191 61.9534 277.864 64.2814 275.019 64.2814C272.175 64.2814 269.778 61.9534 269.778 59.1089V26.4414C269.778 23.5279 272.106 21.2 275.019 21.2C277.932 21.2 280.191 23.5279 280.191 26.4414V32.0685C281.486 31.7448 282.781 31.5519 284.139 31.5519C292.094 31.5519 298.5 37.9503 298.5 45.9056L298.491 45.9124Z" fill="white"/>
<path d="M298.491 45.9124V59.1089C298.491 61.9534 296.164 64.2814 293.319 64.2814C290.475 64.2814 288.146 61.9534 288.146 59.1089V45.9124C288.146 43.7152 286.335 41.9038 284.139 41.9038C281.941 41.9038 280.191 43.7152 280.191 45.9124V59.1089C280.191 61.9534 277.864 64.2814 275.019 64.2814C272.175 64.2814 269.778 61.9534 269.778 59.1089V26.4414C269.778 23.5279 272.106 21.2 275.019 21.2C277.932 21.2 280.191 23.5279 280.191 26.4414V32.0685C281.486 31.7448 282.781 31.5519 284.139 31.5519C292.094 31.5519 298.5 37.9503 298.5 45.9056L298.491 45.9124Z" fill="white"/>
<path d="M298.491 45.9124V59.1089C298.491 61.9534 296.164 64.2814 293.319 64.2814C290.475 64.2814 288.146 61.9534 288.146 59.1089V45.9124C288.146 43.7152 286.335 41.9038 284.139 41.9038C281.941 41.9038 280.191 43.7152 280.191 45.9124V59.1089C280.191 61.9534 277.864 64.2814 275.019 64.2814C272.175 64.2814 269.778 61.9534 269.778 59.1089V26.4414C269.778 23.5279 272.106 21.2 275.019 21.2C277.932 21.2 280.191 23.5279 280.191 26.4414V32.0685C281.486 31.7448 282.781 31.5519 284.139 31.5519C292.094 31.5519 298.5 37.9503 298.5 45.9056L298.491 45.9124Z" fill="white"/>
<path d="M298.491 45.9124V59.1089C298.491 61.9534 296.164 64.2814 293.319 64.2814C290.475 64.2814 288.146 61.9534 288.146 59.1089V45.9124C288.146 43.7152 286.335 41.9038 284.139 41.9038C281.941 41.9038 280.191 43.7152 280.191 45.9124V59.1089C280.191 61.9534 277.864 64.2814 275.019 64.2814C272.175 64.2814 269.778 61.9534 269.778 59.1089V26.4414C269.778 23.5279 272.106 21.2 275.019 21.2C277.932 21.2 280.191 23.5279 280.191 26.4414V32.0685C281.486 31.7448 282.781 31.5519 284.139 31.5519C292.094 31.5519 298.5 37.9503 298.5 45.9056L298.491 45.9124Z" fill="white"/>
<path d="M171.734 74.4475C171.307 74.3098 170.673 74.1582 170.564 74.6472C170.452 75.0949 171.259 75.3222 171.596 75.3911C172.272 75.5289 172.926 75.9077 173.401 76.4311C174.435 77.5126 174.661 79.2205 174.076 80.5774C173.47 81.9756 172.071 82.809 170.584 82.8986C169.75 82.9399 168.016 82.7195 167.318 81.7965C166.437 80.6257 167.298 78.9795 168.718 79.0484C169.282 79.0691 169.888 79.4961 170.363 79.5236C171.176 79.5925 171.356 78.6007 170.59 78.394C169.173 77.9671 168.132 77.4023 167.484 76.0936C167.01 75.1019 167.119 73.8621 167.801 72.9666C168.882 71.4997 170.936 71.0107 172.622 71.6581C173.519 72.0163 174.262 72.9391 173.704 73.9309C173.298 74.6059 172.602 74.7437 171.747 74.4475H171.734Z" fill="white"/>
<path d="M171.734 74.4475C171.307 74.3098 170.673 74.1582 170.564 74.6472C170.452 75.0949 171.259 75.3222 171.596 75.3911C172.272 75.5289 172.926 75.9077 173.401 76.4311C174.435 77.5126 174.661 79.2205 174.076 80.5774C173.47 81.9756 172.071 82.809 170.584 82.8986C169.75 82.9399 168.016 82.7195 167.318 81.7965C166.437 80.6257 167.298 78.9795 168.718 79.0484C169.282 79.0691 169.888 79.4961 170.363 79.5236C171.176 79.5925 171.356 78.6007 170.59 78.394C169.173 77.9671 168.132 77.4023 167.484 76.0936C167.01 75.1019 167.119 73.8621 167.801 72.9666C168.882 71.4997 170.936 71.0107 172.622 71.6581C173.519 72.0163 174.262 72.9391 173.704 73.9309C173.298 74.6059 172.602 74.7437 171.747 74.4475H171.734Z" fill="white"/>
<path d="M171.734 74.4475C171.307 74.3098 170.673 74.1582 170.564 74.6472C170.452 75.0949 171.259 75.3222 171.596 75.3911C172.272 75.5289 172.926 75.9077 173.401 76.4311C174.435 77.5126 174.661 79.2205 174.076 80.5774C173.47 81.9756 172.071 82.809 170.584 82.8986C169.75 82.9399 168.016 82.7195 167.318 81.7965C166.437 80.6257 167.298 78.9795 168.718 79.0484C169.282 79.0691 169.888 79.4961 170.363 79.5236C171.176 79.5925 171.356 78.6007 170.59 78.394C169.173 77.9671 168.132 77.4023 167.484 76.0936C167.01 75.1019 167.119 73.8621 167.801 72.9666C168.882 71.4997 170.936 71.0107 172.622 71.6581C173.519 72.0163 174.262 72.9391 173.704 73.9309C173.298 74.6059 172.602 74.7437 171.747 74.4475H171.734Z" fill="white"/>
<path d="M171.734 74.4475C171.307 74.3098 170.673 74.1582 170.564 74.6472C170.452 75.0949 171.259 75.3222 171.596 75.3911C172.272 75.5289 172.926 75.9077 173.401 76.4311C174.435 77.5126 174.661 79.2205 174.076 80.5774C173.47 81.9756 172.071 82.809 170.584 82.8986C169.75 82.9399 168.016 82.7195 167.318 81.7965C166.437 80.6257 167.298 78.9795 168.718 79.0484C169.282 79.0691 169.888 79.4961 170.363 79.5236C171.176 79.5925 171.356 78.6007 170.59 78.394C169.173 77.9671 168.132 77.4023 167.484 76.0936C167.01 75.1019 167.119 73.8621 167.801 72.9666C168.882 71.4997 170.936 71.0107 172.622 71.6581C173.519 72.0163 174.262 72.9391 173.704 73.9309C173.298 74.6059 172.602 74.7437 171.747 74.4475H171.734Z" fill="white"/>
<path d="M187.258 77.154C187.258 80.3291 184.669 82.9189 181.493 82.9189C178.319 82.9189 175.729 80.3291 175.729 77.154C175.729 73.9789 178.319 71.3892 181.493 71.3892C184.669 71.3892 187.258 73.9789 187.258 77.154ZM179.31 77.154C179.31 78.3661 180.281 79.3374 181.493 79.3374C182.706 79.3374 183.678 78.3661 183.678 77.154C183.678 75.9419 182.706 74.9706 181.493 74.9706C180.281 74.9706 179.31 75.9419 179.31 77.154Z" fill="white"/>
<path d="M187.258 77.154C187.258 80.3291 184.669 82.9189 181.493 82.9189C178.319 82.9189 175.729 80.3291 175.729 77.154C175.729 73.9789 178.319 71.3892 181.493 71.3892C184.669 71.3892 187.258 73.9789 187.258 77.154ZM179.31 77.154C179.31 78.3661 180.281 79.3374 181.493 79.3374C182.706 79.3374 183.678 78.3661 183.678 77.154C183.678 75.9419 182.706 74.9706 181.493 74.9706C180.281 74.9706 179.31 75.9419 179.31 77.154Z" fill="white"/>
<path d="M187.258 77.154C187.258 80.3291 184.669 82.9189 181.493 82.9189C178.319 82.9189 175.729 80.3291 175.729 77.154C175.729 73.9789 178.319 71.3892 181.493 71.3892C184.669 71.3892 187.258 73.9789 187.258 77.154ZM179.31 77.154C179.31 78.3661 180.281 79.3374 181.493 79.3374C182.706 79.3374 183.678 78.3661 183.678 77.154C183.678 75.9419 182.706 74.9706 181.493 74.9706C180.281 74.9706 179.31 75.9419 179.31 77.154Z" fill="white"/>
<path d="M187.258 77.154C187.258 80.3291 184.669 82.9189 181.493 82.9189C178.319 82.9189 175.729 80.3291 175.729 77.154C175.729 73.9789 178.319 71.3892 181.493 71.3892C184.669 71.3892 187.258 73.9789 187.258 77.154ZM179.31 77.154C179.31 78.3661 180.281 79.3374 181.493 79.3374C182.706 79.3374 183.678 78.3661 183.678 77.154C183.678 75.9419 182.706 74.9706 181.493 74.9706C180.281 74.9706 179.31 75.9419 179.31 77.154Z" fill="white"/>
<path d="M194.972 75.0329C194.972 75.8869 194.277 76.5894 193.395 76.5894H192.066V80.9561C192.066 81.9272 191.274 82.7331 190.289 82.7331C189.303 82.7331 188.505 81.9204 188.505 80.9561V72.5739C188.505 69.9843 190.6 67.8904 193.189 67.8904C194.18 67.8904 194.966 68.7031 194.966 69.6674C194.966 70.6317 194.174 71.472 193.189 71.472C192.582 71.472 192.059 71.9678 192.059 72.5739V73.4555H193.389C194.27 73.4555 194.966 74.1788 194.966 75.0329H194.972Z" fill="white"/>
<path d="M194.972 75.0329C194.972 75.8869 194.277 76.5894 193.395 76.5894H192.066V80.9561C192.066 81.9272 191.274 82.7331 190.289 82.7331C189.303 82.7331 188.505 81.9204 188.505 80.9561V72.5739C188.505 69.9843 190.6 67.8904 193.189 67.8904C194.18 67.8904 194.966 68.7031 194.966 69.6674C194.966 70.6317 194.174 71.472 193.189 71.472C192.582 71.472 192.059 71.9678 192.059 72.5739V73.4555H193.389C194.27 73.4555 194.966 74.1788 194.966 75.0329H194.972Z" fill="white"/>
<path d="M194.972 75.0329C194.972 75.8869 194.277 76.5894 193.395 76.5894H192.066V80.9561C192.066 81.9272 191.274 82.7331 190.289 82.7331C189.303 82.7331 188.505 81.9204 188.505 80.9561V72.5739C188.505 69.9843 190.6 67.8904 193.189 67.8904C194.18 67.8904 194.966 68.7031 194.966 69.6674C194.966 70.6317 194.174 71.472 193.189 71.472C192.582 71.472 192.059 71.9678 192.059 72.5739V73.4555H193.389C194.27 73.4555 194.966 74.1788 194.966 75.0329H194.972Z" fill="white"/>
<path d="M194.972 75.0329C194.972 75.8869 194.277 76.5894 193.395 76.5894H192.066V80.9561C192.066 81.9272 191.274 82.7331 190.289 82.7331C189.303 82.7331 188.505 81.9204 188.505 80.9561V72.5739C188.505 69.9843 190.6 67.8904 193.189 67.8904C194.18 67.8904 194.966 68.7031 194.966 69.6674C194.966 70.6317 194.174 71.472 193.189 71.472C192.582 71.472 192.059 71.9678 192.059 72.5739V73.4555H193.389C194.27 73.4555 194.966 74.1788 194.966 75.0329H194.972Z" fill="white"/>
<path d="M203.017 80.9355C203.017 81.9272 202.212 82.7399 201.219 82.7399H200.882C198.224 82.7399 196.337 80.6462 196.337 78.0288V69.695C196.337 68.7031 197.149 67.8904 198.135 67.8904C199.119 67.8904 199.939 68.7031 199.939 69.695V71.472H201.578C202.459 71.472 203.155 72.1675 203.155 73.0492C203.155 73.9308 202.459 74.6057 201.578 74.6057H199.939V78.0288C199.939 78.5937 200.228 79.1309 200.882 79.1309H201.219C202.212 79.1309 203.017 79.9436 203.017 80.9355Z" fill="white"/>
<path d="M203.017 80.9355C203.017 81.9272 202.212 82.7399 201.219 82.7399H200.882C198.224 82.7399 196.337 80.6462 196.337 78.0288V69.695C196.337 68.7031 197.149 67.8904 198.135 67.8904C199.119 67.8904 199.939 68.7031 199.939 69.695V71.472H201.578C202.459 71.472 203.155 72.1675 203.155 73.0492C203.155 73.9308 202.459 74.6057 201.578 74.6057H199.939V78.0288C199.939 78.5937 200.228 79.1309 200.882 79.1309H201.219C202.212 79.1309 203.017 79.9436 203.017 80.9355Z" fill="white"/>
<path d="M203.017 80.9355C203.017 81.9272 202.212 82.7399 201.219 82.7399H200.882C198.224 82.7399 196.337 80.6462 196.337 78.0288V69.695C196.337 68.7031 197.149 67.8904 198.135 67.8904C199.119 67.8904 199.939 68.7031 199.939 69.695V71.472H201.578C202.459 71.472 203.155 72.1675 203.155 73.0492C203.155 73.9308 202.459 74.6057 201.578 74.6057H199.939V78.0288C199.939 78.5937 200.228 79.1309 200.882 79.1309H201.219C202.212 79.1309 203.017 79.9436 203.017 80.9355Z" fill="white"/>
<path d="M203.017 80.9355C203.017 81.9272 202.212 82.7399 201.219 82.7399H200.882C198.224 82.7399 196.337 80.6462 196.337 78.0288V69.695C196.337 68.7031 197.149 67.8904 198.135 67.8904C199.119 67.8904 199.939 68.7031 199.939 69.695V71.472H201.578C202.459 71.472 203.155 72.1675 203.155 73.0492C203.155 73.9308 202.459 74.6057 201.578 74.6057H199.939V78.0288C199.939 78.5937 200.228 79.1309 200.882 79.1309H201.219C202.212 79.1309 203.017 79.9436 203.017 80.9355Z" fill="white"/>
<path d="M220.367 73.9101L217.213 81.6379C216.785 82.671 215.951 82.7399 215.546 82.7399C214.939 82.7399 214.216 82.4231 213.948 81.7688L212.233 77.5329L210.496 81.7688C210.249 82.3748 209.663 82.7399 209.057 82.7399C208.651 82.7399 207.659 82.671 207.233 81.6379L204.077 73.9101C203.699 72.9872 204.147 71.9748 205.048 71.589C205.971 71.2034 207.005 71.6373 207.371 72.5601L209.127 76.8648L210.772 72.8564C211.021 72.2502 211.605 71.8851 212.239 71.8851C212.874 71.8851 213.431 72.2433 213.679 72.8564L215.325 76.8648L217.082 72.5601C217.447 71.6373 218.501 71.2102 219.402 71.589C220.305 71.9748 220.752 72.9872 220.373 73.9101H220.367Z" fill="white"/>
<path d="M220.367 73.9101L217.213 81.6379C216.785 82.671 215.951 82.7399 215.546 82.7399C214.939 82.7399 214.216 82.4231 213.948 81.7688L212.233 77.5329L210.496 81.7688C210.249 82.3748 209.663 82.7399 209.057 82.7399C208.651 82.7399 207.659 82.671 207.233 81.6379L204.077 73.9101C203.699 72.9872 204.147 71.9748 205.048 71.589C205.971 71.2034 207.005 71.6373 207.371 72.5601L209.127 76.8648L210.772 72.8564C211.021 72.2502 211.605 71.8851 212.239 71.8851C212.874 71.8851 213.431 72.2433 213.679 72.8564L215.325 76.8648L217.082 72.5601C217.447 71.6373 218.501 71.2102 219.402 71.589C220.305 71.9748 220.752 72.9872 220.373 73.9101H220.367Z" fill="white"/>
<path d="M220.367 73.9101L217.213 81.6379C216.785 82.671 215.951 82.7399 215.546 82.7399C214.939 82.7399 214.216 82.4231 213.948 81.7688L212.233 77.5329L210.496 81.7688C210.249 82.3748 209.663 82.7399 209.057 82.7399C208.651 82.7399 207.659 82.671 207.233 81.6379L204.077 73.9101C203.699 72.9872 204.147 71.9748 205.048 71.589C205.971 71.2034 207.005 71.6373 207.371 72.5601L209.127 76.8648L210.772 72.8564C211.021 72.2502 211.605 71.8851 212.239 71.8851C212.874 71.8851 213.431 72.2433 213.679 72.8564L215.325 76.8648L217.082 72.5601C217.447 71.6373 218.501 71.2102 219.402 71.589C220.305 71.9748 220.752 72.9872 220.373 73.9101H220.367Z" fill="white"/>
<path d="M220.367 73.9101L217.213 81.6379C216.785 82.671 215.951 82.7399 215.546 82.7399C214.939 82.7399 214.216 82.4231 213.948 81.7688L212.233 77.5329L210.496 81.7688C210.249 82.3748 209.663 82.7399 209.057 82.7399C208.651 82.7399 207.659 82.671 207.233 81.6379L204.077 73.9101C203.699 72.9872 204.147 71.9748 205.048 71.589C205.971 71.2034 207.005 71.6373 207.371 72.5601L209.127 76.8648L210.772 72.8564C211.021 72.2502 211.605 71.8851 212.239 71.8851C212.874 71.8851 213.431 72.2433 213.679 72.8564L215.325 76.8648L217.082 72.5601C217.447 71.6373 218.501 71.2102 219.402 71.589C220.305 71.9748 220.752 72.9872 220.373 73.9101H220.367Z" fill="white"/>
<path d="M232.612 73.1662V81.0524C232.612 81.9753 231.849 82.7398 230.926 82.7398C230.429 82.7398 229.981 82.5125 229.664 82.2026C228.811 82.6503 227.888 82.9259 226.847 82.9259C223.673 82.9259 221.082 80.3361 221.082 77.161C221.082 73.9858 223.673 71.396 226.847 71.396C227.84 71.396 228.763 71.6648 229.616 72.1125C229.933 71.7061 230.381 71.4787 230.926 71.4787C231.849 71.4787 232.612 72.2433 232.612 73.1662ZM229.032 77.154C229.032 75.9349 228.061 74.9706 226.847 74.9706C225.635 74.9706 224.664 75.9419 224.664 77.154C224.664 78.3662 225.635 79.3374 226.847 79.3374C228.061 79.3374 229.032 78.3662 229.032 77.154Z" fill="white"/>
<path d="M232.612 73.1662V81.0524C232.612 81.9753 231.849 82.7398 230.926 82.7398C230.429 82.7398 229.981 82.5125 229.664 82.2026C228.811 82.6503 227.888 82.9259 226.847 82.9259C223.673 82.9259 221.082 80.3361 221.082 77.161C221.082 73.9858 223.673 71.396 226.847 71.396C227.84 71.396 228.763 71.6648 229.616 72.1125C229.933 71.7061 230.381 71.4787 230.926 71.4787C231.849 71.4787 232.612 72.2433 232.612 73.1662ZM229.032 77.154C229.032 75.9349 228.061 74.9706 226.847 74.9706C225.635 74.9706 224.664 75.9419 224.664 77.154C224.664 78.3662 225.635 79.3374 226.847 79.3374C228.061 79.3374 229.032 78.3662 229.032 77.154Z" fill="white"/>
<path d="M232.612 73.1662V81.0524C232.612 81.9753 231.849 82.7398 230.926 82.7398C230.429 82.7398 229.981 82.5125 229.664 82.2026C228.811 82.6503 227.888 82.9259 226.847 82.9259C223.673 82.9259 221.082 80.3361 221.082 77.161C221.082 73.9858 223.673 71.396 226.847 71.396C227.84 71.396 228.763 71.6648 229.616 72.1125C229.933 71.7061 230.381 71.4787 230.926 71.4787C231.849 71.4787 232.612 72.2433 232.612 73.1662ZM229.032 77.154C229.032 75.9349 228.061 74.9706 226.847 74.9706C225.635 74.9706 224.664 75.9419 224.664 77.154C224.664 78.3662 225.635 79.3374 226.847 79.3374C228.061 79.3374 229.032 78.3662 229.032 77.154Z" fill="white"/>
<path d="M232.612 73.1662V81.0524C232.612 81.9753 231.849 82.7398 230.926 82.7398C230.429 82.7398 229.981 82.5125 229.664 82.2026C228.811 82.6503 227.888 82.9259 226.847 82.9259C223.673 82.9259 221.082 80.3361 221.082 77.161C221.082 73.9858 223.673 71.396 226.847 71.396C227.84 71.396 228.763 71.6648 229.616 72.1125C229.933 71.7061 230.381 71.4787 230.926 71.4787C231.849 71.4787 232.612 72.2433 232.612 73.1662ZM229.032 77.154C229.032 75.9349 228.061 74.9706 226.847 74.9706C225.635 74.9706 224.664 75.9419 224.664 77.154C224.664 78.3662 225.635 79.3374 226.847 79.3374C228.061 79.3374 229.032 78.3662 229.032 77.154Z" fill="white"/>
<path d="M241.311 73.2766C241.263 74.2683 240.41 74.964 239.417 74.9915C238.625 75.0121 237.978 75.5976 237.978 76.3622V80.9561C237.978 81.9479 237.186 82.7331 236.195 82.7331C235.202 82.7331 234.417 81.941 234.417 80.9561V73.1664C234.417 72.2434 235.161 71.4788 236.105 71.4788C236.532 71.4788 236.917 71.6373 237.234 71.9059C238.157 71.4307 239.17 71.4099 239.624 71.4099C240.615 71.4307 241.359 72.2915 241.311 73.2766Z" fill="white"/>
<path d="M241.311 73.2766C241.263 74.2683 240.41 74.964 239.417 74.9915C238.625 75.0121 237.978 75.5976 237.978 76.3622V80.9561C237.978 81.9479 237.186 82.7331 236.195 82.7331C235.202 82.7331 234.417 81.941 234.417 80.9561V73.1664C234.417 72.2434 235.161 71.4788 236.105 71.4788C236.532 71.4788 236.917 71.6373 237.234 71.9059C238.157 71.4307 239.17 71.4099 239.624 71.4099C240.615 71.4307 241.359 72.2915 241.311 73.2766Z" fill="white"/>
<path d="M241.311 73.2766C241.263 74.2683 240.41 74.964 239.417 74.9915C238.625 75.0121 237.978 75.5976 237.978 76.3622V80.9561C237.978 81.9479 237.186 82.7331 236.195 82.7331C235.202 82.7331 234.417 81.941 234.417 80.9561V73.1664C234.417 72.2434 235.161 71.4788 236.105 71.4788C236.532 71.4788 236.917 71.6373 237.234 71.9059C238.157 71.4307 239.17 71.4099 239.624 71.4099C240.615 71.4307 241.359 72.2915 241.311 73.2766Z" fill="white"/>
<path d="M241.311 73.2766C241.263 74.2683 240.41 74.964 239.417 74.9915C238.625 75.0121 237.978 75.5976 237.978 76.3622V80.9561C237.978 81.9479 237.186 82.7331 236.195 82.7331C235.202 82.7331 234.417 81.941 234.417 80.9561V73.1664C234.417 72.2434 235.161 71.4788 236.105 71.4788C236.532 71.4788 236.917 71.6373 237.234 71.9059C238.157 71.4307 239.17 71.4099 239.624 71.4099C240.615 71.4307 241.359 72.2915 241.311 73.2766Z" fill="white"/>
<path d="M251.726 78.4559H245.734C246.726 79.9642 248.592 80.1916 250.038 79.3995C250.762 78.9518 251.705 79.2203 252.133 79.9436C252.559 80.6875 252.312 81.631 251.595 82.0581C250.631 82.6228 249.522 82.9122 248.378 82.9122C245.788 82.9122 243.756 81.4451 242.855 79.5786C242.16 78.139 242.179 76.3552 242.785 74.895C243.579 72.9802 245.534 71.3823 248.082 71.3823C250.989 71.3823 253.421 73.5451 253.778 76.4309C253.916 77.781 253.014 78.4559 251.726 78.4559ZM250.355 75.8869C250.149 75.0328 249.205 74.2201 248.054 74.2201C246.906 74.2201 245.961 75.0328 245.755 75.8869H250.355Z" fill="white"/>
<path d="M251.726 78.4559H245.734C246.726 79.9642 248.592 80.1916 250.038 79.3995C250.762 78.9518 251.705 79.2203 252.133 79.9436C252.559 80.6875 252.312 81.631 251.595 82.0581C250.631 82.6228 249.522 82.9122 248.378 82.9122C245.788 82.9122 243.756 81.4451 242.855 79.5786C242.16 78.139 242.179 76.3552 242.785 74.895C243.579 72.9802 245.534 71.3823 248.082 71.3823C250.989 71.3823 253.421 73.5451 253.778 76.4309C253.916 77.781 253.014 78.4559 251.726 78.4559ZM250.355 75.8869C250.149 75.0328 249.205 74.2201 248.054 74.2201C246.906 74.2201 245.961 75.0328 245.755 75.8869H250.355Z" fill="white"/>
<path d="M251.726 78.4559H245.734C246.726 79.9642 248.592 80.1916 250.038 79.3995C250.762 78.9518 251.705 79.2203 252.133 79.9436C252.559 80.6875 252.312 81.631 251.595 82.0581C250.631 82.6228 249.522 82.9122 248.378 82.9122C245.788 82.9122 243.756 81.4451 242.855 79.5786C242.16 78.139 242.179 76.3552 242.785 74.895C243.579 72.9802 245.534 71.3823 248.082 71.3823C250.989 71.3823 253.421 73.5451 253.778 76.4309C253.916 77.781 253.014 78.4559 251.726 78.4559ZM250.355 75.8869C250.149 75.0328 249.205 74.2201 248.054 74.2201C246.906 74.2201 245.961 75.0328 245.755 75.8869H250.355Z" fill="white"/>
<path d="M251.726 78.4559H245.734C246.726 79.9642 248.592 80.1916 250.038 79.3995C250.762 78.9518 251.705 79.2203 252.133 79.9436C252.559 80.6875 252.312 81.631 251.595 82.0581C250.631 82.6228 249.522 82.9122 248.378 82.9122C245.788 82.9122 243.756 81.4451 242.855 79.5786C242.16 78.139 242.179 76.3552 242.785 74.895C243.579 72.9802 245.534 71.3823 248.082 71.3823C250.989 71.3823 253.421 73.5451 253.778 76.4309C253.916 77.781 253.014 78.4559 251.726 78.4559ZM250.355 75.8869C250.149 75.0328 249.205 74.2201 248.054 74.2201C246.906 74.2201 245.961 75.0328 245.755 75.8869H250.355Z" fill="white"/>
<path d="M263.248 82.733C262.257 82.733 261.45 81.9203 261.45 80.9284V69.5571C261.45 68.5654 262.264 67.7527 263.248 67.7527C264.234 67.7527 265.052 68.5654 265.052 69.5571V80.9284C265.052 81.9203 264.241 82.733 263.248 82.733Z" fill="white"/>
<path d="M263.248 82.733C262.257 82.733 261.45 81.9203 261.45 80.9284V69.5571C261.45 68.5654 262.264 67.7527 263.248 67.7527C264.234 67.7527 265.052 68.5654 265.052 69.5571V80.9284C265.052 81.9203 264.241 82.733 263.248 82.733Z" fill="white"/>
<path d="M263.248 82.733C262.257 82.733 261.45 81.9203 261.45 80.9284V69.5571C261.45 68.5654 262.264 67.7527 263.248 67.7527C264.234 67.7527 265.052 68.5654 265.052 69.5571V80.9284C265.052 81.9203 264.241 82.733 263.248 82.733Z" fill="white"/>
<path d="M263.248 82.733C262.257 82.733 261.45 81.9203 261.45 80.9284V69.5571C261.45 68.5654 262.264 67.7527 263.248 67.7527C264.234 67.7527 265.052 68.5654 265.052 69.5571V80.9284C265.052 81.9203 264.241 82.733 263.248 82.733Z" fill="white"/>
<path d="M277.939 73.1662V81.0524C277.939 81.9753 277.175 82.7398 276.252 82.7398C275.756 82.7398 275.308 82.5125 274.992 82.2026C274.137 82.6503 273.214 82.9259 272.175 82.9259C269 82.9259 266.41 80.3361 266.41 77.161C266.41 73.9858 269 71.396 272.175 71.396C273.166 71.396 274.089 71.6648 274.944 72.1193C275.26 71.7129 275.708 71.4856 276.252 71.4856C277.175 71.4856 277.939 72.2501 277.939 73.173V73.1662ZM274.358 77.154C274.358 75.9349 273.387 74.9706 272.175 74.9706C270.962 74.9706 269.991 75.9419 269.991 77.154C269.991 78.3662 270.962 79.3374 272.175 79.3374C273.387 79.3374 274.358 78.3662 274.358 77.154Z" fill="white"/>
<path d="M277.939 73.1662V81.0524C277.939 81.9753 277.175 82.7398 276.252 82.7398C275.756 82.7398 275.308 82.5125 274.992 82.2026C274.137 82.6503 273.214 82.9259 272.175 82.9259C269 82.9259 266.41 80.3361 266.41 77.161C266.41 73.9858 269 71.396 272.175 71.396C273.166 71.396 274.089 71.6648 274.944 72.1193C275.26 71.7129 275.708 71.4856 276.252 71.4856C277.175 71.4856 277.939 72.2501 277.939 73.173V73.1662ZM274.358 77.154C274.358 75.9349 273.387 74.9706 272.175 74.9706C270.962 74.9706 269.991 75.9419 269.991 77.154C269.991 78.3662 270.962 79.3374 272.175 79.3374C273.387 79.3374 274.358 78.3662 274.358 77.154Z" fill="white"/>
<path d="M277.939 73.1662V81.0524C277.939 81.9753 277.175 82.7398 276.252 82.7398C275.756 82.7398 275.308 82.5125 274.992 82.2026C274.137 82.6503 273.214 82.9259 272.175 82.9259C269 82.9259 266.41 80.3361 266.41 77.161C266.41 73.9858 269 71.396 272.175 71.396C273.166 71.396 274.089 71.6648 274.944 72.1193C275.26 71.7129 275.708 71.4856 276.252 71.4856C277.175 71.4856 277.939 72.2501 277.939 73.173V73.1662ZM274.358 77.154C274.358 75.9349 273.387 74.9706 272.175 74.9706C270.962 74.9706 269.991 75.9419 269.991 77.154C269.991 78.3662 270.962 79.3374 272.175 79.3374C273.387 79.3374 274.358 78.3662 274.358 77.154Z" fill="white"/>
<path d="M277.939 73.1662V81.0524C277.939 81.9753 277.175 82.7398 276.252 82.7398C275.756 82.7398 275.308 82.5125 274.992 82.2026C274.137 82.6503 273.214 82.9259 272.175 82.9259C269 82.9259 266.41 80.3361 266.41 77.161C266.41 73.9858 269 71.396 272.175 71.396C273.166 71.396 274.089 71.6648 274.944 72.1193C275.26 71.7129 275.708 71.4856 276.252 71.4856C277.175 71.4856 277.939 72.2501 277.939 73.173V73.1662ZM274.358 77.154C274.358 75.9349 273.387 74.9706 272.175 74.9706C270.962 74.9706 269.991 75.9419 269.991 77.154C269.991 78.3662 270.962 79.3374 272.175 79.3374C273.387 79.3374 274.358 78.3662 274.358 77.154Z" fill="white"/>
<path d="M291.281 77.154C291.281 80.329 288.691 82.9188 285.515 82.9188C284.505 82.9188 283.533 82.6502 282.7 82.1957C282.383 82.5332 281.955 82.7329 281.46 82.7329C280.496 82.7329 279.752 81.989 279.752 81.0248V69.6259C279.752 68.7237 280.516 67.9591 281.419 67.9385H281.598C282.569 67.9385 283.333 68.7305 283.333 69.7155V71.8093C283.987 71.5407 284.752 71.3821 285.515 71.3821C288.691 71.3821 291.281 73.9719 291.281 77.1472V77.154ZM287.7 77.154C287.7 75.9349 286.707 74.9706 285.515 74.9706C284.325 74.9706 283.333 75.9418 283.333 77.154C283.333 78.3661 284.325 79.3374 285.515 79.3374C286.707 79.3374 287.7 78.3455 287.7 77.154Z" fill="white"/>
<path d="M291.281 77.154C291.281 80.329 288.691 82.9188 285.515 82.9188C284.505 82.9188 283.533 82.6502 282.7 82.1957C282.383 82.5332 281.955 82.7329 281.46 82.7329C280.496 82.7329 279.752 81.989 279.752 81.0248V69.6259C279.752 68.7237 280.516 67.9591 281.419 67.9385H281.598C282.569 67.9385 283.333 68.7305 283.333 69.7155V71.8093C283.987 71.5407 284.752 71.3821 285.515 71.3821C288.691 71.3821 291.281 73.9719 291.281 77.1472V77.154ZM287.7 77.154C287.7 75.9349 286.707 74.9706 285.515 74.9706C284.325 74.9706 283.333 75.9418 283.333 77.154C283.333 78.3661 284.325 79.3374 285.515 79.3374C286.707 79.3374 287.7 78.3455 287.7 77.154Z" fill="white"/>
<path d="M291.281 77.154C291.281 80.329 288.691 82.9188 285.515 82.9188C284.505 82.9188 283.533 82.6502 282.7 82.1957C282.383 82.5332 281.955 82.7329 281.46 82.7329C280.496 82.7329 279.752 81.989 279.752 81.0248V69.6259C279.752 68.7237 280.516 67.9591 281.419 67.9385H281.598C282.569 67.9385 283.333 68.7305 283.333 69.7155V71.8093C283.987 71.5407 284.752 71.3821 285.515 71.3821C288.691 71.3821 291.281 73.9719 291.281 77.1472V77.154ZM287.7 77.154C287.7 75.9349 286.707 74.9706 285.515 74.9706C284.325 74.9706 283.333 75.9418 283.333 77.154C283.333 78.3661 284.325 79.3374 285.515 79.3374C286.707 79.3374 287.7 78.3455 287.7 77.154Z" fill="white"/>
<path d="M291.281 77.154C291.281 80.329 288.691 82.9188 285.515 82.9188C284.505 82.9188 283.533 82.6502 282.7 82.1957C282.383 82.5332 281.955 82.7329 281.46 82.7329C280.496 82.7329 279.752 81.989 279.752 81.0248V69.6259C279.752 68.7237 280.516 67.9591 281.419 67.9385H281.598C282.569 67.9385 283.333 68.7305 283.333 69.7155V71.8093C283.987 71.5407 284.752 71.3821 285.515 71.3821C288.691 71.3821 291.281 73.9719 291.281 77.1472V77.154ZM287.7 77.154C287.7 75.9349 286.707 74.9706 285.515 74.9706C284.325 74.9706 283.333 75.9418 283.333 77.154C283.333 78.3661 284.325 79.3374 285.515 79.3374C286.707 79.3374 287.7 78.3455 287.7 77.154Z" fill="white"/>
<path d="M296.722 74.4475C296.295 74.3098 295.661 74.1582 295.551 74.6472C295.44 75.0949 296.247 75.3222 296.584 75.3911C297.26 75.5289 297.914 75.9077 298.388 76.4311C299.422 77.5126 299.648 79.2205 299.064 80.5774C298.458 81.9756 297.059 82.809 295.571 82.8986C294.738 82.9399 293.003 82.7195 292.308 81.7965C291.425 80.6257 292.286 78.9795 293.705 79.0484C294.27 79.0691 294.876 79.4961 295.35 79.5236C296.164 79.5925 296.343 78.6007 295.578 78.394C294.16 77.9671 293.119 77.4023 292.472 76.0936C291.997 75.1019 292.107 73.8621 292.789 72.9666C293.87 71.4997 295.923 71.0107 297.61 71.6581C298.506 72.0163 299.25 72.9391 298.692 73.9309C298.285 74.6059 297.59 74.7437 296.735 74.4475H296.722Z" fill="white"/>
<path d="M296.722 74.4475C296.295 74.3098 295.661 74.1582 295.551 74.6472C295.44 75.0949 296.247 75.3222 296.584 75.3911C297.26 75.5289 297.914 75.9077 298.388 76.4311C299.422 77.5126 299.648 79.2205 299.064 80.5774C298.458 81.9756 297.059 82.809 295.571 82.8986C294.738 82.9399 293.003 82.7195 292.308 81.7965C291.425 80.6257 292.286 78.9795 293.705 79.0484C294.27 79.0691 294.876 79.4961 295.35 79.5236C296.164 79.5925 296.343 78.6007 295.578 78.394C294.16 77.9671 293.119 77.4023 292.472 76.0936C291.997 75.1019 292.107 73.8621 292.789 72.9666C293.87 71.4997 295.923 71.0107 297.61 71.6581C298.506 72.0163 299.25 72.9391 298.692 73.9309C298.285 74.6059 297.59 74.7437 296.735 74.4475H296.722Z" fill="white"/>
<path d="M296.722 74.4475C296.295 74.3098 295.661 74.1582 295.551 74.6472C295.44 75.0949 296.247 75.3222 296.584 75.3911C297.26 75.5289 297.914 75.9077 298.388 76.4311C299.422 77.5126 299.648 79.2205 299.064 80.5774C298.458 81.9756 297.059 82.809 295.571 82.8986C294.738 82.9399 293.003 82.7195 292.308 81.7965C291.425 80.6257 292.286 78.9795 293.705 79.0484C294.27 79.0691 294.876 79.4961 295.35 79.5236C296.164 79.5925 296.343 78.6007 295.578 78.394C294.16 77.9671 293.119 77.4023 292.472 76.0936C291.997 75.1019 292.107 73.8621 292.789 72.9666C293.87 71.4997 295.923 71.0107 297.61 71.6581C298.506 72.0163 299.25 72.9391 298.692 73.9309C298.285 74.6059 297.59 74.7437 296.735 74.4475H296.722Z" fill="white"/>
<path d="M296.722 74.4475C296.295 74.3098 295.661 74.1582 295.551 74.6472C295.44 75.0949 296.247 75.3222 296.584 75.3911C297.26 75.5289 297.914 75.9077 298.388 76.4311C299.422 77.5126 299.648 79.2205 299.064 80.5774C298.458 81.9756 297.059 82.809 295.571 82.8986C294.738 82.9399 293.003 82.7195 292.308 81.7965C291.425 80.6257 292.286 78.9795 293.705 79.0484C294.27 79.0691 294.876 79.4961 295.35 79.5236C296.164 79.5925 296.343 78.6007 295.578 78.394C294.16 77.9671 293.119 77.4023 292.472 76.0936C291.997 75.1019 292.107 73.8621 292.789 72.9666C293.87 71.4997 295.923 71.0107 297.61 71.6581C298.506 72.0163 299.25 72.9391 298.692 73.9309C298.285 74.6059 297.59 74.7437 296.735 74.4475H296.722Z" fill="white"/>
<path d="M3.99492 77.9189C2.76205 78.759 3.36126 80.6876 4.84897 80.6876H46.4084C59.9837 80.6946 70.9899 69.5505 70.9899 55.8099C70.9899 48.9567 68.841 43.9565 64.4123 39.4589C64.0129 39.0525 63.3793 38.9768 62.897 39.2867L3.99492 77.9189Z" fill="white"/>
<path d="M3.99492 77.9189C2.76205 78.759 3.36126 80.6876 4.84897 80.6876H46.4084C59.9837 80.6946 70.9899 69.5505 70.9899 55.8099C70.9899 48.9567 68.841 43.9565 64.4123 39.4589C64.0129 39.0525 63.3793 38.9768 62.897 39.2867L3.99492 77.9189Z" fill="white"/>
<path d="M3.99492 77.9189C2.76205 78.759 3.36126 80.6876 4.84897 80.6876H46.4084C59.9837 80.6946 70.9899 69.5505 70.9899 55.8099C70.9899 48.9567 68.841 43.9565 64.4123 39.4589C64.0129 39.0525 63.3793 38.9768 62.897 39.2867L3.99492 77.9189Z" fill="white"/>
<path d="M3.99492 77.9189C2.76205 78.759 3.36126 80.6876 4.84897 80.6876H46.4084C59.9837 80.6946 70.9899 69.5505 70.9899 55.8099C70.9899 48.9567 68.841 43.9565 64.4123 39.4589C64.0129 39.0525 63.3793 38.9768 62.897 39.2867L3.99492 77.9189Z" fill="white"/>
<path d="M56.2642 36.8759C61.8845 33.3701 65.6312 27.0817 65.6312 19.9119C65.6312 8.91936 56.8291 0 45.9674 0H4.94526C2.22467 0 0 2.52773 0 5.61334V71.8094C0 72.4776 0.736967 72.877 1.30174 72.5189L56.2642 36.8759Z" fill="white"/>
<path d="M56.2642 36.8759C61.8845 33.3701 65.6312 27.0817 65.6312 19.9119C65.6312 8.91936 56.8291 0 45.9674 0H4.94526C2.22467 0 0 2.52773 0 5.61334V71.8094C0 72.4776 0.736967 72.877 1.30174 72.5189L56.2642 36.8759Z" fill="white"/>
<path d="M56.2642 36.8759C61.8845 33.3701 65.6312 27.0817 65.6312 19.9119C65.6312 8.91936 56.8291 0 45.9674 0H4.94526C2.22467 0 0 2.52773 0 5.61334V71.8094C0 72.4776 0.736967 72.877 1.30174 72.5189L56.2642 36.8759Z" fill="white"/>
<path d="M56.2642 36.8759C61.8845 33.3701 65.6312 27.0817 65.6312 19.9119C65.6312 8.91936 56.8291 0 45.9674 0H4.94526C2.22467 0 0 2.52773 0 5.61334V71.8094C0 72.4776 0.736967 72.877 1.30174 72.5189L56.2642 36.8759Z" fill="white"/>
<path d="M302.314 15.869C302.314 18.8582 299.821 21.2895 296.791 21.2895C293.76 21.2895 291.267 18.8582 291.267 15.869C291.267 12.8798 293.725 10.4141 296.791 10.4141C299.855 10.4141 302.314 12.8454 302.314 15.869ZM292.892 15.869C292.892 17.9766 294.738 19.6847 296.791 19.6847C298.843 19.6847 300.689 17.9215 300.689 15.869C300.689 13.8165 298.904 12.0189 296.791 12.0189C294.676 12.0189 292.892 13.7545 292.892 15.869ZM298.898 17.832C299.132 18.1625 299.042 18.624 298.692 18.8307C298.353 19.0166 297.913 19.0511 297.651 18.6585L296.439 16.8677V18.2384C296.439 18.6585 296.102 18.9752 295.695 18.9752C295.289 18.9752 294.952 18.6585 294.952 18.2384V13.3482C294.952 12.9556 295.289 12.6112 295.695 12.6112H297.032C298.127 12.6112 299.049 13.5204 299.049 14.6086C299.049 15.4006 298.609 16.0687 297.92 16.3856L298.904 17.832H298.898ZM297.025 14.0714H296.439V15.1527H297.025C297.321 15.1527 297.568 14.891 297.568 14.6017C297.568 14.3124 297.321 14.0645 297.025 14.0645V14.0714Z" fill="white"/>
<path d="M302.314 15.869C302.314 18.8582 299.821 21.2895 296.791 21.2895C293.76 21.2895 291.267 18.8582 291.267 15.869C291.267 12.8798 293.725 10.4141 296.791 10.4141C299.855 10.4141 302.314 12.8454 302.314 15.869ZM292.892 15.869C292.892 17.9766 294.738 19.6847 296.791 19.6847C298.843 19.6847 300.689 17.9215 300.689 15.869C300.689 13.8165 298.904 12.0189 296.791 12.0189C294.676 12.0189 292.892 13.7545 292.892 15.869ZM298.898 17.832C299.132 18.1625 299.042 18.624 298.692 18.8307C298.353 19.0166 297.913 19.0511 297.651 18.6585L296.439 16.8677V18.2384C296.439 18.6585 296.102 18.9752 295.695 18.9752C295.289 18.9752 294.952 18.6585 294.952 18.2384V13.3482C294.952 12.9556 295.289 12.6112 295.695 12.6112H297.032C298.127 12.6112 299.049 13.5204 299.049 14.6086C299.049 15.4006 298.609 16.0687 297.92 16.3856L298.904 17.832H298.898ZM297.025 14.0714H296.439V15.1527H297.025C297.321 15.1527 297.568 14.891 297.568 14.6017C297.568 14.3124 297.321 14.0645 297.025 14.0645V14.0714Z" fill="white"/>
<path d="M302.314 15.869C302.314 18.8582 299.821 21.2895 296.791 21.2895C293.76 21.2895 291.267 18.8582 291.267 15.869C291.267 12.8798 293.725 10.4141 296.791 10.4141C299.855 10.4141 302.314 12.8454 302.314 15.869ZM292.892 15.869C292.892 17.9766 294.738 19.6847 296.791 19.6847C298.843 19.6847 300.689 17.9215 300.689 15.869C300.689 13.8165 298.904 12.0189 296.791 12.0189C294.676 12.0189 292.892 13.7545 292.892 15.869ZM298.898 17.832C299.132 18.1625 299.042 18.624 298.692 18.8307C298.353 19.0166 297.913 19.0511 297.651 18.6585L296.439 16.8677V18.2384C296.439 18.6585 296.102 18.9752 295.695 18.9752C295.289 18.9752 294.952 18.6585 294.952 18.2384V13.3482C294.952 12.9556 295.289 12.6112 295.695 12.6112H297.032C298.127 12.6112 299.049 13.5204 299.049 14.6086C299.049 15.4006 298.609 16.0687 297.92 16.3856L298.904 17.832H298.898ZM297.025 14.0714H296.439V15.1527H297.025C297.321 15.1527 297.568 14.891 297.568 14.6017C297.568 14.3124 297.321 14.0645 297.025 14.0645V14.0714Z" fill="white"/>
<path d="M302.314 15.869C302.314 18.8582 299.821 21.2895 296.791 21.2895C293.76 21.2895 291.267 18.8582 291.267 15.869C291.267 12.8798 293.725 10.4141 296.791 10.4141C299.855 10.4141 302.314 12.8454 302.314 15.869ZM292.892 15.869C292.892 17.9766 294.738 19.6847 296.791 19.6847C298.843 19.6847 300.689 17.9215 300.689 15.869C300.689 13.8165 298.904 12.0189 296.791 12.0189C294.676 12.0189 292.892 13.7545 292.892 15.869ZM298.898 17.832C299.132 18.1625 299.042 18.624 298.692 18.8307C298.353 19.0166 297.913 19.0511 297.651 18.6585L296.439 16.8677V18.2384C296.439 18.6585 296.102 18.9752 295.695 18.9752C295.289 18.9752 294.952 18.6585 294.952 18.2384V13.3482C294.952 12.9556 295.289 12.6112 295.695 12.6112H297.032C298.127 12.6112 299.049 13.5204 299.049 14.6086C299.049 15.4006 298.609 16.0687 297.92 16.3856L298.904 17.832H298.898ZM297.025 14.0714H296.439V15.1527H297.025C297.321 15.1527 297.568 14.891 297.568 14.6017C297.568 14.3124 297.321 14.0645 297.025 14.0645V14.0714Z" fill="white"/>
</g>
<defs>
<clipPath id="clip0_1155_304">
<rect width="302.452" height="83" fill="white"/>
</clipPath>
</defs>
</svg>
