<svg width="158" height="155" viewBox="0 0 158 155" fill="none" xmlns="http://www.w3.org/2000/svg">
<g clip-path="url(#clip0_1155_301)">
<path d="M152.601 42.6228L112.139 2.80478C110.374 1.06833 107.978 0.0888672 105.48 0.0888672H48.2553C45.7572 0.0888672 43.3615 1.06524 41.5965 2.80478L1.15043 42.6042C-0.291303 44.0223 -0.378304 46.2688 0.892532 47.7887C0.973319 47.8846 1.06032 47.9773 1.15043 48.07L24.6562 71.2001C27.8007 74.7007 27.7976 79.9782 24.6438 83.4757L1.15043 106.597C1.06032 106.686 0.976426 106.773 0.898746 106.868C-0.378304 108.386 -0.29441 110.638 1.15043 112.059L41.5965 151.862C43.3615 153.598 45.7572 154.578 48.2553 154.578H105.48C107.978 154.578 110.374 153.601 112.139 151.862L152.601 112.044C154.365 110.308 155.36 107.947 155.36 105.49V49.1763C155.36 46.7168 154.368 44.3622 152.601 42.6228ZM109.38 143.386C109.38 147.514 104.309 149.585 101.342 146.665L44.3559 90.5853L37.551 83.8868C33.8721 80.2686 33.8721 74.398 37.551 70.7767L101.342 7.9987C104.309 5.07886 109.38 7.14592 109.38 11.277V143.386Z" fill="white"/>
</g>
<defs>
<clipPath id="clip0_1155_301">
<rect width="158" height="154.489" fill="white" transform="translate(0 0.0888672)"/>
</clipPath>
</defs>
</svg>
