<svg width="305" height="85" viewBox="0 0 305 85" fill="none" xmlns="http://www.w3.org/2000/svg">
<g clip-path="url(#clip0_1092_122)">
<mask id="mask0_1092_122" style="mask-type:alpha" maskUnits="userSpaceOnUse" x="0" y="27" width="43" height="56">
<path fill-rule="evenodd" clip-rule="evenodd" d="M0.259191 27.5648V82.9899H42.1711V27.5648H0.259191Z" fill="white"/>
</mask>
<g mask="url(#mask0_1092_122)">
<path d="M14.0252 27.5647C10.0792 27.5647 6.0159 27.9526 0.242643 27.9526V68.2684C0.242643 68.2684 6.56669 68.662 11.2966 65.1125V37.7314H15.5292C22.9227 37.7314 30.5945 41.0467 30.5945 55.2429C30.5945 67.9982 24.763 72.9009 13.2494 72.9009H0.242432V82.874C6.0159 82.874 10.0792 82.9886 14.025 82.9886C35.4507 82.9886 42.1704 70.8869 42.1704 55.2275C42.1704 39.5706 35.4522 27.5647 14.0252 27.5647Z" fill="white"/>
</g>
<path fill-rule="evenodd" clip-rule="evenodd" d="M50.8871 16.7447C50.8871 8.46872 52.5359 8.6393 58.5502 9.26186C60.6022 9.47424 63.1628 9.73923 66.3392 9.73923C69.5147 9.73923 72.0744 9.47441 74.126 9.26214C80.1402 8.63989 81.7891 8.46929 81.7891 16.7448V17.8985H90.2097V14.9544C90.2097 4.49468 85.3168 0.00012207 66.3373 0.00012207C47.3578 0.00012207 42.4648 4.49489 42.4648 14.9544V17.8985H50.8856L50.8871 16.7447ZM125.758 71.0763C125.758 71.0763 120.108 63.4573 117.241 57.8113C124.485 54.1223 126.302 48.1086 126.302 42.6136C126.302 25.3943 111.572 25.0534 104.134 25.0572C101.958 25.0583 99.6751 25.1573 97.3983 25.2559C94.949 25.362 92.506 25.4678 90.2093 25.4516V35.7747H105.777C112.058 35.7747 115.367 38.4682 115.367 43.703C115.367 49.4 112.099 51.8939 106.744 51.8939H100.962V40.4922C100.962 40.4922 93.8377 40.2 90.2093 45.4056V81.3958H100.962V60.3645C106.289 59.242 108.528 63.6722 110.717 68.002C111.186 68.9303 111.653 69.8539 112.147 70.7172C112.347 71.0668 112.544 71.4113 112.737 71.7501C116.279 77.968 118.764 82.3316 126.157 82.3316C127.57 82.3316 129.165 82.1649 130.98 81.8205L131.133 72.9444C129.218 73.2876 127.653 73.5239 125.758 71.0763ZM83.3898 82.3318H45.8775V25.0595H83.3898V35.5995H58.1071V47.6438H79.9635V57.2806H58.1071V71.7347H83.3898V82.3318Z" fill="white"/>
<path fill-rule="evenodd" clip-rule="evenodd" d="M147.898 82.3333V31.3183H164.422V27.4436H126.909V31.3183H143.515V82.3333H147.898ZM184.919 78.805C170.834 78.805 168.475 66.6514 168.475 54.4977C168.475 42.343 170.834 30.9736 184.919 30.9736C199.002 30.9736 201.287 42.3447 201.287 54.4977C201.287 66.6516 199.001 78.805 184.919 78.805ZM164.42 54.4977C164.42 39.8339 168.254 27.4438 184.919 27.4438C201.583 27.4438 205.344 39.8331 205.344 54.4977C205.344 69.4741 201.583 82.3327 184.918 82.3327C168.254 82.3327 164.42 69.4733 164.42 54.4977ZM249.065 27.4438V62.446C249.065 68.6512 248.215 78.7533 234.678 78.7533C220.215 78.7533 219.675 68.6512 219.675 62.446V27.4438H215.575V62.446C215.575 76.2082 221.684 82.3329 234.37 82.3329C247.054 82.3329 253.087 76.2082 253.087 62.446V27.4438H249.065ZM270.812 55.2915H286.603C293.688 55.2915 298.465 50.8512 298.465 43.2638C298.465 36.3227 294.307 31.3177 287.141 31.3177H270.812V55.2915ZM285.524 59.1652L299.466 82.3325H304.241L289.761 58.5213C298.003 57.6335 302.546 51.3363 302.546 43.2649C302.546 34.629 297.387 27.444 287.528 27.444H266.729V82.3329H270.812V59.1656L285.524 59.1652Z" fill="white"/>
</g>
<defs>
<clipPath id="clip0_1092_122">
<rect width="304" height="84.4444" fill="white" transform="translate(0.258057)"/>
</clipPath>
</defs>
</svg>
