<svg width="444" height="112" viewBox="0 0 444 112" fill="none" xmlns="http://www.w3.org/2000/svg">
<g clip-path="url(#clip0_1155_130)">
<path d="M144.154 76.6869C157.072 76.6869 165.531 68.9719 165.531 56.5197C165.531 44.0641 157.072 36.3508 144.154 36.3508H130.398V76.6869H144.154ZM115.343 23.9905H144.898C166.181 23.9905 180.772 36.817 180.772 56.5197C180.772 76.2223 166.181 89.0472 144.898 89.0472H115.343V23.9905Z" fill="white"/>
<path d="M199.925 59.6795H224.554C223.531 53.3598 218.792 49.2692 212.285 49.2692C205.687 49.2692 200.948 53.2662 199.925 59.6795ZM237.937 68.1347H200.111C201.506 74.3642 206.803 78.1723 214.424 78.1723C219.721 78.1723 223.531 76.595 226.97 73.3416L234.685 81.7048C230.038 87.0018 223.067 89.7925 214.052 89.7925C196.765 89.7925 185.52 78.9176 185.52 64.0458C185.52 49.0837 196.951 38.3025 212.194 38.3025C226.878 38.3025 238.216 48.1547 238.216 64.2312C238.216 65.3492 238.03 66.9265 237.937 68.1347Z" fill="white"/>
<path d="M307.741 23.991L279.579 89.0477H264.709L236.642 23.991H252.907L272.703 70.4613L292.777 23.991H307.741Z" fill="white"/>
<path d="M317.227 59.6795H341.856C340.833 53.3598 336.094 49.2692 329.587 49.2692C322.988 49.2692 318.25 53.2662 317.227 59.6795ZM355.239 68.1347H317.412C318.808 74.3642 324.105 78.1723 331.726 78.1723C337.023 78.1723 340.833 76.595 344.272 73.3416L351.987 81.7048C347.34 87.0018 340.368 89.7925 331.353 89.7925C314.067 89.7925 302.821 78.9176 302.821 64.0458C302.821 49.0837 314.253 38.3025 329.495 38.3025C344.18 38.3025 355.518 48.1547 355.518 64.2312C355.518 65.3492 355.332 66.9265 355.239 68.1347Z" fill="white"/>
<path d="M358.496 84.4024L363.329 73.992C367.79 76.8728 374.574 78.8228 380.709 78.8228C387.401 78.8228 389.911 77.06 389.911 74.2694C389.911 66.0916 359.704 74.4566 359.704 54.4749C359.704 44.9936 368.255 38.303 382.846 38.303C389.724 38.303 397.345 39.8838 402.084 42.6709L397.251 52.9859C392.327 50.1988 387.401 49.2697 382.846 49.2697C376.341 49.2697 373.553 51.315 373.553 53.9167C373.553 62.4672 403.758 54.1958 403.758 73.8967C403.758 83.1942 395.114 89.7912 380.152 89.7912C371.694 89.7912 363.143 87.4703 358.496 84.4024Z" fill="white"/>
<path d="M443.075 86.63C440.101 88.7689 435.733 89.7916 431.271 89.7916C419.469 89.7916 412.591 83.7492 412.591 71.8534V51.3136H404.878V40.1614H412.591V27.9866H427.09V40.1614H439.544V51.3136H427.09V71.6697C427.09 75.9423 429.413 78.2685 433.317 78.2685C435.455 78.2685 437.593 77.6185 439.172 76.4103L443.075 86.63Z" fill="white"/>
<path d="M84.3507 48.6995L0.000948566 -0.000412862L6.80552e-06 26.869L84.3506 75.5694C94.6927 69.5985 94.6928 54.6705 84.3507 48.6995Z" fill="white"/>
<path d="M23.269 83.9654V51.2194L0 37.7854V94.6694C0 107.824 14.241 116.045 25.633 109.468L74.897 81.0264L51.628 67.5924L23.269 83.9654Z" fill="white"/>
</g>
<defs>
<clipPath id="clip0_1155_130">
<rect width="444" height="112" fill="white"/>
</clipPath>
</defs>
</svg>
