<svg width="306" height="78" viewBox="0 0 306 78" fill="none" xmlns="http://www.w3.org/2000/svg">
<g clip-path="url(#clip0_1092_130)">
<path d="M23.0969 65.3649L24.3312 59.4134H7.84753V50.3377H21.4864L22.7272 43.8957H7.84753V35.5504H23.0001L24.3312 29.6078H0.716797V65.3649H23.0969ZM228.911 49.7723C230.247 49.9373 232.064 50.1991 232.966 50.6502C233.87 51.1056 234.63 51.7678 235.166 52.4213C235.701 53.0747 236.086 53.8118 236.319 54.6325C236.552 55.4531 236.671 56.2804 236.671 57.1186V57.6225C236.671 59.0966 236.403 60.3595 235.868 61.4134C235.331 62.4694 234.57 63.3209 233.584 63.9744C232.594 64.6278 230.715 65.1515 229.325 65.4551C227.934 65.7587 226.405 65.9061 224.729 65.9061C223.323 65.9061 221.816 65.7961 220.21 65.5827C218.601 65.3627 216.995 65.004 215.389 64.5002L216.507 59.5982C218.08 60.0339 219.503 60.2957 220.775 60.4805C222.047 60.6653 223.321 60.7291 224.592 60.7555C225.787 60.7819 226.555 60.7731 227.349 60.6851C228.08 60.6037 228.625 60.3903 229.026 60.1241C229.431 59.8557 229.805 59.4398 229.921 59.0262C230.025 58.6786 230.053 58.474 230.053 57.9723C230.053 57.2023 229.838 56.6588 229.455 56.1418C229.07 55.6225 228.273 55.3387 227.032 55.1715L223.303 54.6589C220.689 54.3266 218.005 53.6116 216.764 52.3751C215.525 51.1364 214.905 49.4951 214.905 47.4555V46.9517C214.905 44.3093 215.884 42.3225 217.844 41.0002C219.805 39.6779 223.391 38.8397 227.041 38.8397C228.847 38.8397 230.48 38.9739 231.939 39.2423C233.397 39.5107 234.557 39.8122 235.428 40.1466L234.233 44.9011C233.061 44.5953 231.868 44.3775 230.744 44.2301C229.516 44.0673 228.436 43.9925 227.164 43.9925C224.854 43.9925 223.362 44.1245 222.542 44.6041C221.721 45.0925 221.367 45.5524 221.367 46.6239C221.367 47.5259 221.664 48.0298 222.163 48.4126C222.667 48.7998 223.47 49.1078 224.74 49.2773L228.911 49.7723ZM205.09 39.3083C203.176 38.8221 201.308 38.6989 199.152 38.6989C197.101 38.6989 194.631 38.9541 193.013 39.4403C191.398 39.9244 190.023 40.6702 188.895 41.6735C187.764 42.679 186.895 43.9683 186.287 45.5414C185.678 47.1145 185.374 48.9868 185.374 51.1672V52.9251C185.374 57.1781 186.235 60.3001 187.955 62.289C189.676 64.2824 192.864 65.5629 196.274 65.5629C199.819 65.5629 202.036 64.5926 203.849 62.8479V63.9898C203.849 66.7686 203.378 68.4275 202.214 69.8334C201.051 71.2393 198.978 71.8532 196.303 71.7343C194.432 71.6529 193.354 71.5407 191.931 71.3097C190.505 71.0743 189.176 70.7619 187.96 70.3944L186.791 75.7144C188.424 76.2821 190.103 76.6935 191.823 76.9443C193.544 77.1952 195.449 77.2722 197.533 77.3228C201.843 77.4218 205.132 76.1501 207.409 73.8069C209.686 71.4615 210.698 68.1481 210.698 63.8622V41.4095C209.136 40.5734 207 39.7946 205.09 39.3083ZM203.851 53.5192C203.851 55.8624 203.398 57.5873 202.498 58.6918C201.594 59.7962 200.153 60.3507 198.177 60.3507C197.037 60.3507 196.111 60.1835 195.39 59.8469C194.668 59.5124 194.109 59.0196 193.706 58.3661C193.302 57.7105 193.027 56.9184 192.879 55.979C192.727 55.0417 192.65 53.9548 192.65 52.7161V50.9098C192.65 48.2322 193.161 46.3202 194.182 45.1828C195.203 44.0453 196.817 43.4754 199.029 43.4754C199.898 43.4754 200.769 43.5612 201.64 43.7262C202.512 43.8935 203.246 44.1619 203.849 44.5293L203.851 53.5192Z" fill="white"/>
<path d="M156.817 65.3656V39.3024H163.179L163.58 42.1164C164.416 41.0098 165.496 40.1627 166.821 39.5797C168.143 38.9944 169.657 38.6996 171.364 38.6996C172.77 38.6996 174.365 38.8844 175.52 39.2518C176.675 39.6215 177.672 40.1825 178.508 40.935C179.344 41.6896 179.998 42.6335 180.466 43.7732C180.937 44.9129 181.17 46.2506 181.17 47.7907V65.3656H174.24V49.4452C174.24 47.3374 173.855 45.8369 173.087 44.9503C172.315 44.0636 171.166 43.6236 169.358 43.6236C167.384 43.6236 165.919 44.6554 165.041 45.8501C164.117 47.1086 163.987 49.6344 163.987 51.9116V65.3634H156.817V65.3656ZM74.2158 45.1373C73.811 45.0383 73.3291 44.9393 72.7593 44.8359C72.1872 44.7368 71.6042 44.6884 70.9992 44.6884C68.7902 44.6884 67.1929 45.2649 66.2028 46.4178C65.2149 47.5729 64.9641 48.827 64.9641 51.2031V65.3656H57.4527V39.3024H64.161L64.5637 42.4157C65.3997 41.2782 66.4404 40.4157 67.6769 39.8283C68.9156 39.243 70.4051 38.9504 72.1454 38.9504C72.8165 38.9504 73.4105 38.9922 73.9298 39.0758C74.449 39.1594 74.9903 39.3024 75.5623 39.5027L74.2158 45.1373ZM52.8214 39.3024V65.3678H46.4607L46.0603 62.556C45.2242 63.6605 44.1439 64.5075 42.8194 65.0906C41.4971 65.6758 39.9812 65.9706 38.2761 65.9706C36.868 65.9706 35.2751 65.7858 34.1178 65.4162C32.9649 65.0466 31.9682 64.4877 31.1322 63.7331C30.2961 62.9784 29.6427 62.0345 29.1718 60.8949C28.7032 59.7574 28.47 58.4175 28.47 56.8774V39.3024H35.3983V55.225C35.3983 57.3306 35.7855 58.8311 36.5534 59.72C37.3234 60.6044 38.4741 61.0445 40.2827 61.0445C42.2562 61.0445 43.7215 60.0126 44.5994 58.8179C45.5234 57.5594 45.6533 55.0314 45.6533 52.7586V39.3024H52.8214ZM148.469 28.7812C149.871 28.7812 150.942 29.0915 151.569 29.6767C152.196 30.2642 152.511 31.1684 152.511 32.2399C152.511 33.3114 152.196 34.2157 151.569 34.8009C150.942 35.3861 149.871 35.6612 148.469 35.6612C147.072 35.6612 145.961 35.3861 145.334 34.8009C144.707 34.2157 144.392 33.3114 144.392 32.2399C144.392 31.1684 144.707 30.2642 145.334 29.6767C145.961 29.0915 147.072 28.7812 148.469 28.7812ZM144.993 39.3024H152.066V65.3678H144.993V39.3024ZM141.369 39.3024L133.684 65.3678H127.33L122.789 49.6058L118.305 65.3678H111.718L103.859 39.3024H111.227L115.106 55.4803L119.376 40.4069H126.307L130.571 55.313L134.406 39.3024H141.369Z" fill="white"/>
<path d="M101.753 46.2545C101.368 44.7166 100.714 43.3921 99.7948 42.2876C98.8729 41.1832 97.6408 40.3119 96.1007 39.676C94.5628 39.0402 92.0634 38.7344 89.7532 38.7344C87.4431 38.7344 84.8579 39.126 83.3199 39.7618C81.7776 40.3977 80.5477 41.269 79.6281 42.3734C78.7062 43.4779 78.044 44.8024 77.6435 46.3403C77.2431 47.8805 76.9197 49.4426 76.9197 51.2511V53.3611C76.9197 55.1652 77.2101 56.8065 77.5973 58.3466C77.9824 59.8868 78.6358 61.2179 79.5577 62.3377C80.4773 63.462 81.7072 64.3399 83.2474 64.9757C84.7875 65.6116 87.4145 66.0032 89.7554 66.0032C92.0986 66.0032 94.6618 65.6468 96.2195 64.9757C97.7772 64.3091 99.0071 63.4026 99.9114 62.2673C100.816 61.132 101.452 59.7988 101.819 58.274C102.189 56.7537 102.494 55.1278 102.494 53.3875V51.2775C102.492 49.469 102.138 47.7969 101.753 46.2545ZM95.5309 53.7637C95.5309 56.4765 95.1062 58.3928 94.2504 59.5149C93.3967 60.6348 91.916 61.1959 89.806 61.1959C88.7654 61.1959 87.8809 61.0792 87.1438 60.8438C86.4068 60.6128 85.7951 60.2124 85.3111 59.6403C84.8227 59.0705 84.4728 58.3114 84.2572 57.3544C84.0372 56.3995 83.9316 55.2026 83.9316 53.7637V50.8529C83.9316 48.1753 84.3738 46.2721 85.2605 45.1501C86.1472 44.0302 87.6631 43.4691 89.806 43.4691C91.949 43.4691 93.4363 44.0302 94.2724 45.1501C95.1128 46.2721 95.5287 48.1753 95.5287 50.8529L95.5309 53.7637Z" fill="white"/>
<path d="M261.56 0.136825C255.879 -0.639834 252.995 2.5218 249.017 5.42822L235.418 16.1078L235.413 16.11L238.032 17.4939C238.036 17.4983 238.043 17.5005 238.049 17.5049C241.455 19.1793 246.192 18.6072 249.417 16.2178L255.16 11.6547L257.356 9.90776L268.299 1.21271L261.56 0.136825Z" fill="white"/>
<path d="M235.417 16.108L238.031 17.4963C238.038 17.4985 238.042 17.5029 238.049 17.5051C241.454 19.1817 246.194 18.6096 249.419 16.218L255.159 11.6571L257.357 9.91016L235.417 16.108Z" fill="white"/>
<path d="M284.782 6.73272L277.482 5.41922C277.482 5.41922 272.399 4.21133 268.153 7.50058C268.153 7.50058 265.018 9.83275 262.705 11.6369L257.564 15.7094L245.67 25.1701L245.571 25.2493L249.161 27.148C252.569 28.8312 257.317 28.2613 260.547 25.8676L271.183 17.4431L279.759 10.6886L284.782 6.73272Z" fill="white"/>
<path d="M262.708 11.6376C265.016 9.83344 268.151 7.50126 268.151 7.50126C268.954 6.87862 269.788 6.41878 270.611 6.07996L257.359 9.91044L255.161 11.6552L249.423 16.2183C246.198 18.6099 241.459 19.1819 238.053 17.5054C240.957 19.2457 245.467 19.6462 252.261 17.6198L256.902 16.2381L257.568 15.7101L262.708 11.6376ZM281.4 15.6947C283.59 13.9807 285.242 12.7399 286.885 12.0028L272.052 16.7596L271.181 17.446L260.545 25.8682C257.315 28.262 252.567 28.8341 249.159 27.1487C254.396 30.0244 262.459 27.91 269.24 25.4986L269.645 25.1708C269.643 25.1708 280.996 15.9873 281.4 15.6947ZM298.843 25.25C292.89 23.5207 291.103 24.6141 284.089 26.7241H284.087L283.502 27.2103L283.484 27.2213L272.179 36.1848C268.958 38.572 263.924 39.0318 260.519 37.3641C264.721 39.5555 269.066 39.0186 276.501 36.6996L306.295 27.5536L298.843 25.25Z" fill="white" fill-opacity="0.32"/>
<path d="M300.819 12.8891L292.938 11.4546C288.217 10.5789 285.983 12.1059 281.398 15.6943C280.993 15.9891 269.643 25.1704 269.643 25.1704L256.899 35.4518L260.488 37.3505C263.898 39.0359 268.954 38.5782 272.182 36.1845L283.486 27.221L283.502 27.21L283.495 27.2144L300.819 12.8891Z" fill="white"/>
<path d="M272.05 16.7593L245.569 25.2498L256.9 16.2379L282.103 8.84094L272.05 16.7593ZM284.089 26.7239L256.902 35.4519L269.238 25.4962L296.683 16.3105L284.089 26.7239Z" fill="white"/>
</g>
<defs>
<clipPath id="clip0_1092_130">
<rect width="304.697" height="77.3462" fill="white" transform="translate(0.563965)"/>
</clipPath>
</defs>
</svg>
