<svg width="305" height="48" viewBox="0 0 305 48" fill="none" xmlns="http://www.w3.org/2000/svg">
<path d="M60.7747 15.589H64.0835V9.76163H69.9196V6.56567H64.0835V3.47393H70.7186V0.390869H60.7747V15.589Z" fill="white"/>
<path d="M81.3486 0.277954H78.144L72.6639 15.589H76.0857L77.2321 12.3931H82.1476L83.294 15.589H86.8373L81.3486 0.277954ZM81.1228 9.30132H78.2569L79.629 5.07189L81.1228 9.30132Z" fill="white"/>
<path d="M94.4887 0.390869H91.0669V15.589H100.551V12.506H94.4887V0.390869Z" fill="white"/>
<path d="M117.242 0.390869H113.126L108.549 6.56567V0.390869H105.127V15.589H108.549V11.1338L109.695 9.64872L113.352 15.589H117.355L112.092 6.90437L117.242 0.390869Z" fill="white"/>
<path d="M124.781 9.53583H130.504V6.44408H124.781V3.47393H131.303V0.390869H121.359V15.589H131.416V12.506H124.781V9.53583Z" fill="white"/>
<path d="M144.79 8.73683L139.414 0.390869H136.331V15.589H139.649V7.01727L145.242 15.589H148.221V0.390869H144.79V8.73683Z" fill="white"/>
<path d="M159.302 6.58309C156.905 5.54961 156.558 5.21091 156.558 4.52482C156.558 3.83873 157.131 3.37845 158.164 3.37845C159.316 3.48119 160.4 3.9639 161.247 4.75062L161.36 4.86352L163.314 2.24075L163.201 2.12785C161.855 0.915418 160.097 0.263019 158.286 0.304072C155.316 0.304072 153.258 2.12785 153.258 4.87221C153.258 7.39076 154.856 8.52845 157.6 9.56193C159.658 10.3609 160.11 10.8212 160.11 11.5073C160.11 12.1934 159.424 12.8708 158.373 12.8708C157.014 12.7461 155.731 12.1856 154.717 11.2728L154.604 11.1599L152.545 13.6785L152.658 13.7914C154.164 15.242 156.169 16.0595 158.26 16.0754C161.343 16.0754 163.401 14.243 163.401 11.3857C163.419 8.6153 161.821 7.45155 159.302 6.58309Z" fill="white"/>
<path d="M166.962 3.58683H170.618V15.589H174.049V3.58683H177.827V0.390869H166.962V3.58683Z" fill="white"/>
<path d="M185.712 9.53583H191.54V6.44408H185.712V3.47393H192.339V0.390869H182.395V15.589H192.452V12.506H185.712V9.53583Z" fill="white"/>
<path d="M200.798 0.390869H197.367V15.5977H200.798V0.390869Z" fill="white"/>
<path d="M214.858 8.73683L209.482 0.390869H206.399V15.589H209.717V7.01727L215.318 15.589H218.288V0.390869H214.858V8.73683Z" fill="white"/>
<path d="M227.086 9.53583H232.801V6.44408H227.086V3.47393H233.608V0.390869H223.664V15.589H233.721V12.506H227.086V9.53583Z" fill="white"/>
<path d="M247.209 9.98741C248.069 9.61739 248.794 8.991 249.285 8.19368C249.776 7.39635 250.009 6.46692 249.953 5.53217V5.41927C250.015 4.11864 249.562 2.84591 248.694 1.87593C247.567 0.864103 246.09 0.331356 244.577 0.390849H238.871V15.589H242.302V10.6735H244.039L246.783 15.4761V15.589H250.674L247.209 9.98741ZM242.067 3.47391H244.125C245.15 3.47391 246.41 3.82129 246.41 5.53217C246.41 6.79145 245.611 7.59044 244.125 7.59044H241.946V3.47391H242.067Z" fill="white"/>
<path d="M32.8795 0.156324C30.7562 0.847881 28.883 2.14861 27.4933 3.89662C26.1035 5.64464 25.2585 7.76275 25.0633 9.98737C24.6031 15.9364 30.5521 23.4833 34.4341 26.9051C38.3161 30.3269 44.9947 35.8243 44.9947 35.8243V39.0289L18.3675 20.1658L3.16061 47.6007H1.56263V23.4833H15.5102V18.3333L4.99308 10.6735C4.69313 10.4272 4.32743 10.2745 3.94142 10.2344C3.55541 10.1942 3.16611 10.2684 2.82191 10.4477C1.56263 11.0208 1.90133 12.393 1.32815 12.7317C0.754959 13.0704 -0.408787 10.9948 0.190455 9.07548C0.789697 7.15617 2.47452 5.53213 5.79207 4.73314C8.2483 4.25611 10.7769 4.29456 13.2175 4.84605C14.138 5.07185 16.1963 5.71451 16.1963 5.71451C15.1895 3.43893 13.3453 1.63827 11.0463 0.68609C10.3602 0.460288 9.44831 0.112901 8.98802 0H32.8795V0.156324Z" fill="white"/>
<path d="M60.6617 26.9052H62.1468V33.08H68.6516V26.9052H70.1367V40.6269H68.6516V34.4521H62.0252V40.6269H60.6617V26.9052Z" fill="white"/>
<path d="M75.5212 33.8789V33.6531C75.5212 29.6494 77.9182 26.7053 81.4615 26.7053C85.0049 26.7053 87.289 29.6755 87.289 33.6531V33.8789C87.289 37.8825 84.892 40.8266 81.3487 40.8266C77.8053 40.8266 75.5212 37.8478 75.5212 33.8789ZM85.8039 33.8789V33.766C85.8039 30.4484 83.9801 28.0514 81.4615 28.0514C78.943 28.0514 77.1192 30.3355 77.1192 33.6531V33.766C77.1192 37.0835 78.943 39.4805 81.4615 39.4805C83.9801 39.4805 85.8039 37.1964 85.8039 33.8789Z" fill="white"/>
<path d="M94.8359 28.2947H90.9452V26.9052H100.09V28.2947H96.2081V40.6269H94.7057V28.2947H94.8359Z" fill="white"/>
<path d="M105.006 26.9052H113.352V28.2947H106.404V33.0973H112.579V34.4695H106.404V39.385H113.352V40.7572H104.893V26.9052H105.006Z" fill="white"/>
<path d="M118.728 26.9052H120.213V39.2547H126.5V40.6269H118.684L118.728 26.9052Z" fill="white"/>
<path d="M130.495 38.9073L131.416 37.7696C131.917 38.3002 132.518 38.7267 133.184 39.0247C133.85 39.3228 134.568 39.4865 135.298 39.5066C136.905 39.5066 138.042 38.4818 138.042 37.2225C138.042 36.0761 137.469 35.39 134.959 34.4782C132.102 33.4534 131.068 32.4199 131.068 30.4745C131.068 28.4163 132.805 26.8183 135.185 26.8183C135.943 26.7983 136.697 26.9292 137.404 27.2036C138.111 27.4779 138.756 27.8902 139.301 28.4163L138.433 29.5626C137.547 28.6928 136.357 28.2009 135.115 28.1904C133.517 28.1904 132.51 29.1023 132.51 30.3616C132.51 31.508 133.083 32.1941 135.715 33.2189C138.572 34.2523 139.484 35.39 139.484 37.2225C139.484 39.3937 137.66 40.9917 135.254 40.9917C133.465 40.9069 131.771 40.1647 130.495 38.9073Z" fill="white"/>
<path d="M158.738 38.7945C158.278 39.427 157.676 39.9429 156.981 40.3004C156.286 40.6579 155.516 40.8471 154.734 40.8527C154.235 40.8823 153.735 40.8097 153.265 40.6395C152.796 40.4692 152.365 40.2049 152.001 39.8626C151.637 39.5203 151.346 39.1074 151.147 38.6489C150.948 38.1905 150.845 37.6963 150.843 37.1965V37.0836C150.843 35.3467 151.877 33.9919 153.822 33.08C152.902 31.8207 152.45 31.0217 152.45 29.9969V29.884C152.445 29.4579 152.529 29.0355 152.696 28.6437C152.864 28.2518 153.111 27.8992 153.422 27.6083C153.734 27.3174 154.102 27.0945 154.505 26.954C154.907 26.8135 155.334 26.7584 155.759 26.7923C156.159 26.7771 156.557 26.8427 156.931 26.985C157.305 27.1274 157.647 27.3436 157.935 27.6208C158.224 27.898 158.454 28.2305 158.611 28.5985C158.768 28.9664 158.85 29.3623 158.851 29.7624V29.884C158.851 31.6209 157.704 32.6197 155.993 33.5403L158.738 36.8491C159.189 35.9806 159.65 35.0253 160.101 33.879L161.247 34.3392C160.825 35.5558 160.29 36.7303 159.65 37.8479L161.708 40.2448L160.561 41.0438L158.738 38.7945ZM157.93 37.926L154.734 34.0353C153.136 34.843 152.45 35.9806 152.45 37.127V37.2399C152.433 37.5745 152.485 37.909 152.605 38.2219C152.725 38.5347 152.909 38.819 153.146 39.0563C153.382 39.2936 153.666 39.4787 153.978 39.5997C154.291 39.7206 154.625 39.7747 154.96 39.7585C156.16 39.5312 157.225 38.8461 157.93 37.8479V37.926ZM157.478 29.8058C157.49 29.5706 157.454 29.3353 157.372 29.1145C157.29 28.8936 157.164 28.6917 157.001 28.5211C156.839 28.3505 156.643 28.2148 156.427 28.1221C156.21 28.0294 155.977 27.9818 155.741 27.9821C155.499 27.9696 155.256 28.0082 155.029 28.0955C154.802 28.1827 154.596 28.3166 154.424 28.4885C154.252 28.6604 154.118 28.8665 154.031 29.0934C153.944 29.3204 153.905 29.5631 153.918 29.8058C153.918 30.6135 154.256 31.2996 155.168 32.4112C156.679 31.8207 157.478 30.9001 157.478 29.7624V29.8058Z" fill="white"/>
<path d="M173.476 26.9051H178.165C178.81 26.8638 179.457 26.9542 180.066 27.1707C180.676 27.3871 181.234 27.7252 181.709 28.1644C182.416 28.9435 182.787 29.9703 182.742 31.0216C182.783 31.9514 182.478 32.8632 181.886 33.5815C181.294 34.2998 180.458 34.7739 179.537 34.9124L183.194 40.514H181.457L178.078 35.1382H174.995V40.514H173.476V26.9051ZM177.94 33.9918C180.224 33.9918 181.37 32.8541 181.37 31.1345C181.37 29.3108 180.111 28.2773 178.052 28.2773H174.969V33.9918H177.94Z" fill="white"/>
<path d="M188.222 26.9052H196.568V28.2947H189.62V33.0973H195.795V34.4695H189.62V39.385H196.568V40.7572H188.109V26.9052H188.222Z" fill="white"/>
<path d="M200.911 38.9073L201.831 37.7696C202.332 38.3002 202.933 38.7267 203.599 39.0247C204.265 39.3228 204.984 39.4865 205.713 39.5066C207.311 39.5066 208.457 38.4818 208.457 37.2225C208.457 36.0761 207.884 35.39 205.374 34.4782C202.517 33.4534 201.484 32.4199 201.484 30.4745C201.484 28.4163 203.221 26.8183 205.6 26.8183C206.358 26.7983 207.112 26.9292 207.819 27.2036C208.526 27.4779 209.171 27.8902 209.717 28.4163L208.796 29.5626C207.914 28.6918 206.727 28.1995 205.487 28.1904C203.881 28.1904 202.882 29.1023 202.882 30.3616C202.882 31.508 203.455 32.1941 206.087 33.2189C208.944 34.2523 209.856 35.39 209.856 37.2225C209.856 39.3937 208.023 40.9917 205.626 40.9917C203.852 40.8996 202.173 40.1577 200.911 38.9073Z" fill="white"/>
<path d="M215.206 26.9052H216.691V40.6269H215.206V26.9052Z" fill="white"/>
<path d="M222.631 26.9052H226.522C230.404 26.9052 232.922 29.6495 232.922 33.6531V33.766C232.922 37.7697 230.317 40.514 226.522 40.514H222.631V26.9052ZM224.107 28.2947V39.2547H226.513C229.483 39.2547 231.428 37.0836 231.428 33.8789V33.766C231.428 30.5701 229.483 28.2773 226.513 28.2773L224.107 28.2947Z" fill="white"/>
<path d="M238.289 26.9052H246.635V28.2947H239.687V33.0973H245.819V34.4695H239.644V39.385H246.592V40.7572H238.176V26.9052H238.289Z" fill="white"/>
<path d="M251.898 26.9052H253.262L260.47 37.6568V26.9052H261.955V40.6269H260.696L253.383 29.5366V40.6269H251.898V26.9052Z" fill="white"/>
<path d="M267.209 33.8789V33.766C267.209 29.6495 269.815 26.8183 273.288 26.8183C274.075 26.8026 274.856 26.9487 275.583 27.2475C276.311 27.5463 276.969 27.9914 277.518 28.5552L276.606 29.6929C276.186 29.2295 275.674 28.8582 275.103 28.6026C274.532 28.347 273.914 28.2126 273.288 28.2078C270.77 28.2078 268.824 30.4919 268.824 33.8094V33.9223C268.824 37.2399 270.77 39.6368 273.288 39.6368C273.941 39.6277 274.583 39.4806 275.175 39.2052C275.766 38.9298 276.292 38.5323 276.719 38.0389L277.631 39.0723C277.079 39.6688 276.406 40.1402 275.657 40.4547C274.908 40.7693 274.1 40.9198 273.288 40.8961C269.728 40.8527 267.209 37.9954 267.209 33.8789Z" fill="white"/>
<path d="M282.416 26.9052H290.762V28.2947H283.814V33.0973H289.98V34.4695H283.814V39.385H290.762V40.7572H282.416V26.9052Z" fill="white"/>
<path d="M295.104 38.9073L296.016 37.7696C296.519 38.3004 297.121 38.727 297.789 39.025C298.456 39.323 299.176 39.4867 299.907 39.5065C301.505 39.5065 302.643 38.4817 302.643 37.2225C302.643 36.0761 302.078 35.39 299.56 34.4781C296.702 33.4533 295.678 32.4198 295.678 30.4745C295.678 28.4162 297.415 26.8182 299.785 26.8182C300.543 26.7972 301.298 26.9278 302.005 27.2022C302.712 27.4766 303.357 27.8893 303.902 28.4162L302.99 29.5626C302.106 28.6811 300.912 28.1795 299.664 28.1643C298.066 28.1643 297.058 29.0762 297.058 30.3355C297.058 31.4819 297.623 32.168 300.254 33.1928C303.112 34.2262 304.024 35.3639 304.024 37.1964C304.024 39.3676 302.2 40.9655 299.794 40.9655C298.032 40.8751 296.364 40.1429 295.104 38.9073Z" fill="white"/>
</svg>
