<svg width="201" height="88" viewBox="0 0 201 88" fill="none" xmlns="http://www.w3.org/2000/svg">
<g clip-path="url(#clip0_1092_191)">
<path opacity="0.3" fill-rule="evenodd" clip-rule="evenodd" d="M77.09 78.1316L74.7334 74.4004C74.9298 74.4004 74.9298 74.2041 74.9298 74.2041C74.9298 74.2041 71.7889 54.5706 84.9429 44.7529C97.3114 35.5253 125.387 34.347 125.387 34.347L127.351 37.0952C127.154 37.0952 99.0788 38.2735 86.7092 47.5011C73.5552 57.3189 77.2853 77.932 77.2853 77.932C77.2863 78.1316 77.09 78.1316 77.09 78.1316ZM38.0195 15.5002C38.0195 15.5002 36.4485 12.9473 36.4485 12.752C36.4485 12.752 42.1413 22.5687 59.6156 17.8567C77.4816 12.9484 82.5864 -0.205688 82.5864 -0.205688L84.3538 2.54359C84.3538 2.54359 79.0527 16.0904 61.383 20.8024C44.1061 25.5122 38.0195 15.5002 38.0195 15.5002Z" fill="white"/>
<path fill-rule="evenodd" clip-rule="evenodd" d="M95.7414 104.831C95.3486 104.437 94.9559 104.241 93.7787 104.241C92.6004 104.241 91.6185 105.026 91.6185 106.205C91.6185 106.99 92.0113 107.58 92.6004 108.169C92.9932 108.759 93.7787 109.542 93.7787 110.524C93.7787 111.309 93.1896 111.9 92.404 111.9C91.6185 111.9 91.2258 111.506 90.6366 111.309L90.2439 111.9C90.6367 112.291 91.4222 112.683 92.2077 112.683C94.5631 112.683 94.9559 111.113 94.9559 110.328C94.9559 109.542 94.3667 108.758 93.5812 107.972C92.7957 107.187 92.5994 106.599 92.5994 106.205C92.5994 105.419 93.1885 104.831 93.974 104.831C94.5631 104.831 94.9559 105.223 95.1523 105.419L95.7414 104.831ZM99.8642 111.506C99.6679 111.702 99.0787 111.9 98.4896 111.9C97.115 111.9 97.1149 110.918 97.1149 110.132C99.0787 110.132 101.041 109.347 101.041 107.777C101.041 106.795 100.257 106.599 99.6679 106.599C97.7041 106.599 96.1331 108.758 96.1331 110.524C96.1331 111.702 96.7222 112.683 97.9005 112.683C98.686 112.683 99.4715 112.487 100.257 112.095L99.8642 111.506ZM97.3124 109.347C97.5088 108.169 98.4907 107.188 99.2751 107.188C99.8642 107.188 100.061 107.582 100.061 107.973C100.061 108.759 98.8823 109.542 97.3124 109.347ZM103.792 106.599H103.006L101.828 112.488H102.81L103.202 109.936C103.593 108.169 104.183 107.382 104.969 107.382C105.165 107.382 105.361 107.58 105.557 107.58L105.951 106.99C105.754 106.794 105.557 106.599 105.361 106.599C104.575 106.599 104.182 106.99 103.593 107.58L103.792 106.599ZM108.503 112.488L112.037 106.795L111.252 106.599C109.876 108.954 109.093 110.328 108.698 111.113C108.502 109.935 108.306 109.346 107.915 106.599L106.735 106.795L108.111 112.488H108.503ZM113.412 106.599L112.234 112.488H113.216L114.394 106.599H113.412ZM114.198 105.419C114.589 105.419 114.786 105.028 114.786 104.636C114.786 104.437 114.786 104.046 114.394 104.046C114 104.046 113.608 104.437 113.608 104.831C113.607 105.028 113.607 105.419 114.198 105.419ZM119.105 111.506C118.713 111.702 118.322 111.9 117.731 111.9C116.553 111.9 116.358 110.721 116.358 110.132C116.358 108.365 117.536 107.187 118.713 107.187C119.105 107.187 119.695 107.383 119.695 107.58L120.283 106.99C119.891 106.794 119.301 106.599 118.91 106.599C116.358 106.599 115.376 108.954 115.376 110.132C115.376 111.114 115.768 112.684 117.535 112.684C118.123 112.684 118.713 112.488 119.499 112.096L119.105 111.506ZM124.406 111.506C124.21 111.702 123.424 111.9 122.836 111.9C121.658 111.9 121.658 110.918 121.658 110.132C123.622 110.132 125.583 109.347 125.583 107.777C125.583 106.795 124.8 106.599 124.21 106.599C122.051 106.599 120.676 108.758 120.676 110.524C120.676 111.702 121.264 112.683 122.441 112.683C123.227 112.683 124.013 112.487 124.799 112.095L124.406 111.506ZM121.854 109.347C122.051 108.169 123.032 107.188 123.818 107.188C124.21 107.188 124.603 107.582 124.603 107.973C124.603 108.759 123.424 109.542 121.854 109.347ZM130.296 106.991C129.905 106.795 129.511 106.6 128.724 106.6C127.546 106.6 126.959 107.383 126.959 107.973C126.959 108.759 127.547 109.151 127.941 109.741C128.529 110.329 128.724 110.524 128.724 111.114C128.724 111.702 128.332 111.9 127.744 111.9C127.351 111.9 126.959 111.701 126.369 111.506L125.977 112.096C126.565 112.488 127.155 112.684 127.744 112.684C128.923 112.684 129.706 111.901 129.706 110.919C129.706 110.329 129.314 109.741 128.923 109.151C128.332 108.76 127.941 108.366 127.941 107.778C127.941 107.384 128.332 107.188 128.724 107.188C129.118 107.188 129.51 107.384 129.903 107.582L130.296 106.991ZM134.615 104.241L135.206 112.488H135.989L138.935 106.205H139.131L139.721 112.488H140.507L144.432 104.437L143.45 104.241C142.471 106.4 140.898 109.74 140.507 110.918C140.308 109.74 140.113 106.401 139.917 104.241H139.131C138.149 106.4 136.384 109.936 135.99 110.918C135.99 109.74 135.794 106.401 135.598 104.241H134.615ZM147.18 106.599C145.217 106.599 144.039 108.364 144.039 110.132C144.039 111.311 144.63 112.684 146.395 112.684C148.162 112.684 149.341 110.919 149.341 109.15C149.341 107.58 148.359 106.599 147.18 106.599ZM146.985 107.187C148.359 107.187 148.359 108.759 148.359 109.15C148.359 110.524 147.573 111.9 146.395 111.9C145.217 111.9 145.021 110.524 145.021 110.132C145.021 108.759 145.807 107.187 146.985 107.187ZM152.286 106.599H151.304L150.126 112.488H151.108L151.696 109.936C152.09 108.169 152.678 107.382 153.268 107.382C153.66 107.382 153.856 107.58 153.856 107.58L154.446 106.99C154.25 106.794 154.055 106.599 153.661 106.599C153.073 106.599 152.679 106.99 152.091 107.58L152.286 106.599ZM155.427 112.488L157.195 103.849H156.213L154.445 112.488H155.427ZM161.905 108.365C161.709 110.524 160.532 111.9 159.55 111.9C158.96 111.9 158.568 111.309 158.568 110.524C158.568 108.365 159.55 107.187 160.727 107.187C161.514 107.187 161.905 107.973 161.905 108.365ZM163.673 103.849H162.691L162.101 107.383C161.904 106.795 161.315 106.6 160.727 106.6C158.96 106.6 157.586 108.365 157.586 110.525C157.586 111.703 158.176 112.684 159.156 112.684C160.138 112.684 161.12 111.702 161.315 111.506L161.119 112.488H162.101L163.673 103.849ZM164.261 106.599L165.046 112.488H165.637C166.42 111.114 167.796 108.759 168.188 107.777C168.188 108.759 168.58 111.114 168.974 112.488H169.562L172.703 106.795L171.92 106.599C170.348 109.346 169.956 109.936 169.562 111.113C169.366 110.328 168.974 108.167 168.779 106.599H168.188C166.618 109.15 165.833 110.524 165.637 111.113C165.637 110.131 165.438 107.972 165.243 106.599H164.261ZM174.079 106.599L172.9 112.488H173.88L175.059 106.599H174.079ZM174.667 105.419C175.257 105.419 175.452 105.028 175.452 104.636C175.452 104.437 175.256 104.046 174.862 104.046C174.666 104.046 174.274 104.437 174.274 104.831C174.275 105.028 174.275 105.419 174.667 105.419ZM180.362 108.365C180.163 110.524 178.79 111.9 177.808 111.9C177.22 111.9 176.826 111.309 176.826 110.524C176.826 108.365 178.004 107.187 179.181 107.187C179.771 107.187 180.362 107.973 180.362 108.365ZM182.127 103.849H181.145L180.557 107.383C180.163 106.795 179.771 106.6 179.181 106.6C177.416 106.6 175.844 108.365 175.844 110.525C175.844 111.703 176.629 112.684 177.611 112.684C178.593 112.684 179.379 111.702 179.77 111.506L179.574 112.488H180.556L182.127 103.849ZM186.054 111.506C185.858 111.702 185.073 111.9 184.485 111.9C183.306 111.9 183.306 110.918 183.306 110.132C185.268 110.132 187.232 109.347 187.232 107.777C187.232 106.795 186.446 106.599 185.858 106.599C183.699 106.599 182.324 108.758 182.324 110.524C182.324 111.702 182.912 112.683 184.09 112.683C184.875 112.683 185.662 112.487 186.445 112.095L186.054 111.506ZM183.504 109.347C183.7 108.169 184.682 107.188 185.465 107.188C186.056 107.188 186.251 107.582 186.251 107.973C186.251 108.759 185.073 109.542 183.504 109.347ZM97.9015 91.8746H94.1704L92.6004 100.118H93.5823L94.3667 96.5855H96.9196V95.7989H94.3667L94.9559 92.6579H97.7041L97.9015 91.8746ZM99.8642 94.23H98.8823L97.7041 100.119H98.686L99.2751 97.5674C99.4715 95.8 100.257 95.0155 100.846 95.0155C101.239 95.0155 101.434 95.0155 101.434 95.2119L102.024 94.4264C101.828 94.23 101.434 94.0347 101.239 94.0347C100.454 94.0347 100.258 94.4264 99.6689 95.213L99.8642 94.23ZM106.344 95.9974C106.147 98.1544 104.774 99.5311 103.988 99.5311C103.203 99.5311 103.006 98.9409 103.006 97.9591C103.006 95.9974 103.988 94.8181 105.165 94.8181C105.756 94.817 106.344 95.4072 106.344 95.9974ZM107.521 94.23H106.735L106.539 94.8181C106.343 94.4264 105.756 94.0347 105.165 94.0347C103.398 94.0347 101.828 95.9985 101.828 98.1554C101.828 99.3348 102.613 100.317 103.593 100.317C104.575 100.317 105.557 99.3348 105.754 98.9409L105.556 100.119H106.538L107.521 94.23ZM110.466 94.23H109.485L108.306 100.119H109.288L109.68 97.7637C110.074 96.1938 111.252 94.8181 112.234 94.8181C112.822 94.8181 113.017 95.2119 113.017 95.6036V96.5855L112.234 100.119H113.216L113.999 96.3902V95.2119C113.999 94.6217 113.411 94.0337 112.821 94.0337C111.447 94.0337 110.662 95.0155 110.074 95.6036L110.466 94.23ZM114.981 100.118H115.963L116.553 96.9772L118.517 100.317L119.499 99.7264L117.535 96.7808L119.89 94.6217L119.3 94.0337L116.749 96.5855H116.553L117.535 91.4797H116.553L114.981 100.118ZM121.854 100.118L122.836 94.817H124.014L124.211 94.229H122.837L123.033 93.2471C123.23 92.2652 123.819 92.0688 124.015 92.0688C124.212 92.0688 124.407 92.2652 124.407 92.2652L124.801 91.675C124.605 91.4786 124.211 91.4786 124.015 91.4786C123.23 91.4786 122.443 91.8724 122.052 93.4424L121.855 94.2279H121.07V94.816H121.855L120.873 100.117H121.854V100.118ZM127.941 100.118H128.923L129.905 94.229H129.119L128.725 96.1927C128.334 97.7627 127.155 99.5301 126.173 99.5301C125.782 99.5301 125.388 99.3337 125.388 98.7446C125.388 98.5482 125.388 97.9591 125.584 97.7627L126.174 94.229H125.389L124.606 97.958C124.407 98.3518 124.407 98.5482 124.407 98.9399C124.407 99.7254 124.997 100.316 125.585 100.316C126.567 100.316 127.943 99.5301 128.335 98.3518L127.941 100.118ZM132.848 94.23H131.866L130.884 100.119H131.67L132.26 97.5674C132.652 95.8 133.242 95.0155 133.83 95.0155C134.224 95.0155 134.42 95.0155 134.42 95.2119L135.008 94.4264C134.812 94.23 134.617 94.0347 134.225 94.0347C133.635 94.0347 133.243 94.4264 132.653 95.213L132.848 94.23ZM138.148 99.3348C137.952 99.5311 137.56 99.5311 137.166 99.5311C136.775 99.5311 136.578 99.1373 136.775 98.5493L137.56 94.8181H138.934V94.23H137.56L137.952 92.4626L136.97 92.8543L136.578 94.23H135.988L135.792 94.8181H136.577L135.792 98.3529C135.595 99.5311 135.988 100.317 136.97 100.317C137.364 100.317 137.755 100.118 138.148 99.9228V99.3348ZM144.825 96.7808C145.413 95.7989 146.003 94.4253 146.59 93.2471C146.789 94.229 146.789 95.7989 146.984 96.7808H144.825ZM144.236 97.7627H147.181L147.378 100.118H148.556L147.378 91.8735H146.592L142.078 100.118H143.06L144.236 97.7627ZM150.912 94.23L149.732 100.119H150.714L151.696 94.23H150.912ZM151.5 93.0518C151.893 93.0518 152.285 92.4616 152.285 92.0699C152.285 92.0699 152.089 91.6761 151.695 91.6761C151.303 91.6761 151.107 92.0699 151.107 92.4616C151.108 92.6579 151.108 93.0518 151.5 93.0518ZM154.642 94.23H153.66L152.678 100.119H153.66L154.054 97.5674C154.445 95.8 155.033 95.0155 155.819 95.0155C156.015 95.0155 156.213 95.0155 156.409 95.2119L156.801 94.4264C156.604 94.23 156.409 94.0347 156.015 94.0347C155.427 94.0347 155.033 94.4264 154.445 95.213L154.642 94.23ZM157.979 98.9409C158.373 96.1938 159.551 94.8181 160.533 94.8181C161.316 94.8181 161.515 95.8 161.515 96.1938C161.515 98.3529 160.337 99.5311 159.551 99.5311C158.96 99.5301 158.373 99.5301 157.979 98.9409ZM158.96 94.23H157.978L156.408 103.064H157.193L157.977 99.7264C158.371 100.118 158.762 100.317 159.353 100.317C161.512 100.317 162.69 97.9591 162.69 96.3891C162.69 95.2108 162.1 94.0337 160.922 94.0337C159.941 94.0337 159.155 94.817 158.763 95.6036V95.4072L158.96 94.23ZM166.815 94.0337C164.851 94.0337 163.674 95.9974 163.674 97.5674C163.674 98.7456 164.262 100.317 166.029 100.317C167.797 100.317 168.975 98.5493 168.975 96.5855C168.974 95.0155 167.992 94.0337 166.815 94.0337ZM166.815 94.817C167.993 94.817 167.993 96.1927 167.993 96.5844C167.993 98.1544 167.208 99.5301 166.029 99.5301C164.851 99.5301 164.656 98.1544 164.656 97.5663C164.655 96.1927 165.439 94.817 166.815 94.817ZM171.92 94.23H170.938L169.956 100.119H170.741L171.329 97.5674C171.721 95.8 172.311 95.0155 172.901 95.0155C173.293 95.0155 173.49 95.0155 173.685 95.2119L174.079 94.4264C173.88 94.23 173.685 94.0347 173.293 94.0347C172.703 94.0347 172.311 94.4264 171.721 95.213L171.92 94.23ZM177.221 99.3348C177.022 99.5311 176.631 99.5311 176.239 99.5311C175.845 99.5311 175.649 99.1373 175.845 98.5493L176.631 94.8181H178.004V94.23H176.631L177.022 92.4626L176.042 92.8543L175.649 94.23H175.061L174.862 94.8181H175.648L174.862 98.3529C174.666 99.5311 175.061 100.317 176.041 100.317C176.433 100.317 176.825 100.118 177.22 99.9228L177.221 99.3348ZM117.339 60.8524H113.411L110.27 78.1303H114.198L115.768 69.4897C116.358 65.7607 117.927 64.5825 119.301 64.5825C120.087 64.5825 120.481 64.7788 120.873 64.7788L123.032 61.6379C122.641 60.8524 121.659 60.2622 120.873 60.2622C119.5 60.2622 118.518 61.8342 117.928 62.4212L116.749 63.797L117.339 60.8524ZM182.717 60.8524H178.79L175.844 78.1303H179.771L181.145 69.4897C181.931 65.7607 183.503 64.5825 184.876 64.5825C185.662 64.5825 186.054 64.7788 186.446 64.7788L188.41 61.6379C188.018 60.8524 187.232 60.2622 186.251 60.2622C185.073 60.2622 183.895 61.8342 183.307 62.4212L182.325 63.797H182.127L182.717 60.8524ZM197.834 74.9872L198.03 77.3448C196.852 78.1303 195.087 78.5231 193.711 78.5231C189 78.5231 189.392 74.7919 190.768 69.0991L191.946 63.4042H189.787L190.375 60.8524H192.339L193.32 56.5331H197.248L196.266 60.8524H200.389L199.799 63.4042H195.871L194.693 69.0991C193.711 73.222 193.515 75.7738 195.478 75.7738C196.46 75.7738 197.247 75.3811 197.834 74.9872ZM113.216 53.3911H100.846L96.3305 78.1314H100.65L102.416 67.9209H109.288L109.876 64.9752H103.006L104.38 56.5331H112.626L113.216 53.3911ZM138.738 60.6571H134.811L134.419 62.0306C133.634 61.0487 132.26 60.2632 130.688 60.2632C125.583 60.2632 121.658 66.5462 121.658 72.0448C121.658 75.7738 123.423 78.5231 126.369 78.5231C128.923 78.5231 131.082 77.1495 132.26 75.5774L131.866 78.1314H135.597L138.738 60.6571ZM134.027 64.5835C133.242 73.4173 130.296 75.5774 128.332 75.5774C126.763 75.5774 125.781 74.0053 125.781 71.6499C125.781 65.5654 129.118 63.2078 130.883 63.2078C132.26 63.2078 133.242 63.6016 134.027 64.5835ZM143.843 74.5956C144.629 66.5452 147.572 63.2078 149.93 63.2078C151.303 63.2078 152.089 64.1897 152.089 66.939C152.089 70.668 150.321 75.9691 146.59 75.9691C145.611 75.9691 144.825 75.5774 143.843 74.5956ZM146.198 60.6571L145.61 63.6027H145.807C147.572 61.4436 149.536 60.2632 151.5 60.2632C153.659 60.2632 156.213 61.8353 156.213 66.94C156.213 71.2593 153.659 78.5242 147.18 78.5242C145.61 78.5242 144.431 77.934 143.253 76.9521L141.879 85.3941H137.952L142.271 60.6571H146.198ZM165.439 75.9691C162.887 75.9691 162.298 74.0054 162.496 70.668C162.496 67.9209 163.869 62.8161 167.797 62.8161C169.956 62.8161 170.938 64.9752 170.742 67.3307C170.348 74.7919 166.815 75.9691 165.439 75.9691ZM164.851 78.5231C170.742 78.5231 174.863 73.0267 175.061 67.527C175.257 64.1897 173.488 60.2622 168.188 60.2622C163.869 60.2622 158.373 63.797 157.979 71.0618C157.979 74.9872 160.337 78.5231 164.851 78.5231Z" fill="white"/>
<path opacity="0.3" fill-rule="evenodd" clip-rule="evenodd" d="M98.0979 0.186035L99.8653 2.93424C99.8653 2.93424 91.816 11.3763 93.3859 17.2666C87.2993 11.5727 98.0979 0.186035 98.0979 0.186035ZM127.351 20.9966L128.923 23.7459C128.923 23.7459 99.0798 31.4025 88.8693 24.1387C88.8693 24.1387 84.9428 19.8194 84.9428 16.0894C84.9428 16.0894 85.5319 19.035 86.7091 20.4086C95.7403 29.047 127.154 20.9977 127.154 20.9977H127.351V20.9966ZM2.4837 55.5515L0.716309 52.8022C0.912685 52.8022 27.4182 46.3239 34.682 33.7579C36.6458 30.4206 36.4494 27.8677 34.8784 25.905C36.4494 27.8677 37.4313 31.2061 37.4313 31.2061C37.6277 31.4025 38.2168 33.3652 36.4505 36.5072C29.1846 49.0732 2.4837 55.5515 2.4837 55.5515ZM25.2581 23.9423L23.099 20.605C23.099 20.605 28.0074 23.1579 29.382 27.2807C27.6135 25.1206 25.2581 23.9423 25.2581 23.9423ZM51.3698 83.4317L49.2107 80.0922C49.4071 80.0922 49.4071 79.8958 49.4071 79.8958C49.4071 79.8958 56.672 62.2251 48.6216 54.1769C49.9962 55.7479 51.9589 58.4961 51.9589 58.4961C57.6528 66.9382 51.5662 83.4306 51.5662 83.4306L51.3698 83.4317ZM3.85727 67.1356L2.09095 64.3863C2.28732 64.3863 25.6508 53.196 37.4303 56.3381C41.5531 57.32 44.106 60.0671 45.8734 63.4044C44.3024 61.4428 42.1422 59.8707 39.1987 59.0852C27.4182 55.9443 4.05472 67.1356 4.05472 67.1356H3.85727Z" fill="white"/>
<path fill-rule="evenodd" clip-rule="evenodd" d="M74.9306 74.2038V74.4002H74.7342C74.7342 74.4002 62.1682 54.3729 79.2488 41.808C95.3474 30.2239 125.387 34.3478 125.387 34.3478H125.19C125.19 34.3478 97.3112 35.5261 84.9426 44.7537C71.7886 54.5693 74.9306 74.2038 74.9306 74.2038ZM127.155 20.9963C127.155 20.8 127.351 20.9963 127.351 20.9963H127.155C127.155 20.9963 95.7412 29.0456 86.71 20.4072C79.0534 12.7506 97.9014 0.184652 97.9014 0.184652H98.0977C98.0977 0.184652 87.2991 11.7688 93.5821 17.2652C100.65 23.5492 127.155 20.9963 127.155 20.9963ZM82.5861 -0.207031C82.5861 -0.207031 77.4814 12.947 59.6153 17.8554C42.141 22.5673 36.4482 12.7506 36.4482 12.7506C36.4482 12.7506 46.6577 18.0517 59.419 14.517C72.5741 10.7879 82.5861 -0.207031 82.5861 -0.207031ZM23.0978 20.6036H23.2942C23.2942 20.6036 41.1602 22.9601 34.6819 33.7587C27.417 46.3236 0.912532 52.803 0.912532 52.803H0.715088H0.911465C0.911465 52.803 22.9014 43.379 28.5942 34.3478C33.7 25.9057 23.0978 20.6036 23.0978 20.6036ZM2.2861 64.386H2.09079C2.09079 64.1896 2.28717 64.1896 2.28717 64.1896C2.28717 64.1896 27.0253 47.5019 42.3395 51.0356C59.8139 54.9621 49.408 79.8966 49.408 79.8966C49.408 79.8966 49.408 80.093 49.2116 80.093V79.8966C49.2116 79.8966 50.3899 59.6751 37.4312 56.3378C25.6507 53.1957 2.2861 64.386 2.2861 64.386Z" fill="white"/>
</g>
<defs>
<clipPath id="clip0_1092_191">
<rect width="199.894" height="88" fill="white" transform="translate(0.604736)"/>
</clipPath>
</defs>
</svg>
