<svg width="283" height="88" viewBox="0 0 283 88" fill="none" xmlns="http://www.w3.org/2000/svg">
<g clip-path="url(#clip0_1092_143)">
<path d="M3.41361 72.5012L5.71586 78.7742C5.98058 79.4721 6.24529 80.3064 6.41375 80.9481H6.45386C6.6544 80.3144 6.87099 79.5042 7.13571 78.7341L9.23741 72.5092H11.2749L8.37909 80.0738C6.99934 83.7157 6.05277 85.5607 4.7372 86.7158C3.77459 87.526 2.85209 87.8549 2.37078 87.9431L1.88947 86.3388C2.37078 86.1864 3.0045 85.8815 3.57404 85.3922C4.10348 84.9751 4.7372 84.229 5.19444 83.2424C5.28268 83.0418 5.34686 82.8894 5.34686 82.7851C5.34686 82.6728 5.30675 82.5204 5.19444 82.2798L1.28784 72.5012H3.41361Z" fill="white"/>
<path d="M22.4488 77.7156C22.4488 81.6383 19.7054 83.3549 17.1625 83.3549C14.3147 83.3549 12.0767 81.2532 12.0767 77.8921C12.0767 74.3625 14.419 72.2769 17.3389 72.2769C20.3872 72.2769 22.4488 74.4909 22.4488 77.7156ZM14.05 77.8279C14.05 80.1542 15.3656 81.903 17.2507 81.903C19.0957 81.903 20.4755 80.1703 20.4755 77.7798C20.4755 75.9829 19.577 73.7208 17.2988 73.7208C15.0367 73.7288 14.05 75.8305 14.05 77.8279Z" fill="white"/>
<path d="M33.7677 80.1942C33.7677 81.3092 33.7918 82.2798 33.856 83.1141H32.1473L32.035 81.3814H31.9869C31.5056 82.2397 30.3665 83.3548 28.4814 83.3548C26.8128 83.3548 24.8154 82.4082 24.8154 78.7021V72.4933H26.7487V78.3492C26.7487 80.3707 27.3824 81.7504 29.1151 81.7504C30.4066 81.7504 31.305 80.852 31.658 79.9696C31.7703 79.7049 31.8345 79.3519 31.8345 78.9829V72.4933H33.7677V80.1942Z" fill="white"/>
<path d="M36.9764 75.806C36.9764 74.5546 36.9524 73.4797 36.8882 72.493H38.5728L38.661 74.5947H38.7252C39.2065 73.1669 40.3937 72.2684 41.6852 72.2684C41.8857 72.2684 42.0382 72.2925 42.2146 72.3085V74.1295C42.0141 74.0814 41.8216 74.0814 41.5569 74.0814C40.1932 74.0814 39.2305 75.0921 38.9658 76.536C38.9257 76.8007 38.9016 77.1296 38.9016 77.4345V83.0898H36.9764V75.806Z" fill="white"/>
<path d="M57.8729 81.558C57.8729 84.0126 57.3676 85.4806 56.3568 86.4272C55.306 87.3737 53.8139 87.7026 52.4743 87.7026C51.1988 87.7026 49.795 87.3978 48.9447 86.8283L49.426 85.3362C50.1239 85.7934 51.2229 86.1945 52.5385 86.1945C54.5118 86.1945 55.9557 85.1597 55.9557 82.4644V81.3013H55.9156C55.3461 82.2879 54.1829 83.0741 52.5385 83.0741C49.9073 83.0741 48.0222 80.836 48.0222 77.9C48.0222 74.3063 50.3646 72.2848 52.8273 72.2848C54.6723 72.2848 55.6589 73.2233 56.1402 74.1057H56.1804L56.2445 72.5014H57.9532C57.889 73.2474 57.8649 74.1218 57.8649 75.3972V81.558H57.8729ZM55.9477 76.6887C55.9477 76.3598 55.9237 76.0711 55.8354 75.8304C55.4825 74.6913 54.56 73.7688 53.1401 73.7688C51.2951 73.7688 49.9795 75.325 49.9795 77.7797C49.9795 79.8654 51.0544 81.5981 53.116 81.5981C54.3193 81.5981 55.3942 80.852 55.7953 79.6247C55.9076 79.2958 55.9477 78.9268 55.9477 78.5979V76.6887Z" fill="white"/>
<path d="M61.0576 67.5437H62.9909V83.114H61.0576V67.5437Z" fill="white"/>
<path d="M75.8419 77.7156C75.8419 81.6383 73.0984 83.3549 70.5555 83.3549C67.7078 83.3549 65.4697 81.2532 65.4697 77.8921C65.4697 74.3625 67.8201 72.2769 70.732 72.2769C73.7803 72.2769 75.8419 74.4909 75.8419 77.7156ZM67.4431 77.8279C67.4431 80.1542 68.7586 81.903 70.6438 81.903C72.4888 81.903 73.8685 80.1703 73.8685 77.7798C73.8685 75.9829 72.9701 73.7208 70.6919 73.7208C68.4298 73.7288 67.4431 75.8305 67.4431 77.8279Z" fill="white"/>
<path d="M78.2725 67.5437H80.1817V74.2098H80.2218C80.9037 73.0226 82.131 72.2765 83.8396 72.2765C86.4948 72.2765 88.3318 74.4665 88.3318 77.6752C88.3318 81.4695 85.9173 83.3546 83.5509 83.3546C82.0187 83.3546 80.7914 82.761 79.9731 81.3813H79.933L79.8207 83.114H78.1763C78.2164 82.392 78.2645 81.3171 78.2645 80.3705V67.5437H78.2725ZM80.1817 78.8544C80.1817 79.095 80.2058 79.3357 80.27 79.5523C80.6229 80.8919 81.762 81.8144 83.1658 81.8144C85.2033 81.8144 86.3906 80.17 86.3906 77.7394C86.3906 75.6136 85.2916 73.7927 83.2139 73.7927C81.9224 73.7927 80.6951 74.7152 80.294 76.1591C80.2298 76.3997 80.1817 76.6645 80.1817 76.9693V78.8544Z" fill="white"/>
<path d="M98.2144 80.5714C98.2144 81.4939 98.2545 82.3923 98.3668 83.1143H96.6341L96.4817 81.7746H96.4175C95.8239 82.6089 94.6848 83.3549 93.1687 83.3549C91.0189 83.3549 89.9199 81.8388 89.9199 80.3066C89.9199 77.7397 92.1981 76.3359 96.3052 76.3599V76.1433C96.3052 75.285 96.0646 73.6887 93.8907 73.7047C92.88 73.7047 91.8532 73.9935 91.1071 74.4909L90.6659 73.1994C91.5403 72.6539 92.8398 72.2769 94.1714 72.2769C97.4203 72.2769 98.2064 74.4909 98.2064 76.6006V80.5714H98.2144ZM96.3534 77.6915C94.2517 77.6514 91.8612 78.0204 91.8612 80.082C91.8612 81.3575 92.6954 81.927 93.6581 81.927C95.0619 81.927 95.9603 81.0527 96.2651 80.1462C96.3293 79.9296 96.3534 79.705 96.3534 79.5285V77.6915Z" fill="white"/>
<path d="M101.327 67.5437H103.26V83.114H101.327V67.5437Z" fill="white"/>
<path d="M111.154 75.9668C111.154 74.6031 111.106 73.5121 111.065 72.5014H112.774L112.886 74.3223H112.926C113.697 73.0308 114.964 72.2848 116.697 72.2848C119.288 72.2848 121.213 74.4587 121.213 77.6594C121.213 81.4777 118.863 83.3629 116.368 83.3629C114.964 83.3629 113.737 82.7452 113.103 81.6943H113.063V87.462H111.154V75.9668ZM113.063 78.7904C113.063 79.0792 113.087 79.3359 113.151 79.5766C113.504 80.9162 114.667 81.8387 116.047 81.8387C118.084 81.8387 119.272 80.1702 119.272 77.7396C119.272 75.6379 118.157 73.8169 116.111 73.8169C114.796 73.8169 113.544 74.7395 113.191 76.1834C113.127 76.424 113.063 76.7128 113.063 76.9535V78.7904Z" fill="white"/>
<path d="M131.096 80.5714C131.096 81.4939 131.144 82.3923 131.248 83.1143H129.515L129.363 81.7746H129.299C128.705 82.6089 127.566 83.3549 126.05 83.3549C123.9 83.3549 122.801 81.8388 122.801 80.3066C122.801 77.7397 125.079 76.3359 129.187 76.3599V76.1433C129.187 75.285 128.946 73.6887 126.772 73.7047C125.761 73.7047 124.735 73.9935 123.989 74.4909L123.547 73.1994C124.422 72.6539 125.721 72.2769 127.053 72.2769C130.302 72.2769 131.088 74.4909 131.088 76.6006V80.5714H131.096ZM129.227 77.6915C127.125 77.6514 124.735 78.0204 124.735 80.082C124.735 81.3575 125.569 81.927 126.531 81.927C127.935 81.927 128.834 81.0527 129.138 80.1462C129.203 79.9296 129.227 79.705 129.227 79.5285V77.6915Z" fill="white"/>
<path d="M134.208 75.806C134.208 74.5546 134.184 73.4797 134.12 72.493H135.812L135.901 74.5947H135.965C136.446 73.1669 137.633 72.2684 138.925 72.2684C139.125 72.2684 139.278 72.2925 139.454 72.3085V74.1295C139.254 74.0814 139.061 74.0814 138.797 74.0814C137.433 74.0814 136.47 75.0921 136.206 76.536C136.165 76.8007 136.141 77.1296 136.141 77.4345V83.0898H134.208V75.806Z" fill="white"/>
<path d="M144.236 69.9503V72.4932H147.003V73.9612H144.236V79.6887C144.236 81.0043 144.613 81.7503 145.68 81.7503C146.209 81.7503 146.514 81.7022 146.795 81.622L146.883 83.09C146.506 83.2183 145.92 83.3547 145.174 83.3547C144.276 83.3547 143.554 83.0499 143.088 82.5445C142.559 81.9509 142.342 81.0123 142.342 79.7609V73.9692H140.698V72.5012H142.342V70.5279L144.236 69.9503Z" fill="white"/>
<path d="M149.169 75.3732C149.169 74.2581 149.145 73.3757 149.081 72.5014H150.789L150.901 74.2581H150.95C151.479 73.2715 152.706 72.2848 154.455 72.2848C155.923 72.2848 158.201 73.1592 158.201 76.801V83.1142H156.268V76.9936C156.268 75.2849 155.634 73.8571 153.813 73.8571C152.562 73.8571 151.575 74.7555 151.222 75.8304C151.134 76.0711 151.094 76.4 151.094 76.7289V83.1142H149.161V75.3732H149.169Z" fill="white"/>
<path d="M162.421 78.1568C162.469 80.7639 164.106 81.8388 166.063 81.8388C167.443 81.8388 168.301 81.5981 168.999 81.2933L169.352 82.6731C168.67 82.9779 167.491 83.3549 165.798 83.3549C162.533 83.3549 160.576 81.181 160.576 77.9803C160.576 74.7796 162.461 72.2769 165.557 72.2769C169.047 72.2769 169.945 75.3011 169.945 77.2584C169.945 77.6514 169.921 77.9402 169.881 78.1568H162.421ZM168.076 76.7771C168.1 75.5738 167.571 73.6646 165.397 73.6646C163.424 73.6646 162.589 75.4455 162.437 76.7771H168.076Z" fill="white"/>
<path d="M172.335 75.806C172.335 74.5546 172.311 73.4797 172.247 72.493H173.932L174.02 74.5947H174.084C174.565 73.1669 175.753 72.2684 177.044 72.2684C177.245 72.2684 177.397 72.2925 177.574 72.3085V74.1295C177.373 74.0814 177.18 74.0814 176.916 74.0814C175.56 74.0814 174.589 75.0921 174.325 76.536C174.277 76.8007 174.261 77.1296 174.261 77.4345V83.0898H172.327V75.806H172.335Z" fill="white"/>
<path d="M184.353 83.114V73.9692H182.885V72.5012H184.353V71.9958C184.353 70.5038 184.705 69.1481 185.58 68.2898C186.302 67.5919 187.264 67.3031 188.171 67.3031C188.877 67.3031 189.446 67.4555 189.815 67.6079L189.551 69.1C189.262 68.9716 188.893 68.8593 188.323 68.8593C186.679 68.8593 186.262 70.2872 186.262 71.9317V72.5012H188.829V73.9692H186.262V83.114H184.353Z" fill="white"/>
<path d="M199.906 77.7156C199.906 81.6383 197.163 83.3549 194.62 83.3549C191.772 83.3549 189.534 81.2532 189.534 77.8921C189.534 74.3625 191.885 72.2769 194.796 72.2769C197.845 72.2769 199.906 74.4909 199.906 77.7156ZM191.508 77.8279C191.508 80.1542 192.823 81.903 194.708 81.903C196.553 81.903 197.933 80.1703 197.933 77.7798C197.933 75.9829 197.035 73.7208 194.756 73.7208C192.494 73.7288 191.508 75.8305 191.508 77.8279Z" fill="white"/>
<path d="M202.337 75.806C202.337 74.5546 202.313 73.4797 202.249 72.493H203.942L204.03 74.5947H204.094C204.575 73.1669 205.763 72.2684 207.054 72.2684C207.255 72.2684 207.407 72.2925 207.583 72.3085V74.1295C207.383 74.0814 207.19 74.0814 206.926 74.0814C205.562 74.0814 204.599 75.0921 204.335 76.536C204.295 76.8007 204.271 77.1296 204.271 77.4345V83.0898H202.337V75.806Z" fill="white"/>
<path d="M221.734 82.7372C221.228 82.9778 220.113 83.3548 218.685 83.3548C215.485 83.3548 213.399 81.1809 213.399 77.9401C213.399 74.6753 215.637 72.2848 219.102 72.2848C220.242 72.2848 221.252 72.5736 221.782 72.8543L221.34 74.3223C220.883 74.0817 220.153 73.8169 219.102 73.8169C216.672 73.8169 215.348 75.6379 215.348 77.8278C215.348 80.2825 216.928 81.7986 219.03 81.7986C220.129 81.7986 220.851 81.5339 221.397 81.2932L221.734 82.7372Z" fill="white"/>
<path d="M233.486 77.7156C233.486 81.6383 230.742 83.3549 228.199 83.3549C225.352 83.3549 223.114 81.2532 223.114 77.8921C223.114 74.3625 225.464 72.2769 228.376 72.2769C231.424 72.2769 233.486 74.4909 233.486 77.7156ZM225.087 77.8279C225.087 80.1542 226.402 81.903 228.288 81.903C230.133 81.903 231.512 80.1703 231.512 77.7798C231.512 75.9829 230.614 73.7208 228.336 73.7208C226.074 73.7288 225.087 75.8305 225.087 77.8279Z" fill="white"/>
<path d="M235.924 75.3732C235.924 74.2581 235.9 73.3757 235.836 72.5014H237.545L237.657 74.2581H237.697C238.227 73.2715 239.454 72.2848 241.203 72.2848C242.671 72.2848 244.957 73.1592 244.957 76.801V83.1142H243.024V76.9936C243.024 75.2849 242.39 73.8571 240.569 73.8571C239.318 73.8571 238.331 74.7555 237.978 75.8304C237.89 76.0711 237.85 76.4 237.85 76.7289V83.1142H235.916V75.3732H235.924Z" fill="white"/>
<path d="M250.355 69.9503V72.4932H253.115V73.9612H250.355V79.6887C250.355 81.0043 250.724 81.7503 251.799 81.7503C252.329 81.7503 252.634 81.7022 252.914 81.622L253.003 83.09C252.634 83.2183 252.04 83.3547 251.294 83.3547C250.396 83.3547 249.674 83.0499 249.208 82.5445C248.679 81.9509 248.462 81.0123 248.462 79.7609V73.9692H246.818V72.5012H248.462V70.5279L250.355 69.9503Z" fill="white"/>
<path d="M256.26 78.1568C256.3 80.7639 257.944 81.8388 259.901 81.8388C261.281 81.8388 262.14 81.5981 262.837 81.2933L263.19 82.6731C262.509 82.9779 261.329 83.3549 259.637 83.3549C256.372 83.3549 254.415 81.181 254.415 77.9803C254.415 74.7796 256.3 72.2769 259.396 72.2769C262.886 72.2769 263.784 75.3011 263.784 77.2584C263.784 77.6514 263.76 77.9402 263.72 78.1568H256.26ZM261.915 76.7771C261.939 75.5738 261.41 73.6646 259.236 73.6646C257.262 73.6646 256.428 75.4455 256.276 76.7771H261.915Z" fill="white"/>
<path d="M266.174 75.3732C266.174 74.2581 266.15 73.3757 266.086 72.5014H267.795L267.907 74.2581H267.955C268.485 73.2715 269.712 72.2848 271.461 72.2848C272.929 72.2848 275.207 73.1592 275.207 76.801V83.1142H273.274V76.9936C273.274 75.2849 272.64 73.8571 270.819 73.8571C269.568 73.8571 268.581 74.7555 268.228 75.8304C268.14 76.0711 268.1 76.4 268.1 76.7289V83.1142H266.166V75.3732H266.174Z" fill="white"/>
<path d="M280.582 69.9503V72.4932H283.341V73.9612H280.582V79.6887C280.582 81.0043 280.951 81.7503 282.026 81.7503C282.555 81.7503 282.86 81.7022 283.141 81.622L283.229 83.09C282.86 83.2183 282.266 83.3547 281.52 83.3547C280.622 83.3547 279.9 83.0499 279.435 82.5445C278.905 81.9509 278.689 81.0123 278.689 79.7609V73.9692H277.044V72.5012H278.689V70.5279L280.582 69.9503Z" fill="white"/>
<path d="M144.524 33.0022H128.898L126.163 39.3715C125.489 40.9437 125.152 42.1069 125.152 42.885C125.152 43.5027 125.441 44.0401 126.026 44.5054C126.612 44.9706 127.879 45.2755 129.82 45.4118V46.5108H117.106V45.4118C118.791 45.115 119.881 44.73 120.379 44.2487C121.39 43.2941 122.513 41.3608 123.74 38.4409L137.938 5.22278H138.981L153.035 38.8019C154.167 41.5052 155.193 43.254 156.116 44.0562C157.038 44.8583 158.322 45.3156 159.974 45.4118V46.5108H144.051V45.4118C145.655 45.3316 146.746 45.0669 147.308 44.6097C147.877 44.1524 148.158 43.5989 148.158 42.9411C148.158 42.0668 147.757 40.687 146.971 38.8019L144.524 33.0022ZM143.69 30.7962L136.848 14.4799L129.82 30.7962H143.69Z" fill="white"/>
<path d="M215.846 6.14526L216.295 15.611H215.164C214.947 13.9424 214.65 12.7552 214.273 12.0413C213.656 10.8942 212.837 10.0438 211.819 9.49836C210.8 8.95288 209.452 8.68014 207.784 8.68014H202.096V39.5158C202.096 41.9946 202.361 43.5428 202.899 44.1604C203.653 44.9947 204.816 45.4118 206.38 45.4118H207.776V46.5108H190.657V45.4118H192.085C193.794 45.4118 195.005 44.8984 195.719 43.8636C196.152 43.2299 196.377 41.778 196.377 39.5158V8.68014H191.524C189.639 8.68014 188.299 8.81651 187.505 9.09728C186.47 9.4743 185.588 10.1963 184.858 11.2712C184.12 12.3461 183.686 13.79 183.55 15.619H182.419L182.892 6.15329H215.846V6.14526Z" fill="white"/>
<path d="M36.7358 5.22278L37.7787 17.9613H36.7358C35.685 14.7847 34.3213 12.3942 32.6608 10.7899C30.2623 8.47159 27.1739 7.30844 23.4037 7.30844C18.2617 7.30844 14.3551 9.34597 11.6758 13.413C9.42973 16.8463 8.3147 20.9374 8.3147 25.6783C8.3147 29.5287 9.06073 33.0423 10.5448 36.2189C12.0368 39.3955 13.9861 41.7218 16.3926 43.1978C18.8072 44.6738 21.2779 45.4118 23.8208 45.4118C25.3128 45.4118 26.7487 45.2273 28.1365 44.8503C29.5243 44.4733 30.8639 43.9198 32.1554 43.1818V31.5101C32.1554 29.4886 32.003 28.165 31.6901 27.5393C31.3853 26.9136 30.904 26.4404 30.2623 26.1115C29.6205 25.7826 28.4814 25.6221 26.853 25.6221V24.4911H42.4794V25.6221H41.7334C40.1852 25.6221 39.1263 26.1355 38.5487 27.1703C38.1477 27.9083 37.9551 29.3523 37.9551 31.5181V43.8717C35.6689 45.099 33.4228 46.0055 31.2008 46.583C28.9788 47.1606 26.5081 47.4494 23.7887 47.4494C15.9915 47.4494 10.0634 44.9466 6.02048 39.949C2.98023 36.1948 1.46411 31.8711 1.46411 26.9698C1.46411 23.4162 2.31442 20.0149 4.02306 16.7581C6.04454 12.8755 8.82008 9.89947 12.3497 7.81381C15.3097 6.08913 18.7992 5.22278 22.8261 5.22278C24.2941 5.22278 25.6257 5.34311 26.8289 5.58376C28.0322 5.82441 29.7328 6.34583 31.9308 7.16405C33.0458 7.58118 33.7838 7.78975 34.1608 7.78975C34.5379 7.78975 34.8587 7.61327 35.1315 7.26833C35.3962 6.92339 35.5647 6.24154 35.6208 5.2308H36.7358V5.22278Z" fill="white"/>
<path d="M57.1513 -0.127686V55.3589H55.6672V-0.127686H57.1513Z" fill="white"/>
<path d="M89.2063 45.4118V46.5108H71.9114V45.4118H73.3393C75.0078 45.4118 76.2191 44.9225 76.9731 43.9519C77.4464 43.3181 77.687 41.786 77.687 39.3714V13.2927C77.687 11.2471 77.5587 9.89945 77.302 9.24167C77.1015 8.74432 76.7004 8.31916 76.0827 7.95818C75.2083 7.4849 74.2938 7.24425 73.3473 7.24425H71.9194V6.14526H89.2143V7.24425H87.7544C86.1099 7.24425 84.9066 7.73357 84.1526 8.70421C83.6552 9.33793 83.4066 10.8701 83.4066 13.2846V39.3634C83.4066 41.409 83.5349 42.7566 83.7916 43.4144C83.9922 43.9118 84.4093 44.3369 85.043 44.6979C85.8933 45.1712 86.7998 45.4118 87.7544 45.4118H89.2063Z" fill="white"/>
<path d="M105.266 -0.127686V55.3589H103.782V-0.127686H105.266Z" fill="white"/>
<path d="M171.654 -0.127686V55.3589H170.17V-0.127686H171.654Z" fill="white"/>
<path d="M228.376 -0.127686V55.3589H226.892V-0.127686H228.376Z" fill="white"/>
<path d="M266.912 33.0022H251.286L248.55 39.3715C247.876 40.9437 247.539 42.1069 247.539 42.885C247.539 43.5027 247.828 44.0401 248.414 44.5054C248.999 44.9706 250.267 45.2755 252.208 45.4118V46.5108H239.494V45.4118C241.178 45.115 242.269 44.73 242.767 44.2487C243.777 43.2941 244.9 41.3608 246.128 38.4409L260.326 5.22278H261.369L275.415 38.8019C276.546 41.5052 277.573 43.254 278.495 44.0562C279.418 44.8583 280.701 45.3156 282.354 45.4118V46.5108H266.431V45.4118C268.035 45.3316 269.126 45.0669 269.688 44.6097C270.257 44.1524 270.538 43.5989 270.538 42.9411C270.538 42.0668 270.137 40.687 269.351 38.8019L266.912 33.0022ZM266.078 30.7962L259.227 14.4799L252.2 30.7962H266.078Z" fill="white"/>
</g>
<defs>
<clipPath id="clip0_1092_143">
<rect width="281.959" height="88" fill="white" transform="translate(0.498779)"/>
</clipPath>
</defs>
</svg>
