<svg width="459" height="88" viewBox="0 0 459 88" fill="none" xmlns="http://www.w3.org/2000/svg">
<g clip-path="url(#clip0_1155_105)">
<path fill-rule="evenodd" clip-rule="evenodd" d="M112.134 16.7385H128.645V35.4922H146.787V16.7385H163.4V70.2474H146.787V48.6401H128.645V70.2474H112.134V16.7385Z" fill="white"/>
<path fill-rule="evenodd" clip-rule="evenodd" d="M192.858 30.6069C190.106 30.6069 187.562 30.7981 185.116 31.2057C182.67 31.6134 180.833 32.2295 179.406 33.0449C177.572 34.0641 176.148 35.2963 175.129 36.7232C174.11 38.1501 173.286 40.0727 172.777 42.5188L186.955 44.0585C187.567 42.4278 188.369 41.2056 189.286 40.5941C190.509 39.8806 192.336 39.4606 194.782 39.4606C196.617 39.4606 198.047 39.7787 198.76 40.5941C199.474 41.3075 199.894 42.5234 199.894 44.3579C198.059 45.0714 196.323 45.6875 194.59 46.1971C192.959 46.6048 189.396 47.407 183.79 48.5281C179.102 49.4455 175.942 50.8902 174.209 52.8267C172.477 54.6612 171.665 57.0993 171.665 60.055C171.665 60.2589 171.665 60.4664 171.665 60.5683C171.766 63.5241 172.972 65.9671 175.215 67.9036C177.559 70.1459 181.129 71.1542 185.715 71.1542C189.18 71.1542 192.244 70.65 194.996 69.5289C196.831 68.7135 198.77 67.3858 200.706 65.5512C200.91 66.6723 201.118 67.5009 201.22 68.0105C201.423 68.622 201.822 69.3388 202.332 70.256H216.297C215.583 68.7272 215.084 67.3831 214.778 66.3638C214.574 65.3446 214.457 63.9212 214.457 62.0867V60.5683V44.8712C214.457 43.0366 214.059 41.0977 213.345 39.1612C212.632 37.1228 211.617 35.5989 210.394 34.4777C208.559 32.9489 206.303 31.8273 203.551 31.4196C200.901 30.9099 197.342 30.6069 192.858 30.6069ZM199.894 51.9071V54.2381C199.894 56.0727 199.586 57.613 198.974 58.8361C198.668 59.4476 198.153 60.0587 197.541 60.5683C197.134 60.976 196.629 61.3746 195.916 61.6804C194.489 62.4957 192.954 62.8993 191.425 62.8993C189.794 62.8993 188.583 62.6077 187.768 61.8942C187.36 61.4865 187.052 61.0779 186.848 60.5683C186.645 60.0587 186.528 59.5545 186.528 58.943C186.528 57.9238 186.953 56.9996 187.768 56.1842C188.583 55.3689 190.506 54.6472 193.564 53.8318C195.704 53.2203 197.855 52.6206 199.894 51.9071Z" fill="white"/>
<path fill-rule="evenodd" clip-rule="evenodd" d="M223.433 16.7385H238.211V36.5114C240.25 34.371 242.288 32.8422 244.225 32.0268C246.263 31.1095 248.709 30.5999 251.359 30.5999C255.436 30.5999 258.596 31.8229 260.94 34.371C263.284 36.7152 264.405 40.4863 264.405 45.5824V70.2474H249.525V48.9458C249.525 46.4997 249.015 44.8689 248.098 43.8497C247.18 42.7286 245.957 42.3209 244.327 42.3209C242.492 42.3209 241.065 42.9324 239.944 44.3593C238.823 45.6843 238.211 48.1305 238.211 51.6977V70.2474H223.433V16.7385Z" fill="white"/>
<path fill-rule="evenodd" clip-rule="evenodd" d="M273.375 31.5169H287.134V37.8361C289.172 35.288 291.313 33.3515 293.453 32.2304C295.593 31.2111 298.142 30.5996 301.199 30.5996C305.378 30.5996 308.538 31.8227 310.882 34.3707C313.226 36.7149 314.347 40.486 314.347 45.5821V70.2472H299.365V48.9455C299.365 46.4994 298.957 44.8686 298.04 43.8494C297.122 42.7283 295.899 42.3206 294.268 42.3206C292.434 42.3206 291.007 42.9321 289.886 44.3591C288.765 45.684 288.255 48.1302 288.255 51.6974V70.2472H273.375V31.5169Z" fill="white"/>
<path fill-rule="evenodd" clip-rule="evenodd" d="M378.353 61.4822H359.6L356.95 70.2474H340.031L360.211 16.7385H378.251L398.432 70.2474H381.003L378.353 61.4822ZM374.99 49.8631L368.976 30.5999L363.167 49.8631H374.99Z" fill="white"/>
<path fill-rule="evenodd" clip-rule="evenodd" d="M403.222 16.7385H418.103V26.8288H403.222V16.7385ZM403.222 31.5172H418.103V70.3493H403.222V31.5172Z" fill="white"/>
<path fill-rule="evenodd" clip-rule="evenodd" d="M427.785 31.5169H441.748V37.8361C443.073 35.0842 444.398 33.2496 445.825 32.1284C447.252 31.1092 449.087 30.5996 451.125 30.5996C453.368 30.5996 455.712 31.3131 458.362 32.6381L453.775 43.2379C451.941 42.5245 450.616 42.1168 449.596 42.1168C447.66 42.1168 446.131 42.9321 445.01 44.5629C443.481 46.8052 442.666 51.0859 442.666 57.3031V70.2472H427.785V31.5169Z" fill="white"/>
<path fill-rule="evenodd" clip-rule="evenodd" d="M43.9485 -0.180664C19.5892 -0.180664 -0.183594 19.5922 -0.183594 43.9514C-0.183594 68.3107 19.5892 88.0835 43.9485 88.0835C68.3078 88.0835 88.0806 68.3107 88.0806 43.9514C88.0806 19.5922 68.3078 -0.180664 43.9485 -0.180664ZM69.2247 11.2344L24.9908 36.3071L11.4351 33.861L2.26221 38.9571L69.2247 76.6681V61.074L53.5288 58.2203L69.2247 49.353V34.3706L45.477 47.8243L39.1579 44.1551L69.2247 27.0322V11.2344Z" fill="white"/>
</g>
<defs>
<clipPath id="clip0_1155_105">
<rect width="458.118" height="88" fill="white"/>
</clipPath>
</defs>
</svg>
