<svg width="290" height="80" viewBox="0 0 290 80" fill="none" xmlns="http://www.w3.org/2000/svg">
<g clip-path="url(#clip0_1092_331)">
<path d="M149.57 11.6618V44.394H190.491V35.5956H158.369V26.5981H190.492V0H161.232L149.57 11.6618ZM181.488 8.7984V17.5968H158.369V15.3448L164.915 8.7984H181.488Z" fill="white"/>
<path d="M264.559 8.7984H289.93V0H260.877L249.008 11.6618V26.5981H281.131V35.6008H249.008V44.3992H289.929V17.8063H258.011V15.3448L264.559 8.7984Z" fill="white"/>
<path d="M199.289 11.6618V44.394H208.292V15.3448L214.634 8.7984H231.207V44.3992H240.21V0H210.951L199.289 11.6618Z" fill="white"/>
<path d="M49.9286 47.2638V79.996H90.8491V71.1976H58.9313V62.3992H90.8491V35.8063H61.5905L49.9286 47.2638ZM82.052 44.3991V53.1975H58.9313V50.7426L65.4777 44.1962H82.052V44.3991Z" fill="white"/>
<path d="M9.00806 38.4655V8.79834H0.209656V79.9999H9.00806V50.9469L15.5545 44.4004H32.1274V79.9999H41.1301V35.6007H11.8715L9.00806 38.4655Z" fill="white"/>
<path d="M140.57 62.2001V50.3327L127.478 40.102L140.57 29.8712V17.8009H131.772V25.3712L120.11 34.3738L108.65 25.3712V17.8009H99.8517V29.8725L112.945 40.1033L99.8517 50.334V62.2014H108.65V54.6298L120.108 45.6272L131.769 54.6298V62.2001H140.57Z" fill="white"/>
<path d="M108.65 0H95.3517L82.0519 13.2997V26.5981H90.8503V16.9814L99.0334 8.7984H108.65V0Z" fill="white"/>
<path d="M149.577 63.0187L141.387 71.2083H131.771V80.0067H145.07L158.369 66.7017V53.402H149.577V63.0187Z" fill="white"/>
</g>
<defs>
<clipPath id="clip0_1092_331">
<rect width="289.719" height="80" fill="white" transform="translate(0.209656)"/>
</clipPath>
</defs>
</svg>
