<svg width="131" height="88" viewBox="0 0 131 88" fill="none" xmlns="http://www.w3.org/2000/svg">
<g clip-path="url(#clip0_1092_311)">
<path fill-rule="evenodd" clip-rule="evenodd" d="M2.37388 0H128.231C129.564 0 130.605 1.08282 130.605 2.37388V85.5845C130.605 86.8755 129.564 87.9584 128.231 87.9584H2.37388C1.08282 87.9584 0 86.9172 0 85.5845V2.37388C0 1.08282 1.08282 0 2.37388 0ZM41.0639 1.91602H4.2896C2.9569 1.91602 1.91573 2.99884 1.91573 4.28989V41.1058C1.91573 42.4385 2.99855 43.4797 4.2896 43.4797H41.1055C42.4382 43.4797 43.4794 42.3969 43.4794 41.1058V4.28989C43.4794 2.95719 42.3966 1.91602 41.0639 1.91602ZM41.0638 44.5208H4.28956C2.95685 44.5208 1.91568 45.6036 1.91568 46.8946V83.7105C1.91568 85.0432 2.9985 86.0844 4.28956 86.0844H41.1055C42.4382 86.0844 43.4793 85.0016 43.4793 83.7105V46.8946C43.4793 45.6036 42.3965 44.5208 41.0638 44.5208ZM83.7104 44.5208H46.8945C45.5618 44.5208 44.5207 45.6036 44.5207 46.8946V83.7105C44.5207 85.0432 45.6035 86.0844 46.8945 86.0844H83.7104C85.0431 86.0844 86.0843 85.0016 86.0843 83.7105V46.8946C86.0843 45.6036 85.0431 44.5208 83.7104 44.5208ZM89.5409 44.5208H126.357C127.648 44.5208 128.731 45.6036 128.731 46.8946V83.7105C128.731 85.0016 127.689 86.0844 126.357 86.0844H89.5409C88.2498 86.0844 87.167 85.0432 87.167 83.7105V46.8946C87.167 45.6036 88.2082 44.5208 89.5409 44.5208ZM46.8945 1.91602H83.7104C85.0431 1.91602 86.0843 2.95719 86.0843 4.28989V41.1058C86.0843 42.3969 85.0431 43.4797 83.7104 43.4797H46.8945C45.6035 43.4797 44.5207 42.4385 44.5207 41.1058V4.28989C44.5207 2.99884 45.5618 1.91602 46.8945 1.91602ZM126.357 1.91602H89.5409C88.2082 1.91602 87.167 2.99884 87.167 4.28989V41.1058C87.167 42.4385 88.2498 43.4797 89.5409 43.4797H126.357C127.689 43.4797 128.731 42.3969 128.731 41.1058V4.28989C128.731 2.95719 127.648 1.91602 126.357 1.91602Z" fill="white"/>
<path fill-rule="evenodd" clip-rule="evenodd" d="M70.7165 43.4795C70.7165 34.4421 70.7165 25.4047 70.7165 16.3257C66.8433 16.3257 62.9285 16.3257 59.0553 16.3257C59.0553 25.3631 59.0553 34.4005 59.0553 43.4795H70.7165Z" fill="white"/>
<path fill-rule="evenodd" clip-rule="evenodd" d="M59.0553 44.5208C59.0553 52.9751 59.0553 61.3878 59.0553 69.8421C62.9284 69.8421 66.8432 69.8421 70.7164 69.8421C70.7164 61.3878 70.7164 52.9751 70.7164 44.5208H59.0553Z" fill="white"/>
<path fill-rule="evenodd" clip-rule="evenodd" d="M19.2824 43.4795C19.2824 42.5633 19.2824 41.647 19.2824 40.6891H25.2379C25.821 40.6891 26.3624 41.2722 26.3624 41.8553C26.3624 41.8969 26.3624 41.8136 26.3624 41.8553C26.3624 42.1051 26.3624 42.6882 26.3624 43.4378H38.0236C38.0236 41.6054 38.0652 39.9811 38.0236 38.6484C38.0236 38.6068 38.0236 38.6068 38.0236 38.5652C38.0236 34.1506 34.4003 30.5273 29.9857 30.4856C29.9441 30.4856 29.9857 30.4856 29.9441 30.4856C26.1125 30.4856 23.114 30.4856 19.2824 30.4856C19.2824 25.7795 19.2824 21.0318 19.2824 16.3257C15.4093 16.3257 11.4945 16.3257 7.62129 16.3257C7.62129 25.3631 7.62129 34.4005 7.62129 43.4795H19.2824Z" fill="white"/>
<path fill-rule="evenodd" clip-rule="evenodd" d="M7.62129 44.5208C7.62129 52.9751 7.62129 61.3878 7.62129 69.8421C11.4945 69.8421 15.4093 69.8421 19.2824 69.8421C19.2824 61.3878 19.2824 52.9751 19.2824 44.5208H7.62129Z" fill="white"/>
<path fill-rule="evenodd" clip-rule="evenodd" d="M26.3624 44.5208C26.3624 50.6429 26.3624 64.9694 26.3624 69.8421C30.2356 69.8421 34.1504 69.8421 38.0236 69.8421C38.0236 61.8459 38.0236 52.8085 38.0236 44.8123C38.0236 44.6873 38.0236 44.604 38.0236 44.5208H26.3624Z" fill="white"/>
<path fill-rule="evenodd" clip-rule="evenodd" d="M118.569 43.4796L125.066 30.4441H111.156L107.949 38.7318L104.742 30.4441H90.8318L97.3288 43.4796H118.569Z" fill="white"/>
<path fill-rule="evenodd" clip-rule="evenodd" d="M118.027 44.5208H97.8703L100.536 49.8932L90.3322 69.8837H104.076L107.949 60.18L111.78 69.8837H125.566L115.362 49.8932L118.027 44.5208Z" fill="white"/>
</g>
<defs>
<clipPath id="clip0_1092_311">
<rect width="130.605" height="88" fill="white"/>
</clipPath>
</defs>
</svg>
