<svg width="305" height="63" viewBox="0 0 305 63" fill="none" xmlns="http://www.w3.org/2000/svg">
<g clip-path="url(#clip0_1092_348)">
<path d="M304.96 56.9896C304.96 60.3931 302.208 63.1448 298.805 63.1448C295.401 63.1448 292.65 60.3931 292.65 56.9896C292.65 53.5862 295.401 50.8345 298.805 50.8345C302.208 50.8345 304.96 53.5862 304.96 56.9896Z" fill="white"/>
<path d="M280.412 56.9896C280.412 60.3931 277.66 63.1448 274.256 63.1448C270.853 63.1448 268.101 60.3931 268.101 56.9896C268.101 53.5862 270.853 50.8345 274.256 50.8345C277.66 50.8345 280.412 53.5862 280.412 56.9896Z" fill="white"/>
<path d="M255.791 56.9896C255.791 60.3931 253.039 63.1448 249.636 63.1448C246.232 63.1448 243.48 60.3931 243.48 56.9896C243.48 53.5862 246.232 50.8345 249.636 50.8345C253.039 50.8345 255.791 53.5862 255.791 56.9896Z" fill="white"/>
<path d="M231.17 56.9896C231.17 60.3931 228.418 63.1448 225.015 63.1448C221.612 63.1448 218.86 60.3931 218.86 56.9896C218.86 53.5862 221.612 50.8345 225.015 50.8345C228.418 50.8345 231.17 53.5862 231.17 56.9896Z" fill="white"/>
<path d="M206.549 56.9896C206.549 60.3931 203.798 63.1448 200.394 63.1448C196.991 63.1448 194.239 60.3931 194.239 56.9896C194.239 53.5862 196.991 50.8345 200.394 50.8345C203.798 50.8345 206.549 53.5862 206.549 56.9896Z" fill="white"/>
<path d="M181.856 56.9896C181.856 60.3931 179.105 63.1448 175.701 63.1448C172.298 63.1448 169.546 60.3931 169.546 56.9896C169.546 53.5862 172.298 50.8345 175.701 50.8345C179.105 50.8345 181.856 53.5862 181.856 56.9896Z" fill="white"/>
<path d="M39.2738 25.4896C39.2738 20.4931 42.3151 15.7137 47.5289 15.7137C52.6703 15.7137 55.7117 20.5655 55.7117 25.4896C55.7117 30.1965 53.1772 35.2655 47.5289 35.2655C41.8082 35.2655 39.2738 30.1241 39.2738 25.4896ZM34.1324 25.4896C34.1324 32.9482 39.6358 39.1758 47.5289 39.1758C55.422 39.1758 60.9255 32.9482 60.9255 25.4896C60.9255 17.5241 55.5669 11.8034 47.5289 11.8034C39.491 11.731 34.1324 17.5241 34.1324 25.4896ZM34.1324 25.4896C34.1324 32.9482 39.6358 39.1758 47.5289 39.1758C55.422 39.1758 60.9255 32.9482 60.9255 25.4896C60.9255 17.5241 55.5669 11.8034 47.5289 11.8034C39.491 11.731 34.1324 17.5241 34.1324 25.4896ZM39.2738 25.4896C39.2738 20.4931 42.3151 15.7137 47.5289 15.7137C52.6703 15.7137 55.7117 20.5655 55.7117 25.4896C55.7117 30.1965 53.1772 35.2655 47.5289 35.2655C41.8082 35.2655 39.2738 30.1241 39.2738 25.4896Z" fill="white"/>
<path d="M150.356 36.7863L141.667 13.107C141.667 13.0345 141.594 12.9621 141.594 12.8897C141.594 12.6001 141.812 12.3828 142.174 12.3828H145.867H145.939C146.374 12.3828 146.808 12.6725 146.953 13.107L153.832 34.0345H153.905L160.856 13.1794V13.107C161.001 12.7449 161.363 12.4552 161.798 12.4552H165.201C165.491 12.4552 165.781 12.6725 165.781 12.9621C165.781 13.0345 165.781 13.0345 165.781 13.107L156.801 37.8001L151.008 54.5276C151.008 54.6001 150.936 54.6725 150.936 54.7449C150.719 54.9621 150.429 55.0345 150.139 54.8173L147.243 52.5001C146.808 52.138 146.663 51.7035 146.881 51.269L151.298 39.8276C151.37 39.538 150.646 37.6552 150.356 36.7863Z" fill="white"/>
<path d="M133.846 28.3861V26.0689C132.832 26.0689 131.746 25.9965 130.732 25.9965C128.125 25.9965 121.608 26.431 121.608 30.993C121.608 33.7448 124.287 35.2654 126.532 35.2654C131.312 35.2654 133.846 32.2965 133.846 28.3861ZM138.843 37.5103C138.843 38.0896 138.336 38.5965 137.756 38.5965H135.512C134.86 38.5965 134.353 38.162 134.353 37.5103V35.193H134.281C133.122 36.7861 130.587 39.1758 126.098 39.1758C120.45 39.1758 116.467 36.7137 116.467 30.993C116.467 24.4034 123.708 22.3758 128.705 22.3758C130.587 22.3758 131.963 22.3758 133.846 22.4482C133.846 17.9585 132.181 15.6413 127.329 15.6413C125.229 15.6413 122.984 16.2206 121.174 17.3068C121.029 17.3792 120.812 17.4516 120.594 17.4516C120.015 17.4516 119.581 17.0172 119.508 16.4379L119.363 14.5551C119.363 14.3379 119.436 14.1206 119.653 14.0482C122.043 12.6723 124.794 11.731 128.053 11.731C135.584 11.731 138.625 15.4241 138.625 22.593V33.4551C138.698 35.3379 138.77 36.5689 138.843 37.5103Z" fill="white"/>
<path d="M91.484 25.3448C91.4116 29.4724 93.584 35.2655 98.7978 35.2655C104.301 35.2655 106.546 29.9069 106.546 25.4897C106.546 20.6379 104.012 15.6414 98.7254 15.6414C93.4392 15.6414 91.3392 20.5655 91.484 25.3448ZM106.691 37.4379V34.831H106.619C105.315 36.7862 102.346 39.1759 97.6392 39.1759C89.6737 39.1759 86.3427 32.1517 86.3427 24.9828C86.3427 17.9586 90.0358 11.731 97.7116 11.731C102.274 11.731 104.953 13.5414 106.474 15.931H106.546V1.08621C106.546 0.506897 106.981 0 107.56 0H110.312C110.891 0 111.398 0.434483 111.398 1.08621V37.4379C111.398 38.0172 110.963 38.4517 110.384 38.5241H107.777C107.198 38.5241 106.691 38.0172 106.691 37.4379Z" fill="white"/>
<path d="M28.1944 37.5104C28.1944 38.0897 27.6875 38.5966 27.1082 38.5966H24.0668C23.4875 38.5966 23.053 38.0897 23.053 37.5104V22.231H5.74611V37.5104C5.74611 38.0897 5.31163 38.5242 4.73232 38.5966H4.65991H1.76336C1.11163 38.5966 0.604736 38.0897 0.604736 37.5104V37.4379V3.83794C0.604736 3.18622 1.11163 2.75173 1.69094 2.75173H4.73232C5.31163 2.75173 5.81853 3.25863 5.81853 3.76553V17.669H23.053V3.69311C23.053 3.1138 23.5599 2.67932 24.1392 2.67932H27.1082C27.7599 2.67932 28.2668 3.18622 28.2668 3.76553V37.5104H28.1944Z" fill="white"/>
<path d="M67.153 38.5241H67.0806C66.5013 38.5241 65.9944 38.0172 65.9944 37.4379V1.08621C65.9944 0.506897 66.5013 0 67.0806 0H67.153H69.8323C70.4116 0 70.9185 0.506897 70.9185 1.08621V38.5241H67.153Z" fill="white"/>
<path d="M78.3047 38.5241H78.2323C77.653 38.5241 77.1461 38.0172 77.1461 37.4379V13.3965C77.1461 12.8172 77.653 12.3103 78.2323 12.3103H80.9841C81.5634 12.3103 82.0703 12.8172 82.0703 13.3965V38.5241H78.3047Z" fill="white"/>
<path d="M82.2875 1.01382V5.43106C82.2875 6.01037 81.7806 6.44486 81.2013 6.44486H81.1289H76.7841V2.02761C76.7841 1.4483 77.291 0.941406 77.8703 0.941406H77.9427H82.2875V1.01382Z" fill="white"/>
<path d="M39.2738 25.4897C39.2738 30.1966 41.8082 35.2655 47.5289 35.2655C53.2496 35.2655 55.7117 30.1242 55.7117 25.4897C55.7117 20.4931 52.6703 15.7138 47.5289 15.7138C42.3151 15.6414 39.2738 20.4931 39.2738 25.4897ZM34.1324 25.4897C34.1324 17.5242 39.491 11.8035 47.5289 11.8035C55.5669 11.8035 60.9255 17.5242 60.9255 25.4897C60.9255 32.9483 55.422 39.1759 47.5289 39.1759C39.5634 39.1759 34.1324 32.9483 34.1324 25.4897Z" fill="white"/>
<path d="M196.774 37.1483C196.774 37.6551 196.484 38.0172 196.122 38.162C193.515 39.031 190.546 39.1758 188.591 39.1758C177.149 39.1758 169.618 31.862 169.618 20.4931C169.618 9.48618 177.656 2.09998 188.663 2.09998C191.198 2.09998 193.66 2.46204 195.977 3.33101H196.049C196.412 3.47584 196.701 3.83791 196.701 4.27239L196.412 7.74825C196.412 8.03791 196.122 8.25515 195.905 8.25515C195.832 8.25515 195.76 8.25515 195.687 8.18273C193.587 7.09653 191.27 6.58963 188.953 6.58963C180.625 6.58963 175.122 12.5276 175.122 20.5655C175.122 28.9655 181.205 34.6138 188.736 34.6138C190.98 34.6138 193.949 34.1069 195.905 33.2379C195.977 33.2379 196.049 33.1655 196.122 33.1655C196.412 33.1655 196.629 33.3827 196.629 33.7448L196.774 37.1483Z" fill="white"/>
<path d="M226.029 37.4379C226.029 38.0172 225.522 38.5241 224.943 38.5241H222.191C221.612 38.5241 221.105 38.0172 221.105 37.4379V37.3655V24.9828C221.105 18.9 219.729 15.931 215.529 15.6414C210.025 15.6414 207.491 20.0586 207.491 26.431V37.5103C207.491 38.0897 207.056 38.5241 206.477 38.5966H203.725C203.146 38.5966 202.639 38.0897 202.639 37.5103V1.15862C202.639 0.506895 203.146 0 203.725 0H206.477C207.056 0 207.563 0.506897 207.563 1.08621V16.0759H207.636C209.374 13.3241 212.415 11.731 216.108 11.731C222.915 11.731 225.956 15.931 225.956 22.9552V37.4379H226.029Z" fill="white"/>
<path d="M277.805 37.3655C277.805 37.9448 277.443 38.3069 277.008 38.4517C275.198 39.1035 273.315 39.1759 271.794 39.1759C263.829 39.1759 258.398 32.9483 258.398 25.4897C258.398 17.5242 263.756 11.8035 271.794 11.8035C273.387 11.8035 275.343 12.0931 276.791 12.5276C277.298 12.6724 277.587 13.0345 277.587 13.5414V13.6138L277.37 16.0759C277.37 16.3655 277.153 16.5828 276.791 16.5828C276.719 16.5828 276.646 16.5828 276.646 16.5828C274.981 16.0035 273.387 15.7138 272.012 15.7138C266.581 15.7138 263.539 20.5655 263.539 25.4897C263.539 30.1966 266.074 35.2655 272.301 35.2655C273.677 35.2655 275.415 34.9035 276.791 34.1793C276.863 34.1069 276.936 34.1069 277.081 34.1069C277.37 34.1069 277.587 34.3242 277.587 34.6138L277.805 37.3655Z" fill="white"/>
<path d="M299.312 38.5241C298.95 38.5241 298.66 38.3793 298.443 38.1621L287.001 25.0552V37.4379C287.001 38.0172 286.494 38.5241 285.915 38.5241H285.843H283.308H283.236C282.657 38.5241 282.15 38.0172 282.15 37.4379V1.08621C282.15 0.506897 282.657 0 283.236 0H285.915C286.567 0 287.001 0.506897 287.001 1.08621V22.9552L297.212 12.7448C297.429 12.5276 297.719 12.3828 298.008 12.3828H302.86C303.15 12.3828 303.367 12.6 303.367 12.9621C303.367 13.1069 303.294 13.2517 303.222 13.3241L291.926 24.0414L304.815 37.6552C304.96 37.7276 305.032 37.8724 305.032 38.0897C305.032 38.3793 304.815 38.5966 304.526 38.5966L299.312 38.5241Z" fill="white"/>
<path d="M236.384 22.9551H249.998C249.998 18.9723 247.608 15.6413 243.408 15.6413C238.701 15.6413 236.746 19.5516 236.384 22.9551ZM253.184 36.7137C253.184 37.2206 252.894 37.5827 252.532 37.7275C250.794 38.3792 248.694 39.1758 244.856 39.1758C235.515 39.1758 231.243 33.5275 231.243 24.9827C231.243 17.2344 236.167 11.731 243.625 11.731C252.17 11.731 255.139 17.8137 255.212 25.9965C255.212 26.2861 254.994 26.5758 254.705 26.5758H236.456C236.456 31.7896 240.512 35.3379 245.146 35.3379C247.825 35.3379 250.794 34.1792 252.46 33.2379C252.532 33.1654 252.605 33.1654 252.75 33.1654C253.039 33.1654 253.329 33.3827 253.329 33.6723V36.7137H253.184Z" fill="white"/>
</g>
<defs>
<clipPath id="clip0_1092_348">
<rect width="304.138" height="63" fill="white" transform="translate(0.604858)"/>
</clipPath>
</defs>
</svg>
