<svg width="254" height="88" viewBox="0 0 254 88" fill="none" xmlns="http://www.w3.org/2000/svg">
<g clip-path="url(#clip0_1092_343)">
<path d="M184.514 6.53906C186.197 6.53906 188.651 8.97184 188.651 13.1985C188.651 17.1016 183.625 30.8136 180.349 40.8765C176.835 51.6438 173.481 68.2187 170.667 68.2105C168.386 68.2187 165.805 62.6241 165.805 60.1954C165.805 58.2869 169.881 45.3612 173.042 36.0478C176.9 24.6334 182.233 6.53906 184.514 6.53906Z" fill="white"/>
<path d="M206.249 37.527C203.792 45.5462 200.298 55.7483 193.409 55.7483C192.082 55.7483 190.616 54.6384 190.829 52.4677C191.488 45.7878 197.931 37.5721 205.393 37.5721C205.7 37.5721 206.265 37.568 206.249 37.527ZM204.099 29.8027C194.642 29.8027 181.225 44.6943 181.225 55.65C181.225 61.0111 185.009 64.3859 189.592 64.3859C195.17 64.3859 198.222 61.4739 202.284 58.0951C202.284 60.9087 205.18 62.6494 207.15 62.6494C210.865 62.6494 214.698 58.5415 218.532 54.323C217.708 56.9524 217.409 58.4801 217.409 60.1633C217.409 61.7401 220.264 65.9832 221.738 65.9832C222.418 65.9832 224.556 62.121 226.883 58.8773C229.971 54.5565 234.05 50.2971 236.458 50.2971C237.298 50.2971 237.412 51.2186 237.412 52.0623C237.412 54.106 236.884 55.7196 236.884 58.7667C236.884 62.2152 237.9 65.0371 241.455 65.0453C246.738 65.0371 253.348 59.5449 253.348 56.8213C253.348 55.8343 253.148 54.8718 252.083 54.8718C250.817 54.8718 248.581 56.1906 246.545 56.1906C245.509 56.1906 245.071 54.6015 245.071 52.8077C245.071 48.3025 246.423 44.9728 246.423 39.8287C246.423 37.2567 245.268 35.7249 242.597 35.7249C239.251 35.7249 233.284 41.3564 229.668 45.4684C230.868 41.1926 232.518 36.2164 232.518 34.4635C232.518 31.5065 228.246 27.7303 226.883 27.7303C225.617 27.7303 222.586 37.957 221.374 42.5523C219.9 44.8008 213.629 52.3121 211.614 52.3121C209.919 52.3121 209.992 51.1571 209.992 50.3954C209.992 48.7448 215.267 38.4526 215.267 35.5161C215.267 33.3167 213.109 28.7952 210.553 28.7952C209.648 28.7952 209.005 30.2696 208.538 31.0396C207.686 30.2246 206.2 29.8027 204.099 29.8027Z" fill="white"/>
<path d="M142.912 59.1249C139.217 71.9195 134.528 87.8882 132.501 87.8882C130.133 87.8882 127.786 84.0343 127.786 81.0527C127.786 76.8465 131.849 68.1434 135.187 57.0689C140.208 40.4367 145.316 21.8755 148.178 21.8755C150.288 21.8755 152.512 26.0325 152.688 28.0844C152.757 28.9527 152.794 30.2264 152.565 31.0455C154.187 29.7841 156.304 29.0919 158.741 29.0919C162.316 29.0919 166.551 32.6551 166.551 40.2647C166.551 50.348 158.094 63.7898 149.739 63.7898C147.032 63.7898 143.997 61.7338 142.912 59.1249ZM145.86 50.6143C145.86 52.9487 147.74 54.1447 149.849 54.1447C153.216 54.1447 157.762 47.9603 157.762 42.9719C157.762 39.7978 156.361 37.6599 153.65 37.6599C148.768 37.6599 145.86 47.9603 145.86 50.6143Z" fill="white"/>
<path d="M105.588 51.3272C106.428 53.5921 107.746 54.2351 109.63 54.2351C114.787 54.2351 121.59 49.7217 125.521 41.8459C129.728 33.5851 137.108 3.46611 139.778 3.46611C142.391 3.46611 144.23 7.4634 144.23 9.80199C144.23 13.5249 138.304 30.8165 133.622 44.336C129.912 55.0665 127.454 68.2092 124.694 68.2092C122.208 68.2092 120.107 62.9833 120.07 60.7552C120.029 59.0638 120.34 57.6876 120.59 56.9463C118.133 59.1703 112.653 63.8269 107.321 63.8269C102.176 63.8269 97.8843 60.9559 96.8358 52.4617C93.2685 52.3511 89.689 50.8234 89.689 50.8234C86.5845 59.887 83.435 68.971 81.6985 68.971C78.9176 68.971 76.7715 64.9819 76.7715 61.943C76.7715 59.3423 78.9667 52.9327 81.3668 46.2528C78.9504 44.4507 75.7394 40.8138 75.7394 40.8138C75.7026 41.6124 75.6944 41.9524 75.5879 42.792C73.9496 55.8569 66.1475 63.2372 59.8403 63.2372C53.4553 63.2372 49.6423 58.4249 49.4007 53.2357C49.1918 48.5586 51.5099 42.964 53.1932 40.5681C53.1932 40.5681 50.957 40.8589 46.9925 41.8746C42.3972 56.0535 38.9119 69.3601 36.4668 69.3601C33.7432 69.3519 31.2449 64.4536 31.2449 62.0822C31.2449 59.8174 32.8299 54.4603 36.303 44.1968C34.7712 44.6063 28.4067 46.4944 26.5268 47.1046C21.4646 60.5587 18.4667 69.4461 16.0666 69.4461C13.5151 69.4461 11.6762 63.6959 11.6762 61.1976C11.6762 58.388 15.3171 50.4958 15.3171 50.4958C8.17853 53.0514 1.64606 55.259 1.01534 54.7716C-1.02426 53.1579 3.70205 45.6016 5.63927 44.2336C6.442 43.6684 12.483 41.5961 19.425 39.45C25.6298 24.0751 34.8367 2.38487 36.8886 2.38487C38.5555 2.38487 40.7794 7.84429 40.7794 10.8136C40.7713 13.3529 35.0251 26.2253 30.5036 36.923C31.6053 36.6117 37.4293 34.9612 39.3828 34.4001C44.7235 19.0007 52.2594 0.111816 54.3727 0.111816C56.2485 0.111816 57.727 5.72687 57.727 9.08935C57.727 11.301 53.4799 22.4778 49.9003 32.5202C54.2048 31.4144 57.5386 31.1646 60.3195 31.1646C63.51 31.1646 64.5175 34.0561 64.5175 35.809C64.5175 38.1353 62.7892 39.6056 61.0977 40.0316C59.8199 42.8002 57.9113 45.8964 57.9113 50.3647C57.9113 51.9251 59.1728 53.7804 60.5816 53.7804C64.3701 53.7804 67.6383 44.5695 68.1626 39.8227C68.4042 37.5455 67.6383 35.6616 67.6383 35.6616C66.2254 34.6254 65.1974 33.7325 65.1974 31.1523C65.1974 28.31 67.3967 25.1195 70.3906 25.1195C72.9094 25.1195 74.5353 27.7161 75.678 30.9434C75.678 30.9434 78.9012 35.7353 83.9019 39.1797C88.5054 25.9714 94.9641 6.61562 96.6269 6.61562C99.0802 6.61562 101.546 10.1993 101.546 13.6109C101.546 15.4826 96.3075 32.0124 92.2037 43.566C92.2037 43.566 93.801 44.0248 94.8822 44.2418C96.1191 44.508 97.0856 44.5449 97.2577 44.5367C99.457 36.5093 106.751 26.983 113.644 26.983C119.181 26.983 122.04 30.1735 122.04 35.5305C122.04 41.9155 115.512 48.3497 105.588 51.3272ZM115.086 36.4151C115.086 35.1537 114.623 34.4943 113.198 34.4943C110.228 34.4943 106.845 39.0691 105.523 43.5619C111.494 41.6043 115.086 37.9879 115.086 36.4151Z" fill="white"/>
</g>
<defs>
<clipPath id="clip0_1092_343">
<rect width="252.653" height="88" fill="white" transform="translate(0.604858)"/>
</clipPath>
</defs>
</svg>
