<svg width="220" height="88" viewBox="0 0 220 88" fill="none" xmlns="http://www.w3.org/2000/svg">
<g clip-path="url(#clip0_1155_118)">
<path d="M14.3406 22.2754H0.0350438V76.6829C4.75532 74.9828 9.52605 73.4261 14.3406 72.0151V22.2754ZM0 0H14.564V12.7444H0V0ZM36.8035 51.6304C36.8035 38.8807 43.7631 33.3464 51.8818 33.3464C59.9996 33.3464 62.7058 38.2403 62.7058 46.8671V65.3577C67.7985 65.596 72.5784 66.162 77.1437 66.9689V44.0321C77.1437 29.6091 69.6698 20.9866 56.5224 20.9866C46.2109 20.9866 40.1528 26.0084 36.8035 33.2168V22.2762H22.497V69.8188C27.517 68.5756 32.275 67.6145 36.8026 66.9005V51.6304H36.8035ZM141.393 22.2754H127.212L110.201 71.1215L93.9628 22.2754H78.881L96.1267 71.7777C104.507 74.455 112.496 77.566 120.812 80.3388L141.393 22.2754ZM145.265 0H159.826V12.7444H145.265V0ZM159.696 22.2754H145.39V86.5625C149.908 87.2634 154.653 87.7251 159.696 87.8723V22.2754ZM195.129 20.9875C177.854 20.9875 168.06 28.8407 167.028 41.9733H180.435C180.692 35.4105 185.59 31.6731 194.353 31.6731C203.114 31.6731 205.692 35.534 205.692 41.4581V47.5101C203.889 47.3796 201.442 47.2517 199.379 47.2517C175.276 47.2517 165.225 55.4904 165.225 70.0422C165.225 78.8337 170.167 84.9917 178.534 86.9848C184.948 86.22 191.834 84.9628 199.291 83.1011C203.527 82.0436 207.73 80.8562 211.893 79.5407C214.61 78.6889 217.313 77.7919 220 76.8502V41.4581C219.999 29.7431 214.198 20.9875 195.129 20.9875ZM205.691 61.1552C205.691 70.9428 198.346 76.7355 189.452 76.7355C183.395 76.7355 179.917 73.5176 179.917 67.852C179.917 59.8699 186.747 56.6477 199.767 56.6477C201.829 56.6477 203.888 56.6477 205.693 56.7782V61.1552H205.691Z" fill="white"/>
</g>
<defs>
<clipPath id="clip0_1155_118">
<rect width="220" height="88" fill="white"/>
</clipPath>
</defs>
</svg>
