<svg width="305" height="66" viewBox="0 0 305 66" fill="none" xmlns="http://www.w3.org/2000/svg">
<g clip-path="url(#clip0_1092_399)">
<mask id="mask0_1092_399" style="mask-type:luminance" maskUnits="userSpaceOnUse" x="0" y="0" width="305" height="66">
<path d="M304.302 0H0.301758V65.9919H304.302V0Z" fill="white"/>
</mask>
<g mask="url(#mask0_1092_399)">
<path d="M64.0742 34.5097L69.508 27.9896C71.802 31.0686 74.3375 32.6376 77.3565 32.6376C81.2804 32.6376 83.333 29.9676 83.333 25.3187V15.5481H68.4817V7.69958H93.0535V24.7776C93.0535 35.2215 87.7988 40.6693 77.8393 40.6693C72.1641 40.6693 67.1532 38.4959 64.0742 34.5113" fill="white"/>
<path d="M134.772 7.69958V40.1799H125.836V36.316C124.569 37.7248 123.011 38.8427 121.271 39.593C119.531 40.3433 117.649 40.7082 115.754 40.6627C107.605 40.6627 101.869 36.0738 101.869 26.0527V7.69958H111.287V24.6643C111.287 30.0973 113.702 32.512 117.868 32.512C122.215 32.512 125.354 29.7352 125.354 23.7579V7.69958H134.772Z" fill="white"/>
<path d="M176.734 21.5854V40.1799H167.314V23.0345C167.314 17.7797 164.901 15.3666 160.734 15.3666C156.207 15.3666 152.946 18.1443 152.946 24.1208V40.1799H143.528V7.69958H152.526V11.5027C155.062 8.72591 158.865 7.2168 163.272 7.2168C170.939 7.2168 176.738 11.6842 176.738 21.5854" fill="white"/>
<path d="M194.666 7.69958H185.249V40.1799H194.666V7.69958Z" fill="white"/>
<path d="M238.799 23.9393C238.799 34.1418 231.738 40.6627 222.619 40.6627C218.574 40.6627 215.255 39.3941 212.839 36.738V48.9956H203.421V7.69955H212.417V11.4428C214.771 8.60518 218.273 7.21594 222.619 7.21594C231.733 7.21594 238.799 13.7368 238.799 23.9393ZM229.26 23.9393C229.26 18.3249 225.698 14.9438 220.99 14.9438C216.281 14.9438 212.718 18.3249 212.718 23.9393C212.718 29.5537 216.281 32.9348 220.99 32.9348C225.698 32.9348 229.26 29.5537 229.26 23.9393Z" fill="white"/>
<path d="M276.716 26.596H252.144C253.047 30.6414 256.491 33.1161 261.441 33.1161C262.942 33.1764 264.439 32.929 265.841 32.3892C267.242 31.8494 268.519 31.0286 269.592 29.9771L274.6 35.4101C271.582 38.852 267.054 40.6649 261.198 40.6649C249.969 40.6649 242.664 33.6038 242.664 23.9423C242.664 14.2218 250.09 7.21899 259.988 7.21899C269.527 7.21899 276.892 13.6183 276.892 24.063C276.892 24.7872 276.772 25.8135 276.712 26.5985M252.023 21.1007H268.022C267.784 19.1794 266.832 17.4179 265.356 16.1653C263.88 14.9128 261.987 14.2607 260.052 14.3384C255.767 14.3384 252.688 16.9354 252.023 21.1007Z" fill="white"/>
<path d="M303.342 7.2168V15.9102C302.557 15.8502 301.953 15.7895 301.229 15.7895C296.037 15.7895 292.595 18.6271 292.595 24.8458V40.1799H283.178V7.69958H292.174V11.9872C294.468 8.84742 298.332 7.21762 303.34 7.21762" fill="white"/>
<path d="M54.3595 14.7591L28.8024 0.529323C28.0405 0.105459 27.1656 -0.0705858 26.299 0.0256447C25.4325 0.121875 24.6175 0.485603 23.9672 1.0663C23.9672 1.0663 0.456117 22.1191 0.301758 22.3326C9.85878 18.525 19.9007 16.0706 30.1366 15.0407C38.1801 14.127 46.2956 14.0337 54.3579 14.7624" fill="white"/>
<path d="M30.8386 20.8066C21.5055 21.7374 12.3635 24.0559 3.71484 27.6855C3.89055 27.862 36.1566 48.4049 36.1566 48.4049C36.5775 48.6722 37.0471 48.854 37.5383 48.9398C38.0295 49.0257 38.5329 49.0139 39.0195 48.9052C39.5062 48.7964 39.9667 48.5929 40.3747 48.3062C40.7827 48.0194 41.1302 47.6551 41.3974 47.2341C41.4623 47.1315 41.523 47.0264 41.578 46.918C41.578 46.918 54.6953 21.0423 54.7405 20.9191C46.8062 19.9272 38.7818 19.8895 30.8386 20.8066Z" fill="white"/>
<path d="M66.7715 54.909H64.4487V53.7595H70.3965V54.909H68.0737V61.0612H66.7715V54.909Z" fill="white"/>
<path d="M76.9248 61.0612L75.4921 58.9264C75.4023 58.9346 75.3121 58.9379 75.2219 58.9363H73.6398V61.0636H72.3384V53.7644H75.2219C77.0644 53.7644 78.2065 54.7447 78.2065 56.3614C78.2331 56.8539 78.103 57.3422 77.8348 57.7561C77.5666 58.17 77.1742 58.4883 76.7138 58.6653L78.3264 61.0636L76.9248 61.0612ZM75.162 54.909H73.6398V57.8188H75.162C76.3033 57.8188 76.8944 57.2761 76.8944 56.359C76.8944 55.4418 76.3033 54.909 75.162 54.909Z" fill="white"/>
<path d="M85.1642 59.3721H81.6599L80.9686 61.0618H79.627L82.7815 53.7626H84.0631L87.2275 61.0618H85.8654L85.1642 59.3721ZM84.7339 58.3088L83.412 55.1181L82.0983 58.3088H84.7339Z" fill="white"/>
<path d="M95.1171 53.7617L92.0627 61.061H90.7827L87.7185 53.7617H89.1307L91.4634 59.3926L93.8173 53.7617H95.1171Z" fill="white"/>
<path d="M102.076 59.9246V61.061H96.8208V53.7617H101.938V54.8989H98.123V56.7964H101.507V57.9122H98.123V59.9246H102.076Z" fill="white"/>
<path d="M104.489 53.7617H105.791V59.9139H109.455V61.0634H104.489V53.7617Z" fill="white"/>
<path d="M116.734 54.4292H114.271V53.7617H119.936V54.4292H117.473V61.0618H116.734V54.4292Z" fill="white"/>
<path d="M127.037 60.3942V61.0618H122.08V53.7617H126.886V54.4292H122.821V57.0263H126.445V57.6831H122.821V60.3926L127.037 60.3942Z" fill="white"/>
<path d="M129.078 57.4118C129.061 56.9229 129.145 56.4357 129.323 55.9801C129.501 55.5245 129.771 55.1102 130.115 54.7626C130.459 54.4149 130.871 54.1413 131.324 53.9586C131.778 53.7758 132.264 53.6877 132.753 53.6998C133.232 53.6821 133.709 53.768 134.152 53.9518C134.594 54.1356 134.992 54.4129 135.317 54.7647L134.846 55.2573C134.582 54.9738 134.261 54.7499 133.903 54.6006C133.546 54.4514 133.16 54.3802 132.773 54.3919C131.983 54.4104 131.232 54.737 130.68 55.3021C130.128 55.8672 129.819 56.6259 129.819 57.4159C129.819 58.2059 130.128 58.9646 130.68 59.5297C131.232 60.0948 131.983 60.4215 132.773 60.4399C133.161 60.452 133.548 60.38 133.906 60.2288C134.264 60.0776 134.584 59.8507 134.846 59.5638L135.317 60.0564C134.991 60.4103 134.592 60.6896 134.148 60.8749C133.704 61.0603 133.225 61.1474 132.744 61.1304C132.255 61.1413 131.77 61.0524 131.317 60.8691C130.864 60.6858 130.454 60.412 130.111 60.0645C129.768 59.7169 129.499 59.303 129.322 58.848C129.144 58.393 129.061 57.9065 129.078 57.4184" fill="white"/>
<path d="M143.718 53.7617V61.061H142.987V57.6946H138.601V61.061H137.862V53.7617H138.601V57.0156H142.987V53.7617H143.718Z" fill="white"/>
<path d="M152.819 53.7617V61.061H152.209L147.703 55.1378V61.061H146.964V53.7617H147.574L152.09 59.6849V53.7617H152.819Z" fill="white"/>
<path d="M155.442 57.4114C155.448 56.6852 155.669 55.9771 156.077 55.3762C156.485 54.7754 157.062 54.3087 157.735 54.0349C158.407 53.7611 159.146 53.6925 159.858 53.8377C160.569 53.9829 161.222 54.3354 161.734 54.8508C162.245 55.3662 162.593 56.0215 162.733 56.7342C162.873 57.4468 162.799 58.1849 162.52 58.8556C162.241 59.5262 161.771 60.0994 161.167 60.503C160.563 60.9065 159.853 61.1224 159.127 61.1234C158.637 61.1355 158.151 61.0476 157.696 60.8649C157.242 60.6823 156.83 60.4089 156.485 60.0614C156.14 59.7139 155.869 59.2996 155.69 58.8439C155.511 58.3883 155.426 57.9008 155.442 57.4114ZM162.061 57.4114C162.045 56.832 161.859 56.2701 161.526 55.796C161.192 55.3219 160.726 54.9568 160.186 54.7462C159.646 54.5357 159.056 54.4892 158.49 54.6125C157.924 54.7359 157.406 55.0235 157.003 55.4395C156.599 55.8555 156.327 56.3813 156.221 56.9511C156.115 57.5209 156.179 58.1093 156.406 58.6427C156.633 59.1761 157.012 59.6306 157.496 59.9495C157.98 60.2684 158.547 60.4374 159.127 60.4354C159.521 60.4404 159.913 60.365 160.277 60.2136C160.641 60.0623 160.97 59.8382 161.245 59.5551C161.52 59.2721 161.734 58.936 161.874 58.5674C162.014 58.1988 162.078 57.8054 162.061 57.4114Z" fill="white"/>
<path d="M165.424 53.7617H166.163V60.3942H170.088V61.061H165.422L165.424 53.7617Z" fill="white"/>
<path d="M171.522 57.4114C171.529 56.6852 171.75 55.9771 172.158 55.3762C172.566 54.7754 173.142 54.3087 173.815 54.0349C174.488 53.7611 175.226 53.6925 175.938 53.8377C176.649 53.9829 177.302 54.3354 177.814 54.8508C178.326 55.3662 178.673 56.0215 178.813 56.7342C178.953 57.4468 178.879 58.1849 178.6 58.8556C178.322 59.5262 177.851 60.0994 177.247 60.503C176.643 60.9065 175.934 61.1224 175.207 61.1234C174.718 61.1355 174.231 61.0476 173.777 60.8649C173.322 60.6823 172.91 60.4089 172.565 60.0614C172.22 59.7139 171.95 59.2996 171.77 58.8439C171.591 58.3883 171.507 57.9008 171.522 57.4114ZM178.141 57.4114C178.125 56.832 177.939 56.2701 177.606 55.796C177.272 55.3219 176.807 54.9568 176.267 54.7462C175.727 54.5357 175.137 54.4892 174.57 54.6125C174.004 54.7359 173.487 55.0235 173.083 55.4395C172.679 55.8555 172.408 56.3813 172.301 56.9511C172.195 57.5209 172.26 58.1093 172.487 58.6427C172.713 59.1761 173.092 59.6306 173.576 59.9495C174.06 60.2684 174.628 60.4374 175.207 60.4354C175.602 60.4404 175.993 60.365 176.357 60.2136C176.721 60.0623 177.051 59.8382 177.325 59.5551C177.6 59.2721 177.814 58.936 177.954 58.5674C178.094 58.1988 178.158 57.8054 178.141 57.4114Z" fill="white"/>
<path d="M186.441 57.4118H187.152V60.196C186.44 60.8161 185.522 61.1471 184.578 61.1238C183.594 61.1224 182.65 60.73 181.955 60.0328C181.26 59.3357 180.87 58.391 180.871 57.4065C180.873 56.422 181.265 55.4784 181.962 54.7832C182.659 54.0881 183.604 53.6984 184.589 53.6998C185.073 53.6785 185.556 53.7615 186.005 53.9431C186.454 54.1247 186.859 54.4007 187.192 54.7524L186.732 55.245C186.459 54.9624 186.13 54.7402 185.766 54.593C185.402 54.4457 185.011 54.3767 184.618 54.3903C184.145 54.4002 183.68 54.5213 183.262 54.7436C182.844 54.966 182.483 55.2835 182.21 55.6705C181.937 56.0576 181.759 56.5033 181.69 56.9719C181.62 57.4405 181.662 57.9188 181.811 58.3684C181.961 58.8179 182.214 59.226 182.55 59.5599C182.886 59.8938 183.295 60.1441 183.746 60.2907C184.196 60.4373 184.675 60.4761 185.143 60.4038C185.611 60.3316 186.056 60.1505 186.441 59.875V57.4118Z" fill="white"/>
<path d="M192.608 58.5419V61.0625H191.877V58.5419L189.073 53.7657H189.864L192.267 57.8645L194.67 53.7657H195.409L192.608 58.5419Z" fill="white"/>
<path d="M260.315 49.7041V65.9915" stroke="white" stroke-width="0.41053" stroke-miterlimit="10"/>
<path d="M221.472 55.5542C221.472 57.2431 220.83 57.9558 219.204 57.9558C218.865 57.9598 218.526 57.9307 218.192 57.8688V56.7538C218.451 56.7849 218.712 56.8006 218.973 56.8006C219.834 56.8006 219.958 56.2529 219.958 55.6339V50.4612H221.473L221.472 55.5542Z" fill="white"/>
<path d="M228.126 56.2521C228.126 56.7825 228.126 57.4139 228.138 57.8491H226.718C226.695 57.7021 226.683 57.3951 226.675 57.152C226.496 57.436 226.241 57.6638 225.939 57.8091C225.637 57.9544 225.3 58.0112 224.967 57.9731C224.695 58.0002 224.421 57.9661 224.165 57.8734C223.908 57.7807 223.676 57.6316 223.485 57.4372C223.294 57.2428 223.148 57.008 223.06 56.75C222.971 56.4921 222.942 56.2176 222.973 55.9467V52.3595H224.422V55.6758C224.422 56.3211 224.641 56.877 225.453 56.877C226.327 56.877 226.678 56.4443 226.678 55.2611V52.3595H228.129L228.126 56.2521Z" fill="white"/>
<path d="M229.721 53.7424C229.721 53.2728 229.721 52.7719 229.709 52.3598H231.116C231.149 52.6141 231.168 52.8702 231.172 53.1266C231.426 52.7595 231.791 52.4837 232.213 52.3401C232.635 52.1965 233.093 52.1928 233.517 52.3294C233.942 52.466 234.311 52.7357 234.571 53.0986C234.83 53.4615 234.966 53.8983 234.957 54.3443V57.8494H233.506V54.497C233.506 53.8081 233.237 53.3237 232.438 53.3237C231.589 53.3237 231.168 53.827 231.168 54.841V57.8494H229.717L229.721 53.7424Z" fill="white"/>
<path d="M236.532 50.0377H237.984V51.3358H236.532V50.0377ZM236.532 52.3597H237.984V57.8493H236.532V52.3597Z" fill="white"/>
<path d="M241.012 57.2981V59.9698H239.569V53.6879C239.569 53.2421 239.569 52.7946 239.557 52.3594H240.964C240.995 52.6062 241.011 52.8546 241.012 53.1033C241.21 52.8097 241.483 52.5741 241.802 52.4207C242.122 52.2673 242.476 52.2017 242.829 52.2305C244.191 52.2305 245.222 53.2733 245.222 54.9646C245.222 56.9097 244.06 57.9771 242.607 57.9771C242.305 58.0105 242 57.9656 241.72 57.8466C241.441 57.7277 241.197 57.5388 241.012 57.2981ZM243.744 55.0164C243.744 53.9572 243.251 53.3127 242.384 53.3127C241.34 53.3127 240.952 53.9219 240.952 55.105C240.952 56.2365 241.294 56.9056 242.311 56.9056C243.263 56.9056 243.744 56.2127 243.744 55.0164Z" fill="white"/>
<path d="M247.591 55.3778C247.568 55.5698 247.586 55.7645 247.643 55.9493C247.701 56.134 247.796 56.3047 247.924 56.4502C248.051 56.5957 248.207 56.7128 248.383 56.794C248.559 56.8752 248.749 56.9186 248.943 56.9214C249.187 56.9588 249.436 56.9125 249.651 56.7901C249.865 56.6678 250.032 56.4764 250.124 56.2473H251.579C251.398 56.7982 251.033 57.2704 250.546 57.5852C250.059 57.9 249.479 58.0383 248.902 57.9772C248.529 58.0021 248.155 57.9464 247.805 57.814C247.455 57.6816 247.138 57.4755 246.875 57.2098C246.612 56.944 246.409 56.6248 246.28 56.2737C246.151 55.9226 246.099 55.5479 246.127 55.175C246.086 54.7875 246.131 54.3958 246.258 54.0273C246.384 53.6588 246.59 53.3224 246.86 53.0418C247.13 52.7611 247.459 52.543 247.822 52.4026C248.185 52.2622 248.575 52.2029 248.964 52.229C249.325 52.1965 249.69 52.2435 250.031 52.3669C250.372 52.4902 250.682 52.6869 250.939 52.943C251.196 53.1991 251.394 53.5084 251.519 53.8492C251.644 54.19 251.692 54.5539 251.661 54.9155C251.665 55.069 251.658 55.2227 251.641 55.3753L247.591 55.3778ZM250.204 54.5337C250.225 54.3613 250.207 54.1863 250.153 54.0213C250.099 53.8562 250.01 53.705 249.891 53.5783C249.772 53.4516 249.627 53.3524 249.466 53.2878C249.304 53.2232 249.131 53.1948 248.957 53.2044C248.074 53.2044 247.705 53.7644 247.626 54.5337H250.204Z" fill="white"/>
<path d="M252.86 53.849C252.86 53.2291 252.86 52.7619 252.848 52.3588H254.271C254.291 52.4926 254.312 52.9992 254.312 53.3753C254.483 53.0087 254.763 52.7029 255.112 52.4985C255.462 52.2941 255.865 52.2007 256.269 52.2307V53.5116C255.055 53.5034 254.312 53.8983 254.312 55.3639V57.8484H252.86V53.849Z" fill="white"/>
<path d="M221.676 63.8522C221.714 64.0979 221.694 64.3492 221.618 64.5859C221.542 64.8227 221.411 65.0384 221.237 65.2159C221.063 65.3933 220.85 65.5277 220.615 65.6082C220.379 65.6888 220.128 65.7133 219.882 65.6798C218.753 65.6798 218.344 65.1002 218.258 64.5665H218.806C218.882 64.7907 219.032 64.9819 219.233 65.1079C219.433 65.2338 219.67 65.2868 219.905 65.2578C220.89 65.2578 221.155 64.6782 221.155 63.7799V63.4351C221.037 63.6734 220.848 63.8689 220.613 63.9939C220.378 64.1189 220.11 64.1673 219.847 64.1321C219.613 64.133 219.381 64.0848 219.167 63.9907C218.953 63.8965 218.761 63.7584 218.603 63.5854C218.446 63.4124 218.326 63.2083 218.252 62.9862C218.179 62.7642 218.152 62.5291 218.175 62.2963C218.149 62.0525 218.174 61.8059 218.25 61.5725C218.325 61.3392 218.448 61.1242 218.612 60.9416C218.776 60.759 218.976 60.6128 219.199 60.5125C219.423 60.4122 219.666 60.3601 219.911 60.3594C220.71 60.3594 221.053 60.7034 221.155 60.9752C221.164 60.783 221.176 60.531 221.183 60.4472H221.691C221.691 60.6172 221.676 61.1615 221.676 61.5146V63.8522ZM218.738 62.2757C218.716 62.4493 218.73 62.6257 218.779 62.7936C218.829 62.9615 218.913 63.1172 219.026 63.2509C219.139 63.3845 219.278 63.4931 219.436 63.5698C219.593 63.6465 219.765 63.6895 219.939 63.6962C220.886 63.6962 221.171 63.1214 221.171 62.2183C221.171 61.3151 220.886 60.7913 219.966 60.7913C219.121 60.7913 218.741 61.4481 218.741 62.2692" fill="white"/>
<path d="M222.935 61.4512C222.935 60.8765 222.928 60.6014 222.927 60.4471H223.454C223.463 60.5587 223.473 60.8198 223.473 61.241C223.59 60.9737 223.785 60.7473 224.031 60.5903C224.277 60.4334 224.565 60.3529 224.857 60.3592V60.8666C224.67 60.8552 224.482 60.8841 224.307 60.9514C224.132 61.0187 223.974 61.1227 223.843 61.2566C223.711 61.3904 223.61 61.5508 223.547 61.7271C223.483 61.9033 223.457 62.0912 223.473 62.278V64.141H222.935V61.4512Z" fill="white"/>
<path d="M228.937 62.2861C228.956 62.5391 228.922 62.7933 228.836 63.0322C228.751 63.271 228.616 63.4892 228.44 63.6725C228.265 63.8557 228.053 64 227.818 64.0958C227.583 64.1917 227.331 64.237 227.077 64.2287C226.827 64.234 226.58 64.1866 226.35 64.0896C226.12 63.9926 225.913 63.8482 225.742 63.6658C225.572 63.4834 225.442 63.2672 225.36 63.0311C225.279 62.7951 225.249 62.5446 225.271 62.296C225.25 62.0437 225.283 61.79 225.368 61.5515C225.453 61.313 225.587 61.0951 225.761 60.9121C225.936 60.7291 226.148 60.5851 226.382 60.4897C226.617 60.3942 226.868 60.3495 227.121 60.3583C227.372 60.35 227.621 60.3951 227.853 60.4906C228.085 60.586 228.293 60.7297 228.465 60.912C228.637 61.0944 228.768 61.3112 228.85 61.5481C228.932 61.785 228.962 62.0366 228.939 62.2861M225.831 62.2935C225.808 62.4777 225.823 62.6646 225.877 62.8423C225.93 63.0201 226.019 63.1849 226.14 63.3262C226.26 63.4675 226.408 63.5822 226.575 63.6631C226.742 63.744 226.924 63.7893 227.11 63.796C227.921 63.796 228.378 63.1827 228.378 62.2951C228.378 61.4412 227.927 60.791 227.094 60.791C226.249 60.791 225.831 61.4273 225.831 62.2935Z" fill="white"/>
<path d="M233.012 63.0629C233.012 63.4234 233.019 63.9661 233.02 64.1402H232.498C232.478 63.9402 232.469 63.7392 232.472 63.5383C232.361 63.7714 232.179 63.9636 231.952 64.0875C231.725 64.2114 231.465 64.2609 231.209 64.2288C231.028 64.2501 230.844 64.2299 230.672 64.1697C230.5 64.1095 230.344 64.0108 230.216 63.8813C230.087 63.7517 229.99 63.5946 229.932 63.4219C229.874 63.2493 229.855 63.0655 229.878 62.8847V60.447H230.41V62.7739C230.41 63.2887 230.586 63.7781 231.327 63.7781C232.158 63.7781 232.472 63.3536 232.472 62.3576V60.447H233.011L233.012 63.0629Z" fill="white"/>
<path d="M234.809 63.6319V65.6024H234.273V61.3526C234.273 61.0505 234.273 60.7311 234.265 60.4495H234.789C234.807 60.6578 234.813 60.8669 234.809 61.0759C234.949 60.8403 235.152 60.6485 235.395 60.5223C235.638 60.396 235.911 60.3403 236.184 60.3616C236.415 60.3649 236.642 60.4165 236.852 60.5131C237.061 60.6098 237.248 60.7493 237.4 60.9226C237.552 61.096 237.666 61.2993 237.734 61.5195C237.803 61.7396 237.824 61.9717 237.798 62.2008C237.833 62.4523 237.813 62.7084 237.742 62.952C237.67 63.1955 237.547 63.4209 237.381 63.6131C237.215 63.8053 237.009 63.9598 236.779 64.0664C236.548 64.173 236.298 64.2292 236.044 64.2313C235.804 64.2555 235.562 64.2129 235.344 64.1082C235.127 64.0034 234.943 63.8406 234.812 63.6376M237.241 62.2205C237.241 61.3994 236.817 60.8033 236.068 60.8033C235.155 60.8033 234.784 61.3296 234.784 62.2853C234.784 63.2222 235.08 63.7969 236.016 63.7969C236.81 63.7969 237.248 63.1902 237.248 62.2205" fill="white"/>
<path d="M269.856 55.2956C269.645 56.3884 268.762 57.1126 267.183 57.1126C266.817 57.1526 266.447 57.1119 266.098 56.9934C265.749 56.8749 265.43 56.6815 265.164 56.4267C264.898 56.1719 264.691 55.8619 264.558 55.5186C264.424 55.1752 264.368 54.8068 264.392 54.4392C264.37 54.0618 264.431 53.6841 264.57 53.3324C264.708 52.9806 264.921 52.6631 265.195 52.4017C265.468 52.1402 265.794 51.9411 266.152 51.818C266.509 51.695 266.889 51.6508 267.265 51.6887C268.957 51.6887 269.729 52.582 269.839 53.4876H268.166C268.134 53.2686 268.019 53.0706 267.843 52.9356C267.668 52.8007 267.447 52.7395 267.227 52.7651C266.406 52.7651 266.127 53.472 266.127 54.3859C266.127 55.2143 266.361 56.0337 267.246 56.0337C267.465 56.0507 267.683 55.984 267.856 55.8469C268.028 55.7098 268.142 55.5126 268.175 55.2948L269.856 55.2956Z" fill="white"/>
<path d="M272.114 55.4322C272.21 55.8879 272.56 56.0792 273.105 56.0792C273.615 56.0792 273.85 55.915 273.85 55.6137C273.85 55.2697 273.595 55.1399 272.687 54.9421C270.989 54.5685 270.65 54.0052 270.65 53.2999C270.65 52.4222 271.36 51.6874 272.962 51.6874C274.626 51.6874 275.306 52.4551 275.386 53.2802H273.758C273.714 52.9994 273.555 52.7137 272.958 52.7137C272.572 52.7137 272.334 52.8459 272.334 53.1292C272.334 53.4124 272.545 53.5224 273.432 53.7203C275.205 54.1226 275.557 54.7056 275.557 55.4445C275.557 56.4298 274.724 57.1088 273.035 57.1088C271.444 57.1088 270.6 56.4339 270.473 55.4281L272.114 55.4322Z" fill="white"/>
<path d="M278.149 51.7864H276.458V57.0157H278.149V51.7864Z" fill="white"/>
<path d="M269.348 62.2417C269.206 62.7156 268.904 63.1257 268.494 63.4025C268.084 63.6792 267.591 63.8055 267.099 63.7599C266.745 63.7762 266.391 63.7165 266.062 63.5849C265.733 63.4532 265.436 63.2527 265.191 62.9967C264.946 62.7407 264.759 62.4353 264.641 62.1008C264.524 61.7664 264.48 61.4107 264.512 61.0578C264.484 60.7025 264.531 60.3454 264.65 60.0096C264.77 59.6738 264.958 59.3668 265.204 59.1087C265.449 58.8505 265.747 58.6469 266.076 58.5111C266.406 58.3753 266.76 58.3103 267.116 58.3203C267.616 58.2594 268.12 58.3849 268.533 58.6727C268.946 58.9605 269.238 59.3905 269.353 59.8804H268.757C268.646 59.5357 268.419 59.2398 268.115 59.0423C267.812 58.8449 267.449 58.7578 267.089 58.7957C265.713 58.7957 265.142 59.9362 265.142 61.0471C265.108 61.3277 265.133 61.6125 265.217 61.8825C265.301 62.1526 265.441 62.4018 265.628 62.6138C265.815 62.8259 266.045 62.9958 266.302 63.1126C266.56 63.2293 266.839 63.2901 267.122 63.291C267.47 63.3172 267.817 63.2293 268.111 63.0405C268.405 62.8518 268.63 62.5726 268.751 62.245L269.348 62.2417Z" fill="white"/>
<path d="M275.558 61.0125C275.585 61.3759 275.535 61.741 275.41 62.0836C275.286 62.4261 275.09 62.7383 274.836 62.9993C274.581 63.2604 274.274 63.4643 273.935 63.5977C273.596 63.7311 273.232 63.7908 272.868 63.7729C272.329 63.7803 271.799 63.6275 271.346 63.3338C270.893 63.0401 270.538 62.6187 270.325 62.1229C270.112 61.6272 270.05 61.0793 270.149 60.5487C270.247 60.0181 270.5 59.5285 270.877 59.142C271.254 58.7555 271.737 58.4894 272.264 58.3774C272.792 58.2654 273.342 58.3125 273.843 58.5127C274.344 58.713 274.774 59.0574 275.08 59.5023C275.385 59.9473 275.551 60.4728 275.558 61.0125ZM270.866 61.0239C270.838 61.309 270.87 61.5968 270.959 61.8691C271.048 62.1414 271.192 62.3923 271.383 62.6058C271.574 62.8193 271.807 62.9908 272.068 63.1094C272.329 63.2281 272.611 63.2913 272.898 63.295C274.336 63.295 274.927 62.2219 274.927 61.0215C274.953 60.7395 274.919 60.4553 274.829 60.187C274.738 59.9187 274.593 59.6723 274.402 59.4633C274.211 59.2543 273.978 59.0874 273.719 58.9732C273.46 58.859 273.18 58.8 272.897 58.8C272.614 58.8 272.334 58.859 272.075 58.9732C271.816 59.0874 271.583 59.2543 271.392 59.4633C271.201 59.6723 271.056 59.9187 270.965 60.187C270.875 60.4553 270.841 60.7395 270.866 61.0215" fill="white"/>
<path d="M281.819 61.3394C281.819 60.3254 281.828 59.3294 281.854 58.7875H281.825C281.585 59.5659 280.511 62.0258 279.801 63.6966H279.246C278.712 62.3739 277.599 59.6275 277.335 58.7785H277.313C277.357 59.3869 277.375 60.5955 277.375 61.5044V63.6966H276.8V58.3959H277.691C278.43 60.1357 279.347 62.3977 279.556 63.0308H279.571C279.707 62.589 280.778 60.0873 281.535 58.3959H282.407V63.6966H281.819L281.819 61.3394Z" fill="white"/>
<path d="M284.051 58.3959H286.195C287.292 58.3959 288.045 58.9509 288.045 59.9017C288.045 60.8919 287.278 61.4461 286.141 61.4461H284.655V63.6966H284.053L284.051 58.3959ZM284.654 60.9715H286.145C287.022 60.9715 287.417 60.561 287.417 59.9181C287.417 59.2358 286.916 58.8704 286.177 58.8704H284.654V60.9715Z" fill="white"/>
<path d="M289.296 61.9734L288.606 63.6976H288.007L290.119 58.3969H290.841L293.044 63.6976H292.403L291.695 61.9734H289.296ZM291.523 61.4939C290.916 60.0004 290.595 59.2508 290.473 58.8739H290.465C290.323 59.2967 289.963 60.2163 289.473 61.4939H291.523Z" fill="white"/>
<path d="M294.015 63.6966V58.3959H294.842C295.718 59.6537 297.709 62.4675 298.058 63.0439H298.068C298.015 62.3173 298.022 61.5118 298.022 60.6472V58.3959H298.604V63.6966H297.831C297.01 62.5045 294.963 59.533 294.57 58.9443H294.56C294.602 59.6012 294.598 60.4288 294.598 61.3886V63.6966H294.015Z" fill="white"/>
<path d="M301.52 63.6966V61.726C301.52 61.6804 301.508 61.6356 301.485 61.5963L299.415 58.3942H300.102C300.661 59.2768 301.6 60.7539 301.857 61.1808C302.103 60.758 303.063 59.2834 303.654 58.3942H304.301L302.151 61.6168C302.13 61.6545 302.12 61.6976 302.123 61.7408V63.6949L301.52 63.6966Z" fill="white"/>
</g>
</g>
<defs>
<clipPath id="clip0_1092_399">
<rect width="304" height="65.9919" fill="white" transform="translate(0.301758)"/>
</clipPath>
</defs>
</svg>
