<svg width="305" height="34" viewBox="0 0 305 34" fill="none" xmlns="http://www.w3.org/2000/svg">
<path d="M14.4668 2.67163C6.80058 2.67163 0.604858 8.86855 0.604858 16.534C0.604858 24.1994 6.80137 30.396 14.4668 30.396C22.1322 30.396 28.3292 24.1994 28.3292 16.534C28.3292 8.86855 22.1322 2.67163 14.4668 2.67163ZM14.4668 29.5651C7.27218 29.5651 1.43658 23.7291 1.43658 16.5344C1.43658 9.34015 7.27218 3.50415 14.4668 3.50415C21.6615 3.50415 27.4975 9.34015 27.4975 16.5344C27.4975 23.7291 21.6615 29.5651 14.4668 29.5651" fill="white"/>
<path d="M19.5986 13.7315C19.5404 13.8371 19.4544 13.9786 19.3271 14.1753C21.3116 14.1753 23.1132 14.3387 25.1069 14.6963L24.5438 15.2399C22.7451 14.9209 21.2509 14.7937 19.3466 14.7937C19.0696 14.7937 19.011 14.7937 18.9444 14.7966C18.878 14.8964 18.7282 15.0911 18.5785 15.2707C18.7477 15.2594 19.0746 15.2541 19.5262 15.2541C21.092 15.2541 22.5564 15.3709 24.1441 15.6254L23.581 16.1711C22.3721 15.9823 20.8953 15.8746 19.5703 15.8746C19.0987 15.8746 18.5644 15.8911 18.0845 15.9186C17.9767 16.0438 17.6935 16.3487 17.6074 16.4426C18.2425 16.3761 18.9407 16.3453 19.7725 16.3453C20.956 16.3453 22.0873 16.4235 23.1577 16.5811L22.5946 17.1217C21.8327 17.0274 20.9066 16.972 20.0886 16.972C17.9788 16.972 16.3157 17.4295 14.5969 18.4804C16.2355 20.2384 18.9183 21.35 21.5187 21.35H21.7629L20.8533 22.2287C17.1029 21.5242 13.155 19.8753 9.82018 17.6158C6.61248 15.4508 5.49041 14.8103 2.98727 13.7045L2.9707 13.0615L4.66448 13.7876L5.24089 13.3302L10.7717 15.8641L10.4116 16.1523L7.57275 14.9189L7.29288 15.1381L8.76758 15.9615C10.0127 16.6547 10.96 16.9654 11.8358 16.9654C13.7518 16.9654 15.4702 15.6067 16.5789 13.2204C17.4136 13.1123 18.3032 13.0624 19.3736 13.0624C21.569 13.0624 23.7008 13.2724 26.115 13.7249L25.5273 14.293C24.0252 13.9798 21.4717 13.7249 19.8419 13.7249C19.7371 13.7233 19.649 13.7262 19.5986 13.7315" fill="white"/>
<path d="M156.318 11.8738C152.384 11.8738 150.482 13.3793 150.324 16.2043H154.206C154.259 15.4645 154.681 14.9105 156.318 14.9105C157.771 14.9105 158.457 15.3859 158.457 16.0986C158.457 16.7329 158.061 16.97 157.084 17.0756L154.55 17.3397C151.117 17.7098 149.559 19.1359 149.559 21.7235C149.559 24.1264 151.037 25.9745 154.18 25.9745C156.318 25.9745 157.586 25.2883 158.695 23.9155V25.5786H162.339V16.8381C162.339 13.168 160.2 11.8738 156.318 11.8738V11.8738ZM158.536 20.403C158.536 21.8552 157.163 22.9377 155.051 22.9377C154.021 22.9377 153.414 22.4624 153.414 21.5646C153.414 20.8784 153.836 20.2974 155.183 20.1123L157.48 19.7958C157.876 19.7434 158.298 19.664 158.536 19.5845V20.403H158.536Z" fill="white"/>
<path d="M143.483 17.2345L142.083 17.0493C140.947 16.8905 140.631 16.574 140.631 15.993C140.631 15.4121 141.132 14.9629 142.453 14.9629C143.799 14.9629 144.221 15.4383 144.353 16.2043H148.234C148.049 13.326 146.096 11.8738 142.452 11.8738C138.517 11.8738 136.643 13.7481 136.643 16.2833C136.643 18.9246 138.332 20.0595 141.264 20.4554L142.663 20.6404C144.037 20.8251 144.565 21.142 144.565 21.8282C144.565 22.568 143.931 22.9377 142.373 22.9377C140.841 22.9377 140.155 22.4624 140.05 21.4855H136.115C136.194 24.1525 137.805 25.9745 142.373 25.9745C146.572 25.9745 148.552 24.3114 148.552 21.5122C148.552 18.7395 146.862 17.6831 143.483 17.234V17.2345V17.2345Z" fill="white"/>
<path d="M129.846 11.8738C127.707 11.8738 126.572 12.7713 126.017 13.8014V12.2697H122.267V25.5777H126.254V17.9731C126.254 16.2043 127.152 15.4121 128.657 15.4121C130.321 15.4121 131.086 16.2043 131.086 17.9731V25.5777H135.073V17.7888C135.075 13.4055 133.305 11.8738 129.846 11.8738Z" fill="white"/>
<path d="M114.604 11.8738C110.67 11.8738 108.769 13.3793 108.611 16.2043H112.492C112.545 15.4645 112.967 14.9101 114.604 14.9101C116.057 14.9101 116.743 15.3855 116.743 16.0978C116.743 16.732 116.347 16.9691 115.37 17.0748L112.836 17.3393C109.403 17.709 107.845 19.135 107.845 21.7226C107.845 24.1255 109.323 25.9741 112.466 25.9741C114.604 25.9741 115.872 25.2875 116.981 23.9147V25.5777H120.625V16.8381C120.625 13.168 118.486 11.8738 114.604 11.8738V11.8738ZM116.823 20.403C116.823 21.8552 115.45 22.9377 113.337 22.9377C112.307 22.9377 111.7 22.4624 111.7 21.5646C111.7 20.8784 112.122 20.2974 113.469 20.1123L115.766 19.7958C116.162 19.7426 116.585 19.664 116.823 19.5845V20.403Z" fill="white"/>
<path d="M101.506 11.8772C99.6317 11.8772 98.5488 12.5897 97.8622 13.5665V7.12378H93.849V25.5808H97.8359V17.9765C97.8359 16.2078 98.7334 15.4155 100.239 15.4155C101.902 15.4155 102.668 16.2078 102.668 17.9765V25.5812H106.655V17.7923C106.655 13.4089 104.886 11.8772 101.506 11.8772V11.8772Z" fill="white"/>
<path d="M89.6414 8.60864H85.6548V12.4901H83.6478V15.7381H85.6548V21.3619C85.6548 24.5833 87.5823 26.0355 90.7772 26.0355C91.754 26.0355 92.6786 25.8243 92.6786 25.8243V22.6295C92.6786 22.6295 92.0181 22.7089 91.5428 22.7089C90.3812 22.7089 89.6414 22.3392 89.6414 20.9127V15.7381H92.6786V12.4901H89.6414V8.60864V8.60864Z" fill="white"/>
<path d="M75.6995 11.7646V12.2662H73.6925V15.5142H75.6995V25.5742H79.6865V15.5142H82.618V12.2662H79.6865V11.7384C79.6865 10.5765 80.347 10.1544 81.5879 10.1544C82.0633 10.1544 82.618 10.2068 82.618 10.2068V6.9858C82.618 6.9858 81.9576 6.8269 80.9275 6.8269C77.7327 6.8269 75.6995 8.54364 75.6995 11.7646V11.7646Z" fill="white"/>
<path d="M68.6512 20.0723C68.6512 21.8414 67.7537 22.634 66.3014 22.634C64.6903 22.634 63.9248 21.8418 63.9248 20.0723V12.4675H59.9377V20.2573C59.9377 24.6402 61.7065 26.1719 65.1133 26.1719C67.1997 26.1719 68.3347 25.274 68.889 24.2443V25.7755H72.639V12.4675H68.652V20.0723H68.6512V20.0723Z" fill="white"/>
<path d="M51.0913 7.12418L46.814 7.12378V25.6069H59.0399V21.8844H51.0913V7.12378V7.12418V7.12418Z" fill="white"/>
<path d="M178.988 6.8269C184.718 6.8269 187.333 9.57248 187.94 13.5071H183.504C182.975 11.6328 181.708 10.6289 178.988 10.6289C175.608 10.6289 174.156 12.7935 174.156 16.4649C174.156 20.1349 175.608 22.3004 178.988 22.3004C181.708 22.3004 182.975 21.2973 183.504 19.4222H187.94C187.333 23.3568 184.718 26.1028 178.988 26.1028C172.308 26.1028 169.72 22.0101 169.72 16.4644C169.72 10.9191 172.307 6.8269 178.988 6.8269V6.8269Z" fill="white"/>
<path d="M193.218 10.5298L189.231 10.5294V7.12378H193.218V10.5298ZM193.218 25.6065H189.231V12.2985H193.218V25.6065Z" fill="white"/>
<path d="M200.403 15.7381V20.9136C200.403 22.3396 201.142 22.7098 202.304 22.7098C202.779 22.7098 203.439 22.6304 203.439 22.6304V25.8251C203.439 25.8251 202.515 26.0364 201.538 26.0364C198.343 26.0364 196.416 24.5842 196.416 21.3623V15.738H194.409V12.4901H196.416V8.60864H200.403V12.4901H203.439V15.738H200.403V15.7381Z" fill="white"/>
<path d="M218.676 12.4675L211.045 30.423H206.82L209.197 25.1945L203.863 12.4675H208.273L211.177 20.4681L214.267 12.4675H218.676V12.4675Z" fill="white"/>
<path d="M233.431 6.8269C239.161 6.8269 241.775 9.57248 242.383 13.5071H237.946C237.418 11.6328 236.151 10.6289 233.431 10.6289C230.051 10.6289 228.599 12.7935 228.599 16.4649C228.599 20.1349 230.051 22.3004 233.431 22.3004C236.151 22.3004 237.418 21.2973 237.946 19.4222H242.383C241.775 23.3568 239.162 26.1028 233.431 26.1028C226.751 26.1028 224.163 22.0101 224.163 16.4644C224.163 10.9191 226.751 6.8269 233.431 6.8269V6.8269Z" fill="white"/>
<path d="M256.748 20.0058H247.241C247.426 22.0128 248.272 22.7784 250.252 22.7784C251.757 22.7784 252.364 22.3563 252.601 21.485H256.536C256.298 24.0727 254.212 25.974 250.252 25.974C245.234 25.974 243.281 23.1489 243.281 18.9241C243.281 15.3592 244.892 11.8738 250.04 11.8738C254.872 11.8738 256.8 14.673 256.8 18.8979C256.8 19.2131 256.8 19.636 256.748 20.0058V20.0058ZM252.734 17.2593C252.575 15.8862 251.994 14.9616 250.04 14.9616C248.324 14.9616 247.558 15.6745 247.294 17.2593H252.734V17.2593Z" fill="white"/>
<path d="M265.569 11.8738C269.028 11.8738 270.796 13.4055 270.796 17.7884V25.5777H266.81V17.9731C266.81 16.2043 266.044 15.4117 264.38 15.4117C262.875 15.4117 261.977 16.2034 261.977 17.9731V25.5777H257.991V12.2697H261.74V13.8014C262.294 12.7713 263.43 11.8738 265.569 11.8738V11.8738Z" fill="white"/>
<path d="M277.689 15.7381L277.688 20.9136C277.689 22.3396 278.428 22.7098 279.59 22.7098C280.065 22.7098 280.725 22.6304 280.725 22.6304V25.8251C280.725 25.8251 279.801 26.0364 278.824 26.0364C275.629 26.0364 273.702 24.5842 273.702 21.3623V15.738H271.694V12.4901H273.702V8.60864H277.689V12.4901H280.725L280.725 15.738H277.689V15.7381Z" fill="white"/>
<path d="M294.774 20.0058H285.267C285.453 22.0128 286.298 22.7784 288.278 22.7784C289.783 22.7784 290.39 22.3563 290.627 21.485H294.562C294.324 24.0727 292.238 25.974 288.278 25.974C283.26 25.974 281.307 23.1489 281.307 18.9241C281.307 15.3592 282.918 11.8738 288.066 11.8738C292.898 11.8738 294.826 14.673 294.826 18.8979C294.827 19.2131 294.827 19.636 294.774 20.0058V20.0058ZM290.761 17.2593C290.602 15.8862 290.021 14.9616 288.067 14.9616C286.351 14.9616 285.585 15.6745 285.321 17.2593H290.761V17.2593Z" fill="white"/>
<path d="M302.481 15.6495C301.055 15.6495 299.999 16.3623 299.999 18.0787V25.5777H296.012V12.2697H299.762V13.8014H299.788C300.316 12.7713 301.425 11.8738 303.432 11.8738C303.591 11.8738 304.013 11.9 304.172 11.9266V15.7556C303.564 15.6765 303.009 15.6495 302.481 15.6495V15.6495Z" fill="white"/>
</svg>
