<svg width="304" height="43" viewBox="0 0 304 43" fill="none" xmlns="http://www.w3.org/2000/svg">
<g clip-path="url(#clip0_1155_405)">
<path d="M139.853 38.1651C137.284 38.1651 135.279 37.6468 133.837 36.6104C132.41 35.5739 131.516 33.9742 131.156 31.8112C131.095 31.1502 131.23 30.6545 131.561 30.3241C131.892 29.9936 132.372 29.8283 133.003 29.8283C133.634 29.8283 134.092 29.9786 134.377 30.279C134.678 30.5794 134.881 31.045 134.986 31.676C135.211 32.7124 135.692 33.4259 136.428 33.8164C137.179 34.192 138.321 34.3797 139.853 34.3797H146.342C148.279 34.3797 149.594 34.0343 150.285 33.3433C150.991 32.6373 151.344 31.3305 151.344 29.4227C151.344 27.485 150.983 26.1632 150.262 25.4572C149.542 24.7362 148.234 24.3757 146.342 24.3757H140.754C137.915 24.3757 135.805 23.6847 134.423 22.3027C133.056 20.9058 132.372 18.7878 132.372 15.9488C132.372 13.1249 133.048 11.0294 134.4 9.66246C135.767 8.29553 137.87 7.61206 140.709 7.61206H146.072C148.46 7.61206 150.33 8.10024 151.682 9.07667C153.049 10.053 153.912 11.5476 154.273 13.5604C154.363 14.2064 154.243 14.702 153.912 15.0475C153.582 15.378 153.086 15.5433 152.426 15.5433C151.825 15.5433 151.374 15.3855 151.074 15.0701C150.773 14.7546 150.577 14.2965 150.488 13.6956C150.247 12.8094 149.789 12.2085 149.113 11.8931C148.437 11.5626 147.424 11.3974 146.072 11.3974H140.709C138.907 11.3974 137.697 11.7203 137.081 12.3663C136.465 12.9971 136.158 14.1913 136.158 15.9488C136.158 17.7213 136.473 18.938 137.104 19.5989C137.735 20.2599 138.951 20.5904 140.754 20.5904H146.342C149.301 20.5904 151.502 21.3114 152.944 22.7534C154.401 24.1954 155.129 26.4186 155.129 29.4227C155.129 32.412 154.408 34.6201 152.966 36.0471C151.524 37.4591 149.316 38.1651 146.342 38.1651H139.853Z" fill="white"/>
<path d="M170.626 38.1659C167.186 38.1659 164.64 37.3472 162.988 35.7099C161.35 34.0576 160.532 31.5115 160.532 28.0717V17.7071C160.532 14.2372 161.35 11.6836 162.988 10.0463C164.625 8.39401 167.156 7.58282 170.581 7.61287H176.034C178.858 7.61287 181.013 8.19872 182.501 9.37037C183.987 10.527 184.851 12.3595 185.091 14.8681C185.182 15.499 185.062 15.9796 184.731 16.3101C184.401 16.6406 183.92 16.8058 183.289 16.8058C182.148 16.8058 181.486 16.1749 181.306 14.9131C181.156 13.5312 180.675 12.5999 179.864 12.1193C179.068 11.6386 177.791 11.3982 176.034 11.3982H170.581C168.989 11.3832 167.734 11.5634 166.818 11.939C165.917 12.3145 165.271 12.9679 164.881 13.8993C164.505 14.8155 164.317 16.0848 164.317 17.7071V28.0717C164.317 29.6789 164.505 30.9407 164.881 31.857C165.271 32.7733 165.924 33.4267 166.841 33.8172C167.757 34.1928 169.019 34.3805 170.626 34.3805H176.034C177.791 34.3805 179.068 34.1402 179.864 33.6595C180.675 33.1638 181.156 32.2325 181.306 30.8656C181.486 29.6038 182.148 28.973 183.289 28.973C183.92 28.973 184.401 29.1382 184.731 29.4686C185.062 29.7991 185.182 30.2798 185.091 30.9107C184.851 33.4342 183.987 35.2743 182.501 36.4309C181.013 37.5876 178.858 38.1659 176.034 38.1659H170.626Z" fill="white"/>
<path d="M200.201 38.1659C196.761 38.1659 194.215 37.3472 192.563 35.7099C190.925 34.0576 190.106 31.5115 190.106 28.0717V17.662C190.106 14.1922 190.933 11.646 192.585 10.0238C194.237 8.38647 196.776 7.58283 200.201 7.61287H205.608C209.063 7.61287 211.609 8.43154 213.247 10.0689C214.884 11.7061 215.703 14.2522 215.703 17.7071V28.0717C215.703 31.5115 214.884 34.0576 213.247 35.7099C211.609 37.3472 209.063 38.1659 205.608 38.1659H200.201ZM200.201 34.3805H205.608C207.216 34.3805 208.477 34.1928 209.394 33.8172C210.31 33.4267 210.956 32.7733 211.332 31.857C211.722 30.9407 211.918 29.6789 211.918 28.0717V17.7071C211.918 16.1148 211.722 14.8606 211.332 13.9443C210.956 13.028 210.31 12.3746 209.394 11.9841C208.477 11.5935 207.216 11.3982 205.608 11.3982H200.201C198.608 11.3832 197.354 11.5634 196.438 11.939C195.521 12.3145 194.869 12.9604 194.478 13.8767C194.087 14.793 193.892 16.0547 193.892 17.662V28.0717C193.892 29.6789 194.08 30.9407 194.455 31.857C194.846 32.7733 195.499 33.4267 196.416 33.8172C197.332 34.1928 198.594 34.3805 200.201 34.3805Z" fill="white"/>
<path d="M232.039 38.1651C228.599 38.1651 226.053 37.3464 224.401 35.7091C222.763 34.0568 221.945 31.5107 221.945 28.0709V9.50476C221.945 8.87384 222.103 8.40068 222.418 8.08522C222.733 7.76983 223.207 7.61206 223.838 7.61206C224.468 7.61206 224.942 7.76983 225.257 8.08522C225.573 8.40068 225.73 8.87384 225.73 9.50476V28.0709C225.73 29.6781 225.918 30.9399 226.294 31.8562C226.684 32.7725 227.338 33.4259 228.254 33.8164C229.17 34.192 230.432 34.3797 232.039 34.3797H237.447C239.054 34.3797 240.316 34.192 241.232 33.8164C242.148 33.4259 242.795 32.7725 243.17 31.8562C243.561 30.9399 243.756 29.6781 243.756 28.0709V9.50476C243.756 8.87384 243.914 8.40068 244.229 8.08522C244.545 7.76983 245.017 7.61206 245.648 7.61206C246.28 7.61206 246.752 7.76983 247.068 8.08522C247.383 8.40068 247.541 8.87384 247.541 9.50476V28.0709C247.541 31.5107 246.722 34.0568 245.085 35.7091C243.447 37.3464 240.902 38.1651 237.447 38.1651H232.039Z" fill="white"/>
<path d="M264.018 38.1664C263.387 38.1664 262.914 38.0087 262.599 37.6932C262.283 37.3778 262.125 36.9046 262.125 36.2737V11.4438H253.383C252.753 11.4438 252.279 11.2861 251.964 10.9706C251.648 10.6552 251.49 10.182 251.49 9.55115C251.49 8.92023 251.648 8.44707 251.964 8.13161C252.279 7.81621 252.753 7.65845 253.383 7.65845H274.653C275.284 7.65845 275.757 7.81621 276.072 8.13161C276.388 8.44707 276.546 8.92023 276.546 9.55115C276.546 10.182 276.388 10.6552 276.072 10.9706C275.757 11.2861 275.284 11.4438 274.653 11.4438H265.911V36.2737C265.911 36.8746 265.746 37.3402 265.415 37.6707C265.1 38.0011 264.634 38.1664 264.018 38.1664Z" fill="white"/>
<path d="M288.386 38.1651C285.818 38.1651 283.812 37.6468 282.37 36.6104C280.943 35.5739 280.05 33.9742 279.689 31.8112C279.629 31.1502 279.764 30.6545 280.094 30.3241C280.425 29.9936 280.905 29.8283 281.537 29.8283C282.168 29.8283 282.625 29.9786 282.911 30.279C283.211 30.5794 283.414 31.045 283.52 31.676C283.745 32.7124 284.225 33.4259 284.961 33.8164C285.712 34.192 286.854 34.3797 288.386 34.3797H294.875C296.813 34.3797 298.127 34.0343 298.818 33.3433C299.524 32.6373 299.877 31.3305 299.877 29.4227C299.877 27.485 299.517 26.1632 298.796 25.4572C298.075 24.7362 296.768 24.3757 294.875 24.3757H289.288C286.448 24.3757 284.338 23.6847 282.956 22.3027C281.589 20.9058 280.905 18.7878 280.905 15.9488C280.905 13.1249 281.582 11.0294 282.934 9.66246C284.301 8.29553 286.404 7.61206 289.242 7.61206H294.605C296.993 7.61206 298.863 8.10024 300.215 9.07667C301.582 10.053 302.446 11.5476 302.806 13.5604C302.897 14.2064 302.776 14.702 302.446 15.0475C302.115 15.378 301.62 15.5433 300.959 15.5433C300.358 15.5433 299.907 15.3855 299.607 15.0701C299.306 14.7546 299.111 14.2965 299.021 13.6956C298.781 12.8094 298.322 12.2085 297.647 11.8931C296.971 11.5626 295.956 11.3974 294.605 11.3974H289.242C287.439 11.3974 286.231 11.7203 285.615 12.3663C284.999 12.9971 284.691 14.1913 284.691 15.9488C284.691 17.7213 285.006 18.938 285.638 19.5989C286.268 20.2599 287.485 20.5904 289.288 20.5904H294.875C297.835 20.5904 300.035 21.3114 301.477 22.7534C302.934 24.1954 303.663 26.4186 303.663 29.4227C303.663 32.412 302.941 34.6201 301.5 36.0471C300.057 37.4591 297.85 38.1651 294.875 38.1651H288.386Z" fill="white"/>
<path fill-rule="evenodd" clip-rule="evenodd" d="M28.6106 1.82903C28.7032 1.59989 28.8389 1.39277 29.0094 1.22006C29.1799 1.04735 29.3818 0.912607 29.603 0.823885C29.8241 0.735163 30.06 0.694293 30.2965 0.70372C30.5331 0.713149 30.7654 0.772675 30.9795 0.87874C31.1937 0.984806 31.3853 1.13523 31.5429 1.32102C31.7004 1.5068 31.8208 1.72412 31.8967 1.95998C31.9889 2.24652 32.005 2.55466 31.9608 2.84716C31.9405 2.98164 31.91 3.17286 31.8684 3.4096C31.7852 3.88215 31.6565 4.54113 31.4724 5.2957C31.1958 6.42923 30.7776 7.85045 30.1666 9.19431C33.787 12.1191 35.1124 17.2547 33.157 21.7583C32.5331 23.3388 31.4768 26.6932 30.65 29.9876C30.2358 31.6378 29.8894 33.2334 29.6848 34.5521C29.5823 35.2122 29.5196 35.7769 29.4981 36.2298C29.4844 36.5168 29.4883 36.7643 29.4937 36.9362C29.6388 37.9487 29.5267 39.002 28.9721 39.9624C28.2558 41.2029 27.0358 41.8816 25.762 42.2003C24.4952 42.5173 23.0303 42.5223 21.5088 42.3154C18.4566 41.9004 14.8103 40.5819 11.237 38.5194C7.66357 36.4569 4.69835 33.9591 2.81273 31.5241C1.87275 30.3103 1.14461 29.0395 0.785798 27.7841C0.424998 26.5219 0.403001 25.1264 1.11937 23.8859C1.71597 22.8529 2.66178 22.2094 3.69715 21.839C4.40571 21.5188 5.20729 21.0034 6.04441 20.3457C7.11485 19.5047 8.15873 18.4976 9.06083 17.5441C9.72721 16.8397 10.8386 16.8086 11.5432 17.4749C12.2477 18.141 12.2787 19.2521 11.6124 19.9565C11.0677 20.5322 10.4596 21.1429 9.80958 21.7419C12.5877 22.3057 15.7487 23.5363 18.8545 25.329C22.065 27.182 24.7846 29.3864 26.6714 31.581C26.8426 30.7826 27.0368 29.9572 27.2437 29.1331C28.0964 25.7358 29.2033 22.2013 29.903 20.4375L29.9142 20.409L29.9266 20.3809C31.5357 16.7043 29.9064 12.5128 26.3945 10.9767C25.4387 10.5585 24.4416 10.3769 23.4618 10.4043C22.4924 10.4315 21.6846 9.6679 21.6574 8.69873C21.6302 7.72963 22.394 6.92197 23.3634 6.89481C24.6041 6.86005 25.8642 7.0473 27.086 7.47775C27.5039 6.50073 27.8257 5.42584 28.0605 4.46376C28.2229 3.79778 28.3368 3.21523 28.4096 2.80138C28.4669 2.47604 28.4859 2.13761 28.6106 1.82903ZM4.67597 25.2266C4.75014 25.1981 4.82414 25.1685 4.89799 25.1378C4.98312 25.1082 5.07748 25.0801 5.18213 25.0539C5.8721 24.8813 6.85546 24.8413 8.10932 25.0119C9.11836 25.149 10.2439 25.4145 11.4432 25.8068C11.2087 26.3463 11.0874 26.9194 11.0412 27.4427C10.9234 28.7754 11.2139 30.2857 11.845 31.7119C12.476 33.1381 13.3983 34.3689 14.4638 35.1784C15.4734 35.9452 16.9912 36.5835 18.5111 35.9114C20.031 35.2393 20.5796 33.6871 20.6911 32.4245C20.739 31.8836 20.7195 31.3134 20.6373 30.7314C22.2548 31.9798 23.5681 33.2678 24.5018 34.4735C25.2764 35.4738 25.7335 36.3452 25.929 37.0289C26.1224 37.7057 26.0237 38.046 25.9307 38.2069C25.8378 38.3678 25.5923 38.6235 24.9093 38.7944C24.2194 38.967 23.236 39.007 21.9821 38.8364C19.4835 38.4967 16.271 37.371 12.9929 35.4789C9.71476 33.5867 7.13332 31.3682 5.5897 29.3749C4.81505 28.3745 4.35795 27.5032 4.16253 26.8194C3.96908 26.1427 4.06782 25.8024 4.16077 25.6414C4.2257 25.5289 4.36505 25.3703 4.67597 25.2266ZM16.5885 32.3828C16.0797 31.9964 15.4941 31.2802 15.0567 30.2916C14.6193 29.303 14.4832 28.388 14.5395 27.7517C14.5652 27.4593 14.6191 27.2947 14.6601 27.2079C14.752 27.2359 14.91 27.3069 15.1438 27.4844C15.6526 27.8709 16.2382 28.587 16.6756 29.5756C17.1131 30.5642 17.2491 31.4792 17.1929 32.1156C17.167 32.4079 17.1132 32.5726 17.0721 32.6593C16.9804 32.6313 16.8223 32.5604 16.5885 32.3828ZM17.0234 32.7394C17.0199 32.7423 17.0185 32.7441 17.0185 32.7441L17.0198 32.7431C17.0198 32.7431 17.0218 32.7411 17.0234 32.7394ZM14.5681 27.1902C14.5635 27.1901 14.5613 27.1906 14.5613 27.1906C14.5613 27.1906 14.5648 27.1906 14.5681 27.1902Z" fill="white"/>
<path d="M20.3365 10.8927C19.2901 8.5278 16.5825 7.43298 14.2887 8.44728C11.9949 9.46166 10.9837 12.2011 12.03 14.5659C13.0764 16.9308 15.7841 18.0256 18.0779 17.0113C20.3716 15.9969 21.3829 13.2575 20.3365 10.8927Z" fill="white"/>
<path d="M42.1846 38.4622C40.9294 38.4622 40.3018 37.8346 40.3018 36.5794V9.95158C40.3018 8.69643 40.9294 8.06885 42.1846 8.06885C43.4397 8.06885 44.0673 8.69643 44.0673 9.95158V34.6966H56.4847C57.7398 34.6966 58.3675 35.3242 58.3675 36.5794C58.3675 37.8346 57.7398 38.4622 56.4847 38.4622H42.1846Z" fill="white"/>
<path d="M66.4374 38.4623C65.7949 38.4623 65.3167 38.3129 65.0029 38.0141C64.7041 37.7002 64.5547 37.2221 64.5547 36.5796V9.99658C64.5547 9.3391 64.7041 8.86095 65.0029 8.56208C65.3167 8.26321 65.7949 8.11377 66.4374 8.11377C67.0949 8.11377 67.5731 8.26321 67.8719 8.56208C68.1708 8.86095 68.3202 9.3391 68.3202 9.99658V36.5796C68.3202 37.2221 68.1708 37.7002 67.8719 38.0141C67.5731 38.3129 67.0949 38.4623 66.4374 38.4623Z" fill="white"/>
<path d="M85.2425 38.4622C82.6873 38.4622 80.6925 37.9466 79.2579 36.9156C77.8383 35.8846 76.9491 34.2932 76.591 32.1414C76.5311 31.484 76.6657 30.9909 76.9939 30.6621C77.3228 30.3334 77.8013 30.169 78.4285 30.169C79.0564 30.169 79.5121 30.3184 79.7961 30.6173C80.0951 30.9161 80.2966 31.3794 80.4013 32.007C80.6255 33.038 81.1032 33.7477 81.8358 34.1363C82.5827 34.5099 83.7182 34.6966 85.2425 34.6966H91.6977C93.6256 34.6966 94.9328 34.353 95.6205 33.6656C96.3225 32.9633 96.6735 31.6633 96.6735 29.7655C96.6735 27.838 96.3153 26.523 95.5977 25.8207C94.8808 25.1035 93.5808 24.7448 91.6977 24.7448H86.1388C83.3153 24.7448 81.2157 24.0575 79.841 22.6828C78.4812 21.2931 77.8013 19.1861 77.8013 16.362C77.8013 13.5528 78.4733 11.4683 79.8182 10.1085C81.178 8.74875 83.2704 8.06885 86.094 8.06885H91.4286C93.805 8.06885 95.6653 8.55446 97.0102 9.52577C98.37 10.497 99.2286 11.9838 99.5874 13.9861C99.6771 14.6286 99.5575 15.1218 99.2286 15.4654C98.9004 15.7942 98.407 15.9585 97.7492 15.9585C97.1519 15.9585 96.7034 15.8016 96.4051 15.4879C96.106 15.174 95.9117 14.7183 95.822 14.1206C95.5828 13.239 95.1271 12.6413 94.455 12.3275C93.7823 11.9988 92.7734 11.8344 91.4286 11.8344H86.094C84.3013 11.8344 83.0981 12.1556 82.4858 12.7981C81.8729 13.4258 81.5667 14.6137 81.5667 16.362C81.5667 18.1253 81.8807 19.3356 82.5079 19.9931C83.1358 20.6505 84.3462 20.9793 86.1388 20.9793H91.6977C94.6416 20.9793 96.8308 21.6965 98.2654 23.131C99.7142 24.5655 100.439 26.777 100.439 29.7655C100.439 32.7391 99.722 34.9357 98.2874 36.3552C96.8529 37.7599 94.6565 38.4622 91.6977 38.4622H85.2425Z" fill="white"/>
<path d="M115.549 38.4623C114.922 38.4623 114.451 38.3054 114.137 37.9916C113.824 37.6778 113.666 37.2071 113.666 36.5796V11.8794H104.97C104.342 11.8794 103.871 11.7225 103.558 11.4086C103.244 11.0949 103.087 10.6242 103.087 9.99658C103.087 9.369 103.244 8.89826 103.558 8.58451C103.871 8.27068 104.342 8.11377 104.97 8.11377H126.129C126.756 8.11377 127.227 8.27068 127.541 8.58451C127.855 8.89826 128.011 9.369 128.011 9.99658C128.011 10.6242 127.855 11.0949 127.541 11.4086C127.227 11.7225 126.756 11.8794 126.129 11.8794H117.432V36.5796C117.432 37.1772 117.267 37.6405 116.939 37.9692C116.625 38.2979 116.162 38.4623 115.549 38.4623Z" fill="white"/>
</g>
<defs>
<clipPath id="clip0_1155_405">
<rect width="304" height="42.7166" fill="white"/>
</clipPath>
</defs>
</svg>
