<svg width="304" height="53" viewBox="0 0 304 53" fill="none" xmlns="http://www.w3.org/2000/svg">
<path d="M36.1609 20.8757C35.9628 20.8757 35.7961 20.8809 35.7024 20.8913C35.5929 21.0893 35.4314 21.3551 35.1916 21.7251C38.9225 21.7251 42.3096 22.0325 46.0561 22.7046L44.9983 23.726C41.6165 23.1267 38.8079 22.8871 35.2282 22.8871C34.7071 22.8871 34.5977 22.8871 34.4727 22.8923C34.3475 23.0798 34.0661 23.4446 33.7848 23.7833C34.1026 23.7625 34.7176 23.7521 35.5668 23.7521C38.5109 23.7521 41.2622 23.9708 44.248 24.4503L43.1901 25.4768C40.9182 25.1225 38.1409 24.9193 35.6502 24.9193C34.7644 24.9193 33.7587 24.9505 32.8573 25.0026C32.654 25.2371 32.1226 25.8103 31.9611 25.9874C33.1542 25.8624 34.4674 25.805 36.0306 25.805C38.2556 25.805 40.3817 25.951 42.3929 26.248L41.3351 27.2641C39.9022 27.0869 38.1618 26.9828 36.6247 26.9828C32.6593 26.9828 29.5328 27.8424 26.3021 29.8173C29.3817 33.121 34.4257 35.2104 39.3134 35.2104H39.7719L38.0628 36.8625C31.0127 35.5388 23.5926 32.4384 17.3241 28.1915C11.2952 24.122 9.18491 22.9184 4.47963 20.8393L4.44838 19.6303L7.63213 20.9956L8.71597 20.1358L19.1113 24.8984L18.4339 25.4403L13.0982 23.1216L12.5719 23.5332L15.344 25.0808C17.6837 26.3835 19.4657 26.9671 21.1123 26.9671C24.7129 26.9671 27.9436 24.4138 30.0278 19.9274C31.5963 19.7241 33.269 19.6303 35.2802 19.6303C39.4071 19.6303 43.4142 20.0263 47.9527 20.8757L46.8481 21.9439C44.0239 21.3551 39.2248 20.8757 36.1609 20.8757ZM26.0572 50.5508C12.5336 50.5508 1.56356 39.5807 1.56356 26.0572C1.56356 12.5336 12.5336 1.56337 26.0572 1.56337C39.5808 1.56337 50.5509 12.5336 50.5509 26.0572C50.5509 39.5807 39.5808 50.5508 26.0572 50.5508ZM26.0572 4.85134e-05C11.6477 4.85134e-05 0 11.6475 0 26.0572C0 40.4668 11.6477 52.1144 26.0572 52.1144C40.4668 52.1144 52.1144 40.4668 52.1144 26.0572C52.1144 11.6475 40.4668 4.85134e-05 26.0572 4.85134e-05ZM94.8976 36.4305H109.837V43.4287H86.8572V8.68562H94.8976V36.4305ZM127.903 18.4137H135.398V43.4287H128.35V40.55C127.308 42.4857 125.174 44.173 121.253 44.173C114.85 44.173 111.525 41.2943 111.525 33.0554V18.4137H119.019V32.7078C119.019 36.0333 120.459 37.5221 123.486 37.5221C126.216 37.5221 127.903 36.0333 127.903 32.7078V18.4137ZM141.155 17.4709C141.155 11.4158 144.977 8.18936 150.983 8.18936C152.919 8.18936 154.159 8.48719 154.159 8.48719V14.5423C154.159 14.5423 153.117 14.4434 152.223 14.4434C149.891 14.4434 148.65 15.2375 148.65 17.4212V18.4137H154.159V24.5186H148.65V43.4287H141.155V24.5186H137.384V18.4137H141.155V17.4709ZM167.361 18.4137H173.069V24.5186H167.361V34.2466C167.361 36.9268 168.751 37.6217 170.935 37.6217C171.828 37.6217 173.069 37.4729 173.069 37.4729V43.4783C173.069 43.4783 171.332 43.8752 169.496 43.8752C163.49 43.8752 159.867 41.1455 159.867 35.0906V24.5186H156.095V18.4137H159.867V11.1178H167.361V18.4137ZM189.661 17.6693C196.015 17.6693 199.34 20.5478 199.34 28.7869V43.4287H191.846V29.1343C191.846 25.8091 190.407 24.3203 187.28 24.3203C184.45 24.3203 182.763 25.8091 182.763 29.1343V43.4287H175.269V8.73539H182.813V20.8457C184.103 19.0092 186.138 17.6693 189.661 17.6693ZM218.448 33.7006C218.448 36.4305 215.867 38.4655 211.897 38.4655C209.962 38.4655 208.82 37.5721 208.82 35.8844C208.82 34.5941 209.614 33.5022 212.146 33.155L216.464 32.5591C217.208 32.4597 218.002 32.311 218.448 32.1621V33.7006ZM214.28 17.6694C206.884 17.6694 203.31 20.4986 203.014 25.8092H210.309C210.408 24.4193 211.202 23.377 214.28 23.377C217.009 23.377 218.3 24.2706 218.3 25.6104C218.3 26.802 217.555 27.2485 215.719 27.4469L210.955 27.9432C204.502 28.6379 201.574 31.3183 201.574 36.1825C201.574 40.6989 204.353 44.173 210.26 44.173C214.28 44.173 216.663 42.8827 218.746 40.3016V43.4287H225.596V27.0003C225.596 20.1013 221.576 17.6694 214.28 17.6694ZM242.926 17.6693C249.428 17.6693 252.753 20.5478 252.753 28.7869V43.4287H245.258V29.1343C245.258 25.8091 243.819 24.3203 240.693 24.3203C237.863 24.3203 236.176 25.8091 236.176 29.1343V43.4287H228.681V18.4139H235.729V21.2927C236.772 19.3568 238.906 17.6693 242.926 17.6693ZM268.563 27.7446C274.915 28.5886 278.092 30.5738 278.092 35.7853C278.092 41.0464 274.37 44.1731 266.478 44.1731C257.892 44.1731 254.864 40.7488 254.715 35.7354H262.111C262.309 37.5721 263.599 38.4655 266.478 38.4655C269.406 38.4655 270.597 37.7705 270.597 36.3809C270.597 35.0906 269.605 34.495 267.025 34.1476L264.393 33.7998C258.884 33.0555 255.708 30.9214 255.708 25.958C255.708 21.1933 259.232 17.6693 266.627 17.6693C273.476 17.6693 277.15 20.3991 277.497 25.8091H270.2C269.953 24.37 269.158 23.4764 266.627 23.4764C264.146 23.4764 263.203 24.3203 263.203 25.4123C263.203 26.5039 263.799 27.0996 265.932 27.3975L268.563 27.7446ZM296.853 33.701C296.853 36.4306 294.272 38.4655 290.302 38.4655C288.366 38.4655 287.224 37.5721 287.224 35.8844C287.224 34.5941 288.019 33.5022 290.55 33.155L294.868 32.5591C295.613 32.4602 296.406 32.311 296.853 32.1621V33.701ZM292.684 17.6694C285.289 17.6694 281.715 20.4986 281.417 25.8092H288.714C288.813 24.4193 289.607 23.3774 292.684 23.3774C295.414 23.3774 296.705 24.2706 296.705 25.6108C296.705 26.802 295.96 27.2485 294.124 27.4469L289.358 27.9432C282.907 28.6382 279.978 31.3184 279.978 36.1825C279.978 40.6989 282.757 44.173 288.663 44.173C292.684 44.173 295.066 42.8827 297.151 40.3016V43.4287H304V27.0003C304 20.1017 299.98 17.6694 292.684 17.6694Z" fill="white"/>
</svg>
