<svg width="305" height="40" viewBox="0 0 305 40" fill="none" xmlns="http://www.w3.org/2000/svg">
<g clip-path="url(#clip0_1092_341)">
<path d="M284.155 21.8078C284.694 18.5709 286.258 17.1127 289.769 17.1127C293.76 17.1127 294.949 19.0009 295.273 21.8078H284.155ZM303.581 25.1543C303.581 16.5185 299.64 10.7991 289.765 10.7991C279.241 10.7991 275.949 17.9219 275.949 25.209C275.949 33.8448 279.941 39.6189 290.195 39.6189C298.291 39.6189 302.552 35.733 303.037 30.4436H294.996C294.511 32.2263 293.268 33.0864 290.191 33.0864C286.145 33.0864 284.417 31.5226 284.038 27.4217H303.463C303.581 26.6672 303.581 25.8032 303.581 25.1543ZM275.359 18.7312V10.9085C275.034 10.8538 274.17 10.7991 273.846 10.7991C269.745 10.7991 267.478 12.6326 266.399 14.7397H266.344V11.6083H258.682V38.8058H266.833V23.4811C266.833 19.9744 268.991 18.5162 271.907 18.5162C272.982 18.5162 274.116 18.5709 275.359 18.7312ZM234.995 25.209C234.995 20.6741 236.883 18.0314 241.363 18.0314C245.843 18.0314 247.731 20.6741 247.731 25.209C247.731 29.7439 245.843 32.3866 241.363 32.3866C236.883 32.3866 234.995 29.7399 234.995 25.209ZM226.738 25.209C226.738 33.8956 230.999 39.6189 241.363 39.6189C251.723 39.6189 255.988 33.8995 255.988 25.209C255.988 16.5185 251.727 10.7991 241.363 10.7991C230.999 10.7991 226.738 16.5185 226.738 25.209ZM190.15 16.6279L199.865 38.8058H205.585L215.299 16.6279V38.8058H224.041V1.03348H213.626L202.727 25.7485L191.828 1.03348H181.413V38.8097H190.154V16.6279H190.15ZM147.398 32.8713C144.485 32.8713 142.542 31.3076 142.542 28.8799C142.542 26.9917 143.191 25.3732 146.534 23.6452L153.547 31.2021C151.823 32.2224 149.771 32.8713 147.398 32.8713ZM149.88 6.80761C152.253 6.80761 154.196 8.26581 154.196 10.369C154.196 12.312 152.957 13.7702 149.986 15.0642L148.637 15.6584L147.828 14.7944C146.479 13.4457 145.345 11.882 145.345 10.2596C145.349 8.26581 146.858 6.80761 149.88 6.80761ZM171.303 38.8058L164.071 31.4132C166.553 28.3912 168.227 24.7751 168.876 21.0533H160.779C160.295 22.6718 159.646 24.345 158.676 25.9088L153.496 20.5647L153.711 20.4552C158.567 18.352 161.698 15.1111 161.698 10.6896C161.698 4.64574 157.976 0.220337 149.935 0.220337C141.518 0.220337 137.792 4.97022 137.792 10.4199C137.792 13.4965 139.465 16.0337 141.838 18.6217L141.893 18.6764C137.143 21.0494 134.286 24.5053 134.286 28.876C134.286 35.6196 138.441 39.6697 147.128 39.6697C151.338 39.6697 155.169 38.4305 158.406 36.3781L160.674 38.8058H171.303ZM111.717 39.615C120.568 39.615 124.344 36.2139 124.344 30.4945C124.344 24.8298 120.892 22.6679 113.984 21.7531L111.123 21.3739C108.8 21.0494 108.155 20.4044 108.155 19.2159C108.155 18.0275 109.18 17.1127 111.877 17.1127C114.629 17.1127 115.493 18.0822 115.763 19.6499H123.695C123.316 13.7663 119.379 10.7991 111.877 10.7991C103.406 10.7991 100.004 14.5755 100.004 19.8102C100.004 25.2051 103.456 27.5272 109.449 28.3365L112.311 28.7157C115.118 29.0949 116.197 29.7399 116.197 31.1434C116.197 32.6563 114.903 33.4108 111.717 33.4108C108.585 33.4108 107.182 32.4413 106.967 30.4436H98.9254C99.0896 35.8933 102.381 39.615 111.717 39.615ZM77.9868 21.8078C78.5263 18.5709 80.0901 17.1127 83.6007 17.1127C87.5921 17.1127 88.7806 19.0009 89.1051 21.8078H77.9868ZM97.4125 25.1543C97.4125 16.5185 93.4718 10.7991 83.5968 10.7991C73.0727 10.7991 69.7811 17.9219 69.7811 25.209C69.7811 33.8448 73.7725 39.6189 84.0268 39.6189C92.1231 39.6189 96.3843 35.733 96.8691 30.4436H88.8275C88.3427 32.2263 87.0995 33.0864 84.0229 33.0864C79.9767 33.0864 78.2487 31.5226 77.8695 27.4217H97.2952C97.4124 26.6672 97.4125 25.8032 97.4125 25.1543ZM62.1773 38.8058H67.0875V1.03348H58.9404V35.5688C58.9404 37.7268 60.0194 38.8058 62.1773 38.8058ZM55.16 11.6083H47.0129V38.8058H55.16V11.6083ZM55.16 1.03348H47.0129V7.99606H55.16V1.03348ZM9.3462 16.6279L19.061 38.8058H24.7804L34.4951 16.6279V38.8058H43.2365V1.03348H32.8219L21.9226 25.7485L11.0194 1.03348H0.604858V38.8097H9.3462V16.6279Z" fill="white"/>
</g>
<defs>
<clipPath id="clip0_1092_341">
<rect width="304" height="39.9" fill="white" transform="translate(0.604858)"/>
</clipPath>
</defs>
</svg>
