<svg width="220" height="88" viewBox="0 0 220 88" fill="none" xmlns="http://www.w3.org/2000/svg">
<g clip-path="url(#clip0_1092_480)">
<path d="M164.915 35.9201L155.318 49.3971L177.489 81.8283V35.9201H164.915ZM98.5832 38.6506V80.1836L119.509 49.1017L109.697 36.2474C117.897 33.988 125.338 30.483 131.829 25.4051L138.152 33.4131L150.152 15.2894H218.328V35.8642H202.99V86.0758L150.144 86.0918L136.619 65.8842L122.559 86.0918H72.8506V72.2794C69.2738 82.0518 58.0003 87.9999 35.6291 87.9999C2.45543 87.9999 0.842655 76.2714 0.339661 62.8423H26.5752C26.663 66.8502 27.3337 69.7564 28.9464 71.6646C30.6391 73.5728 32.9225 74.5708 36.3077 74.5708C41.6411 74.5708 47.3975 73.0698 47.3975 67.2574C47.3975 65.956 46.9744 64.8542 46.2957 63.952C42.8227 59.3373 13.6251 55.9361 5.4175 47.4171C2.1201 44.0079 1.09814 38.8981 1.09814 34.7864C1.09814 18.954 13.3696 11.8323 37.8327 11.8323C63.8127 11.8323 69.9684 20.9261 70.3037 35.8642H45.0423C44.8746 31.8562 43.669 28.7265 41.9125 27.2734C40.2119 25.8682 38.7349 25.2215 36.148 25.2694C30.7349 25.3732 27.8526 27.6726 27.8526 31.3852C27.8526 32.487 28.188 33.8922 28.9544 34.6906C32.9305 39.2015 61.2019 42.4111 69.3217 51.0259C70.6151 52.3912 71.9245 54.1716 72.8586 56.6387V39.96C81.2419 40.2714 89.9764 39.9999 98.5832 38.6506Z" fill="white"/>
<path d="M72.9305 15.2571C99.166 17.1892 113.944 9.76406 119.014 0.00756836H145.809C137.753 23.305 112.627 37.8998 72.9385 35.9038V15.2571H72.9305Z" fill="white"/>
</g>
<defs>
<clipPath id="clip0_1092_480">
<rect width="219" height="88.0001" fill="white" transform="translate(0.323608)"/>
</clipPath>
</defs>
</svg>
