<svg width="304" height="62" viewBox="0 0 304 62" fill="none" xmlns="http://www.w3.org/2000/svg">
<g clip-path="url(#clip0_1155_120)">
<path fill-rule="evenodd" clip-rule="evenodd" d="M24.082 2.32314C26.4444 1.12987 27.6255 0.533242 28.8656 0.2985C29.9637 0.0906043 31.0912 0.0906043 32.1893 0.2985C33.4294 0.533242 34.6105 1.12987 36.9729 2.32314L49.1932 8.49586L40.6607 14.8049C37.7059 13.0868 34.2374 12.0974 30.5275 12.0974C19.7331 12.0974 10.9826 20.4729 10.9826 30.8047C10.9826 35.1208 12.5098 39.0957 15.0752 42.261L8.70795 51.5075C7.19437 50.7112 6.25539 50.126 5.51227 49.3629C4.59173 48.4176 3.89198 47.2802 3.46328 46.0323C2.97852 44.6214 2.97852 43.0247 2.97852 39.8313V21.7778C2.97852 18.5845 2.97852 16.9878 3.46328 15.5767C3.89198 14.3288 4.59174 13.1914 5.51227 12.2462C6.55317 11.1773 7.97835 10.4574 10.8288 9.01762L24.082 2.32314ZM22.8347 48.0071L11.5703 52.966L24.082 59.2859C26.4444 60.4792 27.6255 61.0758 28.8656 61.3106C29.9637 61.5185 31.0912 61.5185 32.1893 61.3106C33.4294 61.0758 34.6105 60.4792 36.9728 59.286L50.2261 52.5914C53.0766 51.1517 54.5017 50.4318 55.5426 49.3629C56.4632 48.4176 57.1629 47.2802 57.5916 46.0323C58.0764 44.6214 58.0764 43.0247 58.0764 39.8313V21.7778C58.0764 18.5845 58.0764 16.9878 57.5916 15.5767C57.1629 14.3288 56.4632 13.1914 55.5426 12.2462C54.7663 11.449 53.7763 10.8459 52.1406 9.9936L47.8276 22.092C49.261 24.694 50.0723 27.6587 50.0723 30.8047C50.0723 41.1364 41.3218 49.5119 30.5275 49.5119C27.7962 49.5119 25.1957 48.9756 22.8347 48.0071Z" fill="white"/>
<path fill-rule="evenodd" clip-rule="evenodd" d="M47.4023 8.35749L23.6524 23.7329C23.4546 23.8609 23.2887 24.0379 23.1686 24.2489L8.74086 49.5917C7.95822 50.9665 9.42867 52.5387 10.717 51.7046L34.467 36.3292C34.6647 36.2012 34.8307 36.0242 34.9508 35.8132L49.3785 10.4704C50.1612 9.09567 48.6907 7.52346 47.4023 8.35749ZM28.3662 32.9476C29.9132 33.3621 31.5191 32.3853 31.953 30.7658C32.387 29.1464 31.4846 27.4975 29.9376 27.0829C28.3906 26.6684 26.7847 27.6452 26.3507 29.2647C25.9168 30.8842 26.8191 32.5331 28.3662 32.9476Z" fill="white"/>
<path d="M88.6966 36.8312C88.8531 38.0361 89.3618 39.0845 90.2223 39.9765C91.0987 40.8528 92.2645 41.5335 93.7196 42.0186C95.1906 42.5037 96.8811 42.7463 98.7903 42.7463C100.621 42.7463 102.209 42.5663 103.555 42.2064C104.916 41.8465 105.957 41.3222 106.676 40.6337C107.412 39.9452 107.78 39.1315 107.78 38.1926C107.78 37.4102 107.576 36.7686 107.17 36.2678C106.778 35.7671 106.105 35.3602 105.151 35.0473C104.212 34.7186 102.913 34.4604 101.255 34.2727L94.1661 33.4746C91.1299 33.146 88.6495 32.5592 86.7251 31.7141C84.8158 30.8692 83.4078 29.7581 82.5002 28.3811C81.6079 27.004 81.1621 25.3296 81.1621 23.3579C81.1621 21.1045 81.835 19.1563 83.1807 17.5133C84.5424 15.8701 86.4668 14.6104 88.9548 13.7341C91.4428 12.8579 94.346 12.4197 97.6633 12.4197C100.902 12.4197 103.797 12.897 106.348 13.8515C108.915 14.8061 110.941 16.144 112.428 17.8653C113.914 19.5866 114.728 21.574 114.869 23.8274H106.794C106.654 22.7946 106.192 21.8948 105.409 21.128C104.627 20.3613 103.555 19.7666 102.193 19.3441C100.848 18.9216 99.2832 18.7104 97.4992 18.7104C95.8088 18.7104 94.3378 18.8825 93.0862 19.2267C91.8345 19.571 90.8717 20.0718 90.1988 20.729C89.5259 21.3706 89.1895 22.1452 89.1895 23.0528C89.1895 23.7726 89.3777 24.3673 89.753 24.8367C90.1441 25.3062 90.7782 25.6973 91.6546 26.0103C92.5462 26.3233 93.7514 26.5737 95.2689 26.7614L102.616 27.6534C105.887 28.029 108.476 28.6001 110.386 29.3669C112.295 30.118 113.672 31.1274 114.517 32.3949C115.361 33.6624 115.784 35.2976 115.784 37.3006C115.784 39.6479 115.072 41.7057 113.648 43.4739C112.224 45.2422 110.213 46.6114 107.616 47.5817C105.034 48.5518 102.045 49.0369 98.6491 49.0369C95.1754 49.0369 92.0928 48.5284 89.4006 47.5112C86.7092 46.4941 84.5888 45.0622 83.0402 43.2158C81.5062 41.3692 80.6928 39.2411 80.5986 36.8312H88.6966ZM128.215 12.185V48.3328H120.351V12.185H128.215ZM149.221 49.0369C146.06 49.0369 143.228 48.4501 140.724 47.2765C138.221 46.0872 136.264 44.4285 134.856 42.3003C133.448 40.1565 132.744 37.6919 132.744 34.9064C132.744 32.168 133.416 29.7425 134.762 27.6299C136.108 25.5017 137.978 23.8508 140.372 22.6772C142.766 21.5036 145.473 20.9168 148.494 20.9168C151.529 20.9168 154.174 21.5975 156.428 22.9589C158.681 24.3047 160.41 26.2294 161.615 28.7332C162.835 31.2212 163.446 34.124 163.446 37.4415H141.147C141.741 39.2567 142.9 40.6572 144.621 41.643C146.342 42.6289 148.525 43.1218 151.169 43.1218C153.188 43.1218 155.215 42.8323 157.249 42.2533C159.283 41.6744 161.106 40.8607 162.718 39.8122V45.07C160.949 46.322 158.892 47.3 156.545 48.0041C154.213 48.6927 151.772 49.0369 149.221 49.0369ZM155.817 32.2305C155.363 30.4623 154.502 29.1009 153.235 28.1463C151.983 27.1761 150.418 26.691 148.541 26.691C146.553 26.691 144.886 27.1918 143.541 28.1933C142.211 29.1791 141.334 30.5249 140.912 32.2305H155.817ZM191.786 42.3238C190.455 44.4519 188.773 46.1029 186.739 47.2765C184.72 48.4501 182.475 49.0369 180.002 49.0369C177.42 49.0369 175.12 48.4501 173.101 47.2765C171.082 46.1029 169.51 44.4519 168.383 42.3238C167.272 40.1956 166.716 37.7544 166.716 35.0003C166.716 32.2305 167.272 29.7816 168.383 27.6534C169.51 25.5095 171.075 23.8508 173.078 22.6772C175.096 21.5036 177.405 20.9168 180.002 20.9168C182.475 20.9168 184.72 21.5036 186.739 22.6772C188.773 23.8352 190.463 25.4783 191.809 27.6064L192.49 21.6444H200.611L199.062 34.9768L200.611 48.3328H192.49L191.786 42.3238ZM174.674 35.0003C174.674 36.5339 174.994 37.9031 175.636 39.108C176.278 40.3129 177.162 41.2518 178.289 41.9247C179.431 42.5976 180.722 42.9341 182.162 42.9341C183.617 42.9341 185.002 42.5976 186.316 41.9247C187.631 41.2518 188.781 40.3208 189.767 39.1315C190.768 37.9265 191.551 36.5495 192.114 35.0003C191.551 33.4511 190.768 32.0741 189.767 30.8692C188.781 29.6642 187.631 28.7253 186.316 28.0525C185.002 27.3639 183.617 27.0196 182.162 27.0196C180.722 27.0196 179.431 27.3639 178.289 28.0525C177.162 28.7253 176.278 29.6721 175.636 30.8926C174.994 32.0976 174.674 33.4668 174.674 35.0003ZM213.716 21.6444V27.6299C215.061 25.4861 216.744 23.8352 218.762 22.6772C220.797 21.5036 223.058 20.9168 225.546 20.9168C228.144 20.9168 230.444 21.5036 232.447 22.6772C234.465 23.8508 236.03 25.5095 237.141 27.6534C238.268 29.7816 238.831 32.2305 238.831 35.0003C238.831 37.7544 238.268 40.1956 237.141 42.3238C236.03 44.4519 234.465 46.1029 232.447 47.2765C230.428 48.4501 228.128 49.0369 225.546 49.0369C223.058 49.0369 220.797 48.4501 218.762 47.2765C216.744 46.0872 215.061 44.4206 213.716 42.2768V56.0787H205.852V21.6444H213.716ZM213.434 35.0003C213.997 36.5495 214.772 37.9265 215.758 39.1315C216.759 40.3208 217.917 41.2518 219.232 41.9247C220.546 42.5976 221.931 42.9341 223.386 42.9341C224.826 42.9341 226.109 42.5976 227.235 41.9247C228.378 41.2518 229.27 40.3129 229.912 39.108C230.553 37.9031 230.874 36.5339 230.874 35.0003C230.874 33.4668 230.553 32.0976 229.912 30.8926C229.27 29.6721 228.378 28.7253 227.235 28.0525C226.109 27.3639 224.826 27.0196 223.386 27.0196C221.931 27.0196 220.546 27.3639 219.232 28.0525C217.917 28.7253 216.759 29.6642 215.758 30.8692C214.772 32.0741 213.997 33.4511 213.434 35.0003ZM246.647 48.7552C245.786 48.7552 245.004 48.5518 244.3 48.1449C243.595 47.7381 243.04 47.1826 242.633 46.4784C242.227 45.7743 242.023 44.9918 242.023 44.1311C242.023 43.2862 242.227 42.5115 242.633 41.8074C243.04 41.0876 243.595 40.5242 244.3 40.1174C245.004 39.7105 245.786 39.5071 246.647 39.5071C247.508 39.5071 248.29 39.7105 248.994 40.1174C249.698 40.5242 250.254 41.0876 250.661 41.8074C251.068 42.5115 251.271 43.2862 251.271 44.1311C251.271 44.9918 251.068 45.7743 250.661 46.4784C250.254 47.1826 249.698 47.7381 248.994 48.1449C248.29 48.5518 247.508 48.7552 246.647 48.7552ZM260.087 22.0904L264.007 21.3393V48.3328H256.144V21.3393L260.087 22.0904ZM255.275 14.5088C255.275 13.2882 255.713 12.3102 256.59 11.5747C257.482 10.8235 258.648 10.448 260.087 10.448C261.512 10.448 262.662 10.8235 263.538 11.5747C264.43 12.3102 264.876 13.2882 264.876 14.5088C264.876 15.7293 264.43 16.7152 263.538 17.4663C262.662 18.2018 261.512 18.5695 260.087 18.5695C258.648 18.5695 257.482 18.2018 256.59 17.4663C255.713 16.7152 255.275 15.7293 255.275 14.5088ZM285.225 49.0369C281.939 49.0369 279.029 48.4501 276.494 47.2765C273.974 46.1029 272.018 44.4598 270.625 42.3473C269.233 40.2191 268.536 37.7701 268.536 35.0003C268.536 32.2149 269.233 29.7581 270.625 27.6299C272.018 25.5017 273.974 23.8508 276.494 22.6772C279.029 21.5036 281.939 20.9168 285.225 20.9168C288.511 20.9168 291.414 21.5036 293.933 22.6772C296.468 23.8508 298.432 25.5017 299.825 27.6299C301.218 29.7581 301.914 32.2149 301.914 35.0003C301.914 37.7701 301.218 40.2191 299.825 42.3473C298.432 44.4598 296.468 46.1029 293.933 47.2765C291.414 48.4501 288.511 49.0369 285.225 49.0369ZM276.47 35.0003C276.47 36.659 276.822 38.0987 277.526 39.3193C278.23 40.5242 279.24 41.4553 280.554 42.1125C281.868 42.7697 283.426 43.0984 285.225 43.0984C287.025 43.0984 288.574 42.7697 289.873 42.1125C291.187 41.4553 292.197 40.5242 292.901 39.3193C293.605 38.0987 293.957 36.659 293.957 35.0003C293.957 33.3416 293.605 31.9019 292.901 30.6814C292.197 29.4608 291.187 28.5219 289.873 27.8647C288.558 27.2074 287.009 26.8788 285.225 26.8788C283.426 26.8788 281.868 27.2074 280.554 27.8647C279.24 28.5219 278.23 29.4608 277.526 30.6814C276.822 31.9019 276.47 33.3416 276.47 35.0003Z" fill="white"/>
</g>
<defs>
<clipPath id="clip0_1155_120">
<rect width="304" height="61.6904" fill="white" transform="translate(0 -0.000244141)"/>
</clipPath>
</defs>
</svg>
