<svg width="252" height="88" viewBox="0 0 252 88" fill="none" xmlns="http://www.w3.org/2000/svg">
<g clip-path="url(#clip0_1092_453)">
<path fill-rule="evenodd" clip-rule="evenodd" d="M0.529541 43.9953C0.529541 19.6937 56.7094 0 126.001 0C195.313 0 252.367 19.7127 251.483 43.9953C250.58 68.7303 194.907 88 126.001 88C56.7094 87.9717 0.529541 68.2968 0.529541 43.9953ZM126.001 83.9103C53.3892 83.9103 4.61108 63.2743 4.61108 43.9951C4.61108 24.716 53.3892 4.07996 126.001 4.07996C198.613 4.07996 247.401 24.7254 247.401 43.9951C247.401 63.2649 198.623 83.9103 126.001 83.9103ZM126.001 7.22719C93.4954 7.22719 62.9833 11.59 40.1174 19.4769C19.8492 26.4969 7.74323 35.6465 7.74323 43.9763C7.74323 52.3061 19.8492 61.4463 40.1174 68.4758C62.9931 76.4003 93.4954 80.7255 126.001 80.7255C158.508 80.7255 189.02 76.3626 211.885 68.4758C232.164 61.4556 244.269 52.2967 244.269 43.9763C244.269 35.6559 232.164 26.5157 211.885 19.4769C189.02 11.59 158.545 7.22719 126.001 7.22719ZM51.4142 47.9815C51.437 49.1328 51.1958 50.2738 50.7091 51.3171C50.2343 52.259 49.5488 53.0782 48.7057 53.7105C47.7964 54.388 46.7698 54.8897 45.6768 55.1899C44.4296 55.5273 43.1411 55.6921 41.8494 55.6799C41.0519 55.6806 40.2567 55.6176 39.469 55.4915C38.7846 55.3837 38.1088 55.2263 37.4472 55.0203C36.9355 54.8612 36.4357 54.666 35.9512 54.4361C35.6383 54.289 35.3471 54.0987 35.0864 53.8708C34.8735 53.6413 34.7268 53.3579 34.6627 53.0509C34.5432 52.5067 34.4921 51.9494 34.5128 51.3925V50.2335C34.5367 49.9963 34.5877 49.7625 34.6627 49.5363C34.7062 49.3996 34.792 49.2805 34.9071 49.197C35.0212 49.1295 35.1516 49.0968 35.2841 49.1028C35.5742 49.1419 35.8512 49.2485 36.0924 49.4137C36.4498 49.621 36.892 49.8472 37.4287 50.1015C38.0382 50.3769 38.6672 50.61 39.3093 50.7989C40.085 51.0242 40.8911 51.1322 41.6983 51.1193C42.2057 51.1263 42.7109 51.0693 43.203 50.9496C43.6105 50.8464 43.9983 50.6778 44.3514 50.4503C44.6632 50.2429 44.9163 49.9569 45.0847 49.621C45.2564 49.2662 45.34 48.8751 45.3292 48.4808C45.3433 48.0123 45.1825 47.5554 44.8772 47.1994C44.5339 46.8101 44.1189 46.4903 43.655 46.257C43.0933 45.9712 42.511 45.7256 41.9146 45.522C41.2757 45.2865 40.6174 45.0321 39.9492 44.7494C39.2767 44.4713 38.6205 44.1567 37.9828 43.8071C37.3483 43.4245 36.7714 42.9516 36.2717 42.4032C35.7524 41.8553 35.3374 41.2166 35.0484 40.5185C34.7246 39.6613 34.5682 38.7495 34.5877 37.833C34.5801 36.8257 34.792 35.8289 35.2081 34.912C35.622 34.0247 36.2337 33.2445 36.9952 32.6316C37.8372 31.9701 38.7933 31.4716 39.8177 31.1616C41.0378 30.7976 42.3068 30.6197 43.58 30.634C44.2569 30.6359 44.9326 30.6862 45.6019 30.7848C46.2016 30.8743 46.7947 31.0001 47.3792 31.1616C47.8388 31.2877 48.2886 31.4484 48.7242 31.6422C48.998 31.7682 49.2598 31.9196 49.5053 32.0946C49.6455 32.1929 49.7607 32.3217 49.8443 32.4714C49.9106 32.6121 49.9573 32.7611 49.9845 32.9143C49.9845 33.0159 50.0058 33.1296 50.0295 33.2556C50.0475 33.3515 50.0668 33.4545 50.079 33.5645C50.0973 33.7295 50.0919 33.9222 50.0858 34.1374V34.1375V34.1375V34.1376V34.1376V34.1376V34.1377V34.1377V34.1377V34.1378L50.0858 34.1381C50.0825 34.2547 50.079 34.3778 50.079 34.5067V35.5998C50.0584 35.8261 50.0171 36.05 49.9562 36.2688C49.9171 36.4072 49.8313 36.5273 49.7118 36.6081C49.6335 36.6754 49.5401 36.7238 49.4391 36.7494C49.1903 36.7155 48.9524 36.6252 48.7438 36.4855C48.4331 36.3159 48.0376 36.1275 47.5672 35.9296C47.0305 35.7096 46.4808 35.5209 45.9213 35.3642C45.2292 35.1694 44.5143 35.0681 43.7962 35.0628C43.3019 35.0555 42.8087 35.1125 42.3285 35.2324C41.9591 35.325 41.6125 35.4953 41.3127 35.7318C41.0584 35.9366 40.8564 36.1979 40.7206 36.495C40.5826 36.7897 40.512 37.1116 40.5131 37.4372C40.5022 37.9071 40.6662 38.3641 40.9748 38.7188C41.3279 39.1057 41.7483 39.425 42.2155 39.661C42.7837 39.9447 43.3671 40.1934 43.9657 40.4054C44.6241 40.6411 45.2824 40.8954 45.9593 41.1688C46.6394 41.4426 47.3021 41.7573 47.9442 42.111C48.5917 42.4645 49.1816 42.9158 49.6933 43.4491C50.2191 43.9953 50.6407 44.6342 50.9351 45.3337C51.2751 46.1738 51.4381 47.0752 51.4142 47.9815ZM73.8282 54.6899C73.9129 54.5618 73.9564 54.4103 73.951 54.2565L73.8662 32.0374C73.8695 31.8811 73.8195 31.7282 73.725 31.6039C73.5924 31.4542 73.4186 31.3462 73.2263 31.293C72.921 31.1927 72.606 31.1295 72.2855 31.1045C71.2784 31.0166 70.2647 31.0166 69.2576 31.1045C68.9371 31.1312 68.6221 31.1944 68.3168 31.293C68.1212 31.3407 67.9474 31.4496 67.8181 31.6039C67.7258 31.7291 67.6791 31.882 67.6867 32.0374V46.8124C66.9381 47.7659 66.0722 48.6207 65.1097 49.3566C64.422 49.8936 63.5822 50.1972 62.7109 50.2235C62.1383 50.2341 61.5723 50.1115 61.0552 49.8654C60.5891 49.6236 60.1882 49.271 59.8894 48.8383C59.5624 48.3625 59.3289 47.8283 59.2028 47.2648C59.0323 46.3866 58.9595 45.4923 58.9866 44.598V32.0374C58.991 31.8792 58.9377 31.7248 58.8356 31.6039C58.7009 31.4523 58.5238 31.344 58.3282 31.293C58.023 31.1944 57.7068 31.1312 57.3874 31.1045C56.3825 31.0166 55.3721 31.0166 54.3683 31.1045C54.0478 31.1302 53.7327 31.1935 53.4274 31.293C53.2329 31.3407 53.058 31.4496 52.9287 31.6039C52.8342 31.7282 52.7843 31.8811 52.7875 32.0374V45.6911C52.7625 47.1189 52.9016 48.5449 53.2014 49.9408C53.4546 51.0023 53.9109 52.0041 54.5464 52.8901C55.2026 53.767 56.0653 54.4665 57.0582 54.9256C58.2653 55.4609 59.5765 55.7185 60.8955 55.6793C62.2741 55.6758 63.6311 55.3328 64.8457 54.6805C66.2624 53.9092 67.5357 52.8986 68.6079 51.6935V54.2565C68.6069 54.4096 68.6492 54.56 68.7307 54.6899C68.835 54.8364 68.9828 54.9453 69.1533 55.0008C69.413 55.1018 69.6857 55.1652 69.9627 55.1893C70.406 55.2406 70.8525 55.2626 71.2979 55.2553C71.726 55.2615 72.1529 55.2394 72.5777 55.1893C72.858 55.1639 73.1329 55.1006 73.3958 55.0008C73.5707 54.9485 73.7228 54.839 73.8282 54.6899ZM97.9543 54.2567C97.9586 54.4148 97.9054 54.5692 97.8033 54.6901C97.6751 54.8444 97.5001 54.9533 97.3046 55.001C97.0004 55.1033 96.6842 55.1666 96.3637 55.1895C95.864 55.2394 95.3621 55.2614 94.859 55.2555C94.3473 55.2618 93.8357 55.2397 93.3261 55.1895C93.0056 55.1666 92.6895 55.1033 92.3853 55.001C92.1908 54.9533 92.0159 54.8444 91.8866 54.6901C91.7856 54.5692 91.7313 54.4148 91.7367 54.2567V41.583C91.7562 40.7286 91.6769 39.875 91.502 39.0388C91.3695 38.4785 91.1402 37.9459 90.8241 37.4651C90.534 37.0286 90.1353 36.6748 89.6671 36.438C89.1488 36.1885 88.5785 36.0658 88.0027 36.0799C87.127 36.109 86.284 36.4159 85.5952 36.9564C84.6369 37.6783 83.7852 38.5316 83.0649 39.4911V54.2567C83.066 54.4142 83.0127 54.5671 82.9139 54.6901C82.777 54.8438 82.5966 54.9523 82.3968 55.001C82.0915 55.1013 81.7764 55.1645 81.4559 55.1895C80.4455 55.2774 79.4286 55.2774 78.4183 55.1895C78.0978 55.1645 77.7827 55.1013 77.4774 55.001C77.2775 54.9523 77.0972 54.8438 76.9603 54.6901C76.8658 54.5659 76.8158 54.4131 76.8191 54.2567V32.0376C76.8136 31.8839 76.856 31.7322 76.9418 31.6041C77.0494 31.4528 77.2047 31.3431 77.384 31.2932C77.6534 31.1948 77.9348 31.1314 78.2205 31.1047C78.6334 31.0749 79.0484 31.0718 79.4623 31.0953C79.9023 31.089 80.3423 31.1111 80.7791 31.1613C81.0561 31.1838 81.3288 31.2473 81.5884 31.3497C81.7536 31.4051 81.8959 31.5146 81.9926 31.6607C82.0806 31.7877 82.1273 31.9394 82.124 32.0941V34.6572C83.1974 33.452 84.4696 32.4414 85.8863 31.6701C87.1085 31.0194 88.4709 30.6766 89.855 30.6713C91.1685 30.6331 92.4733 30.8907 93.6738 31.4251C94.6657 31.8815 95.5294 32.5777 96.1856 33.451C96.8363 34.3494 97.3024 35.3677 97.5588 36.4475C97.863 37.8046 98.0053 39.1933 97.9825 40.5841L97.9543 54.2567ZM121.911 54.6904C122.012 54.5694 122.066 54.4151 122.061 54.2569L122.136 40.5183C122.16 39.1275 122.017 37.7388 121.713 36.3817C121.457 35.302 120.99 34.2836 120.34 33.3852C119.683 32.5119 118.82 31.8157 117.828 31.3594C116.628 30.8249 115.323 30.5673 114.009 30.6055C112.625 30.612 111.263 30.9548 110.041 31.6044C108.624 32.3756 107.352 33.3862 106.278 34.5914V32.0284C106.28 31.8752 106.237 31.725 106.156 31.5949C106.054 31.4505 105.909 31.3418 105.742 31.284C105.483 31.1815 105.21 31.118 104.933 31.0955C104.492 31.048 104.05 31.0291 103.607 31.039C103.18 31.0328 102.752 31.0549 102.328 31.1049C102.041 31.1317 101.76 31.195 101.491 31.2934C101.313 31.3459 101.158 31.4551 101.048 31.6044C100.964 31.7325 100.921 31.884 100.927 32.0377V54.2569C100.922 54.4132 100.972 54.5661 101.067 54.6904C101.205 54.8441 101.385 54.9525 101.585 55.0013C101.889 55.1016 102.205 55.1648 102.525 55.1898C103.031 55.2402 103.541 55.2622 104.049 55.2557C104.554 55.2622 105.061 55.2402 105.564 55.1898C105.883 55.1648 106.199 55.1016 106.504 55.0013C106.703 54.9525 106.885 54.8441 107.022 54.6904C107.119 54.5674 107.173 54.4144 107.171 54.2569V39.4912C107.893 38.5318 108.744 37.6785 109.702 36.9565C110.394 36.4142 111.241 36.1071 112.119 36.0802C112.688 36.0686 113.252 36.1912 113.765 36.4383C114.234 36.6724 114.633 37.0268 114.922 37.4654C115.241 37.9454 115.474 38.478 115.609 39.039C115.785 39.8752 115.863 40.7289 115.843 41.5831V54.2569C115.839 54.4151 115.892 54.5694 115.994 54.6904C116.122 54.8446 116.297 54.9536 116.493 55.0013C116.797 55.1034 117.113 55.1668 117.434 55.1898C117.942 55.24 118.455 55.2619 118.967 55.2557C119.469 55.2616 119.972 55.2395 120.471 55.1898C120.792 55.1668 121.108 55.1034 121.412 55.0013C121.607 54.9536 121.782 54.8446 121.911 54.6904ZM137.392 55.1045L134.711 62.9725C134.602 63.2197 134.434 63.4355 134.22 63.6001C134.006 63.7648 133.755 63.873 133.489 63.9148C132.536 64.1308 131.558 64.2227 130.583 64.188C130.051 64.1958 129.52 64.1675 128.992 64.1033C128.661 64.0832 128.338 63.9829 128.052 63.8111C127.963 63.7607 127.887 63.6902 127.83 63.6052C127.772 63.5201 127.736 63.4229 127.723 63.3212C127.722 63.0714 127.773 62.8242 127.873 62.5956L130.836 55.1515C130.636 55.0203 130.463 54.8506 130.328 54.6522C130.163 54.456 130.033 54.2329 129.943 53.9925L122.315 33.5733C122.137 33.1508 122.028 32.702 121.994 32.2446C121.99 32.1091 122.014 31.9742 122.066 31.8489C122.118 31.7236 122.196 31.6112 122.295 31.5191C122.593 31.3107 122.941 31.1869 123.302 31.161C123.926 31.084 124.555 31.0493 125.183 31.0573H126.877C127.198 31.0689 127.516 31.1325 127.816 31.2458C128.037 31.3356 128.22 31.4986 128.334 31.7076C128.485 31.9892 128.604 32.2861 128.691 32.5932L133.903 47.453H133.987L138.756 32.2917C138.8 31.975 138.934 31.6777 139.141 31.4342C139.368 31.261 139.638 31.1536 139.922 31.1233C140.545 31.0409 141.174 31.0063 141.803 31.0196C142.397 31.0143 142.992 31.049 143.58 31.1233C143.952 31.1534 144.308 31.2801 144.616 31.4908C144.723 31.5803 144.809 31.6929 144.868 31.82C144.927 31.9471 144.956 32.0857 144.954 32.2258C144.944 32.5949 144.877 32.9603 144.756 33.3094L137.392 55.1045ZM165.61 51.807V51.0721C165.61 50.8793 165.603 50.6994 165.598 50.5512L165.598 50.5502L165.598 50.549L165.597 50.5475C165.594 50.4437 165.59 50.3557 165.59 50.29C165.572 50.0851 165.531 49.8829 165.469 49.6869C165.423 49.5613 165.349 49.4482 165.252 49.3571C165.17 49.2899 165.067 49.2533 164.96 49.2534C164.643 49.3057 164.35 49.4574 164.124 49.6869C163.897 49.84 163.653 50.0169 163.383 50.2136C163.204 50.3439 163.013 50.4828 162.807 50.6291C162.21 51.0012 161.58 51.3167 160.925 51.5715C159.263 52.1898 157.43 52.1595 155.79 51.4867C155.01 51.118 154.339 50.5531 153.843 49.847C153.284 49.0186 152.889 48.0912 152.676 47.1145C152.382 45.8803 152.244 44.6141 152.262 43.3453C152.262 40.4713 152.789 38.2758 153.843 36.7493C154.326 35.9867 154.999 35.3632 155.795 34.9403C156.591 34.5173 157.485 34.3094 158.386 34.3371C159.238 34.3163 160.085 34.4537 160.887 34.7422C161.522 34.9846 162.125 35.3008 162.684 35.6846C163.113 35.9734 163.525 36.2882 163.916 36.6268C164.146 36.8588 164.448 37.0051 164.772 37.0414C164.89 37.0337 165.003 36.9935 165.099 36.9253C165.196 36.8571 165.271 36.7636 165.318 36.6551C165.499 36.2271 165.577 35.762 165.544 35.2982V34.5444C165.535 34.3652 165.503 34.1878 165.449 34.0167C165.408 33.8699 165.345 33.7301 165.261 33.6021C165.141 33.4308 165.001 33.2728 164.847 33.1309C164.559 32.8573 164.244 32.6141 163.906 32.4054C163.432 32.107 162.927 31.8575 162.402 31.661C161.79 31.4354 161.161 31.2589 160.521 31.1333C159.839 31.0004 159.146 30.9341 158.451 30.9354C157.045 30.9228 155.647 31.172 154.332 31.6704C153.07 32.1571 151.938 32.9277 151.021 33.9225C150.02 35.0752 149.272 36.4271 148.829 37.8895C148.253 39.7171 147.981 41.6271 148.021 43.5432C147.992 45.2809 148.214 47.0136 148.679 48.688C149.047 50.0582 149.687 51.3402 150.56 52.4571C151.399 53.4733 152.471 54.2717 153.683 54.7847C155.039 55.3335 156.492 55.6027 157.953 55.5762C158.714 55.5764 159.473 55.5038 160.22 55.3594C160.909 55.2149 161.585 55.0164 162.242 54.7658C162.825 54.5479 163.386 54.2733 163.916 53.946C164.299 53.7289 164.655 53.4697 164.979 53.1733C165.13 53.0334 165.262 52.8751 165.374 52.7022C165.439 52.5829 165.489 52.4564 165.525 52.3253C165.572 52.1562 165.6 51.9824 165.61 51.807ZM185.361 54.5018C185.368 54.5887 185.354 54.6762 185.317 54.7556C185.282 54.8349 185.225 54.9034 185.153 54.9541C184.995 55.0697 184.811 55.1472 184.618 55.1803C184.279 55.237 183.936 55.2622 183.592 55.2556C183.246 55.2606 182.9 55.2354 182.558 55.1803C182.356 55.1559 182.165 55.0777 182.003 54.9541C181.943 54.8963 181.896 54.8257 181.867 54.7474C181.838 54.669 181.826 54.585 181.833 54.5018V52.2686C180.899 53.2737 179.79 54.1007 178.561 54.7091C177.369 55.2829 176.063 55.5792 174.742 55.576C173.661 55.5917 172.585 55.4359 171.554 55.1142C170.655 54.8447 169.823 54.3924 169.108 53.7857C168.436 53.197 167.903 52.4665 167.547 51.6467C167.164 50.7311 166.975 49.7461 166.992 48.7539C166.962 47.6095 167.227 46.4768 167.763 45.4653C168.29 44.5187 169.05 43.7237 169.973 43.1567C171.056 42.4856 172.251 42.0164 173.5 41.7715C175.046 41.4468 176.624 41.2919 178.204 41.3099H181.279V39.576C181.293 38.8038 181.202 38.0333 181.007 37.2863C180.861 36.6687 180.558 36.0994 180.128 35.6338C179.697 35.1681 179.154 34.822 178.551 34.629C177.778 34.3928 176.97 34.2815 176.162 34.2992C175.243 34.2831 174.327 34.4038 173.444 34.6573C172.718 34.8688 172.011 35.1366 171.328 35.4582C170.716 35.7409 170.217 36.0142 169.803 36.2498C169.526 36.45 169.203 36.5763 168.864 36.6172C168.74 36.6176 168.618 36.5816 168.515 36.5135C168.407 36.4353 168.32 36.3318 168.262 36.2121C168.173 36.055 168.115 35.8821 168.092 35.7032C168.061 35.4753 168.044 35.2455 168.044 35.0154C168.04 34.6991 168.068 34.3833 168.129 34.0731C168.2 33.8069 168.348 33.5676 168.553 33.3852C168.906 33.0869 169.295 32.8336 169.71 32.6313C170.315 32.3147 170.944 32.0469 171.591 31.8304C172.353 31.5772 173.133 31.3788 173.923 31.2368C174.77 31.0782 175.63 30.9993 176.491 31.0013C177.879 30.9691 179.262 31.1535 180.593 31.5477C181.616 31.855 182.551 32.4044 183.319 33.1497C184.045 33.8678 184.582 34.7548 184.881 35.7315C185.22 36.9199 185.382 38.1519 185.361 39.3876V54.5018ZM181.279 44.2874H177.77C176.788 44.2763 175.807 44.3742 174.845 44.5796C174.111 44.7288 173.412 45.0166 172.786 45.4276C172.271 45.759 171.852 46.2205 171.572 46.7657C171.311 47.3323 171.183 47.951 171.196 48.5749C171.172 49.0897 171.259 49.6038 171.448 50.0829C171.638 50.562 171.927 50.9955 172.297 51.3546C173.156 52.0854 174.265 52.4536 175.391 52.3817C176.444 52.3871 177.478 52.1037 178.382 51.5619C179.472 50.8606 180.449 49.9963 181.279 48.9989V44.2874ZM201.181 34.4782V33.536L201.181 33.4546C201.181 33.1152 201.18 32.8382 201.276 32.5936C201.283 32.3207 201.238 32.0489 201.144 31.7927C201.091 31.7044 201.024 31.625 200.947 31.5572C200.791 31.4495 200.62 31.3668 200.438 31.3122C200.173 31.2219 199.904 31.1465 199.63 31.086C199.345 31.0205 199.055 30.9764 198.764 30.9541C198.523 30.9414 198.282 30.9414 198.04 30.9541C197.555 30.9532 197.071 31.0134 196.601 31.1332C196.094 31.2787 195.613 31.5081 195.181 31.8115C194.62 32.1943 194.107 32.64 193.648 33.1402C193.017 33.828 192.439 34.5619 191.917 35.3358V32.0377C191.926 31.9184 191.896 31.7995 191.833 31.6985C191.761 31.5909 191.664 31.5033 191.55 31.4441C191.373 31.3613 191.181 31.3133 190.985 31.3027C190.672 31.2843 190.358 31.2843 190.046 31.3027C189.732 31.2848 189.418 31.2848 189.105 31.3027C188.907 31.3173 188.713 31.3651 188.531 31.4441C188.408 31.495 188.306 31.5843 188.239 31.6985C188.182 31.8021 188.156 31.9197 188.164 32.0377V54.4829C188.161 54.6017 188.19 54.719 188.249 54.8222C188.332 54.9282 188.443 55.0097 188.568 55.0577C188.774 55.1338 188.99 55.1814 189.208 55.1991C189.536 55.2407 189.865 55.2595 190.195 55.2556C190.539 55.2597 190.881 55.2408 191.221 55.1991C191.434 55.1828 191.643 55.1351 191.841 55.0577C191.966 55.007 192.076 54.9261 192.162 54.8222C192.23 54.7228 192.267 54.6042 192.265 54.4829V39.755C192.839 38.8504 193.374 38.0778 193.855 37.4464C194.261 36.8961 194.72 36.3878 195.228 35.9294C195.603 35.5893 196.027 35.3096 196.488 35.1001C196.876 34.9405 197.291 34.8573 197.711 34.8551C198.026 34.8539 198.343 34.8855 198.651 34.9494C198.943 35.0154 199.216 35.0908 199.46 35.1661L200.1 35.3922C200.251 35.4584 200.414 35.4968 200.579 35.5053C200.638 35.5096 200.697 35.5018 200.751 35.4823C200.807 35.4629 200.857 35.4321 200.899 35.3922C200.98 35.2954 201.041 35.1832 201.078 35.0624C201.141 34.8738 201.176 34.6769 201.181 34.4782ZM217.218 48.3861C217.238 49.441 217.022 50.487 216.588 51.4485C216.173 52.3344 215.554 53.1093 214.782 53.71C213.944 54.3577 212.984 54.8319 211.961 55.1047C210.06 55.6159 208.07 55.7123 206.129 55.3873C205.491 55.2767 204.862 55.1193 204.248 54.9162C203.746 54.7581 203.259 54.5596 202.79 54.3225C202.477 54.1694 202.183 53.9796 201.915 53.7572C201.72 53.5672 201.583 53.3252 201.52 53.0599C201.426 52.6618 201.385 52.2531 201.398 51.8443C201.38 51.5776 201.38 51.3101 201.398 51.0434C201.423 50.8662 201.467 50.6925 201.53 50.5251C201.566 50.4082 201.639 50.3058 201.736 50.233C201.83 50.1766 201.938 50.1472 202.047 50.1482C202.341 50.1922 202.619 50.3088 202.856 50.4874C203.213 50.7041 203.645 50.9586 204.172 51.2225C204.778 51.5189 205.408 51.7648 206.054 51.9574C206.85 52.1925 207.678 52.3038 208.508 52.2871C209.143 52.2918 209.774 52.219 210.39 52.0705C210.915 51.9363 211.411 51.7098 211.857 51.4015C212.261 51.1222 212.585 50.7421 212.797 50.299C213.033 49.8021 213.149 49.2566 213.136 48.7065C213.158 48.1355 212.985 47.5741 212.647 47.114C212.296 46.6539 211.862 46.2639 211.368 45.9645C210.798 45.6188 210.201 45.3225 209.58 45.0787L207.559 44.2872C206.856 44.0097 206.168 43.6952 205.499 43.3449C204.835 42.9887 204.228 42.5379 203.693 42.0069C203.108 41.4362 202.647 40.749 202.343 39.9895C202.039 39.23 201.895 38.415 201.924 37.597C201.922 36.7295 202.095 35.8705 202.433 35.0716C202.785 34.2679 203.312 33.5531 203.975 32.9797C204.719 32.3272 205.58 31.8249 206.515 31.5003C207.663 31.1139 208.869 30.929 210.079 30.9539C210.678 30.9541 211.275 31.0014 211.866 31.0952C212.414 31.1847 212.954 31.3107 213.484 31.4721C213.909 31.5984 214.32 31.7625 214.716 31.9621C214.988 32.0904 215.246 32.245 215.487 32.4238C215.624 32.5172 215.743 32.6355 215.836 32.7724C215.894 32.8754 215.935 32.9867 215.958 33.1023C215.958 33.2247 215.958 33.385 216.033 33.564C216.045 33.7868 216.045 34.0102 216.033 34.233V34.968C216.015 35.1464 215.971 35.321 215.901 35.4862C215.861 35.5986 215.789 35.6969 215.695 35.7689C215.614 35.8238 215.519 35.8533 215.422 35.8537C215.184 35.8233 214.96 35.7289 214.772 35.5805C214.424 35.3595 214.059 35.1642 213.682 34.9962C213.17 34.7632 212.642 34.5678 212.102 34.4121C211.428 34.2216 210.732 34.1296 210.032 34.1388C209.397 34.124 208.763 34.2035 208.151 34.3744C207.674 34.5041 207.228 34.7319 206.844 35.0434C206.514 35.3277 206.251 35.6816 206.072 36.0799C205.901 36.4883 205.815 36.9277 205.818 37.3708C205.794 37.9553 205.97 38.5305 206.317 39.001C206.671 39.4639 207.108 39.8569 207.605 40.16C208.18 40.5304 208.787 40.8459 209.421 41.1022L211.49 41.922C212.195 42.2047 212.892 42.5157 213.578 42.8643C214.247 43.2 214.864 43.6283 215.412 44.1364C215.997 44.6818 216.456 45.3473 216.76 46.0874C217.064 46.8273 217.204 47.6244 217.171 48.4238L217.218 48.3861Z" fill="white"/>
</g>
<defs>
<clipPath id="clip0_1092_453">
<rect width="250.963" height="88" fill="white" transform="translate(0.529541)"/>
</clipPath>
</defs>
</svg>
