<svg width="202" height="88" viewBox="0 0 202 88" fill="none" xmlns="http://www.w3.org/2000/svg">
<g clip-path="url(#clip0_1092_484)">
<path d="M200.967 76.0753C201.15 75.9293 201.297 75.7426 201.395 75.5299C201.498 75.2366 201.544 74.926 201.529 74.6153V44.6791C201.543 44.3629 201.498 44.047 201.395 43.7477C201.3 43.5398 201.153 43.3603 200.967 43.2275C200.514 42.8807 199.462 42.7073 197.812 42.7073C196.162 42.7073 195.094 42.8807 194.607 43.2275C194.421 43.3603 194.274 43.5398 194.179 43.7477C194.085 44.0486 194.048 44.3645 194.07 44.6791V74.6324C194.044 74.8978 194.077 75.1658 194.167 75.4169C194.257 75.6679 194.401 75.8958 194.59 76.0839C195.043 76.4307 196.112 76.6041 197.795 76.6041C199.479 76.6041 200.536 76.4276 200.967 76.0753ZM178.632 76.2431C180.19 75.737 181.621 74.9014 182.827 73.7931C183.923 72.7789 184.762 71.5195 185.277 70.1182C185.803 68.6225 186.064 67.0468 186.049 65.4616V44.6789C186.082 44.4107 186.051 44.1386 185.961 43.8839C185.871 43.6292 185.723 43.3988 185.529 43.2106C185.037 42.8638 183.985 42.6904 182.374 42.6904C180.763 42.6904 179.695 42.8638 179.169 43.2106C178.975 43.3365 178.823 43.5177 178.733 43.7308C178.621 44.0344 178.564 44.3554 178.565 44.6789V65.3692C178.56 66.2258 178.415 67.0759 178.137 67.8863C177.8 68.8045 177.133 69.5642 176.266 70.0174C175.089 70.6272 173.773 70.9166 172.449 70.8564C171.499 70.8765 170.553 70.7433 169.646 70.462C168.937 70.2394 168.289 69.8578 167.75 69.3461C167.252 68.8601 166.878 68.2616 166.659 67.601C166.423 66.878 166.307 66.1213 166.315 65.3608V44.6786C166.348 44.4103 166.318 44.1382 166.227 43.8835C166.137 43.6288 165.989 43.3984 165.795 43.2103C165.303 42.8635 164.251 42.6901 162.64 42.6901C161.03 42.6901 159.961 42.8635 159.435 43.2103C159.241 43.3362 159.089 43.5174 158.999 43.7305C158.91 44.0381 158.876 44.3591 158.898 44.6786V65.4527C158.884 67.0379 159.145 68.6136 159.67 70.1093C160.171 71.5193 160.999 72.7904 162.087 73.8178C163.296 74.914 164.727 75.738 166.282 76.2342C170.309 77.4088 174.588 77.4088 178.616 76.2342L178.632 76.2431ZM142.034 76.0753C142.214 75.9307 142.356 75.7432 142.445 75.5299C142.541 75.2351 142.584 74.9253 142.571 74.6153V49.0668H150.038C150.491 49.0792 150.943 49.0255 151.381 48.9073C151.553 48.85 151.712 48.7589 151.849 48.6394C151.986 48.5198 152.098 48.3742 152.178 48.2109C152.446 47.6293 152.621 47.0093 152.698 46.3735C152.805 45.7524 152.867 45.1242 152.882 44.4941C152.893 44.1915 152.859 43.889 152.782 43.5963C152.717 43.3814 152.577 43.1968 152.387 43.0761C152.226 42.984 152.05 42.9215 151.867 42.8915C151.542 42.8449 151.214 42.8252 150.885 42.8328H127.636C127.183 42.8203 126.731 42.8741 126.294 42.9922C126.114 43.045 125.946 43.134 125.802 43.2538C125.658 43.3735 125.54 43.5215 125.455 43.6886C125.196 44.1941 125.02 44.7381 124.934 45.2995C124.811 45.9834 124.749 46.677 124.75 47.3719C124.751 47.6877 124.799 48.0015 124.892 48.3032C124.959 48.5224 125.106 48.7082 125.304 48.8234C125.774 49.0265 126.287 49.1101 126.797 49.0668H135.112V74.5983C135.078 74.8703 135.112 75.1464 135.21 75.4023C135.308 75.6583 135.467 75.8863 135.674 76.0666C136.127 76.4134 137.195 76.5868 138.879 76.5868C140.563 76.5868 141.611 76.419 142.025 76.0833L142.034 76.0753Z" fill="white"/>
<path d="M110.591 9.69914C110.591 12.2715 109.569 14.7385 107.75 16.5575C105.931 18.3764 103.464 19.3983 100.892 19.3983C98.3196 19.3983 95.8526 18.3764 94.0336 16.5575C92.2147 14.7385 91.1928 12.2715 91.1928 9.69914C91.1928 7.12677 92.2147 4.65975 94.0336 2.84081C95.8526 1.02187 98.3196 0 100.892 0C103.464 0 105.931 1.02187 107.75 2.84081C109.569 4.65975 110.591 7.12677 110.591 9.69914ZM5.7988 24.5078H31.9682C34.5524 24.5078 36.4654 25.3468 37.2204 28.963C38.0594 33.0155 37.7406 35.8347 33.1595 36.1536L24.9372 36.7409C30.9951 74.9166 66.3181 87.3689 85.5562 46.2301C88.7445 39.4258 89.7513 38.1841 93.2666 39.0481C97.9904 40.2227 98.6364 42.6726 96.371 49.5107C79.7666 100.219 23.8724 105.308 12.9069 37.6049L6.25329 38.0832C0.824804 38.4691 0.606801 33.888 0.606801 31.3708C0.590021 26.3115 2.46103 24.5077 5.8002 24.5077L5.7988 24.5078Z" fill="white"/>
</g>
<defs>
<clipPath id="clip0_1092_484">
<rect width="200.925" height="88" fill="white" transform="translate(0.604858)"/>
</clipPath>
</defs>
</svg>
