<svg width="305" height="71" viewBox="0 0 305 71" fill="none" xmlns="http://www.w3.org/2000/svg">
<path d="M53.9199 16.0508H59.68V32.6835C59.68 34.3264 59.9419 35.7577 60.4658 36.98C60.9887 38.2019 61.7323 39.1464 62.6978 39.8139C63.6634 40.4809 64.8031 40.8142 66.117 40.8142C68.1087 40.8142 70.0079 40.0763 71.8151 38.5972C72.6361 37.9193 73.2787 37.0105 73.7402 35.8713C74.2021 34.7315 74.4335 33.4223 74.4335 31.9442V16.0508H80.1626V45.4966H74.7414L74.4335 41.0921C73.674 42.6322 72.4465 43.8536 70.7524 44.7573C69.0583 45.6609 67.2361 46.1125 65.2852 46.1125C61.6515 46.1125 58.8482 44.9995 56.8767 42.7707C54.9052 40.5433 53.9199 37.3964 53.9199 33.3299V16.0508Z" fill="white"/>
<path d="M89.7412 45.4971V16.0508H95.1624L95.4699 20.4553C96.8053 17.7036 99.8748 16.3282 104.68 16.3282C106.959 16.3282 108.976 16.8976 110.732 18.0378C112.488 19.1775 113.838 20.7022 114.782 22.6108C115.686 24.5007 116.106 26.4511 116.045 28.4635L115.552 45.5586L109.978 45.4971L110.285 28.8334C110.326 26.3901 109.818 24.5265 108.76 23.2431C107.704 21.9598 106.147 21.3181 104.095 21.3181C102.78 21.3181 101.625 21.4415 100.63 21.6875C99.634 21.9339 98.7862 22.3541 98.0882 22.9502C97.1846 23.6891 96.4659 24.6443 95.9322 25.815C95.3985 26.9858 95.1417 28.248 95.1624 29.6037L95.4699 45.4971H89.7412Z" fill="white"/>
<path d="M130.616 16.0508H125.256V45.4966H130.924L130.616 16.0508Z" fill="white"/>
<path d="M154.545 45.4971H149.001L136.773 16.0508H142.81L151.773 37.2424L160.674 16.0508H166.804L154.483 45.4971H154.545Z" fill="white"/>
<path d="M172.639 22.7794C173.943 20.4488 175.756 18.6261 178.075 17.3131C180.375 16.0396 182.942 15.4031 185.776 15.4031C188.59 15.4031 191.104 16.034 193.322 17.2972C195.539 18.5599 197.275 20.3512 198.527 22.6715C199.779 24.9725 200.406 27.6411 200.406 30.6801C200.406 31.1519 200.345 31.5115 200.222 31.7579C200.098 32.0245 200.036 32.2099 200.036 32.3127L176.443 32.9286C176.669 34.5307 177.218 35.9422 178.09 37.1641C178.964 38.3851 180.077 39.3248 181.433 39.9815C182.808 40.6397 184.317 40.9682 185.96 40.9682C187.336 40.9682 188.465 40.88 189.349 40.7063C190.232 40.5308 191.001 40.2078 191.658 39.7356C192.315 39.3046 192.922 38.6062 193.475 37.6415C193.969 37.826 195.139 37.9185 196.987 37.9185H198.004C198.764 37.9185 199.204 37.9499 199.328 38.0114C198.097 40.4955 196.32 42.4159 194 43.7702C191.679 45.1258 189.04 45.8032 186.083 45.8032C183.25 45.8032 180.658 45.1671 178.306 43.8946C175.955 42.6211 174.102 40.8448 172.747 38.5658C171.371 36.307 170.684 33.6783 170.684 30.6801C170.684 27.7435 171.335 25.1101 172.639 22.7794ZM194.709 28.4621C194.483 26.861 193.948 25.464 193.106 24.2731C192.265 23.0822 191.176 22.1692 189.842 21.5322C188.547 20.8966 187.09 20.5765 185.468 20.5765C183.024 20.5765 181.048 21.2651 179.538 22.641C178.03 24.0168 177.1 25.9578 176.751 28.4621H194.709Z" fill="white"/>
<path d="M207.708 45.497V16.0508H213.128L213.437 22.6728C214.114 20.3121 215.131 18.5762 216.486 17.4679C217.841 16.3587 219.556 15.8043 221.63 15.8043C224.279 15.8043 225.983 16.0508 226.743 16.5441L225.849 21.595C225.274 21.3072 224.674 21.1176 224.047 21.0251C223.421 20.9336 222.574 20.8867 221.506 20.8867C219.72 20.8867 218.154 21.4978 216.81 22.7188C215.465 23.9411 214.515 25.5991 213.96 27.6941C213.735 28.5357 213.591 29.4234 213.53 30.358C213.468 31.2921 213.437 32.7652 213.437 34.778V45.497H207.708Z" fill="white"/>
<path d="M235.676 36.6557C235.778 37.3336 236.045 37.9753 236.475 38.5803C236.908 39.1864 237.442 39.6637 238.078 40.0135C238.694 40.3829 239.275 40.6495 239.818 40.8138C240.362 40.9776 240.994 41.0602 241.712 41.0602C242.287 41.0602 242.627 41.0495 242.728 41.0293C244.145 40.9265 245.249 40.558 246.039 39.9205C246.83 39.284 247.225 38.4414 247.225 37.3946C247.225 36.43 246.872 35.5977 246.164 34.9006C245.455 34.2012 244.505 33.7186 243.314 33.4525L239.279 32.4972C236.548 31.7785 234.541 30.7308 233.257 29.3559C231.975 27.9801 231.332 26.224 231.332 24.0886L231.394 22.9179C231.517 21.5421 232.057 20.2798 233.011 19.1302C233.966 17.9797 235.213 17.0662 236.753 16.3884C238.293 15.7312 239.916 15.4031 241.62 15.4031C244.309 15.4031 246.569 16.0293 248.396 17.2817C249.3 17.8778 250.014 18.7552 250.537 19.9155C251.061 21.0755 251.383 22.4461 251.507 24.0271L246.332 23.7192C246.189 22.6715 245.737 21.8556 244.976 21.2703C244.218 20.6849 243.242 20.3925 242.051 20.3925C240.922 20.3925 239.9 20.6436 238.987 21.1478C238.073 21.65 237.514 22.2819 237.308 23.0414C237.185 23.4728 237.124 23.976 237.124 24.551C237.124 24.8801 237.205 25.1561 237.369 25.3823C237.821 26.3474 238.982 27.0976 240.85 27.6308L245.193 28.7091C250.285 29.9826 252.832 32.8469 252.832 37.3031C252.832 39.0061 252.333 40.5308 251.337 41.8761C250.341 43.2214 248.961 44.2631 247.194 45.0024C245.45 45.7412 243.519 46.1116 241.404 46.1116C239.515 46.1116 237.77 45.7412 236.168 45.0024C234.567 44.2631 233.243 43.1862 232.195 41.7686C231.723 41.1316 231.374 40.3721 231.148 39.4891C230.922 38.6062 230.789 37.5598 230.747 36.3478L235.676 36.6557Z" fill="white"/>
<path d="M260.329 22.7175C261.674 20.3258 263.506 18.5026 265.826 17.2507C268.086 16.0189 270.57 15.4031 273.281 15.4031C275.519 15.4031 277.572 15.8547 279.441 16.7578C281.309 17.6619 282.695 18.8936 283.598 20.454V15.7411H289.296V45.4957H284.522L283.598 40.9673C282.675 42.5488 281.273 43.8021 279.395 44.7254C277.516 45.6492 275.477 46.1116 273.281 46.1116C270.529 46.1116 268.013 45.4596 265.734 44.1556C263.455 42.8511 261.647 41.0293 260.313 38.6883C258.979 36.3272 258.311 33.6783 258.311 30.7416C258.311 27.7843 258.983 25.1105 260.329 22.7175ZM265.519 35.67C266.402 37.1683 267.613 38.3503 269.154 39.2117C270.673 40.075 272.315 40.5049 274.081 40.5049C275.888 40.5049 277.51 40.1003 278.947 39.2887C280.385 38.4785 281.515 37.3336 282.336 35.8545C283.137 34.3763 283.537 32.6512 283.537 30.6797C283.537 28.7701 283.071 27.0445 282.136 25.5053C281.202 23.9652 279.964 22.8156 278.424 22.0561C277.685 21.6862 276.976 21.4191 276.298 21.2548C275.621 21.091 274.882 21.0083 274.081 21.0083C272.274 21.0083 270.616 21.4191 269.106 22.2401C267.598 23.0611 266.402 24.2013 265.519 25.6593C264.636 27.1173 264.194 28.7912 264.194 30.6797C264.194 32.5071 264.636 34.1711 265.519 35.67Z" fill="white"/>
<path d="M298.875 45.4932H304.605V0.338916L298.875 0V45.4932Z" fill="white"/>
<path d="M124.116 7.33627C124.116 6.28948 124.502 5.40557 125.271 4.68643C126.041 3.9687 126.981 3.60913 128.09 3.60913C129.198 3.60913 130.138 3.9687 130.909 4.68643C131.678 5.40557 132.063 6.28948 132.063 7.33627C132.063 8.38306 131.678 9.2665 130.909 9.98564C130.138 10.7034 129.198 11.0634 128.09 11.0634C127.001 11.0634 126.067 10.7034 125.286 9.98564C124.506 9.2665 124.116 8.38306 124.116 7.33627Z" fill="white"/>
<path d="M63.5874 66.4227C63.5874 68.5013 61.92 70.1677 59.842 70.1677H53.9199V56.4402H59.3904C61.391 56.4402 62.9987 58.0681 62.9987 60.049C62.9987 61.3826 62.2932 62.4806 61.2338 63.049C62.6068 63.5795 63.5874 64.8539 63.5874 66.4227ZM54.9583 57.4199V62.6768H59.3904C60.8024 62.6768 61.9595 61.4995 61.9595 60.049C61.9595 58.5976 60.8024 57.4199 59.3904 57.4199H54.9583ZM62.5481 66.4227C62.5481 64.8934 61.3319 63.6574 59.842 63.6574H54.9583V69.188H59.842C61.3319 69.188 62.5481 67.9525 62.5481 66.4227Z" fill="white"/>
<path d="M76.0008 69.188V70.1682H68.0974V56.4402H75.9037V57.4203H69.1371V62.7552H75.4127V63.7358H69.1371V69.188H76.0008Z" fill="white"/>
<path d="M88.6147 66.6771H81.7313L80.3977 70.1686H79.2988L84.6332 56.4402H85.7321L91.0462 70.1686H89.9478L88.6147 66.6771ZM88.2424 65.697L85.1833 57.7142L82.1233 65.697H88.2424Z" fill="white"/>
<path d="M93.7339 63.3092C93.7339 59.3867 96.6958 56.229 100.873 56.229C103.403 56.229 105.618 57.5241 106.756 59.5248L105.834 60.0538C104.933 58.3672 103.03 57.2293 100.873 57.2293C97.2638 57.2293 94.7736 59.936 94.7736 63.3092C94.7736 66.6824 97.2638 69.389 100.873 69.389C103.05 69.389 104.972 68.2319 105.874 66.5054L106.795 67.0354C105.678 69.0548 103.443 70.3898 100.873 70.3898C96.6958 70.3898 93.7339 67.2316 93.7339 63.3092Z" fill="white"/>
<path d="M121.275 56.4402V70.1686H120.235V63.5987H112.254V70.1686H111.213V56.4402H112.254V62.6181H120.235V56.4402H121.275Z" fill="white"/>
<path d="M143.911 56.4402V70.1686H142.872V63.5987H134.891V70.1686H133.851V56.4402H134.891V62.6181H142.872V56.4402H143.911Z" fill="white"/>
<path d="M148.504 63.3092C148.504 59.3867 151.623 56.229 155.586 56.229C159.546 56.229 162.665 59.3867 162.665 63.3092C162.665 67.2316 159.546 70.3898 155.586 70.3898C151.623 70.3898 148.504 67.2316 148.504 63.3092ZM161.626 63.3092C161.626 59.936 158.977 57.2293 155.586 57.2293C152.192 57.2293 149.545 59.936 149.545 63.3092C149.545 66.6824 152.192 69.389 155.586 69.389C158.977 69.389 161.626 66.6824 161.626 63.3092Z" fill="white"/>
<path d="M174.905 57.4199H170.589V70.1677H169.53V57.4199H165.216V56.4402H174.905V57.4199Z" fill="white"/>
<path d="M186.927 69.188V70.1682H179.024V56.4402H186.83V57.4203H180.064V62.7552H186.339V63.7358H180.064V69.188H186.927Z" fill="white"/>
<path d="M198.95 69.188V70.1682H191.44V56.4402H192.478V69.188H198.95Z" fill="white"/>
<path d="M201.856 67.1523L202.758 66.6228C203.229 68.2695 204.621 69.3872 206.877 69.3872C209.171 69.3872 210.328 68.2113 210.328 66.6416C210.328 64.9944 208.877 64.3673 206.779 63.6998C204.484 62.9548 202.425 62.308 202.425 59.9154C202.425 57.6594 204.249 56.2281 206.582 56.2281C208.838 56.2281 210.328 57.5228 210.995 59.1113L210.112 59.6018C209.603 58.3663 208.543 57.2289 206.582 57.2289C204.68 57.2289 203.483 58.3466 203.483 59.876C203.483 61.5236 204.877 62.0334 206.837 62.6798C209.27 63.4839 211.387 64.2485 211.387 66.6228C211.387 68.8976 209.603 70.3885 206.877 70.3885C204.308 70.3885 202.484 69.0938 201.856 67.1523Z" fill="white"/>
<path d="M38.77 18.5094C38.77 18.293 38.7536 18.0804 38.7217 17.8724C36.5229 4.51669 26.342 1.04726 26.342 1.04726C29.963 3.39198 33.5887 10.5017 34.3186 14.2988C40.7997 48.0332 31.5693 63.3262 31.5688 63.3304L31.5683 63.3309C31.7134 61.9362 31.8308 58.7353 31.8317 58.6616C31.8308 58.6724 31.8303 58.6935 31.8298 58.7076C32.0101 44.8965 27.0465 28.4751 17.6931 15.4981C17.4392 15.1221 17.1486 14.7245 16.8116 14.2988C8.78754 4.16698 20.7227 0 20.7227 0C-1.36152 5.57757 6.7489 18.3677 8.43314 20.0796C18.5939 30.4048 30.5244 49.6024 29.3316 67.081H29.3312C29.3391 66.6083 29.3297 67.0744 29.3312 67.0801C26.6898 56.4356 17.903 43.6188 8.43314 35.558C1.87317 29.8894 4.47697 21.7179 4.47697 21.7179C-6.13586 36.7306 8.43126 46.1259 8.43314 46.1269C15.9591 50.8651 26.9095 58.5513 27.5784 68.7479C27.5784 68.7479 20.1261 66.1811 18.1762 65.1404C15.5038 63.7139 11.6199 61.3457 9.13349 58.448C4.98909 53.6182 8.03977 49.0133 8.03977 49.0133C4.35211 54.7472 3.26543 58.0969 8.77017 62.3554C17.2702 68.7235 29.586 70.388 29.586 70.388C29.586 70.388 30.7661 69.4375 32.8404 66.3731C34.995 63.1905 37.5326 57.1121 38.8409 50.8412C41.8282 36.5264 38.77 18.5094 38.77 18.5094Z" fill="white"/>
</svg>
