<svg width="205" height="72" viewBox="0 0 205 72" fill="none" xmlns="http://www.w3.org/2000/svg">
<path fill-rule="evenodd" clip-rule="evenodd" d="M36 60C49.2548 60 60 49.2548 60 36C60 22.7452 49.2548 12 36 12C22.7452 12 12 22.7452 12 36C12 49.2548 22.7452 60 36 60ZM33.893 34.6826L28.0869 23.2544C30.118 21.9906 32.4728 21.199 35 21.0328V34.5441C34.6224 34.5825 34.2534 34.6289 33.893 34.6826ZM37 34.4184V21.0328C39.5225 21.1987 41.8732 21.9876 43.9016 23.2473L38.0678 34.4111C37.7053 34.4069 37.3494 34.4095 37 34.4184ZM40.2715 34.5123L45.5423 24.426C47.0814 25.6965 48.3627 27.2678 49.296 29.0492L41.0678 34.5749C40.7863 34.5515 40.52 34.5306 40.2715 34.5123ZM44.1912 34.8865L50.1142 30.9089C50.6874 32.4975 51 34.2113 51 36L51 36.0272C48.9101 35.5181 46.4109 35.1449 44.1912 34.8865ZM41.2466 36.5973C42.4585 36.7028 43.9028 36.853 45.3866 37.0513C44.8055 37.1917 44.2509 37.3516 43.7246 37.5299C41.4733 38.2928 39.6714 39.4176 38.5563 40.8711C37.4136 42.3606 37.0377 44.144 37.5892 46.0241C38.0141 47.4727 38.9711 48.9219 40.4363 50.3334C39.0352 50.7666 37.5455 51 36 51C30.991 51 26.5549 48.5456 23.8292 44.7696C24.3453 42.8376 25.8076 39.1808 30.9888 37.418C31.3488 37.2955 31.7277 37.1818 32.1267 37.0781C32.5696 36.9631 33.0315 36.8606 33.5132 36.7725C33.694 36.7395 33.8776 36.7084 34.064 36.6795C34.5018 36.6116 34.9554 36.5555 35.425 36.5122C35.635 36.4929 35.8482 36.4761 36.0647 36.4621C36.348 36.4437 36.6368 36.43 36.9313 36.4211C37.4791 36.4046 38.0467 36.4049 38.6347 36.4238C38.9842 36.4349 39.341 36.4527 39.7051 36.4773C40.1466 36.5071 40.6678 36.5469 41.2466 36.5973ZM39.5083 45.4611C39.8594 46.6579 40.7875 48.0418 42.5121 49.5168C46.8601 47.418 50.0395 43.2838 50.8164 38.3545C48.2944 38.4458 46.1224 38.8291 44.3664 39.4242C42.3424 40.11 40.9371 41.0536 40.1431 42.0884C39.3768 43.0873 39.142 44.2124 39.5083 45.4611ZM28.6672 36.2011C25.0727 37.9002 23.3497 40.4835 22.4885 42.5231C21.5347 40.5513 21 38.339 21 36C21 34.2425 21.3019 32.5572 21.8561 30.992L28.6672 36.2011ZM30.8581 35.3588L22.6766 29.1017C23.6095 27.3038 24.8961 25.718 26.4444 24.437L31.8536 35.0841C31.7766 35.1032 31.6999 35.1226 31.6238 35.1424C31.3619 35.2104 31.1068 35.2826 30.8581 35.3588ZM36 19C32.3591 19 28.9829 20.1457 26.2159 22.0962C23.751 23.8337 21.7685 26.2105 20.5096 28.987C19.5396 31.1264 19 33.5015 19 36C19 39.5303 20.0772 42.8121 21.9209 45.5307C24.9765 50.0361 30.1419 53 36 53C38.3988 53 40.6841 52.5026 42.7561 51.6043C48.3706 49.1703 52.4156 43.7939 52.9418 37.4156L52.9433 37.3985C52.9809 36.9371 53 36.4707 53 36C53 33.4989 52.4593 31.1215 51.4874 28.9804C50.2279 26.2057 48.2456 23.8305 45.7813 22.0942C43.0149 20.1449 39.6396 19 36 19Z" fill="black"/>
<path d="M85.504 49.384C87.2107 49.384 88.736 49.096 90.08 48.52C91.4453 47.944 92.5973 47.1867 93.536 46.248C94.4747 45.288 95.1467 44.2427 95.552 43.112L91.648 41.288C91.1787 42.4827 90.4107 43.4747 89.344 44.264C88.2987 45.032 87.0187 45.416 85.504 45.416C84.0107 45.416 82.6987 45.064 81.568 44.36C80.4373 43.656 79.552 42.6853 78.912 41.448C78.272 40.1893 77.952 38.728 77.952 37.064C77.952 35.4 78.272 33.9493 78.912 32.712C79.552 31.4533 80.4373 30.4827 81.568 29.8C82.6987 29.096 84.0107 28.744 85.504 28.744C87.0187 28.744 88.2987 29.1387 89.344 29.928C90.4107 30.696 91.1787 31.6773 91.648 32.872L95.552 31.048C95.1467 29.9173 94.4747 28.8827 93.536 27.944C92.5973 26.984 91.4453 26.216 90.08 25.64C88.736 25.064 87.2107 24.776 85.504 24.776C83.7973 24.776 82.2187 25.0853 80.768 25.704C79.3173 26.3013 78.0587 27.1547 76.992 28.264C75.9253 29.352 75.0933 30.6533 74.496 32.168C73.8987 33.6613 73.6 35.2933 73.6 37.064C73.6 38.8347 73.8987 40.4773 74.496 41.992C75.0933 43.4853 75.9253 44.7867 76.992 45.896C78.0587 47.0053 79.3173 47.8693 80.768 48.488C82.2187 49.0853 83.7973 49.384 85.504 49.384ZM103.701 49.384C105.962 49.384 107.775 48.6373 109.141 47.144V49H113.109V37.416C113.109 36.2 112.799 35.1227 112.181 34.184C111.562 33.2453 110.709 32.52 109.621 32.008C108.554 31.4747 107.306 31.208 105.877 31.208C104.127 31.208 102.57 31.624 101.205 32.456C99.8394 33.288 98.9008 34.3867 98.3888 35.752L101.813 37.416C102.133 36.6267 102.634 35.9973 103.317 35.528C103.999 35.0373 104.799 34.792 105.717 34.792C106.677 34.792 107.445 35.048 108.021 35.56C108.618 36.0507 108.917 36.6693 108.917 37.416V37.992L103.733 38.824C101.685 39.1653 100.17 39.816 99.1888 40.776C98.2074 41.736 97.7168 42.9413 97.7168 44.392C97.7168 45.928 98.2608 47.144 99.3488 48.04C100.437 48.936 101.887 49.384 103.701 49.384ZM102.069 44.232C102.069 43.016 102.89 42.248 104.533 41.928L108.917 41.192V41.896C108.917 43.0907 108.501 44.104 107.669 44.936C106.858 45.768 105.791 46.184 104.469 46.184C103.765 46.184 103.189 46.0133 102.741 45.672C102.293 45.3093 102.069 44.8293 102.069 44.232ZM116.983 49H121.175V38.792C121.175 37.6613 121.485 36.7547 122.103 36.072C122.722 35.3893 123.533 35.048 124.535 35.048C125.559 35.048 126.37 35.3893 126.967 36.072C127.586 36.7333 127.895 37.64 127.895 38.792V49H132.087V38.792C132.087 37.6613 132.397 36.7547 133.015 36.072C133.634 35.3893 134.445 35.048 135.447 35.048C136.471 35.048 137.282 35.3893 137.879 36.072C138.498 36.7333 138.807 37.64 138.807 38.792V49H142.999V37.8C142.999 36.4987 142.711 35.3573 142.135 34.376C141.581 33.3733 140.823 32.5947 139.863 32.04C138.903 31.4853 137.805 31.208 136.567 31.208C135.415 31.208 134.37 31.4427 133.431 31.912C132.514 32.3813 131.757 33.0853 131.159 34.024C130.647 33.1707 129.911 32.488 128.951 31.976C128.013 31.464 126.957 31.208 125.783 31.208C124.695 31.208 123.725 31.4213 122.871 31.848C122.018 32.2747 121.367 32.9147 120.919 33.768V31.592H116.983V49ZM146.546 29.64H150.738V25.16H146.546V29.64ZM146.546 49H150.738V31.592H146.546V49ZM154.608 49H158.8V38.792C158.8 37.6613 159.12 36.7547 159.76 36.072C160.422 35.3893 161.275 35.048 162.32 35.048C163.366 35.048 164.208 35.3893 164.848 36.072C165.51 36.7333 165.84 37.64 165.84 38.792V49H170.032V37.8C170.032 36.4987 169.755 35.3573 169.2 34.376C168.646 33.3733 167.867 32.5947 166.864 32.04C165.883 31.4853 164.752 31.208 163.472 31.208C162.384 31.208 161.403 31.4213 160.528 31.848C159.675 32.2747 159.014 32.904 158.544 33.736V31.592H154.608V49ZM182.089 49.384C183.774 49.384 185.31 49 186.697 48.232C188.084 47.4427 189.193 46.3653 190.025 45C190.857 43.6133 191.273 42.0453 191.273 40.296C191.273 38.5467 190.857 36.9893 190.025 35.624C189.214 34.2587 188.116 33.1813 186.729 32.392C185.342 31.6027 183.796 31.208 182.089 31.208C180.361 31.208 178.804 31.6027 177.417 32.392C176.03 33.1813 174.921 34.2587 174.089 35.624C173.278 36.9893 172.873 38.5467 172.873 40.296C172.873 42.0453 173.278 43.6027 174.089 44.968C174.921 46.3333 176.03 47.4107 177.417 48.2C178.825 48.9893 180.382 49.384 182.089 49.384ZM182.089 45.544C181.15 45.544 180.308 45.32 179.561 44.872C178.836 44.424 178.26 43.8053 177.833 43.016C177.428 42.2053 177.225 41.2987 177.225 40.296C177.225 39.2933 177.428 38.3973 177.833 37.608C178.26 36.8187 178.836 36.2 179.561 35.752C180.308 35.2827 181.15 35.048 182.089 35.048C183.028 35.048 183.849 35.2827 184.553 35.752C185.278 36.2 185.844 36.8187 186.249 37.608C186.676 38.3973 186.889 39.2933 186.889 40.296C186.889 41.2987 186.676 42.2053 186.249 43.016C185.844 43.8053 185.278 44.424 184.553 44.872C183.849 45.32 183.028 45.544 182.089 45.544Z" fill="black"/>
</svg>
