<svg width="247" height="40" viewBox="0 0 247 40" fill="none" xmlns="http://www.w3.org/2000/svg">
<path fill-rule="evenodd" clip-rule="evenodd" d="M10.781 5.06214L17.5563 18.3982C17.9539 18.3395 18.3603 18.2884 18.7755 18.2455V2.49099C15.8555 2.69205 13.1337 3.60679 10.781 5.06214ZM21.2245 2.49099V18.0918C21.6082 18.0826 21.9986 18.0799 22.3958 18.0841L29.2051 5.05354C26.8555 3.60319 24.1387 2.69165 21.2245 2.49099ZM31.2136 6.49775L25.0937 18.2091C25.3577 18.2288 25.6384 18.2508 25.9333 18.2753L35.536 11.8266C34.4557 9.77767 32.9813 7.96759 31.2136 6.49775ZM36.5367 14.1046L29.7551 18.6587C32.3041 18.9588 35.1518 19.3872 37.551 19.967C37.5472 17.9091 37.1897 15.9362 36.5367 14.1046ZM30.7408 21.2489C29.0952 21.0338 27.5014 20.8692 26.1523 20.7518C25.4734 20.6927 24.8621 20.646 24.3444 20.611C23.9177 20.5821 23.4997 20.5614 23.0901 20.5483C22.4011 20.5262 21.7362 20.5258 21.0944 20.5451C20.7494 20.5555 20.411 20.5716 20.0793 20.5932C19.8257 20.6096 19.5759 20.6292 19.33 20.6519C18.7799 20.7025 18.2487 20.7683 17.7359 20.8478L17.5483 19.6378L17.7359 20.8478C17.5176 20.8817 17.3027 20.918 17.091 20.9567C16.527 21.0598 15.9861 21.1798 15.4676 21.3145C15.0006 21.4358 14.5571 21.569 14.1359 21.7123C8.09959 23.766 6.38234 28.0161 5.77345 30.2806C8.96401 34.6878 14.1478 37.551 20 37.551C21.7781 37.551 23.493 37.287 25.1083 36.7964C23.4194 35.1546 22.3116 33.4674 21.8159 31.7773C21.164 29.555 21.6088 27.4454 22.9593 25.685C24.276 23.9687 26.4006 22.6441 29.0482 21.747C29.5877 21.5642 30.1523 21.3979 30.7408 21.2489ZM27.6496 35.801C25.6468 34.0824 24.5724 32.4739 24.1659 31.088C23.7407 29.6387 24.0127 28.3353 24.9023 27.1757C25.8258 25.9719 27.4648 24.8693 29.8341 24.0665C31.8748 23.375 34.3974 22.9272 37.3264 22.8162C36.4026 28.5453 32.7037 33.3495 27.6496 35.801ZM4.14203 27.5311C5.1643 25.1603 7.1771 22.1978 11.2979 20.2258L3.42733 14.2065C2.79372 16.0191 2.44898 17.9683 2.44898 20C2.44898 22.6968 3.05648 25.2497 4.14203 27.5311ZM4.43044 11.8906L13.9763 19.1911C14.2609 19.1043 14.5526 19.022 14.8518 18.9442C14.9208 18.9263 14.9902 18.9086 15.0598 18.8912L8.77025 6.5112C6.99133 7.99392 5.51046 9.82158 4.43044 11.8906ZM8.48928 3.64256C11.7445 1.34789 15.7167 0 20 0C24.2819 0 28.2528 1.34698 31.5075 3.64025C34.4065 5.68299 36.7386 8.47724 38.2204 11.7416C39.3638 14.2606 40 17.0577 40 20C40 20.5537 39.9775 21.1024 39.9332 21.6452L39.9316 21.6654C39.3125 29.1694 34.5536 35.4944 27.9484 38.3579C25.5106 39.4148 22.822 40 20 40C13.1081 40 7.03107 36.513 3.43644 31.2126C1.2673 28.0142 0 24.1532 0 20C0 17.0607 0.63485 14.2663 1.77608 11.7494C3.25712 8.48291 5.58941 5.68672 8.48928 3.64256Z" fill="url(#paint0_linear_5323_14674)"/>
<path d="M60.128 30.288C61.408 30.288 62.552 30.072 63.56 29.64C64.584 29.208 65.448 28.64 66.152 27.936C66.856 27.216 67.36 26.432 67.664 25.584L64.736 24.216C64.384 25.112 63.808 25.856 63.008 26.448C62.224 27.024 61.264 27.312 60.128 27.312C59.008 27.312 58.024 27.048 57.176 26.52C56.328 25.992 55.664 25.264 55.184 24.336C54.704 23.392 54.464 22.296 54.464 21.048C54.464 19.8 54.704 18.712 55.184 17.784C55.664 16.84 56.328 16.112 57.176 15.6C58.024 15.072 59.008 14.808 60.128 14.808C61.264 14.808 62.224 15.104 63.008 15.696C63.808 16.272 64.384 17.008 64.736 17.904L67.664 16.536C67.36 15.688 66.856 14.912 66.152 14.208C65.448 13.488 64.584 12.912 63.56 12.48C62.552 12.048 61.408 11.832 60.128 11.832C58.848 11.832 57.664 12.064 56.576 12.528C55.488 12.976 54.544 13.616 53.744 14.448C52.944 15.264 52.32 16.24 51.872 17.376C51.424 18.496 51.2 19.72 51.2 21.048C51.2 22.376 51.424 23.608 51.872 24.744C52.32 25.864 52.944 26.84 53.744 27.672C54.544 28.504 55.488 29.152 56.576 29.616C57.664 30.064 58.848 30.288 60.128 30.288ZM73.7756 30.288C75.4716 30.288 76.8316 29.728 77.8556 28.608V30H80.8316V21.312C80.8316 20.4 80.5996 19.592 80.1356 18.888C79.6716 18.184 79.0316 17.64 78.2156 17.256C77.4156 16.856 76.4796 16.656 75.4076 16.656C74.0956 16.656 72.9276 16.968 71.9036 17.592C70.8796 18.216 70.1756 19.04 69.7916 20.064L72.3596 21.312C72.5996 20.72 72.9756 20.248 73.4876 19.896C73.9996 19.528 74.5996 19.344 75.2876 19.344C76.0076 19.344 76.5836 19.536 77.0156 19.92C77.4636 20.288 77.6876 20.752 77.6876 21.312V21.744L73.7996 22.368C72.2636 22.624 71.1276 23.112 70.3916 23.832C69.6556 24.552 69.2876 25.456 69.2876 26.544C69.2876 27.696 69.6956 28.608 70.5116 29.28C71.3276 29.952 72.4156 30.288 73.7756 30.288ZM72.5516 26.424C72.5516 25.512 73.1676 24.936 74.3996 24.696L77.6876 24.144V24.672C77.6876 25.568 77.3756 26.328 76.7516 26.952C76.1436 27.576 75.3436 27.888 74.3516 27.888C73.8236 27.888 73.3916 27.76 73.0556 27.504C72.7196 27.232 72.5516 26.872 72.5516 26.424ZM83.7374 30H86.8814V22.344C86.8814 21.496 87.1134 20.816 87.5774 20.304C88.0414 19.792 88.6494 19.536 89.4014 19.536C90.1694 19.536 90.7774 19.792 91.2254 20.304C91.6894 20.8 91.9214 21.48 91.9214 22.344V30H95.0654V22.344C95.0654 21.496 95.2974 20.816 95.7614 20.304C96.2254 19.792 96.8334 19.536 97.5854 19.536C98.3534 19.536 98.9614 19.792 99.4094 20.304C99.8734 20.8 100.105 21.48 100.105 22.344V30H103.249V21.6C103.249 20.624 103.033 19.768 102.601 19.032C102.185 18.28 101.617 17.696 100.897 17.28C100.177 16.864 99.3534 16.656 98.4254 16.656C97.5614 16.656 96.7774 16.832 96.0734 17.184C95.3854 17.536 94.8174 18.064 94.3694 18.768C93.9854 18.128 93.4334 17.616 92.7134 17.232C92.0094 16.848 91.2174 16.656 90.3374 16.656C89.5214 16.656 88.7934 16.816 88.1534 17.136C87.5134 17.456 87.0254 17.936 86.6894 18.576V16.944H83.7374V30ZM105.909 15.48H109.053V12.12H105.909V15.48ZM105.909 30H109.053V16.944H105.909V30ZM111.956 30H115.1V22.344C115.1 21.496 115.34 20.816 115.82 20.304C116.316 19.792 116.956 19.536 117.74 19.536C118.524 19.536 119.156 19.792 119.636 20.304C120.132 20.8 120.38 21.48 120.38 22.344V30H123.524V21.6C123.524 20.624 123.316 19.768 122.9 19.032C122.484 18.28 121.9 17.696 121.148 17.28C120.412 16.864 119.564 16.656 118.604 16.656C117.788 16.656 117.052 16.816 116.396 17.136C115.756 17.456 115.26 17.928 114.908 18.552V16.944H111.956V30ZM132.567 30.288C133.831 30.288 134.983 30 136.023 29.424C137.063 28.832 137.895 28.024 138.519 27C139.143 25.96 139.455 24.784 139.455 23.472C139.455 22.16 139.143 20.992 138.519 19.968C137.911 18.944 137.087 18.136 136.047 17.544C135.007 16.952 133.847 16.656 132.567 16.656C131.271 16.656 130.103 16.952 129.063 17.544C128.023 18.136 127.191 18.944 126.567 19.968C125.959 20.992 125.655 22.16 125.655 23.472C125.655 24.784 125.959 25.952 126.567 26.976C127.191 28 128.023 28.808 129.063 29.4C130.119 29.992 131.287 30.288 132.567 30.288ZM132.567 27.408C131.863 27.408 131.231 27.24 130.671 26.904C130.127 26.568 129.695 26.104 129.375 25.512C129.071 24.904 128.919 24.224 128.919 23.472C128.919 22.72 129.071 22.048 129.375 21.456C129.695 20.864 130.127 20.4 130.671 20.064C131.231 19.712 131.863 19.536 132.567 19.536C133.271 19.536 133.887 19.712 134.415 20.064C134.959 20.4 135.383 20.864 135.687 21.456C136.007 22.048 136.167 22.72 136.167 23.472C136.167 24.224 136.007 24.904 135.687 25.512C135.383 26.104 134.959 26.568 134.415 26.904C133.887 27.24 133.271 27.408 132.567 27.408Z" fill="url(#paint1_linear_5323_14674)"/>
<path d="M151.256 30H152.816V15.168L163.136 30H164.456V12.12H162.896V26.928L152.576 12.12H151.256V30ZM174.519 30.288C175.751 30.288 176.839 29.992 177.783 29.4C178.727 28.808 179.415 28.064 179.847 27.168L178.623 26.52C178.191 27.256 177.631 27.848 176.943 28.296C176.255 28.728 175.447 28.944 174.519 28.944C173.655 28.944 172.855 28.744 172.119 28.344C171.399 27.928 170.815 27.352 170.367 26.616C169.919 25.88 169.679 25.032 169.647 24.072H180.063C180.095 23.88 180.119 23.696 180.135 23.52C180.151 23.344 180.159 23.176 180.159 23.016C180.159 21.928 179.911 20.928 179.415 20.016C178.935 19.104 178.255 18.368 177.375 17.808C176.495 17.248 175.471 16.968 174.303 16.968C173.151 16.968 172.111 17.256 171.183 17.832C170.255 18.408 169.519 19.2 168.975 20.208C168.431 21.2 168.159 22.328 168.159 23.592C168.159 24.856 168.439 26 168.999 27.024C169.559 28.032 170.319 28.832 171.279 29.424C172.239 30 173.319 30.288 174.519 30.288ZM174.303 18.312C175.119 18.312 175.855 18.512 176.511 18.912C177.167 19.296 177.687 19.824 178.071 20.496C178.455 21.168 178.639 21.92 178.623 22.752H169.671C169.767 21.872 170.031 21.104 170.463 20.448C170.895 19.776 171.447 19.256 172.119 18.888C172.791 18.504 173.519 18.312 174.303 18.312ZM188.226 30.144C188.354 30.144 188.53 30.128 188.754 30.096C188.978 30.08 189.178 30.048 189.354 30V28.704C189.242 28.72 189.09 28.736 188.898 28.752C188.722 28.768 188.57 28.776 188.442 28.776C187.866 28.776 187.426 28.672 187.122 28.464C186.818 28.256 186.61 27.984 186.498 27.648C186.402 27.312 186.354 26.968 186.354 26.616V18.624H189.138V17.256H186.354V14.28H184.914V15.648C184.914 16.144 184.778 16.536 184.506 16.824C184.25 17.112 183.89 17.256 183.426 17.256H182.514V18.624H184.914V26.616C184.914 27.768 185.194 28.648 185.754 29.256C186.33 29.848 187.154 30.144 188.226 30.144ZM195.589 30H197.053L200.221 19.464L203.365 30H204.829L209.221 17.256H207.613L204.109 27.816L200.941 17.256H199.477L196.309 27.816L192.829 17.256H191.221L195.589 30ZM217.295 30.288C218.495 30.288 219.583 30 220.559 29.424C221.535 28.848 222.303 28.056 222.863 27.048C223.439 26.04 223.727 24.896 223.727 23.616C223.727 22.336 223.447 21.2 222.887 20.208C222.327 19.2 221.559 18.408 220.583 17.832C219.623 17.256 218.527 16.968 217.295 16.968C216.063 16.968 214.959 17.256 213.983 17.832C213.007 18.408 212.239 19.2 211.679 20.208C211.119 21.2 210.839 22.336 210.839 23.616C210.839 24.88 211.119 26.016 211.679 27.024C212.255 28.032 213.031 28.832 214.007 29.424C214.983 30 216.079 30.288 217.295 30.288ZM217.295 28.872C216.383 28.872 215.551 28.64 214.799 28.176C214.063 27.712 213.471 27.088 213.023 26.304C212.591 25.504 212.375 24.608 212.375 23.616C212.375 22.624 212.591 21.736 213.023 20.952C213.455 20.152 214.039 19.528 214.775 19.08C215.527 18.616 216.367 18.384 217.295 18.384C218.223 18.384 219.055 18.616 219.791 19.08C220.527 19.528 221.111 20.152 221.543 20.952C221.975 21.736 222.191 22.624 222.191 23.616C222.191 24.608 221.975 25.504 221.543 26.304C221.111 27.088 220.519 27.712 219.767 28.176C219.031 28.64 218.207 28.872 217.295 28.872ZM227.187 30H228.627V22.2C228.627 21.08 228.923 20.192 229.515 19.536C230.123 18.864 230.939 18.528 231.963 18.528H232.947V17.088H232.131C231.347 17.088 230.651 17.248 230.043 17.568C229.435 17.872 228.963 18.304 228.627 18.864V17.256H227.187V30ZM235.32 30H236.76V26.04L239.304 23.424L244.2 30H246L240.384 22.392L245.52 17.256H243.552L236.76 24V11.832H235.32V30Z" fill="url(#paint2_linear_5323_14674)"/>
<defs>
<linearGradient id="paint0_linear_5323_14674" x1="0" y1="0" x2="40" y2="40" gradientUnits="userSpaceOnUse">
<stop stop-color="#0085FF"/>
<stop offset="0.895243" stop-color="#B440FC"/>
</linearGradient>
<linearGradient id="paint1_linear_5323_14674" x1="50" y1="4" x2="70.0288" y2="60.9569" gradientUnits="userSpaceOnUse">
<stop stop-color="#0085FF"/>
<stop offset="0.895243" stop-color="#B440FC"/>
</linearGradient>
<linearGradient id="paint2_linear_5323_14674" x1="149" y1="4" x2="167.884" y2="61.8336" gradientUnits="userSpaceOnUse">
<stop stop-color="#0085FF"/>
<stop offset="0.895243" stop-color="#B440FC"/>
</linearGradient>
</defs>
</svg>
