<svg width="205" height="72" viewBox="0 0 205 72" fill="none" xmlns="http://www.w3.org/2000/svg">
<path fill-rule="evenodd" clip-rule="evenodd" d="M24.9372 18.0746L33.0676 34.0778C33.5447 34.0074 34.0323 33.9461 34.5306 33.8945V14.9892C31.0266 15.2305 27.7605 16.3282 24.9372 18.0746ZM37.4694 14.9892V33.7101C37.9299 33.6991 38.3983 33.6959 38.875 33.7009L47.0461 18.0642C44.2266 16.3238 40.9665 15.23 37.4694 14.9892ZM49.4563 19.7973L42.1124 33.8509C42.4293 33.8745 42.7661 33.901 43.1199 33.9304L54.6432 26.192C53.3468 23.7332 51.5776 21.5611 49.4563 19.7973ZM55.844 28.9255L47.7062 34.3905C50.7649 34.7505 54.1821 35.2647 57.0612 35.9604C57.0567 33.4909 56.6277 31.1235 55.844 28.9255ZM48.889 37.4987C46.9143 37.2405 45.0016 37.0431 43.3828 36.9021C42.5681 36.8312 41.8346 36.7751 41.2133 36.7332C40.7013 36.6986 40.1996 36.6736 39.7081 36.6579C38.8814 36.6314 38.0834 36.631 37.3133 36.6542C36.8993 36.6666 36.4932 36.686 36.0951 36.7118C35.7908 36.7315 35.4911 36.7551 35.1959 36.7822C34.5358 36.843 33.8985 36.922 33.2831 37.0174L33.058 35.5654L33.2831 37.0174C33.0212 37.058 32.7632 37.1016 32.5092 37.1481C31.8324 37.2718 31.1834 37.4158 30.5611 37.5774C30.0008 37.723 29.4686 37.8828 28.9631 38.0548C21.7195 40.5192 19.6588 45.6193 18.9281 48.3368C22.7568 53.6253 28.9774 57.0612 36 57.0612C38.1338 57.0612 40.1915 56.7444 42.13 56.1556C40.1033 54.1856 38.774 52.1608 38.1791 50.1328C37.3968 47.466 37.9305 44.9345 39.5511 42.822C41.1312 40.7624 43.6807 39.173 46.8578 38.0964C47.5052 37.877 48.1828 37.6775 48.889 37.4987ZM45.1795 54.9613C42.7761 52.8989 41.4869 50.9687 40.999 49.3056C40.4889 47.5665 40.8152 46.0024 41.8828 44.6108C42.9909 43.1663 44.9577 41.8432 47.8009 40.8798C50.2498 40.0499 53.2769 39.5127 56.7917 39.3794C55.6831 46.2544 51.2445 52.0194 45.1795 54.9613ZM16.9704 45.0373C18.1972 42.1924 20.6125 38.6374 25.5574 36.2709L16.1128 29.0478C15.3525 31.223 14.9388 33.5619 14.9388 36C14.9388 39.2361 15.6678 42.2996 16.9704 45.0373ZM17.3165 26.2687L28.7715 35.0293C29.113 34.9252 29.4632 34.8263 29.8221 34.7331C29.905 34.7116 29.9882 34.6903 30.0718 34.6694L22.5243 19.8134C20.3896 21.5927 18.6125 23.7859 17.3165 26.2687ZM22.1871 16.3711C26.0934 13.6175 30.86 12 36 12C41.1383 12 45.9034 13.6164 49.8089 16.3683C53.2878 18.8196 56.0863 22.1727 57.8645 26.0899C59.2366 29.1127 60 32.4692 60 36C60 36.6644 59.973 37.3229 59.9199 37.9743L59.9179 37.9984C59.175 47.0033 53.4643 54.5933 45.5381 58.0295C42.6127 59.2977 39.3864 60 36 60C27.7297 60 20.4373 55.8156 16.1237 49.4552C13.5208 45.617 12 40.9839 12 36C12 32.4728 12.7618 29.1196 14.1313 26.0992C15.9085 22.1795 18.7073 18.8241 22.1871 16.3711Z" fill="url(#paint0_linear_140_762)"/>
<path d="M85.504 49.384C87.2107 49.384 88.736 49.096 90.08 48.52C91.4453 47.944 92.5973 47.1867 93.536 46.248C94.4747 45.288 95.1467 44.2427 95.552 43.112L91.648 41.288C91.1787 42.4827 90.4107 43.4747 89.344 44.264C88.2987 45.032 87.0187 45.416 85.504 45.416C84.0107 45.416 82.6987 45.064 81.568 44.36C80.4373 43.656 79.552 42.6853 78.912 41.448C78.272 40.1893 77.952 38.728 77.952 37.064C77.952 35.4 78.272 33.9493 78.912 32.712C79.552 31.4533 80.4373 30.4827 81.568 29.8C82.6987 29.096 84.0107 28.744 85.504 28.744C87.0187 28.744 88.2987 29.1387 89.344 29.928C90.4107 30.696 91.1787 31.6773 91.648 32.872L95.552 31.048C95.1467 29.9173 94.4747 28.8827 93.536 27.944C92.5973 26.984 91.4453 26.216 90.08 25.64C88.736 25.064 87.2107 24.776 85.504 24.776C83.7973 24.776 82.2187 25.0853 80.768 25.704C79.3173 26.3013 78.0587 27.1547 76.992 28.264C75.9253 29.352 75.0933 30.6533 74.496 32.168C73.8987 33.6613 73.6 35.2933 73.6 37.064C73.6 38.8347 73.8987 40.4773 74.496 41.992C75.0933 43.4853 75.9253 44.7867 76.992 45.896C78.0587 47.0053 79.3173 47.8693 80.768 48.488C82.2187 49.0853 83.7973 49.384 85.504 49.384ZM103.701 49.384C105.962 49.384 107.775 48.6373 109.141 47.144V49H113.109V37.416C113.109 36.2 112.799 35.1227 112.181 34.184C111.562 33.2453 110.709 32.52 109.621 32.008C108.554 31.4747 107.306 31.208 105.877 31.208C104.127 31.208 102.57 31.624 101.205 32.456C99.8394 33.288 98.9008 34.3867 98.3888 35.752L101.813 37.416C102.133 36.6267 102.634 35.9973 103.317 35.528C103.999 35.0373 104.799 34.792 105.717 34.792C106.677 34.792 107.445 35.048 108.021 35.56C108.618 36.0507 108.917 36.6693 108.917 37.416V37.992L103.733 38.824C101.685 39.1653 100.17 39.816 99.1888 40.776C98.2074 41.736 97.7168 42.9413 97.7168 44.392C97.7168 45.928 98.2608 47.144 99.3488 48.04C100.437 48.936 101.887 49.384 103.701 49.384ZM102.069 44.232C102.069 43.016 102.89 42.248 104.533 41.928L108.917 41.192V41.896C108.917 43.0907 108.501 44.104 107.669 44.936C106.858 45.768 105.791 46.184 104.469 46.184C103.765 46.184 103.189 46.0133 102.741 45.672C102.293 45.3093 102.069 44.8293 102.069 44.232ZM116.983 49H121.175V38.792C121.175 37.6613 121.485 36.7547 122.103 36.072C122.722 35.3893 123.533 35.048 124.535 35.048C125.559 35.048 126.37 35.3893 126.967 36.072C127.586 36.7333 127.895 37.64 127.895 38.792V49H132.087V38.792C132.087 37.6613 132.397 36.7547 133.015 36.072C133.634 35.3893 134.445 35.048 135.447 35.048C136.471 35.048 137.282 35.3893 137.879 36.072C138.498 36.7333 138.807 37.64 138.807 38.792V49H142.999V37.8C142.999 36.4987 142.711 35.3573 142.135 34.376C141.581 33.3733 140.823 32.5947 139.863 32.04C138.903 31.4853 137.805 31.208 136.567 31.208C135.415 31.208 134.37 31.4427 133.431 31.912C132.514 32.3813 131.757 33.0853 131.159 34.024C130.647 33.1707 129.911 32.488 128.951 31.976C128.013 31.464 126.957 31.208 125.783 31.208C124.695 31.208 123.725 31.4213 122.871 31.848C122.018 32.2747 121.367 32.9147 120.919 33.768V31.592H116.983V49ZM146.546 29.64H150.738V25.16H146.546V29.64ZM146.546 49H150.738V31.592H146.546V49ZM154.608 49H158.8V38.792C158.8 37.6613 159.12 36.7547 159.76 36.072C160.422 35.3893 161.275 35.048 162.32 35.048C163.366 35.048 164.208 35.3893 164.848 36.072C165.51 36.7333 165.84 37.64 165.84 38.792V49H170.032V37.8C170.032 36.4987 169.755 35.3573 169.2 34.376C168.646 33.3733 167.867 32.5947 166.864 32.04C165.883 31.4853 164.752 31.208 163.472 31.208C162.384 31.208 161.403 31.4213 160.528 31.848C159.675 32.2747 159.014 32.904 158.544 33.736V31.592H154.608V49ZM182.089 49.384C183.774 49.384 185.31 49 186.697 48.232C188.084 47.4427 189.193 46.3653 190.025 45C190.857 43.6133 191.273 42.0453 191.273 40.296C191.273 38.5467 190.857 36.9893 190.025 35.624C189.214 34.2587 188.116 33.1813 186.729 32.392C185.342 31.6027 183.796 31.208 182.089 31.208C180.361 31.208 178.804 31.6027 177.417 32.392C176.03 33.1813 174.921 34.2587 174.089 35.624C173.278 36.9893 172.873 38.5467 172.873 40.296C172.873 42.0453 173.278 43.6027 174.089 44.968C174.921 46.3333 176.03 47.4107 177.417 48.2C178.825 48.9893 180.382 49.384 182.089 49.384ZM182.089 45.544C181.15 45.544 180.308 45.32 179.561 44.872C178.836 44.424 178.26 43.8053 177.833 43.016C177.428 42.2053 177.225 41.2987 177.225 40.296C177.225 39.2933 177.428 38.3973 177.833 37.608C178.26 36.8187 178.836 36.2 179.561 35.752C180.308 35.2827 181.15 35.048 182.089 35.048C183.028 35.048 183.849 35.2827 184.553 35.752C185.278 36.2 185.844 36.8187 186.249 37.608C186.676 38.3973 186.889 39.2933 186.889 40.296C186.889 41.2987 186.676 42.2053 186.249 43.016C185.844 43.8053 185.278 44.424 184.553 44.872C183.849 45.32 183.028 45.544 182.089 45.544Z" fill="url(#paint1_linear_140_762)"/>
<defs>
<linearGradient id="paint0_linear_140_762" x1="12" y1="12" x2="60" y2="60" gradientUnits="userSpaceOnUse">
<stop offset="0.104757" stop-color="#149EED"/>
<stop offset="0.895243" stop-color="#B440FC"/>
</linearGradient>
<linearGradient id="paint1_linear_140_762" x1="72" y1="16" x2="95.8409" y2="88.1187" gradientUnits="userSpaceOnUse">
<stop offset="0.104757" stop-color="#149EED"/>
<stop offset="0.895243" stop-color="#B440FC"/>
</linearGradient>
</defs>
</svg>
