<svg width="205" height="72" viewBox="0 0 205 72" fill="none" xmlns="http://www.w3.org/2000/svg">
<rect x="12" y="12" width="48" height="48" rx="24" fill="url(#paint0_linear_132_636)"/>
<path d="M31.8752 36.1103L32.1267 37.0781H32.1267L31.8752 36.1103ZM33.9107 35.6914L34.064 36.6795H34.064L33.9107 35.6914ZM35.3333 35.5164L35.2417 34.5206H35.2417L35.3333 35.5164ZM36.9012 35.4215L36.8711 34.422L36.9012 35.4215ZM39.7725 35.4796L39.7051 36.4773H39.7051L39.7725 35.4796ZM42.3333 50.6667L42.9593 49.8868L42.9587 49.8863L42.3333 50.6667ZM22.7486 44.9694L21.9209 45.5307L22.7486 44.9694ZM21.4204 29.3999L20.5096 28.987L21.4204 29.3999ZM26.7921 22.9135L26.2159 22.0962L26.7921 22.9135ZM45.2053 22.9116L45.7813 22.0942L45.2053 22.9116ZM42.3584 50.6868L42.7561 51.6043L42.3584 50.6868ZM30.9888 37.418C31.3488 37.2955 31.7277 37.1818 32.1267 37.0781L31.6238 35.1424C31.1784 35.2581 30.7523 35.3859 30.3446 35.5246L30.9888 37.418ZM32.1267 37.0781C32.5696 36.9631 33.0315 36.8606 33.5132 36.7725L33.1535 34.8051C32.6243 34.9019 32.1146 35.0149 31.6238 35.1424L32.1267 37.0781ZM33.5132 36.7725C33.694 36.7395 33.8776 36.7084 34.064 36.6795L33.7575 34.7032C33.5534 34.7348 33.3521 34.7688 33.1535 34.8051L33.5132 36.7725ZM34.064 36.6795C34.5018 36.6116 34.9554 36.5555 35.425 36.5122L35.2417 34.5206C34.7315 34.5676 34.2369 34.6288 33.7575 34.7032L34.064 36.6795ZM35.425 36.5122C35.635 36.4929 35.8482 36.4761 36.0647 36.4621L35.9353 34.4663C35.7009 34.4815 35.4697 34.4996 35.2417 34.5206L35.425 36.5122ZM36.0647 36.4621C36.348 36.4437 36.6368 36.43 36.9313 36.4211L36.8711 34.422C36.5537 34.4316 36.2418 34.4464 35.9353 34.4663L36.0647 36.4621ZM36.9313 36.4211C37.4791 36.4046 38.0467 36.4049 38.6347 36.4238L38.6987 34.4248C38.0703 34.4047 37.4613 34.4042 36.8711 34.422L36.9313 36.4211ZM38.6347 36.4238C38.9842 36.4349 39.341 36.4527 39.7051 36.4773L39.84 34.4818C39.4526 34.4557 39.0722 34.4367 38.6987 34.4248L38.6347 36.4238ZM39.7051 36.4773C40.1466 36.5071 40.6678 36.5469 41.2466 36.5973L41.4201 34.6049C40.8289 34.5534 40.2948 34.5126 39.84 34.4818L39.7051 36.4773ZM37 35.4642V20H35V35.4642H37ZM23.7222 45.1976C24.1355 43.4336 25.3939 39.3216 30.9888 37.418L30.3446 35.5246C23.7989 37.7516 22.2573 42.6828 21.7749 44.7413L23.7222 45.1976ZM36 51C30.8329 51 26.2754 48.3882 23.5762 44.4081L21.9209 45.5307C24.9765 50.0361 30.1419 53 36 53V51ZM23.5762 44.4081C21.95 42.0103 21 39.1176 21 36H19C19 39.5303 20.0772 42.8121 21.9209 45.5307L23.5762 44.4081ZM31.2742 35.677L22.0279 28.6056L20.8129 30.1943L30.0592 37.2656L31.2742 35.677ZM21 36C21 33.792 21.4764 31.698 22.3312 29.8129L20.5096 28.987C19.5396 31.1264 19 33.5015 19 36H21ZM22.3312 29.8129C23.4415 27.3641 25.1914 25.2653 27.3682 23.7308L26.2159 22.0962C23.751 23.8337 21.7685 26.2105 20.5096 28.987L22.3312 29.8129ZM27.3682 23.7308C29.809 22.0103 32.785 21 36 21V19C32.3591 19 28.9829 20.1457 26.2159 22.0962L27.3682 23.7308ZM25.9005 23.3664L32.4418 36.2418L34.2249 35.3359L27.6836 22.4606L25.9005 23.3664ZM44.319 22.4485L37.7804 34.9611L39.5529 35.8874L46.0916 23.3748L44.319 22.4485ZM36 21C39.2139 21 42.189 22.0096 44.6293 23.7291L45.7813 22.0942C43.0149 20.1449 39.6396 19 36 19V21ZM44.6293 23.7291C46.8055 25.2625 48.5553 27.3598 49.6662 29.807L51.4874 28.9804C50.2279 26.2057 48.2456 23.8305 45.7813 22.0942L44.6293 23.7291ZM49.6662 29.807C50.5226 31.6936 51 33.7897 51 36H53C53 33.4989 52.4593 31.1215 51.4874 28.9804L49.6662 29.807ZM41.8908 36.4313L51.1343 30.2239L50.0193 28.5635L40.7758 34.7709L41.8908 36.4313ZM41.2466 36.5973C44.2696 36.8605 48.7385 37.4015 51.66 38.2753L52.2331 36.3592C49.0976 35.4213 44.4483 34.8685 41.4201 34.6049L41.2466 36.5973ZM51 36C51 36.4164 50.9831 36.8286 50.9499 37.236L52.9433 37.3985C52.9809 36.9371 53 36.4707 53 36H51ZM50.9499 37.236C50.9494 37.2411 50.949 37.2461 50.9486 37.2512L52.9418 37.4156C52.9423 37.4099 52.9428 37.4042 52.9433 37.3985L50.9499 37.236ZM42.9587 49.8863C40.9458 48.2732 39.8885 46.7574 39.5083 45.4611C39.142 44.2124 39.3768 43.0873 40.1431 42.0884C40.9371 41.0536 42.3424 40.11 44.3664 39.4242C46.3796 38.742 48.9396 38.3381 51.9468 38.3334L51.9437 36.3334C48.7699 36.3383 45.9866 36.7635 43.7246 37.5299C41.4733 38.2928 39.6714 39.4176 38.5563 40.8711C37.4136 42.3606 37.0377 44.144 37.5892 46.0241C38.1267 47.8567 39.5158 49.6901 41.708 51.447L42.9587 49.8863ZM50.9486 37.2512C50.4848 42.8735 46.9178 47.6202 41.9606 49.7693L42.7561 51.6043C48.3706 49.1703 52.4156 43.7939 52.9418 37.4156L50.9486 37.2512ZM41.9606 49.7693C40.1349 50.5608 38.1201 51 36 51V53C38.3988 53 40.6841 52.5026 42.7561 51.6043L41.9606 49.7693ZM41.7073 51.4465L41.7324 51.4666L42.9844 49.9069L42.9593 49.8868L41.7073 51.4465Z" fill="#F8FAFC"/>
<path d="M85.504 49.384C87.2107 49.384 88.736 49.096 90.08 48.52C91.4453 47.944 92.5973 47.1867 93.536 46.248C94.4747 45.288 95.1467 44.2427 95.552 43.112L91.648 41.288C91.1787 42.4827 90.4107 43.4747 89.344 44.264C88.2987 45.032 87.0187 45.416 85.504 45.416C84.0107 45.416 82.6987 45.064 81.568 44.36C80.4373 43.656 79.552 42.6853 78.912 41.448C78.272 40.1893 77.952 38.728 77.952 37.064C77.952 35.4 78.272 33.9493 78.912 32.712C79.552 31.4533 80.4373 30.4827 81.568 29.8C82.6987 29.096 84.0107 28.744 85.504 28.744C87.0187 28.744 88.2987 29.1387 89.344 29.928C90.4107 30.696 91.1787 31.6773 91.648 32.872L95.552 31.048C95.1467 29.9173 94.4747 28.8827 93.536 27.944C92.5973 26.984 91.4453 26.216 90.08 25.64C88.736 25.064 87.2107 24.776 85.504 24.776C83.7973 24.776 82.2187 25.0853 80.768 25.704C79.3173 26.3013 78.0587 27.1547 76.992 28.264C75.9253 29.352 75.0933 30.6533 74.496 32.168C73.8987 33.6613 73.6 35.2933 73.6 37.064C73.6 38.8347 73.8987 40.4773 74.496 41.992C75.0933 43.4853 75.9253 44.7867 76.992 45.896C78.0587 47.0053 79.3173 47.8693 80.768 48.488C82.2187 49.0853 83.7973 49.384 85.504 49.384ZM103.701 49.384C105.962 49.384 107.775 48.6373 109.141 47.144V49H113.109V37.416C113.109 36.2 112.799 35.1227 112.181 34.184C111.562 33.2453 110.709 32.52 109.621 32.008C108.554 31.4747 107.306 31.208 105.877 31.208C104.127 31.208 102.57 31.624 101.205 32.456C99.8394 33.288 98.9008 34.3867 98.3888 35.752L101.813 37.416C102.133 36.6267 102.634 35.9973 103.317 35.528C103.999 35.0373 104.799 34.792 105.717 34.792C106.677 34.792 107.445 35.048 108.021 35.56C108.618 36.0507 108.917 36.6693 108.917 37.416V37.992L103.733 38.824C101.685 39.1653 100.17 39.816 99.1888 40.776C98.2074 41.736 97.7168 42.9413 97.7168 44.392C97.7168 45.928 98.2608 47.144 99.3488 48.04C100.437 48.936 101.887 49.384 103.701 49.384ZM102.069 44.232C102.069 43.016 102.89 42.248 104.533 41.928L108.917 41.192V41.896C108.917 43.0907 108.501 44.104 107.669 44.936C106.858 45.768 105.791 46.184 104.469 46.184C103.765 46.184 103.189 46.0133 102.741 45.672C102.293 45.3093 102.069 44.8293 102.069 44.232ZM116.983 49H121.175V38.792C121.175 37.6613 121.485 36.7547 122.103 36.072C122.722 35.3893 123.533 35.048 124.535 35.048C125.559 35.048 126.37 35.3893 126.967 36.072C127.586 36.7333 127.895 37.64 127.895 38.792V49H132.087V38.792C132.087 37.6613 132.397 36.7547 133.015 36.072C133.634 35.3893 134.445 35.048 135.447 35.048C136.471 35.048 137.282 35.3893 137.879 36.072C138.498 36.7333 138.807 37.64 138.807 38.792V49H142.999V37.8C142.999 36.4987 142.711 35.3573 142.135 34.376C141.581 33.3733 140.823 32.5947 139.863 32.04C138.903 31.4853 137.805 31.208 136.567 31.208C135.415 31.208 134.37 31.4427 133.431 31.912C132.514 32.3813 131.757 33.0853 131.159 34.024C130.647 33.1707 129.911 32.488 128.951 31.976C128.013 31.464 126.957 31.208 125.783 31.208C124.695 31.208 123.725 31.4213 122.871 31.848C122.018 32.2747 121.367 32.9147 120.919 33.768V31.592H116.983V49ZM146.546 29.64H150.738V25.16H146.546V29.64ZM146.546 49H150.738V31.592H146.546V49ZM154.608 49H158.8V38.792C158.8 37.6613 159.12 36.7547 159.76 36.072C160.422 35.3893 161.275 35.048 162.32 35.048C163.366 35.048 164.208 35.3893 164.848 36.072C165.51 36.7333 165.84 37.64 165.84 38.792V49H170.032V37.8C170.032 36.4987 169.755 35.3573 169.2 34.376C168.646 33.3733 167.867 32.5947 166.864 32.04C165.883 31.4853 164.752 31.208 163.472 31.208C162.384 31.208 161.403 31.4213 160.528 31.848C159.675 32.2747 159.014 32.904 158.544 33.736V31.592H154.608V49ZM182.089 49.384C183.774 49.384 185.31 49 186.697 48.232C188.084 47.4427 189.193 46.3653 190.025 45C190.857 43.6133 191.273 42.0453 191.273 40.296C191.273 38.5467 190.857 36.9893 190.025 35.624C189.214 34.2587 188.116 33.1813 186.729 32.392C185.342 31.6027 183.796 31.208 182.089 31.208C180.361 31.208 178.804 31.6027 177.417 32.392C176.03 33.1813 174.921 34.2587 174.089 35.624C173.278 36.9893 172.873 38.5467 172.873 40.296C172.873 42.0453 173.278 43.6027 174.089 44.968C174.921 46.3333 176.03 47.4107 177.417 48.2C178.825 48.9893 180.382 49.384 182.089 49.384ZM182.089 45.544C181.15 45.544 180.308 45.32 179.561 44.872C178.836 44.424 178.26 43.8053 177.833 43.016C177.428 42.2053 177.225 41.2987 177.225 40.296C177.225 39.2933 177.428 38.3973 177.833 37.608C178.26 36.8187 178.836 36.2 179.561 35.752C180.308 35.2827 181.15 35.048 182.089 35.048C183.028 35.048 183.849 35.2827 184.553 35.752C185.278 36.2 185.844 36.8187 186.249 37.608C186.676 38.3973 186.889 39.2933 186.889 40.296C186.889 41.2987 186.676 42.2053 186.249 43.016C185.844 43.8053 185.278 44.424 184.553 44.872C183.849 45.32 183.028 45.544 182.089 45.544Z" fill="url(#paint1_linear_132_636)"/>
<defs>
<linearGradient id="paint0_linear_132_636" x1="12" y1="12" x2="60" y2="60" gradientUnits="userSpaceOnUse">
<stop offset="0.104757" stop-color="#149EED"/>
<stop offset="0.895243" stop-color="#B440FC"/>
</linearGradient>
<linearGradient id="paint1_linear_132_636" x1="72" y1="16" x2="95.8409" y2="88.1187" gradientUnits="userSpaceOnUse">
<stop offset="0.104757" stop-color="#149EED"/>
<stop offset="0.895243" stop-color="#B440FC"/>
</linearGradient>
</defs>
</svg>
