<svg width="48" height="48" viewBox="0 0 48 48" fill="none" xmlns="http://www.w3.org/2000/svg">
<rect width="48" height="48" rx="24" fill="#F8FAFC"/>
<path d="M19.8752 24.1103L20.1267 25.0781H20.1267L19.8752 24.1103ZM21.9107 23.6914L22.064 24.6795H22.064L21.9107 23.6914ZM23.3333 23.5164L23.2417 22.5206H23.2417L23.3333 23.5164ZM24.9012 23.4215L24.8711 22.422L24.9012 23.4215ZM27.7725 23.4796L27.7051 24.4773H27.7051L27.7725 23.4796ZM30.3333 38.6667L30.9593 37.8868L30.9587 37.8863L30.3333 38.6667ZM10.7486 32.9694L9.92095 33.5307L10.7486 32.9694ZM9.4204 17.3999L8.50965 16.987L9.4204 17.3999ZM14.7921 10.9135L14.2159 10.0962L14.7921 10.9135ZM33.2053 10.9116L33.7813 10.0942L33.2053 10.9116ZM30.3584 38.6868L30.7561 39.6043L30.3584 38.6868ZM18.9888 25.418C19.3488 25.2955 19.7277 25.1818 20.1267 25.0781L19.6238 23.1424C19.1784 23.2581 18.7523 23.3859 18.3446 23.5246L18.9888 25.418ZM20.1267 25.0781C20.5696 24.9631 21.0315 24.8606 21.5132 24.7725L21.1535 22.8051C20.6243 22.9019 20.1146 23.0149 19.6238 23.1424L20.1267 25.0781ZM21.5132 24.7725C21.694 24.7395 21.8776 24.7084 22.064 24.6795L21.7575 22.7032C21.5534 22.7348 21.3521 22.7688 21.1535 22.8051L21.5132 24.7725ZM22.064 24.6795C22.5018 24.6116 22.9554 24.5555 23.425 24.5122L23.2417 22.5206C22.7315 22.5676 22.2369 22.6288 21.7575 22.7032L22.064 24.6795ZM23.425 24.5122C23.635 24.4929 23.8482 24.4761 24.0647 24.4621L23.9353 22.4663C23.7009 22.4815 23.4697 22.4996 23.2417 22.5206L23.425 24.5122ZM24.0647 24.4621C24.348 24.4437 24.6368 24.43 24.9313 24.4211L24.8711 22.422C24.5537 22.4316 24.2418 22.4464 23.9353 22.4663L24.0647 24.4621ZM24.9313 24.4211C25.4791 24.4046 26.0467 24.4049 26.6347 24.4238L26.6987 22.4248C26.0703 22.4047 25.4613 22.4042 24.8711 22.422L24.9313 24.4211ZM26.6347 24.4238C26.9842 24.4349 27.341 24.4527 27.7051 24.4773L27.84 22.4818C27.4526 22.4557 27.0722 22.4367 26.6987 22.4248L26.6347 24.4238ZM27.7051 24.4773C28.1466 24.5071 28.6678 24.5469 29.2466 24.5973L29.4201 22.6049C28.8289 22.5534 28.2948 22.5126 27.84 22.4818L27.7051 24.4773ZM25 23.4642V8H23V23.4642H25ZM11.7222 33.1976C12.1355 31.4336 13.3939 27.3216 18.9888 25.418L18.3446 23.5246C11.7989 25.7516 10.2573 30.6828 9.77495 32.7413L11.7222 33.1976ZM24 39C18.8329 39 14.2754 36.3882 11.5762 32.4081L9.92095 33.5307C12.9765 38.0361 18.1419 41 24 41V39ZM11.5762 32.4081C9.95 30.0103 9 27.1176 9 24H7C7 27.5303 8.07719 30.8121 9.92095 33.5307L11.5762 32.4081ZM19.2742 23.677L10.0279 16.6056L8.81291 18.1943L18.0592 25.2656L19.2742 23.677ZM9 24C9 21.792 9.47644 19.698 10.3312 17.8129L8.50965 16.987C7.53963 19.1264 7 21.5015 7 24H9ZM10.3312 17.8129C11.4415 15.3641 13.1914 13.2653 15.3682 11.7308L14.2159 10.0962C11.751 11.8337 9.76852 14.2105 8.50965 16.987L10.3312 17.8129ZM15.3682 11.7308C17.809 10.0103 20.785 9 24 9V7C20.3591 7 16.9829 8.14569 14.2159 10.0962L15.3682 11.7308ZM13.9005 11.3664L20.4418 24.2418L22.2249 23.3359L15.6836 10.4606L13.9005 11.3664ZM32.319 10.4485L25.7804 22.9611L27.5529 23.8874L34.0916 11.3748L32.319 10.4485ZM24 9C27.2139 9 30.189 10.0096 32.6293 11.7291L33.7813 10.0942C31.0149 8.14492 27.6396 7 24 7V9ZM32.6293 11.7291C34.8055 13.2625 36.5553 15.3598 37.6662 17.807L39.4874 16.9804C38.2279 14.2057 36.2456 11.8305 33.7813 10.0942L32.6293 11.7291ZM37.6662 17.807C38.5226 19.6936 39 21.7897 39 24H41C41 21.4989 40.4593 19.1215 39.4874 16.9804L37.6662 17.807ZM29.8908 24.4313L39.1343 18.2239L38.0193 16.5635L28.7758 22.7709L29.8908 24.4313ZM29.2466 24.5973C32.2696 24.8605 36.7385 25.4015 39.66 26.2753L40.2331 24.3592C37.0976 23.4213 32.4483 22.8685 29.4201 22.6049L29.2466 24.5973ZM39 24C39 24.4164 38.9831 24.8286 38.9499 25.236L40.9433 25.3985C40.9809 24.9371 41 24.4707 41 24H39ZM38.9499 25.236C38.9494 25.2411 38.949 25.2461 38.9486 25.2512L40.9418 25.4156C40.9423 25.4099 40.9428 25.4042 40.9433 25.3985L38.9499 25.236ZM30.9587 37.8863C28.9458 36.2732 27.8885 34.7574 27.5083 33.4611C27.142 32.2124 27.3768 31.0873 28.1431 30.0884C28.9371 29.0536 30.3424 28.11 32.3664 27.4242C34.3796 26.742 36.9396 26.3381 39.9468 26.3334L39.9437 24.3334C36.7699 24.3383 33.9866 24.7635 31.7246 25.5299C29.4733 26.2928 27.6714 27.4176 26.5563 28.8711C25.4136 30.3606 25.0377 32.144 25.5892 34.0241C26.1267 35.8567 27.5158 37.6901 29.708 39.447L30.9587 37.8863ZM38.9486 25.2512C38.4848 30.8735 34.9178 35.6202 29.9606 37.7693L30.7561 39.6043C36.3706 37.1703 40.4156 31.7939 40.9418 25.4156L38.9486 25.2512ZM29.9606 37.7693C28.1349 38.5608 26.1201 39 24 39V41C26.3988 41 28.6841 40.5026 30.7561 39.6043L29.9606 37.7693ZM29.7073 39.4465L29.7324 39.4666L30.9844 37.9069L30.9593 37.8868L29.7073 39.4465Z" fill="#0F172A"/>
</svg>
