<svg width="48" height="48" viewBox="0 0 48 48" fill="none" xmlns="http://www.w3.org/2000/svg">
<path fill-rule="evenodd" clip-rule="evenodd" d="M12.9372 6.07457L21.0676 22.0778C21.5447 22.0074 22.0323 21.9461 22.5306 21.8945V2.98919C19.0266 3.23045 15.7605 4.32815 12.9372 6.07457ZM25.4694 2.98919V21.7101C25.9299 21.6991 26.3983 21.6959 26.875 21.7009L35.0461 6.06424C32.2266 4.32382 28.9665 3.22998 25.4694 2.98919ZM37.4563 7.7973L30.1124 21.8509C30.4293 21.8745 30.7661 21.901 31.1199 21.9304L42.6432 14.192C41.3468 11.7332 39.5776 9.56111 37.4563 7.7973ZM43.844 16.9255L35.7062 22.3905C38.7649 22.7505 42.1821 23.2647 45.0612 23.9604C45.0567 21.4909 44.6277 19.1235 43.844 16.9255ZM36.889 25.4987C34.9143 25.2405 33.0016 25.0431 31.3828 24.9021C30.5681 24.8312 29.8346 24.7751 29.2133 24.7332C28.7013 24.6986 28.1996 24.6736 27.7081 24.6579C26.8814 24.6314 26.0834 24.631 25.3133 24.6542C24.8993 24.6666 24.4932 24.686 24.0951 24.7118C23.7908 24.7315 23.4911 24.7551 23.1959 24.7822C22.5358 24.843 21.8985 24.922 21.2831 25.0174L21.058 23.5654L21.2831 25.0174C21.0212 25.058 20.7632 25.1016 20.5092 25.1481C19.8324 25.2718 19.1834 25.4158 18.5611 25.5774C18.0008 25.723 17.4686 25.8828 16.9631 26.0548C9.7195 28.5192 7.65881 33.6193 6.92813 36.3368C10.7568 41.6253 16.9774 45.0612 24 45.0612C26.1338 45.0612 28.1915 44.7444 30.13 44.1556C28.1033 42.1856 26.774 40.1608 26.1791 38.1328C25.3968 35.466 25.9305 32.9345 27.5511 30.822C29.1312 28.7624 31.6807 27.173 34.8578 26.0964C35.5052 25.877 36.1828 25.6775 36.889 25.4987ZM33.1795 42.9613C30.7761 40.8989 29.4869 38.9687 28.999 37.3056C28.4889 35.5665 28.8152 34.0024 29.8828 32.6108C30.9909 31.1663 32.9577 29.8432 35.8009 28.8798C38.2498 28.0499 41.2769 27.5127 44.7917 27.3794C43.6831 34.2544 39.2445 40.0194 33.1795 42.9613ZM4.97044 33.0373C6.19717 30.1924 8.61252 26.6374 13.5574 24.2709L4.11279 17.0478C3.35246 19.223 2.93878 21.5619 2.93878 24C2.93878 27.2361 3.66777 30.2996 4.97044 33.0373ZM5.31653 14.2687L16.7715 23.0293C17.113 22.9252 17.4632 22.8263 17.8221 22.7331C17.905 22.7116 17.9882 22.6903 18.0718 22.6694L10.5243 7.81344C8.3896 9.5927 6.61255 11.7859 5.31653 14.2687ZM10.1871 4.37107C14.0934 1.61746 18.86 0 24 0C29.1383 0 33.9034 1.61638 37.8089 4.3683C41.2878 6.81959 44.0863 10.1727 45.8645 14.0899C47.2366 17.1127 48 20.4692 48 24C48 24.6644 47.973 25.3229 47.9199 25.9743L47.9179 25.9984C47.175 35.0033 41.4643 42.5933 33.5381 46.0295C30.6127 47.2977 27.3864 48 24 48C15.7297 48 8.43728 43.8156 4.12373 37.4552C1.52076 33.617 0 28.9839 0 24C0 20.4728 0.76182 17.1196 2.13129 14.0992C3.90855 10.1795 6.70729 6.82406 10.1871 4.37107Z" fill="url(#paint0_linear_140_774)"/>
<defs>
<linearGradient id="paint0_linear_140_774" x1="0" y1="0" x2="48" y2="48" gradientUnits="userSpaceOnUse">
<stop offset="0.104757" stop-color="#149EED"/>
<stop offset="0.895243" stop-color="#B440FC"/>
</linearGradient>
</defs>
</svg>
