<svg width="182" height="50" viewBox="0 0 182 50" fill="none" xmlns="http://www.w3.org/2000/svg">
<path d="M19.0706 25.1585L19.4478 26.6103L19.4478 26.6103L19.0706 25.1585ZM21.9967 24.5563L22.2265 26.0386L22.2265 26.0386L21.9967 24.5563ZM24.0417 24.3049L23.9041 22.8112L23.9041 22.8112L24.0417 24.3049ZM26.2955 24.1685L26.2503 22.6691L26.2503 22.6691L26.2955 24.1685ZM30.423 24.2519L30.3219 25.7484L30.3219 25.7484L30.423 24.2519ZM34.1042 46.0833L35.0432 44.9136L35.0422 44.9128L34.1042 46.0833ZM5.95107 37.8936L4.70964 38.7355L4.70964 38.7355L5.95107 37.8936ZM4.04183 15.5124L2.6757 14.893L2.6757 14.893L4.04183 15.5124ZM11.7636 6.18815L10.8994 4.96214L11.7636 6.18815ZM38.2326 6.18549L39.0966 4.95931L39.0966 4.95931L38.2326 6.18549ZM34.1402 46.1122L34.7368 47.4885L34.1402 46.1122ZM17.8165 27.0976C18.3325 26.922 18.8758 26.7589 19.4478 26.6103L18.6934 23.7067C18.0518 23.8734 17.4378 24.0575 16.8502 24.2574L17.8165 27.0976ZM19.4478 26.6103C20.083 26.4453 20.7456 26.2983 21.4364 26.172L20.8969 23.2209C20.1348 23.3602 19.4006 23.523 18.6934 23.7067L19.4478 26.6103ZM21.4364 26.172C21.6958 26.1246 21.9591 26.0801 22.2265 26.0386L21.7668 23.074C21.4729 23.1196 21.1829 23.1686 20.8969 23.2209L21.4364 26.172ZM22.2265 26.0386C22.8547 25.9412 23.5053 25.8606 24.1792 25.7985L23.9041 22.8112C23.1695 22.8788 22.4573 22.967 21.7668 23.074L22.2265 26.0386ZM24.1792 25.7985C24.4805 25.7708 24.7864 25.7468 25.0971 25.7266L24.9029 22.7329C24.5655 22.7548 24.2326 22.7809 23.9041 22.8112L24.1792 25.7985ZM25.0971 25.7266C25.5035 25.7003 25.918 25.6805 26.3407 25.6678L26.2503 22.6691C25.7934 22.6829 25.3443 22.7043 24.9029 22.7329L25.0971 25.7266ZM26.3407 25.6678C27.1268 25.6441 27.9414 25.6446 28.7853 25.6716L28.8813 22.6732C27.9768 22.6442 27.1001 22.6435 26.2503 22.6691L26.3407 25.6678ZM28.7853 25.6716C29.2871 25.6877 29.7992 25.7131 30.3219 25.7484L30.5242 22.7553C29.9666 22.7176 29.4191 22.6904 28.8813 22.6732L28.7853 25.6716ZM30.3219 25.7484C30.9561 25.7913 31.7049 25.8485 32.5366 25.9209L32.7968 22.9322C31.9466 22.8582 31.1785 22.7995 30.5241 22.7553L30.3219 25.7484ZM26.5 24.2298V2H23.5V24.2298H26.5ZM7.41152 38.2358C8.00351 35.7093 9.80357 29.8238 17.8165 27.0976L16.8502 24.2574C7.41112 27.4689 5.18615 34.5831 4.49063 37.5513L7.41152 38.2358ZM25 46.5C17.5938 46.5 11.0615 42.7565 7.19251 37.0516L4.70964 38.7355C9.11306 45.2284 16.5574 49.5 25 49.5V46.5ZM7.19251 37.0516C4.86165 33.6147 3.5 29.4686 3.5 25H0.5C0.5 30.0877 2.05244 34.8174 4.70964 38.7355L7.19251 37.0516ZM18.2446 24.486L4.95306 14.3209L3.1306 16.7039L16.4221 26.869L18.2446 24.486ZM3.5 25C3.5 21.8351 4.1829 18.8337 5.40796 16.1318L2.6757 14.893C1.27769 17.9763 0.5 21.3993 0.5 25H3.5ZM5.40796 16.1318C6.99938 12.6219 9.50768 9.61359 12.6278 7.41416L10.8994 4.96214C7.34702 7.46623 4.48997 10.8916 2.6757 14.893L5.40796 16.1318ZM12.6278 7.41416C16.1262 4.94809 20.3918 3.5 25 3.5V0.5C19.7529 0.5 14.8871 2.15116 10.8994 4.96214L12.6278 7.41416ZM10.4263 6.86756L19.8294 25.3759L22.504 24.017L13.1009 5.50873L10.4263 6.86756ZM36.9032 5.49078L27.5039 23.4777L30.1628 24.8671L39.5621 6.8802L36.9032 5.49078ZM25 3.5C29.6067 3.5 33.8709 4.94712 37.3687 7.41168L39.0966 4.95931C35.1097 2.15005 30.2453 0.5 25 0.5V3.5ZM37.3687 7.41168C40.488 9.60958 42.996 12.6158 44.5882 16.1234L47.32 14.8834C45.5048 10.8846 42.648 7.46166 39.0966 4.95931L37.3687 7.41168ZM44.5882 16.1234C45.8157 18.8275 46.5 21.8318 46.5 25H49.5C49.5 21.3956 48.7207 17.9692 47.32 14.8834L44.5882 16.1234ZM33.5029 25.6718L46.7904 16.7487L45.1179 14.2582L31.8304 23.1813L33.5029 25.6718ZM32.5366 25.9209C36.8819 26.2992 43.3003 27.0765 47.4933 28.3307L48.353 25.4565C43.8391 24.1063 37.15 23.3112 32.7968 22.9322L32.5366 25.9209ZM46.5 25C46.5 25.5969 46.4757 26.1878 46.4281 26.7717L49.4182 27.0154C49.4724 26.3504 49.5 25.6783 49.5 25H46.5ZM46.4281 26.7717C46.4275 26.7789 46.427 26.7861 46.4264 26.7934L49.4162 27.0401C49.4169 27.0319 49.4175 27.0237 49.4182 27.0154L46.4281 26.7717ZM35.0422 44.9128C32.1543 42.5984 30.6448 40.4294 30.1032 38.5828C29.5824 36.8074 29.9155 35.2108 31.0053 33.7902C32.1366 32.3156 34.1443 30.9649 37.0468 29.9814C39.933 29.0034 43.6059 28.4235 47.9236 28.4167L47.9189 25.4167C43.3514 25.4239 39.3435 26.0356 36.084 27.1401C32.8408 28.2391 30.2381 29.8616 28.6251 31.9641C26.9707 34.1206 26.4259 36.7048 27.2245 39.4272C28.0021 42.0783 30.0092 44.7239 33.1661 47.2538L35.0422 44.9128ZM46.4264 26.7934C45.7615 34.8519 40.6489 41.6556 33.5435 44.736L34.7368 47.4885C42.8281 43.9807 48.6578 36.2326 49.4162 27.0401L46.4264 26.7934ZM33.5435 44.736C30.9268 45.8704 28.0389 46.5 25 46.5V49.5C28.457 49.5 31.7505 48.7831 34.7368 47.4885L33.5435 44.736ZM33.1652 47.2531L33.2012 47.282L35.0792 44.9425L35.0432 44.9136L33.1652 47.2531Z" fill="url(#paint0_linear_2058_1630)"/>
<path d="M74.504 38.384C76.2107 38.384 77.736 38.096 79.08 37.52C80.4453 36.944 81.5973 36.1867 82.536 35.248C83.4747 34.288 84.1467 33.2427 84.552 32.112L80.648 30.288C80.1787 31.4827 79.4107 32.4747 78.344 33.264C77.2987 34.032 76.0187 34.416 74.504 34.416C73.0107 34.416 71.6987 34.064 70.568 33.36C69.4373 32.656 68.552 31.6853 67.912 30.448C67.272 29.1893 66.952 27.728 66.952 26.064C66.952 24.4 67.272 22.9493 67.912 21.712C68.552 20.4533 69.4373 19.4827 70.568 18.8C71.6987 18.096 73.0107 17.744 74.504 17.744C76.0187 17.744 77.2987 18.1387 78.344 18.928C79.4107 19.696 80.1787 20.6773 80.648 21.872L84.552 20.048C84.1467 18.9173 83.4747 17.8827 82.536 16.944C81.5973 15.984 80.4453 15.216 79.08 14.64C77.736 14.064 76.2107 13.776 74.504 13.776C72.7973 13.776 71.2187 14.0853 69.768 14.704C68.3173 15.3013 67.0587 16.1547 65.992 17.264C64.9253 18.352 64.0933 19.6533 63.496 21.168C62.8987 22.6613 62.6 24.2933 62.6 26.064C62.6 27.8347 62.8987 29.4773 63.496 30.992C64.0933 32.4853 64.9253 33.7867 65.992 34.896C67.0587 36.0053 68.3173 36.8693 69.768 37.488C71.2187 38.0853 72.7973 38.384 74.504 38.384ZM92.7008 38.384C94.9621 38.384 96.7754 37.6373 98.1408 36.144V38H102.109V26.416C102.109 25.2 101.799 24.1227 101.181 23.184C100.562 22.2453 99.7088 21.52 98.6208 21.008C97.5541 20.4747 96.3061 20.208 94.8767 20.208C93.1274 20.208 91.5701 20.624 90.2048 21.456C88.8394 22.288 87.9008 23.3867 87.3888 24.752L90.8128 26.416C91.1328 25.6267 91.6341 24.9973 92.3168 24.528C92.9994 24.0373 93.7994 23.792 94.7168 23.792C95.6768 23.792 96.4448 24.048 97.0208 24.56C97.6181 25.0507 97.9168 25.6693 97.9168 26.416V26.992L92.7328 27.824C90.6848 28.1653 89.1701 28.816 88.1888 29.776C87.2074 30.736 86.7168 31.9413 86.7168 33.392C86.7168 34.928 87.2608 36.144 88.3488 37.04C89.4368 37.936 90.8874 38.384 92.7008 38.384ZM91.0688 33.232C91.0688 32.016 91.8901 31.248 93.5328 30.928L97.9168 30.192V30.896C97.9168 32.0907 97.5008 33.104 96.6688 33.936C95.8581 34.768 94.7914 35.184 93.4688 35.184C92.7648 35.184 92.1888 35.0133 91.7408 34.672C91.2928 34.3093 91.0688 33.8293 91.0688 33.232ZM105.983 38H110.175V27.792C110.175 26.6613 110.485 25.7547 111.103 25.072C111.722 24.3893 112.533 24.048 113.535 24.048C114.559 24.048 115.37 24.3893 115.967 25.072C116.586 25.7333 116.895 26.64 116.895 27.792V38H121.087V27.792C121.087 26.6613 121.397 25.7547 122.015 25.072C122.634 24.3893 123.445 24.048 124.447 24.048C125.471 24.048 126.282 24.3893 126.879 25.072C127.498 25.7333 127.807 26.64 127.807 27.792V38H131.999V26.8C131.999 25.4987 131.711 24.3573 131.135 23.376C130.581 22.3733 129.823 21.5947 128.863 21.04C127.903 20.4853 126.805 20.208 125.567 20.208C124.415 20.208 123.37 20.4427 122.431 20.912C121.514 21.3813 120.757 22.0853 120.159 23.024C119.647 22.1707 118.911 21.488 117.951 20.976C117.013 20.464 115.957 20.208 114.783 20.208C113.695 20.208 112.725 20.4213 111.871 20.848C111.018 21.2747 110.367 21.9147 109.919 22.768V20.592H105.983V38ZM135.546 18.64H139.738V14.16H135.546V18.64ZM135.546 38H139.738V20.592H135.546V38ZM143.608 38H147.8V27.792C147.8 26.6613 148.12 25.7547 148.76 25.072C149.422 24.3893 150.275 24.048 151.32 24.048C152.366 24.048 153.208 24.3893 153.848 25.072C154.51 25.7333 154.84 26.64 154.84 27.792V38H159.032V26.8C159.032 25.4987 158.755 24.3573 158.2 23.376C157.646 22.3733 156.867 21.5947 155.864 21.04C154.883 20.4853 153.752 20.208 152.472 20.208C151.384 20.208 150.403 20.4213 149.528 20.848C148.675 21.2747 148.014 21.904 147.544 22.736V20.592H143.608V38ZM171.089 38.384C172.774 38.384 174.31 38 175.697 37.232C177.084 36.4427 178.193 35.3653 179.025 34C179.857 32.6133 180.273 31.0453 180.273 29.296C180.273 27.5467 179.857 25.9893 179.025 24.624C178.214 23.2587 177.116 22.1813 175.729 21.392C174.342 20.6027 172.796 20.208 171.089 20.208C169.361 20.208 167.804 20.6027 166.417 21.392C165.03 22.1813 163.921 23.2587 163.089 24.624C162.278 25.9893 161.873 27.5467 161.873 29.296C161.873 31.0453 162.278 32.6027 163.089 33.968C163.921 35.3333 165.03 36.4107 166.417 37.2C167.825 37.9893 169.382 38.384 171.089 38.384ZM171.089 34.544C170.15 34.544 169.308 34.32 168.561 33.872C167.836 33.424 167.26 32.8053 166.833 32.016C166.428 31.2053 166.225 30.2987 166.225 29.296C166.225 28.2933 166.428 27.3973 166.833 26.608C167.26 25.8187 167.836 25.2 168.561 24.752C169.308 24.2827 170.15 24.048 171.089 24.048C172.028 24.048 172.849 24.2827 173.553 24.752C174.278 25.2 174.844 25.8187 175.249 26.608C175.676 27.3973 175.889 28.2933 175.889 29.296C175.889 30.2987 175.676 31.2053 175.249 32.016C174.844 32.8053 174.278 33.424 173.553 33.872C172.849 34.32 172.028 34.544 171.089 34.544Z" fill="#F8FAFC"/>
<defs>
<linearGradient id="paint0_linear_2058_1630" x1="2" y1="2" x2="48" y2="48" gradientUnits="userSpaceOnUse">
<stop offset="0.104757" stop-color="#149EED"/>
<stop offset="0.895243" stop-color="#B440FC"/>
</linearGradient>
</defs>
</svg>
