<svg width="40" height="40" viewBox="0 0 40 40" fill="none" xmlns="http://www.w3.org/2000/svg">
<circle cx="20" cy="20" r="20" fill="url(#paint0_linear_1453_876)"/>
<path fill-rule="evenodd" clip-rule="evenodd" d="M12.6248 8.04971L18.045 18.7185C18.3631 18.6716 18.6882 18.6307 19.0204 18.5964V5.99279C16.6844 6.15364 14.507 6.88543 12.6248 8.04971ZM20.9796 5.99279V18.4734C21.2866 18.4661 21.5989 18.4639 21.9166 18.4673L27.3641 8.04283C25.4844 6.88255 23.311 6.15332 20.9796 5.99279ZM28.9709 9.1982L24.0749 18.5673C24.2862 18.583 24.5107 18.6007 24.7466 18.6203L32.4288 13.4613C31.5645 11.8221 30.3851 10.3741 28.9709 9.1982ZM33.2294 15.2837L27.8041 18.927C29.8433 19.167 32.1214 19.5098 34.0408 19.9736C34.0378 18.3273 33.7518 16.749 33.2294 15.2837ZM28.5927 20.9992C27.2762 20.827 26.0011 20.6954 24.9218 20.6014C24.3787 20.5541 23.8897 20.5168 23.4755 20.4888C23.1342 20.4657 22.7997 20.4491 22.472 20.4386C21.9209 20.421 21.3889 20.4206 20.8756 20.4361C20.5995 20.4444 20.3288 20.4573 20.0634 20.4745C19.8605 20.4877 19.6607 20.5034 19.464 20.5215C19.0239 20.562 18.599 20.6147 18.1887 20.6783L18.0386 19.7102L18.1887 20.6783C18.0141 20.7054 17.8421 20.7344 17.6728 20.7654C17.2216 20.8479 16.7889 20.9438 16.3741 21.0516C16.0005 21.1487 15.6457 21.2552 15.3087 21.3698C10.4797 23.0128 9.10587 26.4129 8.61876 28.2245C11.1712 31.7502 15.3183 34.0408 20 34.0408C21.4225 34.0408 22.7944 33.8296 24.0866 33.4371C22.7355 32.1237 21.8493 30.7739 21.4527 29.4218C20.9312 27.644 21.287 25.9563 22.3674 24.548C23.4208 23.1749 25.1205 22.1153 27.2385 21.3976C27.6701 21.2514 28.1219 21.1183 28.5927 20.9992ZM26.1197 32.6408C24.5174 31.2659 23.6579 29.9792 23.3327 28.8704C22.9926 27.711 23.2101 26.6682 23.9219 25.7405C24.6606 24.7775 25.9718 23.8954 27.8673 23.2532C29.4999 22.7 31.5179 22.3418 33.8611 22.2529C33.1221 26.8363 30.163 30.6796 26.1197 32.6408ZM7.31363 26.0249C8.13144 24.1283 9.74168 21.7583 13.0383 20.1806L6.74186 15.3652C6.23498 16.8153 5.95918 18.3746 5.95918 20C5.95918 22.1574 6.44518 24.1997 7.31363 26.0249ZM7.54436 13.5125L15.181 19.3528C15.4087 19.2834 15.6421 19.2176 15.8814 19.1554C15.9367 19.141 15.9921 19.1269 16.0479 19.1129L11.0162 9.20896C9.59307 10.3951 8.40837 11.8573 7.54436 13.5125ZM10.7914 6.91405C13.3956 5.07831 16.5733 4 20 4C23.4255 4 26.6022 5.07759 29.206 6.9122C31.5252 8.54639 33.3909 10.7818 34.5763 13.3933C35.4911 15.4085 36 17.6461 36 20C36 20.443 35.982 20.8819 35.9466 21.3162L35.9453 21.3323C35.45 27.3355 31.6429 32.3955 26.3587 34.6863C24.4085 35.5318 22.2576 36 20 36C14.4865 36 9.62485 33.2104 6.74915 28.9701C5.01384 26.4114 4 23.3226 4 20C4 17.6486 4.50788 15.4131 5.42086 13.3995C6.6057 10.7863 8.47153 8.54937 10.7914 6.91405Z" fill="white"/>
<defs>
<linearGradient id="paint0_linear_1453_876" x1="0" y1="20" x2="40" y2="20" gradientUnits="userSpaceOnUse">
<stop stop-color="#0085FF"/>
<stop offset="1" stop-color="#B440FC"/>
</linearGradient>
</defs>
</svg>
