<svg width="242" height="40" viewBox="0 0 242 40" fill="none" xmlns="http://www.w3.org/2000/svg">
<path fill-rule="evenodd" clip-rule="evenodd" d="M10.781 5.06214L17.5563 18.3982C17.9539 18.3395 18.3603 18.2884 18.7755 18.2455V2.49099C15.8555 2.69205 13.1337 3.60679 10.781 5.06214ZM21.2245 2.49099V18.0918C21.6082 18.0826 21.9986 18.0799 22.3958 18.0841L29.2051 5.05354C26.8555 3.60319 24.1387 2.69165 21.2245 2.49099ZM31.2136 6.49775L25.0937 18.2091C25.3577 18.2288 25.6384 18.2508 25.9333 18.2753L35.536 11.8266C34.4557 9.77767 32.9813 7.96759 31.2136 6.49775ZM36.5367 14.1046L29.7551 18.6587C32.3041 18.9588 35.1518 19.3872 37.551 19.967C37.5472 17.9091 37.1897 15.9362 36.5367 14.1046ZM30.7408 21.2489C29.0952 21.0338 27.5014 20.8692 26.1523 20.7518C25.4734 20.6927 24.8621 20.646 24.3444 20.611C23.9177 20.5821 23.4997 20.5614 23.0901 20.5483C22.4011 20.5262 21.7362 20.5258 21.0944 20.5451C20.7494 20.5555 20.411 20.5716 20.0793 20.5932C19.8257 20.6096 19.5759 20.6292 19.33 20.6519C18.7799 20.7025 18.2487 20.7683 17.7359 20.8478L17.5483 19.6378L17.7359 20.8478C17.5176 20.8817 17.3027 20.918 17.091 20.9567C16.527 21.0598 15.9861 21.1798 15.4676 21.3145C15.0006 21.4358 14.5571 21.569 14.1359 21.7123C8.09959 23.766 6.38234 28.0161 5.77345 30.2806C8.96401 34.6878 14.1478 37.551 20 37.551C21.7781 37.551 23.493 37.287 25.1083 36.7964C23.4194 35.1546 22.3116 33.4674 21.8159 31.7773C21.164 29.555 21.6088 27.4454 22.9593 25.685C24.276 23.9687 26.4006 22.6441 29.0482 21.747C29.5877 21.5642 30.1523 21.3979 30.7408 21.2489ZM27.6496 35.801C25.6468 34.0824 24.5724 32.4739 24.1659 31.088C23.7407 29.6387 24.0127 28.3353 24.9023 27.1757C25.8258 25.9719 27.4648 24.8693 29.8341 24.0665C31.8748 23.375 34.3974 22.9272 37.3264 22.8162C36.4026 28.5453 32.7037 33.3495 27.6496 35.801ZM4.14203 27.5311C5.1643 25.1603 7.1771 22.1978 11.2979 20.2258L3.42733 14.2065C2.79372 16.0191 2.44898 17.9683 2.44898 20C2.44898 22.6968 3.05648 25.2497 4.14203 27.5311ZM4.43044 11.8906L13.9763 19.1911C14.2609 19.1043 14.5526 19.022 14.8518 18.9442C14.9208 18.9263 14.9902 18.9086 15.0598 18.8912L8.77025 6.5112C6.99133 7.99392 5.51046 9.82158 4.43044 11.8906ZM8.48928 3.64256C11.7445 1.34789 15.7167 0 20 0C24.2819 0 28.2528 1.34698 31.5075 3.64025C34.4065 5.68299 36.7386 8.47724 38.2204 11.7416C39.3638 14.2606 40 17.0577 40 20C40 20.5537 39.9775 21.1024 39.9332 21.6452L39.9316 21.6654C39.3125 29.1694 34.5536 35.4944 27.9484 38.3579C25.5106 39.4148 22.822 40 20 40C13.1081 40 7.03107 36.513 3.43644 31.2126C1.2673 28.0142 0 24.1532 0 20C0 17.0607 0.63485 14.2663 1.77608 11.7494C3.25712 8.48291 5.58941 5.68672 8.48928 3.64256Z" fill="url(#paint0_linear_1453_795)"/>
<path d="M58.128 30.288C56.848 30.288 55.664 30.064 54.576 29.616C53.488 29.152 52.544 28.504 51.744 27.672C50.944 26.84 50.32 25.864 49.872 24.744C49.424 23.608 49.2 22.376 49.2 21.048C49.2 19.72 49.424 18.496 49.872 17.376C50.32 16.24 50.944 15.264 51.744 14.448C52.544 13.616 53.488 12.976 54.576 12.528C55.664 12.064 56.848 11.832 58.128 11.832C59.408 11.832 60.552 12.048 61.56 12.48C62.584 12.912 63.448 13.488 64.152 14.208C64.856 14.912 65.36 15.688 65.664 16.536L62.736 17.904C62.384 17.008 61.808 16.272 61.008 15.696C60.224 15.104 59.264 14.808 58.128 14.808C57.008 14.808 56.024 15.072 55.176 15.6C54.328 16.112 53.664 16.84 53.184 17.784C52.704 18.712 52.464 19.8 52.464 21.048C52.464 22.296 52.704 23.392 53.184 24.336C53.664 25.264 54.328 25.992 55.176 26.52C56.024 27.048 57.008 27.312 58.128 27.312C59.264 27.312 60.224 27.024 61.008 26.448C61.808 25.856 62.384 25.112 62.736 24.216L65.664 25.584C65.36 26.432 64.856 27.216 64.152 27.936C63.448 28.64 62.584 29.208 61.56 29.64C60.552 30.072 59.408 30.288 58.128 30.288ZM71.7756 30.288C70.4156 30.288 69.3276 29.952 68.5116 29.28C67.6956 28.608 67.2876 27.696 67.2876 26.544C67.2876 25.456 67.6556 24.552 68.3916 23.832C69.1276 23.112 70.2636 22.624 71.7996 22.368L75.6876 21.744V21.312C75.6876 20.752 75.4636 20.288 75.0156 19.92C74.5836 19.536 74.0076 19.344 73.2876 19.344C72.5996 19.344 71.9996 19.528 71.4876 19.896C70.9756 20.248 70.5996 20.72 70.3596 21.312L67.7916 20.064C68.1756 19.04 68.8796 18.216 69.9036 17.592C70.9276 16.968 72.0956 16.656 73.4076 16.656C74.4796 16.656 75.4156 16.856 76.2156 17.256C77.0316 17.64 77.6716 18.184 78.1356 18.888C78.5996 19.592 78.8316 20.4 78.8316 21.312V30H75.8556V28.608C74.8316 29.728 73.4716 30.288 71.7756 30.288ZM70.5516 26.424C70.5516 26.872 70.7196 27.232 71.0556 27.504C71.3916 27.76 71.8236 27.888 72.3516 27.888C73.3436 27.888 74.1436 27.576 74.7516 26.952C75.3756 26.328 75.6876 25.568 75.6876 24.672V24.144L72.3996 24.696C71.1676 24.936 70.5516 25.512 70.5516 26.424ZM81.7374 30V16.944H84.6894V18.576C85.0254 17.936 85.5134 17.456 86.1534 17.136C86.7934 16.816 87.5214 16.656 88.3374 16.656C89.2174 16.656 90.0094 16.848 90.7134 17.232C91.4334 17.616 91.9854 18.128 92.3694 18.768C92.8174 18.064 93.3854 17.536 94.0734 17.184C94.7774 16.832 95.5614 16.656 96.4254 16.656C97.3534 16.656 98.1774 16.864 98.8974 17.28C99.6174 17.696 100.185 18.28 100.601 19.032C101.033 19.768 101.249 20.624 101.249 21.6V30H98.1054V22.344C98.1054 21.48 97.8734 20.8 97.4094 20.304C96.9614 19.792 96.3534 19.536 95.5854 19.536C94.8334 19.536 94.2254 19.792 93.7614 20.304C93.2974 20.816 93.0654 21.496 93.0654 22.344V30H89.9214V22.344C89.9214 21.48 89.6894 20.8 89.2254 20.304C88.7774 19.792 88.1694 19.536 87.4014 19.536C86.6494 19.536 86.0414 19.792 85.5774 20.304C85.1134 20.816 84.8814 21.496 84.8814 22.344V30H81.7374ZM103.909 15.48V12.12H107.053V15.48H103.909ZM103.909 30V16.944H107.053V30H103.909ZM109.956 30V16.944H112.908V18.552C113.26 17.928 113.756 17.456 114.396 17.136C115.052 16.816 115.788 16.656 116.604 16.656C117.564 16.656 118.412 16.864 119.148 17.28C119.9 17.696 120.484 18.28 120.9 19.032C121.316 19.768 121.524 20.624 121.524 21.6V30H118.38V22.344C118.38 21.48 118.132 20.8 117.636 20.304C117.156 19.792 116.524 19.536 115.74 19.536C114.956 19.536 114.316 19.792 113.82 20.304C113.34 20.816 113.1 21.496 113.1 22.344V30H109.956ZM130.567 30.288C129.287 30.288 128.119 29.992 127.063 29.4C126.023 28.808 125.191 28 124.567 26.976C123.959 25.952 123.655 24.784 123.655 23.472C123.655 22.16 123.959 20.992 124.567 19.968C125.191 18.944 126.023 18.136 127.063 17.544C128.103 16.952 129.271 16.656 130.567 16.656C131.847 16.656 133.007 16.952 134.047 17.544C135.087 18.136 135.911 18.944 136.519 19.968C137.143 20.992 137.455 22.16 137.455 23.472C137.455 24.784 137.143 25.96 136.519 27C135.895 28.024 135.063 28.832 134.023 29.424C132.983 30 131.831 30.288 130.567 30.288ZM130.567 27.408C131.271 27.408 131.887 27.24 132.415 26.904C132.959 26.568 133.383 26.104 133.687 25.512C134.007 24.904 134.167 24.224 134.167 23.472C134.167 22.72 134.007 22.048 133.687 21.456C133.383 20.864 132.959 20.4 132.415 20.064C131.887 19.712 131.271 19.536 130.567 19.536C129.863 19.536 129.231 19.712 128.671 20.064C128.127 20.4 127.695 20.864 127.375 21.456C127.071 22.048 126.919 22.72 126.919 23.472C126.919 24.224 127.071 24.904 127.375 25.512C127.695 26.104 128.127 26.568 128.671 26.904C129.231 27.24 129.863 27.408 130.567 27.408Z" fill="#F8FAFC"/>
<path d="M149.256 30V12.12H160.536V13.56H150.816V20.304H160.056V21.744H150.816V28.56H160.536V30H149.256ZM162.127 30L166.615 23.616L162.151 17.256H163.951L167.503 22.368L171.055 17.256H172.855L168.391 23.616L172.855 30H171.055L167.503 24.864L163.927 30H162.127ZM175.265 34.8V17.256H176.705V19.608C177.217 18.792 177.897 18.152 178.745 17.688C179.609 17.208 180.577 16.968 181.649 16.968C182.849 16.968 183.921 17.264 184.865 17.856C185.809 18.432 186.553 19.224 187.097 20.232C187.641 21.224 187.913 22.352 187.913 23.616C187.913 24.88 187.641 26.016 187.097 27.024C186.553 28.032 185.809 28.832 184.865 29.424C183.921 30 182.849 30.288 181.649 30.288C180.577 30.288 179.601 30.048 178.721 29.568C177.857 29.072 177.185 28.408 176.705 27.576V34.8H175.265ZM181.601 28.848C182.529 28.848 183.345 28.624 184.049 28.176C184.769 27.712 185.337 27.088 185.753 26.304C186.169 25.504 186.377 24.608 186.377 23.616C186.377 22.624 186.169 21.736 185.753 20.952C185.337 20.168 184.769 19.552 184.049 19.104C183.329 18.64 182.513 18.408 181.601 18.408C180.689 18.408 179.865 18.64 179.129 19.104C178.393 19.552 177.809 20.168 177.377 20.952C176.945 21.736 176.729 22.624 176.729 23.616C176.729 24.608 176.945 25.504 177.377 26.304C177.809 27.088 178.393 27.712 179.129 28.176C179.865 28.624 180.689 28.848 181.601 28.848ZM191.367 30V11.832H192.807V30H191.367ZM202.686 30.288C201.47 30.288 200.374 30 199.398 29.424C198.422 28.832 197.646 28.032 197.07 27.024C196.51 26.016 196.23 24.88 196.23 23.616C196.23 22.336 196.51 21.2 197.07 20.208C197.63 19.2 198.398 18.408 199.374 17.832C200.35 17.256 201.454 16.968 202.686 16.968C203.918 16.968 205.014 17.256 205.974 17.832C206.95 18.408 207.718 19.2 208.278 20.208C208.838 21.2 209.118 22.336 209.118 23.616C209.118 24.896 208.83 26.04 208.254 27.048C207.694 28.056 206.926 28.848 205.95 29.424C204.974 30 203.886 30.288 202.686 30.288ZM202.686 28.872C203.598 28.872 204.422 28.64 205.158 28.176C205.91 27.712 206.502 27.088 206.934 26.304C207.366 25.504 207.582 24.608 207.582 23.616C207.582 22.624 207.366 21.736 206.934 20.952C206.502 20.152 205.918 19.528 205.182 19.08C204.446 18.616 203.614 18.384 202.686 18.384C201.758 18.384 200.918 18.616 200.166 19.08C199.43 19.528 198.846 20.152 198.414 20.952C197.982 21.736 197.766 22.624 197.766 23.616C197.766 24.608 197.982 25.504 198.414 26.304C198.862 27.088 199.454 27.712 200.19 28.176C200.942 28.64 201.774 28.872 202.686 28.872ZM212.578 30V17.256H214.018V18.864C214.354 18.304 214.826 17.872 215.434 17.568C216.042 17.248 216.738 17.088 217.522 17.088H218.338V18.528H217.354C216.33 18.528 215.514 18.864 214.906 19.536C214.314 20.192 214.018 21.08 214.018 22.2V30H212.578ZM226.543 30.288C225.343 30.288 224.263 30 223.303 29.424C222.343 28.832 221.583 28.032 221.023 27.024C220.463 26 220.183 24.856 220.183 23.592C220.183 22.328 220.455 21.2 220.999 20.208C221.543 19.2 222.279 18.408 223.207 17.832C224.135 17.256 225.175 16.968 226.327 16.968C227.495 16.968 228.519 17.248 229.399 17.808C230.279 18.368 230.959 19.104 231.439 20.016C231.935 20.928 232.183 21.928 232.183 23.016C232.183 23.176 232.175 23.344 232.159 23.52C232.143 23.696 232.119 23.88 232.087 24.072H221.671C221.703 25.032 221.943 25.88 222.391 26.616C222.839 27.352 223.423 27.928 224.143 28.344C224.879 28.744 225.679 28.944 226.543 28.944C227.471 28.944 228.279 28.728 228.967 28.296C229.655 27.848 230.215 27.256 230.647 26.52L231.871 27.168C231.439 28.064 230.751 28.808 229.807 29.4C228.863 29.992 227.775 30.288 226.543 30.288ZM226.327 18.312C225.543 18.312 224.815 18.504 224.143 18.888C223.471 19.256 222.919 19.776 222.487 20.448C222.055 21.104 221.791 21.872 221.695 22.752H230.647C230.663 21.92 230.479 21.168 230.095 20.496C229.711 19.824 229.191 19.296 228.535 18.912C227.879 18.512 227.143 18.312 226.327 18.312ZM235.617 30V17.256H237.057V18.864C237.393 18.304 237.865 17.872 238.473 17.568C239.081 17.248 239.777 17.088 240.561 17.088H241.377V18.528H240.393C239.369 18.528 238.553 18.864 237.945 19.536C237.353 20.192 237.057 21.08 237.057 22.2V30H235.617Z" fill="#B3DAFF"/>
<defs>
<linearGradient id="paint0_linear_1453_795" x1="0" y1="20" x2="40" y2="20" gradientUnits="userSpaceOnUse">
<stop stop-color="#0085FF"/>
<stop offset="1" stop-color="#B440FC"/>
</linearGradient>
</defs>
</svg>
