<svg width="274" height="40" viewBox="0 0 274 40" fill="none" xmlns="http://www.w3.org/2000/svg">
<path fill-rule="evenodd" clip-rule="evenodd" d="M10.781 5.06214L17.5563 18.3982C17.9539 18.3395 18.3603 18.2884 18.7755 18.2455V2.49099C15.8555 2.69205 13.1337 3.60679 10.781 5.06214ZM21.2245 2.49099V18.0918C21.6082 18.0826 21.9986 18.0799 22.3958 18.0841L29.2051 5.05354C26.8555 3.60319 24.1387 2.69165 21.2245 2.49099ZM31.2136 6.49775L25.0937 18.2091C25.3577 18.2288 25.6384 18.2508 25.9333 18.2753L35.536 11.8266C34.4557 9.77767 32.9813 7.96759 31.2136 6.49775ZM36.5367 14.1046L29.7551 18.6587C32.3041 18.9588 35.1518 19.3872 37.551 19.967C37.5472 17.9091 37.1897 15.9362 36.5367 14.1046ZM30.7408 21.2489C29.0952 21.0338 27.5014 20.8692 26.1523 20.7518C25.4734 20.6927 24.8621 20.646 24.3444 20.611C23.9177 20.5821 23.4997 20.5614 23.0901 20.5483C22.4011 20.5262 21.7362 20.5258 21.0944 20.5451C20.7494 20.5555 20.411 20.5716 20.0793 20.5932C19.8257 20.6096 19.5759 20.6292 19.33 20.6519C18.7799 20.7025 18.2487 20.7683 17.7359 20.8478L17.5483 19.6378L17.7359 20.8478C17.5176 20.8817 17.3027 20.918 17.091 20.9567C16.527 21.0598 15.9861 21.1798 15.4676 21.3145C15.0006 21.4358 14.5571 21.569 14.1359 21.7123C8.09959 23.766 6.38234 28.0161 5.77345 30.2806C8.96401 34.6878 14.1478 37.551 20 37.551C21.7781 37.551 23.493 37.287 25.1083 36.7964C23.4194 35.1546 22.3116 33.4674 21.8159 31.7773C21.164 29.555 21.6088 27.4454 22.9593 25.685C24.276 23.9687 26.4006 22.6441 29.0482 21.747C29.5877 21.5642 30.1523 21.3979 30.7408 21.2489ZM27.6496 35.801C25.6468 34.0824 24.5724 32.4739 24.1659 31.088C23.7407 29.6387 24.0127 28.3353 24.9023 27.1757C25.8258 25.9719 27.4648 24.8693 29.8341 24.0665C31.8748 23.375 34.3974 22.9272 37.3264 22.8162C36.4026 28.5453 32.7037 33.3495 27.6496 35.801ZM4.14203 27.5311C5.1643 25.1603 7.1771 22.1978 11.2979 20.2258L3.42733 14.2065C2.79372 16.0191 2.44898 17.9683 2.44898 20C2.44898 22.6968 3.05648 25.2497 4.14203 27.5311ZM4.43044 11.8906L13.9763 19.1911C14.2609 19.1043 14.5526 19.022 14.8518 18.9442C14.9208 18.9263 14.9902 18.9086 15.0598 18.8912L8.77025 6.5112C6.99133 7.99392 5.51046 9.82158 4.43044 11.8906ZM8.48928 3.64256C11.7445 1.34789 15.7167 0 20 0C24.2819 0 28.2528 1.34698 31.5075 3.64025C34.4065 5.68299 36.7386 8.47724 38.2204 11.7416C39.3638 14.2606 40 17.0577 40 20C40 20.5537 39.9775 21.1024 39.9332 21.6452L39.9316 21.6654C39.3125 29.1694 34.5536 35.4944 27.9484 38.3579C25.5106 39.4148 22.822 40 20 40C13.1081 40 7.03107 36.513 3.43644 31.2126C1.2673 28.0142 0 24.1532 0 20C0 17.0607 0.63485 14.2663 1.77608 11.7494C3.25712 8.48291 5.58941 5.68672 8.48928 3.64256Z" fill="url(#paint0_linear_1453_800)"/>
<path d="M58.128 30.288C56.848 30.288 55.664 30.064 54.576 29.616C53.488 29.152 52.544 28.504 51.744 27.672C50.944 26.84 50.32 25.864 49.872 24.744C49.424 23.608 49.2 22.376 49.2 21.048C49.2 19.72 49.424 18.496 49.872 17.376C50.32 16.24 50.944 15.264 51.744 14.448C52.544 13.616 53.488 12.976 54.576 12.528C55.664 12.064 56.848 11.832 58.128 11.832C59.408 11.832 60.552 12.048 61.56 12.48C62.584 12.912 63.448 13.488 64.152 14.208C64.856 14.912 65.36 15.688 65.664 16.536L62.736 17.904C62.384 17.008 61.808 16.272 61.008 15.696C60.224 15.104 59.264 14.808 58.128 14.808C57.008 14.808 56.024 15.072 55.176 15.6C54.328 16.112 53.664 16.84 53.184 17.784C52.704 18.712 52.464 19.8 52.464 21.048C52.464 22.296 52.704 23.392 53.184 24.336C53.664 25.264 54.328 25.992 55.176 26.52C56.024 27.048 57.008 27.312 58.128 27.312C59.264 27.312 60.224 27.024 61.008 26.448C61.808 25.856 62.384 25.112 62.736 24.216L65.664 25.584C65.36 26.432 64.856 27.216 64.152 27.936C63.448 28.64 62.584 29.208 61.56 29.64C60.552 30.072 59.408 30.288 58.128 30.288ZM71.7756 30.288C70.4156 30.288 69.3276 29.952 68.5116 29.28C67.6956 28.608 67.2876 27.696 67.2876 26.544C67.2876 25.456 67.6556 24.552 68.3916 23.832C69.1276 23.112 70.2636 22.624 71.7996 22.368L75.6876 21.744V21.312C75.6876 20.752 75.4636 20.288 75.0156 19.92C74.5836 19.536 74.0076 19.344 73.2876 19.344C72.5996 19.344 71.9996 19.528 71.4876 19.896C70.9756 20.248 70.5996 20.72 70.3596 21.312L67.7916 20.064C68.1756 19.04 68.8796 18.216 69.9036 17.592C70.9276 16.968 72.0956 16.656 73.4076 16.656C74.4796 16.656 75.4156 16.856 76.2156 17.256C77.0316 17.64 77.6716 18.184 78.1356 18.888C78.5996 19.592 78.8316 20.4 78.8316 21.312V30H75.8556V28.608C74.8316 29.728 73.4716 30.288 71.7756 30.288ZM70.5516 26.424C70.5516 26.872 70.7196 27.232 71.0556 27.504C71.3916 27.76 71.8236 27.888 72.3516 27.888C73.3436 27.888 74.1436 27.576 74.7516 26.952C75.3756 26.328 75.6876 25.568 75.6876 24.672V24.144L72.3996 24.696C71.1676 24.936 70.5516 25.512 70.5516 26.424ZM81.7374 30V16.944H84.6894V18.576C85.0254 17.936 85.5134 17.456 86.1534 17.136C86.7934 16.816 87.5214 16.656 88.3374 16.656C89.2174 16.656 90.0094 16.848 90.7134 17.232C91.4334 17.616 91.9854 18.128 92.3694 18.768C92.8174 18.064 93.3854 17.536 94.0734 17.184C94.7774 16.832 95.5614 16.656 96.4254 16.656C97.3534 16.656 98.1774 16.864 98.8974 17.28C99.6174 17.696 100.185 18.28 100.601 19.032C101.033 19.768 101.249 20.624 101.249 21.6V30H98.1054V22.344C98.1054 21.48 97.8734 20.8 97.4094 20.304C96.9614 19.792 96.3534 19.536 95.5854 19.536C94.8334 19.536 94.2254 19.792 93.7614 20.304C93.2974 20.816 93.0654 21.496 93.0654 22.344V30H89.9214V22.344C89.9214 21.48 89.6894 20.8 89.2254 20.304C88.7774 19.792 88.1694 19.536 87.4014 19.536C86.6494 19.536 86.0414 19.792 85.5774 20.304C85.1134 20.816 84.8814 21.496 84.8814 22.344V30H81.7374ZM103.909 15.48V12.12H107.053V15.48H103.909ZM103.909 30V16.944H107.053V30H103.909ZM109.956 30V16.944H112.908V18.552C113.26 17.928 113.756 17.456 114.396 17.136C115.052 16.816 115.788 16.656 116.604 16.656C117.564 16.656 118.412 16.864 119.148 17.28C119.9 17.696 120.484 18.28 120.9 19.032C121.316 19.768 121.524 20.624 121.524 21.6V30H118.38V22.344C118.38 21.48 118.132 20.8 117.636 20.304C117.156 19.792 116.524 19.536 115.74 19.536C114.956 19.536 114.316 19.792 113.82 20.304C113.34 20.816 113.1 21.496 113.1 22.344V30H109.956ZM130.567 30.288C129.287 30.288 128.119 29.992 127.063 29.4C126.023 28.808 125.191 28 124.567 26.976C123.959 25.952 123.655 24.784 123.655 23.472C123.655 22.16 123.959 20.992 124.567 19.968C125.191 18.944 126.023 18.136 127.063 17.544C128.103 16.952 129.271 16.656 130.567 16.656C131.847 16.656 133.007 16.952 134.047 17.544C135.087 18.136 135.911 18.944 136.519 19.968C137.143 20.992 137.455 22.16 137.455 23.472C137.455 24.784 137.143 25.96 136.519 27C135.895 28.024 135.063 28.832 134.023 29.424C132.983 30 131.831 30.288 130.567 30.288ZM130.567 27.408C131.271 27.408 131.887 27.24 132.415 26.904C132.959 26.568 133.383 26.104 133.687 25.512C134.007 24.904 134.167 24.224 134.167 23.472C134.167 22.72 134.007 22.048 133.687 21.456C133.383 20.864 132.959 20.4 132.415 20.064C131.887 19.712 131.271 19.536 130.567 19.536C129.863 19.536 129.231 19.712 128.671 20.064C128.127 20.4 127.695 20.864 127.375 21.456C127.071 22.048 126.919 22.72 126.919 23.472C126.919 24.224 127.071 24.904 127.375 25.512C127.695 26.104 128.127 26.568 128.671 26.904C129.231 27.24 129.863 27.408 130.567 27.408Z" fill="#0F172A"/>
<path d="M149.256 30V12.12H150.576L156.936 21.576L163.296 12.12H164.616V30H163.056V15.192L156.96 24.288H156.888L150.816 15.216V30H149.256ZM174.676 30.288C173.476 30.288 172.396 30 171.436 29.424C170.476 28.832 169.716 28.032 169.156 27.024C168.596 26 168.316 24.856 168.316 23.592C168.316 22.328 168.588 21.2 169.132 20.208C169.676 19.2 170.412 18.408 171.34 17.832C172.268 17.256 173.308 16.968 174.46 16.968C175.628 16.968 176.652 17.248 177.532 17.808C178.412 18.368 179.092 19.104 179.572 20.016C180.068 20.928 180.316 21.928 180.316 23.016C180.316 23.176 180.308 23.344 180.292 23.52C180.276 23.696 180.252 23.88 180.22 24.072H169.804C169.836 25.032 170.076 25.88 170.524 26.616C170.972 27.352 171.556 27.928 172.276 28.344C173.012 28.744 173.812 28.944 174.676 28.944C175.604 28.944 176.412 28.728 177.1 28.296C177.788 27.848 178.348 27.256 178.78 26.52L180.004 27.168C179.572 28.064 178.884 28.808 177.94 29.4C176.996 29.992 175.908 30.288 174.676 30.288ZM174.46 18.312C173.676 18.312 172.948 18.504 172.276 18.888C171.604 19.256 171.052 19.776 170.62 20.448C170.188 21.104 169.924 21.872 169.828 22.752H178.78C178.796 21.92 178.612 21.168 178.228 20.496C177.844 19.824 177.324 19.296 176.668 18.912C176.012 18.512 175.276 18.312 174.46 18.312ZM188.046 30.288C186.878 30.288 185.838 29.992 184.926 29.4C184.03 28.808 183.374 28 182.958 26.976L184.206 26.4C184.606 27.184 185.142 27.808 185.814 28.272C186.486 28.72 187.23 28.944 188.046 28.944C188.878 28.944 189.574 28.744 190.134 28.344C190.71 27.928 190.998 27.384 190.998 26.712C190.998 26.088 190.766 25.608 190.302 25.272C189.838 24.936 189.326 24.688 188.766 24.528L186.798 23.976C185.694 23.656 184.878 23.208 184.35 22.632C183.838 22.04 183.582 21.344 183.582 20.544C183.582 19.824 183.766 19.2 184.134 18.672C184.502 18.128 184.998 17.712 185.622 17.424C186.246 17.12 186.934 16.968 187.686 16.968C188.742 16.968 189.702 17.24 190.566 17.784C191.43 18.328 192.038 19.064 192.39 19.992L191.094 20.592C190.758 19.872 190.286 19.312 189.678 18.912C189.07 18.496 188.398 18.288 187.662 18.288C186.894 18.288 186.27 18.496 185.79 18.912C185.31 19.312 185.07 19.824 185.07 20.448C185.07 21.04 185.278 21.496 185.694 21.816C186.11 22.12 186.574 22.344 187.086 22.488L189.222 23.112C190.262 23.4 191.062 23.856 191.622 24.48C192.198 25.104 192.486 25.84 192.486 26.688C192.486 27.376 192.294 27.992 191.91 28.536C191.526 29.08 190.998 29.512 190.326 29.832C189.654 30.136 188.894 30.288 188.046 30.288ZM200.233 30.288C199.065 30.288 198.025 29.992 197.113 29.4C196.217 28.808 195.561 28 195.145 26.976L196.393 26.4C196.793 27.184 197.329 27.808 198.001 28.272C198.673 28.72 199.417 28.944 200.233 28.944C201.065 28.944 201.761 28.744 202.321 28.344C202.897 27.928 203.185 27.384 203.185 26.712C203.185 26.088 202.953 25.608 202.489 25.272C202.025 24.936 201.513 24.688 200.953 24.528L198.985 23.976C197.881 23.656 197.065 23.208 196.537 22.632C196.025 22.04 195.769 21.344 195.769 20.544C195.769 19.824 195.953 19.2 196.321 18.672C196.689 18.128 197.185 17.712 197.809 17.424C198.433 17.12 199.121 16.968 199.873 16.968C200.929 16.968 201.889 17.24 202.753 17.784C203.617 18.328 204.225 19.064 204.577 19.992L203.281 20.592C202.945 19.872 202.473 19.312 201.865 18.912C201.257 18.496 200.585 18.288 199.849 18.288C199.081 18.288 198.457 18.496 197.977 18.912C197.497 19.312 197.257 19.824 197.257 20.448C197.257 21.04 197.465 21.496 197.881 21.816C198.297 22.12 198.761 22.344 199.273 22.488L201.409 23.112C202.449 23.4 203.249 23.856 203.809 24.48C204.385 25.104 204.673 25.84 204.673 26.688C204.673 27.376 204.481 27.992 204.097 28.536C203.713 29.08 203.185 29.512 202.513 29.832C201.841 30.136 201.081 30.288 200.233 30.288ZM213.957 30.288C212.757 30.288 211.677 30 210.717 29.424C209.757 28.832 208.997 28.032 208.437 27.024C207.877 26 207.597 24.856 207.597 23.592C207.597 22.328 207.869 21.2 208.413 20.208C208.957 19.2 209.693 18.408 210.621 17.832C211.549 17.256 212.589 16.968 213.741 16.968C214.909 16.968 215.933 17.248 216.813 17.808C217.693 18.368 218.373 19.104 218.853 20.016C219.349 20.928 219.597 21.928 219.597 23.016C219.597 23.176 219.589 23.344 219.573 23.52C219.557 23.696 219.533 23.88 219.501 24.072H209.085C209.117 25.032 209.357 25.88 209.805 26.616C210.253 27.352 210.837 27.928 211.557 28.344C212.293 28.744 213.093 28.944 213.957 28.944C214.885 28.944 215.693 28.728 216.381 28.296C217.069 27.848 217.629 27.256 218.061 26.52L219.285 27.168C218.853 28.064 218.165 28.808 217.221 29.4C216.277 29.992 215.189 30.288 213.957 30.288ZM213.741 18.312C212.957 18.312 212.229 18.504 211.557 18.888C210.885 19.256 210.333 19.776 209.901 20.448C209.469 21.104 209.205 21.872 209.109 22.752H218.061C218.077 21.92 217.893 21.168 217.509 20.496C217.125 19.824 216.605 19.296 215.949 18.912C215.293 18.512 214.557 18.312 213.741 18.312ZM223.031 30V17.256H224.471V18.96C224.839 18.336 225.359 17.848 226.031 17.496C226.703 17.144 227.447 16.968 228.263 16.968C229.143 16.968 229.943 17.168 230.663 17.568C231.383 17.968 231.959 18.52 232.391 19.224C232.823 19.928 233.039 20.744 233.039 21.672V30H231.599V22.08C231.599 20.928 231.263 20.024 230.591 19.368C229.919 18.712 229.071 18.384 228.047 18.384C226.959 18.384 226.087 18.752 225.431 19.488C224.791 20.224 224.471 21.168 224.471 22.32V30H223.031ZM242.717 35.28C241.453 35.28 240.333 34.984 239.357 34.392C238.397 33.816 237.693 33.08 237.245 32.184L238.541 31.488C238.909 32.176 239.445 32.744 240.149 33.192C240.869 33.64 241.717 33.864 242.693 33.864C243.477 33.864 244.213 33.704 244.901 33.384C245.605 33.064 246.173 32.584 246.605 31.944C247.053 31.304 247.277 30.496 247.277 29.52V27.12C246.781 27.952 246.109 28.608 245.261 29.088C244.413 29.568 243.477 29.808 242.453 29.808C241.253 29.808 240.181 29.52 239.237 28.944C238.309 28.368 237.573 27.592 237.029 26.616C236.501 25.64 236.237 24.56 236.237 23.376C236.237 22.192 236.501 21.12 237.029 20.16C237.573 19.184 238.309 18.408 239.237 17.832C240.181 17.256 241.253 16.968 242.453 16.968C243.493 16.968 244.429 17.2 245.261 17.664C246.093 18.128 246.765 18.76 247.277 19.56V17.256H248.717V29.52C248.717 30.624 248.461 31.608 247.949 32.472C247.437 33.352 246.725 34.04 245.813 34.536C244.917 35.032 243.885 35.28 242.717 35.28ZM242.501 28.368C243.397 28.368 244.197 28.144 244.901 27.696C245.621 27.248 246.189 26.648 246.605 25.896C247.021 25.128 247.229 24.288 247.229 23.376C247.229 22.464 247.021 21.632 246.605 20.88C246.189 20.128 245.621 19.528 244.901 19.08C244.197 18.632 243.397 18.408 242.501 18.408C241.589 18.408 240.773 18.632 240.053 19.08C239.349 19.528 238.789 20.128 238.373 20.88C237.973 21.632 237.773 22.464 237.773 23.376C237.773 24.288 237.973 25.128 238.373 25.896C238.789 26.648 239.349 27.248 240.053 27.696C240.773 28.144 241.589 28.368 242.501 28.368ZM258.512 30.288C257.312 30.288 256.232 30 255.272 29.424C254.312 28.832 253.552 28.032 252.992 27.024C252.432 26 252.152 24.856 252.152 23.592C252.152 22.328 252.424 21.2 252.968 20.208C253.512 19.2 254.248 18.408 255.176 17.832C256.104 17.256 257.144 16.968 258.296 16.968C259.464 16.968 260.488 17.248 261.368 17.808C262.248 18.368 262.928 19.104 263.408 20.016C263.904 20.928 264.152 21.928 264.152 23.016C264.152 23.176 264.144 23.344 264.128 23.52C264.112 23.696 264.088 23.88 264.056 24.072H253.64C253.672 25.032 253.912 25.88 254.36 26.616C254.808 27.352 255.392 27.928 256.112 28.344C256.848 28.744 257.648 28.944 258.512 28.944C259.44 28.944 260.248 28.728 260.936 28.296C261.624 27.848 262.184 27.256 262.616 26.52L263.84 27.168C263.408 28.064 262.72 28.808 261.776 29.4C260.832 29.992 259.744 30.288 258.512 30.288ZM258.296 18.312C257.512 18.312 256.784 18.504 256.112 18.888C255.44 19.256 254.888 19.776 254.456 20.448C254.024 21.104 253.76 21.872 253.664 22.752H262.616C262.632 21.92 262.448 21.168 262.064 20.496C261.68 19.824 261.16 19.296 260.504 18.912C259.848 18.512 259.112 18.312 258.296 18.312ZM267.586 30V17.256H269.026V18.864C269.362 18.304 269.834 17.872 270.442 17.568C271.05 17.248 271.746 17.088 272.53 17.088H273.346V18.528H272.362C271.338 18.528 270.522 18.864 269.914 19.536C269.322 20.192 269.026 21.08 269.026 22.2V30H267.586Z" fill="#0085FF"/>
<defs>
<linearGradient id="paint0_linear_1453_800" x1="0" y1="20" x2="40" y2="20" gradientUnits="userSpaceOnUse">
<stop stop-color="#0085FF"/>
<stop offset="1" stop-color="#B440FC"/>
</linearGradient>
</defs>
</svg>
