<?xml version="1.0" standalone="no"?>
<!DOCTYPE svg PUBLIC "-//W3C//DTD SVG 20010904//EN"
 "http://www.w3.org/TR/2001/REC-SVG-20010904/DTD/svg10.dtd">
<svg version="1.0" xmlns="http://www.w3.org/2000/svg"
 width="512.000000pt" height="512.000000pt" viewBox="0 0 512.000000 512.000000"
 preserveAspectRatio="xMidYMid meet">
<metadata>
Created by potrace 1.14, written by Peter Selinger 2001-2017
</metadata>
<g transform="translate(0.000000,512.000000) scale(0.100000,-0.100000)"
fill="#000000" stroke="none">
<path d="M2369 5116 c-2 -2 -36 -6 -74 -10 -39 -4 -81 -8 -95 -11 -31 -5 -135
-23 -174 -31 -58 -10 -243 -63 -331 -94 -346 -123 -677 -333 -942 -599 -265
-265 -463 -572 -592 -918 -38 -102 -93 -287 -105 -350 -2 -15 -9 -53 -15 -83
-29 -159 -36 -244 -35 -470 0 -113 4 -234 8 -270 5 -36 10 -72 11 -80 8 -66
32 -184 57 -280 142 -549 457 -1029 909 -1382 333 -259 758 -445 1154 -504 22
-3 51 -8 65 -10 81 -13 176 -19 345 -19 239 0 376 14 565 57 590 134 1112 469
1481 953 68 89 159 230 203 315 22 41 47 89 56 105 94 172 207 539 236 770 3
28 8 61 10 75 9 49 12 457 4 525 -18 144 -22 171 -40 261 -140 679 -529 1252
-1112 1637 -113 74 -318 184 -428 227 -142 57 -380 128 -490 146 -14 2 -38 6
-55 9 -16 3 -50 8 -75 11 -25 3 -56 8 -70 11 -28 5 -466 14 -471 9z m35 -1314
c-1 -548 -2 -1002 -3 -1008 -1 -6 -7 -11 -13 -11 -7 -1 -42 -4 -78 -8 l-65 -6
-116 228 c-191 378 -535 1055 -645 1270 l-103 202 28 20 c40 29 233 124 321
159 200 79 473 143 635 149 l40 1 -1 -996z m505 977 c52 -8 137 -25 221 -44 8
-2 69 -21 135 -43 129 -42 259 -99 392 -172 l82 -44 -76 -146 c-41 -80 -87
-167 -102 -195 -15 -27 -78 -149 -140 -270 -63 -121 -121 -233 -131 -250 -10
-16 -55 -102 -100 -190 -46 -88 -102 -196 -125 -240 -23 -44 -75 -143 -115
-220 -40 -77 -76 -144 -81 -150 -12 -13 -148 -14 -152 0 -2 9 -1 1958 2 1978
1 8 90 2 190 -14z m-1668 -726 c64 -126 205 -403 314 -618 109 -214 237 -467
285 -561 l88 -171 -59 -17 c-32 -9 -65 -16 -73 -16 -9 0 -105 69 -214 153
-110 83 -214 163 -232 177 -18 14 -66 50 -105 80 -39 30 -85 65 -101 77 -16
12 -99 75 -184 140 -85 66 -204 156 -265 202 -60 46 -114 88 -119 92 -15 14
86 182 208 344 59 80 315 345 332 345 5 0 61 -102 125 -227z m2892 105 c67
-68 133 -136 147 -153 81 -95 181 -241 238 -346 l30 -54 -336 -225 c-185 -124
-461 -309 -614 -412 -267 -179 -280 -187 -321 -183 -23 2 -47 4 -53 4 -12 1 3
33 91 196 23 44 79 152 125 240 45 88 99 192 120 230 20 39 72 138 115 220 43
83 97 186 120 230 72 136 151 288 174 333 12 23 26 42 32 42 6 0 65 -55 132
-122z m577 -946 c17 -54 33 -109 35 -123 3 -13 11 -58 19 -99 27 -139 35 -208
41 -344 l3 -78 -32 5 c-17 3 -83 17 -146 30 -63 14 -131 28 -150 31 -188 31
-344 55 -385 61 -27 3 -63 8 -80 11 -16 2 -46 6 -65 8 -61 7 -135 18 -136 20
-3 2 851 575 858 575 4 1 21 -43 38 -97z m-4190 27 c3 -3 82 -63 175 -134 94
-71 204 -155 245 -187 41 -32 145 -111 230 -175 85 -65 157 -120 160 -123 3
-3 29 -23 58 -45 28 -21 52 -42 52 -45 0 -3 -23 -16 -51 -29 -80 -38 -200
-112 -291 -181 -83 -62 -271 -245 -318 -308 -14 -19 -30 -39 -37 -46 -32 -35
-124 -187 -180 -300 l-35 -69 -29 69 c-60 141 -123 340 -144 459 -46 258 -52
517 -19 750 16 119 64 321 94 400 l10 26 37 -28 c21 -15 40 -30 43 -34z m2685
-762 c22 -3 76 -8 120 -12 82 -6 119 -10 220 -20 33 -4 83 -9 110 -11 28 -2
82 -8 120 -14 39 -5 85 -11 103 -12 17 -1 32 -5 32 -9 0 -4 -15 -11 -32 -15
-61 -13 -202 -61 -308 -104 -208 -86 -375 -189 -509 -314 -259 -243 -360 -566
-277 -883 55 -208 172 -401 369 -609 l58 -62 -48 -15 c-66 -21 -127 -35 -198
-47 -33 -5 -72 -11 -87 -14 -120 -20 -387 -26 -533 -12 -433 42 -834 204
-1181 476 -84 67 -291 269 -340 334 -16 21 -34 44 -40 50 -6 6 -18 23 -28 38
-17 26 -16 29 18 131 110 328 325 603 621 792 64 41 243 135 257 135 5 0 27 9
51 20 38 18 211 77 247 85 8 2 53 12 100 23 90 21 126 29 175 36 17 2 48 7 70
11 80 12 111 15 190 21 44 4 82 8 84 10 6 6 587 -3 636 -9z m1570 -299 c-3
-13 -12 -57 -20 -98 -31 -154 -96 -338 -181 -515 -161 -333 -448 -660 -768
-874 -81 -54 -251 -151 -265 -151 -13 0 -186 172 -243 240 -110 133 -189 282
-215 403 -20 94 -13 223 16 298 105 275 427 490 926 618 82 21 260 55 350 66
28 4 60 8 73 10 12 2 64 7 115 11 50 3 93 7 94 8 1 0 29 2 63 4 59 3 61 3 55
-20z"/>
</g>
</svg>
